<?xml version="1.0" encoding="UTF-8"?>
<!DOCTYPE svg PUBLIC "-//W3C//DTD SVG 1.1//EN" "http://www.w3.org/Graphics/SVG/1.1/DTD/svg11.dtd">
<svg width="226mm" height="127mm" viewBox="0 0 22600 12700" version="1.1" xmlns="http://www.w3.org/2000/svg" xmlns:xlink="http://www.w3.org/1999/xlink" stroke-width="28.222" stroke-linejoin="round" xml:space="preserve">
 <path fill="rgb(255,255,255)" stroke="none" d="M 11289,12650 L 50,12650 50,50 22528,50 22528,12650 11289,12650 Z"/>
 <path fill="none" stroke="rgb(0,0,0)" stroke-width="100" stroke-linejoin="round" d="M 11289,12650 L 50,12650 50,50 22528,50 22528,12650 11289,12650 Z"/>
 <path fill="none" stroke="rgb(179,179,179)" stroke-linejoin="round" d="M 11136,11757 L 2585,11757 2585,499 19687,499 19687,11757 11136,11757 Z"/>
 <path fill="none" stroke="rgb(221,221,221)" stroke-linejoin="round" d="M 3155,497 L 3155,11756"/>
 <path fill="none" stroke="rgb(221,221,221)" stroke-linejoin="round" d="M 4295,497 L 4295,11756"/>
 <path fill="none" stroke="rgb(221,221,221)" stroke-linejoin="round" d="M 5436,497 L 5436,11756"/>
 <path fill="none" stroke="rgb(221,221,221)" stroke-linejoin="round" d="M 6576,497 L 6576,11756"/>
 <path fill="none" stroke="rgb(221,221,221)" stroke-linejoin="round" d="M 7715,497 L 7715,11756"/>
 <path fill="none" stroke="rgb(221,221,221)" stroke-linejoin="round" d="M 8855,497 L 8855,11756"/>
 <path fill="none" stroke="rgb(221,221,221)" stroke-linejoin="round" d="M 9995,497 L 9995,11756"/>
 <path fill="none" stroke="rgb(221,221,221)" stroke-linejoin="round" d="M 11136,497 L 11136,11756"/>
 <path fill="none" stroke="rgb(221,221,221)" stroke-linejoin="round" d="M 12276,497 L 12276,11756"/>
 <path fill="none" stroke="rgb(221,221,221)" stroke-linejoin="round" d="M 13416,497 L 13416,11756"/>
 <path fill="none" stroke="rgb(221,221,221)" stroke-linejoin="round" d="M 14556,497 L 14556,11756"/>
 <path fill="none" stroke="rgb(221,221,221)" stroke-linejoin="round" d="M 15696,497 L 15696,11756"/>
 <path fill="none" stroke="rgb(221,221,221)" stroke-linejoin="round" d="M 16836,497 L 16836,11756"/>
 <path fill="none" stroke="rgb(221,221,221)" stroke-linejoin="round" d="M 17977,497 L 17977,11756"/>
 <path fill="none" stroke="rgb(221,221,221)" stroke-linejoin="round" d="M 19116,497 L 19116,11756"/>
 <path fill="none" stroke="rgb(179,179,179)" stroke-linejoin="round" d="M 19686,11756 L 2585,11756"/>
 <path fill="none" stroke="rgb(179,179,179)" stroke-linejoin="round" d="M 19686,10147 L 2585,10147"/>
 <path fill="none" stroke="rgb(179,179,179)" stroke-linejoin="round" d="M 19686,8539 L 2585,8539"/>
 <path fill="none" stroke="rgb(179,179,179)" stroke-linejoin="round" d="M 19686,6930 L 2585,6930"/>
 <path fill="none" stroke="rgb(179,179,179)" stroke-linejoin="round" d="M 19686,5322 L 2585,5322"/>
 <path fill="none" stroke="rgb(179,179,179)" stroke-linejoin="round" d="M 19686,3713 L 2585,3713"/>
 <path fill="none" stroke="rgb(179,179,179)" stroke-linejoin="round" d="M 19686,2105 L 2585,2105"/>
 <path fill="none" stroke="rgb(179,179,179)" stroke-linejoin="round" d="M 19686,497 L 2585,497"/>
 <path fill="none" stroke="rgb(179,179,179)" stroke-linejoin="round" d="M 2585,11904 L 2585,11756"/>
 <path fill="none" stroke="rgb(179,179,179)" stroke-linejoin="round" d="M 2585,11904 L 2585,11756"/>
 <path fill="none" stroke="rgb(179,179,179)" stroke-linejoin="round" d="M 3725,11904 L 3725,11756"/>
 <path fill="none" stroke="rgb(179,179,179)" stroke-linejoin="round" d="M 3725,11904 L 3725,11756"/>
 <path fill="none" stroke="rgb(179,179,179)" stroke-linejoin="round" d="M 4865,11904 L 4865,11756"/>
 <path fill="none" stroke="rgb(179,179,179)" stroke-linejoin="round" d="M 4865,11904 L 4865,11756"/>
 <path fill="none" stroke="rgb(179,179,179)" stroke-linejoin="round" d="M 6005,11904 L 6005,11756"/>
 <path fill="none" stroke="rgb(179,179,179)" stroke-linejoin="round" d="M 6005,11904 L 6005,11756"/>
 <path fill="none" stroke="rgb(179,179,179)" stroke-linejoin="round" d="M 7145,11904 L 7145,11756"/>
 <path fill="none" stroke="rgb(179,179,179)" stroke-linejoin="round" d="M 7145,11904 L 7145,11756"/>
 <path fill="none" stroke="rgb(179,179,179)" stroke-linejoin="round" d="M 8285,11904 L 8285,11756"/>
 <path fill="none" stroke="rgb(179,179,179)" stroke-linejoin="round" d="M 8285,11904 L 8285,11756"/>
 <path fill="none" stroke="rgb(179,179,179)" stroke-linejoin="round" d="M 9426,11904 L 9426,11756"/>
 <path fill="none" stroke="rgb(179,179,179)" stroke-linejoin="round" d="M 9426,11904 L 9426,11756"/>
 <path fill="none" stroke="rgb(179,179,179)" stroke-linejoin="round" d="M 10566,11904 L 10566,11756"/>
 <path fill="none" stroke="rgb(179,179,179)" stroke-linejoin="round" d="M 10566,11904 L 10566,11756"/>
 <path fill="none" stroke="rgb(179,179,179)" stroke-linejoin="round" d="M 11706,11904 L 11706,11756"/>
 <path fill="none" stroke="rgb(179,179,179)" stroke-linejoin="round" d="M 11706,11904 L 11706,11756"/>
 <path fill="none" stroke="rgb(179,179,179)" stroke-linejoin="round" d="M 12846,11904 L 12846,11756"/>
 <path fill="none" stroke="rgb(179,179,179)" stroke-linejoin="round" d="M 12846,11904 L 12846,11756"/>
 <path fill="none" stroke="rgb(179,179,179)" stroke-linejoin="round" d="M 13985,11904 L 13985,11756"/>
 <path fill="none" stroke="rgb(179,179,179)" stroke-linejoin="round" d="M 13985,11904 L 13985,11756"/>
 <path fill="none" stroke="rgb(179,179,179)" stroke-linejoin="round" d="M 15126,11904 L 15126,11756"/>
 <path fill="none" stroke="rgb(179,179,179)" stroke-linejoin="round" d="M 15126,11904 L 15126,11756"/>
 <path fill="none" stroke="rgb(179,179,179)" stroke-linejoin="round" d="M 16266,11904 L 16266,11756"/>
 <path fill="none" stroke="rgb(179,179,179)" stroke-linejoin="round" d="M 16266,11904 L 16266,11756"/>
 <path fill="none" stroke="rgb(179,179,179)" stroke-linejoin="round" d="M 17406,11904 L 17406,11756"/>
 <path fill="none" stroke="rgb(179,179,179)" stroke-linejoin="round" d="M 17406,11904 L 17406,11756"/>
 <path fill="none" stroke="rgb(179,179,179)" stroke-linejoin="round" d="M 18546,11904 L 18546,11756"/>
 <path fill="none" stroke="rgb(179,179,179)" stroke-linejoin="round" d="M 18546,11904 L 18546,11756"/>
 <path fill="none" stroke="rgb(179,179,179)" stroke-linejoin="round" d="M 19686,11904 L 19686,11756"/>
 <path fill="none" stroke="rgb(179,179,179)" stroke-linejoin="round" d="M 19686,11904 L 19686,11756"/>
 <path fill="none" stroke="rgb(179,179,179)" stroke-linejoin="round" d="M 2585,11756 L 19686,11756"/>
 <path fill="none" stroke="rgb(179,179,179)" stroke-linejoin="round" d="M 2436,11756 L 2585,11756"/>
 <path fill="none" stroke="rgb(179,179,179)" stroke-linejoin="round" d="M 2436,11756 L 2585,11756"/>
 <path fill="none" stroke="rgb(179,179,179)" stroke-linejoin="round" d="M 2436,10147 L 2585,10147"/>
 <path fill="none" stroke="rgb(179,179,179)" stroke-linejoin="round" d="M 2436,10147 L 2585,10147"/>
 <path fill="none" stroke="rgb(179,179,179)" stroke-linejoin="round" d="M 2436,8539 L 2585,8539"/>
 <path fill="none" stroke="rgb(179,179,179)" stroke-linejoin="round" d="M 2436,8539 L 2585,8539"/>
 <path fill="none" stroke="rgb(179,179,179)" stroke-linejoin="round" d="M 2436,6930 L 2585,6930"/>
 <path fill="none" stroke="rgb(179,179,179)" stroke-linejoin="round" d="M 2436,6930 L 2585,6930"/>
 <path fill="none" stroke="rgb(179,179,179)" stroke-linejoin="round" d="M 2436,5322 L 2585,5322"/>
 <path fill="none" stroke="rgb(179,179,179)" stroke-linejoin="round" d="M 2436,5322 L 2585,5322"/>
 <path fill="none" stroke="rgb(179,179,179)" stroke-linejoin="round" d="M 2436,3714 L 2585,3714"/>
 <path fill="none" stroke="rgb(179,179,179)" stroke-linejoin="round" d="M 2436,3714 L 2585,3714"/>
 <path fill="none" stroke="rgb(179,179,179)" stroke-linejoin="round" d="M 2436,2105 L 2585,2105"/>
 <path fill="none" stroke="rgb(179,179,179)" stroke-linejoin="round" d="M 2436,2105 L 2585,2105"/>
 <path fill="none" stroke="rgb(179,179,179)" stroke-linejoin="round" d="M 2436,497 L 2585,497"/>
 <path fill="none" stroke="rgb(179,179,179)" stroke-linejoin="round" d="M 2436,497 L 2585,497"/>
 <path fill="none" stroke="rgb(179,179,179)" stroke-linejoin="round" d="M 2585,11756 L 2585,497"/>
 <path fill="none" stroke="rgb(255,66,14)" stroke-width="80" stroke-linejoin="round" d="M 2585,8378 L 3725,8931 4865,8550 6005,8059 7145,7151 8286,6653 9426,6277 10566,5693 11706,5273 12846,4797 13985,4123 15126,3522 16266,2894 17406,2093 18546,1516 19686,973"/>
 <path fill="rgb(255,66,14)" stroke="none" d="M 2461,8378 L 2585,8502 2710,8378 2585,8254 2461,8378 Z"/>
 <path fill="none" stroke="rgb(255,66,14)" stroke-linejoin="round" d="M 2461,8378 L 2585,8502 2710,8378 2585,8254 2461,8378 Z"/>
 <path fill="rgb(255,66,14)" stroke="none" d="M 3601,8931 L 3725,9055 3850,8931 3725,8807 3601,8931 Z"/>
 <path fill="none" stroke="rgb(255,66,14)" stroke-linejoin="round" d="M 3601,8931 L 3725,9055 3850,8931 3725,8807 3601,8931 Z"/>
 <path fill="rgb(255,66,14)" stroke="none" d="M 4741,8550 L 4865,8674 4990,8550 4865,8426 4741,8550 Z"/>
 <path fill="none" stroke="rgb(255,66,14)" stroke-linejoin="round" d="M 4741,8550 L 4865,8674 4990,8550 4865,8426 4741,8550 Z"/>
 <path fill="rgb(255,66,14)" stroke="none" d="M 5881,8059 L 6005,8183 6130,8059 6005,7935 5881,8059 Z"/>
 <path fill="none" stroke="rgb(255,66,14)" stroke-linejoin="round" d="M 5881,8059 L 6005,8183 6130,8059 6005,7935 5881,8059 Z"/>
 <path fill="rgb(255,66,14)" stroke="none" d="M 7021,7151 L 7145,7275 7269,7151 7145,7027 7021,7151 Z"/>
 <path fill="none" stroke="rgb(255,66,14)" stroke-linejoin="round" d="M 7021,7151 L 7145,7275 7269,7151 7145,7027 7021,7151 Z"/>
 <path fill="rgb(255,66,14)" stroke="none" d="M 8161,6653 L 8286,6777 8410,6653 8286,6529 8161,6653 Z"/>
 <path fill="none" stroke="rgb(255,66,14)" stroke-linejoin="round" d="M 8161,6653 L 8286,6777 8410,6653 8286,6529 8161,6653 Z"/>
 <path fill="rgb(255,66,14)" stroke="none" d="M 9301,6277 L 9426,6401 9550,6277 9426,6153 9301,6277 Z"/>
 <path fill="none" stroke="rgb(255,66,14)" stroke-linejoin="round" d="M 9301,6277 L 9426,6401 9550,6277 9426,6153 9301,6277 Z"/>
 <path fill="rgb(255,66,14)" stroke="none" d="M 10441,5693 L 10566,5817 10690,5693 10566,5569 10441,5693 Z"/>
 <path fill="none" stroke="rgb(255,66,14)" stroke-linejoin="round" d="M 10441,5693 L 10566,5817 10690,5693 10566,5569 10441,5693 Z"/>
 <path fill="rgb(255,66,14)" stroke="none" d="M 11581,5273 L 11706,5397 11830,5273 11706,5149 11581,5273 Z"/>
 <path fill="none" stroke="rgb(255,66,14)" stroke-linejoin="round" d="M 11581,5273 L 11706,5397 11830,5273 11706,5149 11581,5273 Z"/>
 <path fill="rgb(255,66,14)" stroke="none" d="M 12721,4797 L 12846,4921 12970,4797 12846,4673 12721,4797 Z"/>
 <path fill="none" stroke="rgb(255,66,14)" stroke-linejoin="round" d="M 12721,4797 L 12846,4921 12970,4797 12846,4673 12721,4797 Z"/>
 <path fill="rgb(255,66,14)" stroke="none" d="M 13861,4123 L 13985,4247 14110,4123 13985,3999 13861,4123 Z"/>
 <path fill="none" stroke="rgb(255,66,14)" stroke-linejoin="round" d="M 13861,4123 L 13985,4247 14110,4123 13985,3999 13861,4123 Z"/>
 <path fill="rgb(255,66,14)" stroke="none" d="M 15002,3522 L 15126,3646 15251,3522 15126,3398 15002,3522 Z"/>
 <path fill="none" stroke="rgb(255,66,14)" stroke-linejoin="round" d="M 15002,3522 L 15126,3646 15251,3522 15126,3398 15002,3522 Z"/>
 <path fill="rgb(255,66,14)" stroke="none" d="M 16142,2894 L 16266,3018 16391,2894 16266,2770 16142,2894 Z"/>
 <path fill="none" stroke="rgb(255,66,14)" stroke-linejoin="round" d="M 16142,2894 L 16266,3018 16391,2894 16266,2770 16142,2894 Z"/>
 <path fill="rgb(255,66,14)" stroke="none" d="M 17282,2093 L 17406,2217 17531,2093 17406,1969 17282,2093 Z"/>
 <path fill="none" stroke="rgb(255,66,14)" stroke-linejoin="round" d="M 17282,2093 L 17406,2217 17531,2093 17406,1969 17282,2093 Z"/>
 <path fill="rgb(255,66,14)" stroke="none" d="M 18422,1516 L 18546,1640 18670,1516 18546,1392 18422,1516 Z"/>
 <path fill="none" stroke="rgb(255,66,14)" stroke-linejoin="round" d="M 18422,1516 L 18546,1640 18670,1516 18546,1392 18422,1516 Z"/>
 <path fill="rgb(255,66,14)" stroke="none" d="M 19561,973 L 19686,1097 19810,973 19686,849 19561,973 Z"/>
 <path fill="none" stroke="rgb(255,66,14)" stroke-linejoin="round" d="M 19561,973 L 19686,1097 19810,973 19686,849 19561,973 Z"/>
 <path fill="none" stroke="rgb(255,211,32)" stroke-width="80" stroke-linejoin="round" d="M 2585,10277 L 3725,9691 4865,9292 6005,8808 7145,7944 8286,7413 9426,6803 10566,5939 11706,5225 12846,4410 13985,3376 15126,2603 16266,1874"/>
 <path fill="rgb(255,211,32)" stroke="none" d="M 2461,10153 L 2585,10401 2710,10153 2461,10153 Z"/>
 <path fill="none" stroke="rgb(255,211,32)" stroke-linejoin="round" d="M 2461,10153 L 2585,10401 2710,10153 2461,10153 Z"/>
 <path fill="rgb(255,211,32)" stroke="none" d="M 3601,9567 L 3725,9815 3850,9567 3601,9567 Z"/>
 <path fill="none" stroke="rgb(255,211,32)" stroke-linejoin="round" d="M 3601,9567 L 3725,9815 3850,9567 3601,9567 Z"/>
 <path fill="rgb(255,211,32)" stroke="none" d="M 4741,9168 L 4865,9416 4990,9168 4741,9168 Z"/>
 <path fill="none" stroke="rgb(255,211,32)" stroke-linejoin="round" d="M 4741,9168 L 4865,9416 4990,9168 4741,9168 Z"/>
 <path fill="rgb(255,211,32)" stroke="none" d="M 5881,8684 L 6005,8932 6130,8684 5881,8684 Z"/>
 <path fill="none" stroke="rgb(255,211,32)" stroke-linejoin="round" d="M 5881,8684 L 6005,8932 6130,8684 5881,8684 Z"/>
 <path fill="rgb(255,211,32)" stroke="none" d="M 7021,7820 L 7145,8068 7269,7820 7021,7820 Z"/>
 <path fill="none" stroke="rgb(255,211,32)" stroke-linejoin="round" d="M 7021,7820 L 7145,8068 7269,7820 7021,7820 Z"/>
 <path fill="rgb(255,211,32)" stroke="none" d="M 8161,7289 L 8286,7537 8410,7289 8161,7289 Z"/>
 <path fill="none" stroke="rgb(255,211,32)" stroke-linejoin="round" d="M 8161,7289 L 8286,7537 8410,7289 8161,7289 Z"/>
 <path fill="rgb(255,211,32)" stroke="none" d="M 9301,6679 L 9426,6927 9550,6679 9301,6679 Z"/>
 <path fill="none" stroke="rgb(255,211,32)" stroke-linejoin="round" d="M 9301,6679 L 9426,6927 9550,6679 9301,6679 Z"/>
 <path fill="rgb(255,211,32)" stroke="none" d="M 10441,5815 L 10566,6063 10690,5815 10441,5815 Z"/>
 <path fill="none" stroke="rgb(255,211,32)" stroke-linejoin="round" d="M 10441,5815 L 10566,6063 10690,5815 10441,5815 Z"/>
 <path fill="rgb(255,211,32)" stroke="none" d="M 11581,5101 L 11706,5349 11830,5101 11581,5101 Z"/>
 <path fill="none" stroke="rgb(255,211,32)" stroke-linejoin="round" d="M 11581,5101 L 11706,5349 11830,5101 11581,5101 Z"/>
 <path fill="rgb(255,211,32)" stroke="none" d="M 12721,4286 L 12846,4534 12970,4286 12721,4286 Z"/>
 <path fill="none" stroke="rgb(255,211,32)" stroke-linejoin="round" d="M 12721,4286 L 12846,4534 12970,4286 12721,4286 Z"/>
 <path fill="rgb(255,211,32)" stroke="none" d="M 13861,3252 L 13985,3500 14110,3252 13861,3252 Z"/>
 <path fill="none" stroke="rgb(255,211,32)" stroke-linejoin="round" d="M 13861,3252 L 13985,3500 14110,3252 13861,3252 Z"/>
 <path fill="rgb(255,211,32)" stroke="none" d="M 15002,2479 L 15126,2727 15251,2479 15002,2479 Z"/>
 <path fill="none" stroke="rgb(255,211,32)" stroke-linejoin="round" d="M 15002,2479 L 15126,2727 15251,2479 15002,2479 Z"/>
 <path fill="rgb(255,211,32)" stroke="none" d="M 16142,1750 L 16266,1998 16391,1750 16142,1750 Z"/>
 <path fill="none" stroke="rgb(255,211,32)" stroke-linejoin="round" d="M 16142,1750 L 16266,1998 16391,1750 16142,1750 Z"/>
 <path fill="none" stroke="rgb(126,0,33)" stroke-width="80" stroke-linejoin="round" d="M 2585,10503 L 3725,10025 4865,9663 6005,9204 7145,8579 8286,8086 9426,7639 10566,7027 11706,6516 12846,5987 13985,5227 15126,4644 16266,3985 17406,3084 18546,2325 19686,1409"/>
 <path fill="rgb(126,0,33)" stroke="none" d="M 2461,10379 L 2461,10627 2710,10503 2461,10379 Z"/>
 <path fill="none" stroke="rgb(126,0,33)" stroke-linejoin="round" d="M 2461,10379 L 2461,10627 2710,10503 2461,10379 Z"/>
 <path fill="rgb(126,0,33)" stroke="none" d="M 3601,9901 L 3601,10149 3850,10025 3601,9901 Z"/>
 <path fill="none" stroke="rgb(126,0,33)" stroke-linejoin="round" d="M 3601,9901 L 3601,10149 3850,10025 3601,9901 Z"/>
 <path fill="rgb(126,0,33)" stroke="none" d="M 4741,9539 L 4741,9787 4990,9663 4741,9539 Z"/>
 <path fill="none" stroke="rgb(126,0,33)" stroke-linejoin="round" d="M 4741,9539 L 4741,9787 4990,9663 4741,9539 Z"/>
 <path fill="rgb(126,0,33)" stroke="none" d="M 5881,9080 L 5881,9328 6130,9204 5881,9080 Z"/>
 <path fill="none" stroke="rgb(126,0,33)" stroke-linejoin="round" d="M 5881,9080 L 5881,9328 6130,9204 5881,9080 Z"/>
 <path fill="rgb(126,0,33)" stroke="none" d="M 7021,8455 L 7021,8703 7269,8579 7021,8455 Z"/>
 <path fill="none" stroke="rgb(126,0,33)" stroke-linejoin="round" d="M 7021,8455 L 7021,8703 7269,8579 7021,8455 Z"/>
 <path fill="rgb(126,0,33)" stroke="none" d="M 8161,7962 L 8161,8210 8410,8086 8161,7962 Z"/>
 <path fill="none" stroke="rgb(126,0,33)" stroke-linejoin="round" d="M 8161,7962 L 8161,8210 8410,8086 8161,7962 Z"/>
 <path fill="rgb(126,0,33)" stroke="none" d="M 9301,7515 L 9301,7763 9550,7639 9301,7515 Z"/>
 <path fill="none" stroke="rgb(126,0,33)" stroke-linejoin="round" d="M 9301,7515 L 9301,7763 9550,7639 9301,7515 Z"/>
 <path fill="rgb(126,0,33)" stroke="none" d="M 10441,6903 L 10441,7151 10690,7027 10441,6903 Z"/>
 <path fill="none" stroke="rgb(126,0,33)" stroke-linejoin="round" d="M 10441,6903 L 10441,7151 10690,7027 10441,6903 Z"/>
 <path fill="rgb(126,0,33)" stroke="none" d="M 11581,6392 L 11581,6640 11830,6516 11581,6392 Z"/>
 <path fill="none" stroke="rgb(126,0,33)" stroke-linejoin="round" d="M 11581,6392 L 11581,6640 11830,6516 11581,6392 Z"/>
 <path fill="rgb(126,0,33)" stroke="none" d="M 12721,5863 L 12721,6111 12970,5987 12721,5863 Z"/>
 <path fill="none" stroke="rgb(126,0,33)" stroke-linejoin="round" d="M 12721,5863 L 12721,6111 12970,5987 12721,5863 Z"/>
 <path fill="rgb(126,0,33)" stroke="none" d="M 13861,5103 L 13861,5351 14110,5227 13861,5103 Z"/>
 <path fill="none" stroke="rgb(126,0,33)" stroke-linejoin="round" d="M 13861,5103 L 13861,5351 14110,5227 13861,5103 Z"/>
 <path fill="rgb(126,0,33)" stroke="none" d="M 15002,4520 L 15002,4768 15251,4644 15002,4520 Z"/>
 <path fill="none" stroke="rgb(126,0,33)" stroke-linejoin="round" d="M 15002,4520 L 15002,4768 15251,4644 15002,4520 Z"/>
 <path fill="rgb(126,0,33)" stroke="none" d="M 16142,3861 L 16142,4109 16391,3985 16142,3861 Z"/>
 <path fill="none" stroke="rgb(126,0,33)" stroke-linejoin="round" d="M 16142,3861 L 16142,4109 16391,3985 16142,3861 Z"/>
 <path fill="rgb(126,0,33)" stroke="none" d="M 17282,2960 L 17282,3208 17531,3084 17282,2960 Z"/>
 <path fill="none" stroke="rgb(126,0,33)" stroke-linejoin="round" d="M 17282,2960 L 17282,3208 17531,3084 17282,2960 Z"/>
 <path fill="rgb(126,0,33)" stroke="none" d="M 18422,2200 L 18422,2449 18670,2325 18422,2200 Z"/>
 <path fill="none" stroke="rgb(126,0,33)" stroke-linejoin="round" d="M 18422,2200 L 18422,2449 18670,2325 18422,2200 Z"/>
 <path fill="rgb(126,0,33)" stroke="none" d="M 19561,1285 L 19561,1533 19810,1409 19561,1285 Z"/>
 <path fill="none" stroke="rgb(126,0,33)" stroke-linejoin="round" d="M 19561,1285 L 19561,1533 19810,1409 19561,1285 Z"/>
 <path fill="none" stroke="rgb(87,157,28)" stroke-width="80" stroke-linejoin="round" d="M 2585,10190 L 3725,9869 4865,9386 6005,8986 7145,8138 8286,7646 9426,7248 10566,6616 11706,6161 12846,5664 13985,4970 15126,4414 16266,3780 17406,2955 18546,2389 19686,1801"/>
 <path fill="rgb(87,157,28)" stroke="none" d="M 2461,10314 L 2710,10314 2585,10066 2461,10314 Z"/>
 <path fill="none" stroke="rgb(87,157,28)" stroke-linejoin="round" d="M 2461,10314 L 2710,10314 2585,10066 2461,10314 Z"/>
 <path fill="rgb(87,157,28)" stroke="none" d="M 3601,9993 L 3850,9993 3725,9745 3601,9993 Z"/>
 <path fill="none" stroke="rgb(87,157,28)" stroke-linejoin="round" d="M 3601,9993 L 3850,9993 3725,9745 3601,9993 Z"/>
 <path fill="rgb(87,157,28)" stroke="none" d="M 4741,9510 L 4990,9510 4865,9262 4741,9510 Z"/>
 <path fill="none" stroke="rgb(87,157,28)" stroke-linejoin="round" d="M 4741,9510 L 4990,9510 4865,9262 4741,9510 Z"/>
 <path fill="rgb(87,157,28)" stroke="none" d="M 5881,9110 L 6130,9110 6005,8862 5881,9110 Z"/>
 <path fill="none" stroke="rgb(87,157,28)" stroke-linejoin="round" d="M 5881,9110 L 6130,9110 6005,8862 5881,9110 Z"/>
 <path fill="rgb(87,157,28)" stroke="none" d="M 7021,8262 L 7269,8262 7145,8014 7021,8262 Z"/>
 <path fill="none" stroke="rgb(87,157,28)" stroke-linejoin="round" d="M 7021,8262 L 7269,8262 7145,8014 7021,8262 Z"/>
 <path fill="rgb(87,157,28)" stroke="none" d="M 8161,7770 L 8410,7770 8286,7522 8161,7770 Z"/>
 <path fill="none" stroke="rgb(87,157,28)" stroke-linejoin="round" d="M 8161,7770 L 8410,7770 8286,7522 8161,7770 Z"/>
 <path fill="rgb(87,157,28)" stroke="none" d="M 9301,7372 L 9550,7372 9426,7124 9301,7372 Z"/>
 <path fill="none" stroke="rgb(87,157,28)" stroke-linejoin="round" d="M 9301,7372 L 9550,7372 9426,7124 9301,7372 Z"/>
 <path fill="rgb(87,157,28)" stroke="none" d="M 10441,6740 L 10690,6740 10566,6492 10441,6740 Z"/>
 <path fill="none" stroke="rgb(87,157,28)" stroke-linejoin="round" d="M 10441,6740 L 10690,6740 10566,6492 10441,6740 Z"/>
 <path fill="rgb(87,157,28)" stroke="none" d="M 11581,6285 L 11830,6285 11706,6037 11581,6285 Z"/>
 <path fill="none" stroke="rgb(87,157,28)" stroke-linejoin="round" d="M 11581,6285 L 11830,6285 11706,6037 11581,6285 Z"/>
 <path fill="rgb(87,157,28)" stroke="none" d="M 12721,5788 L 12970,5788 12846,5540 12721,5788 Z"/>
 <path fill="none" stroke="rgb(87,157,28)" stroke-linejoin="round" d="M 12721,5788 L 12970,5788 12846,5540 12721,5788 Z"/>
 <path fill="rgb(87,157,28)" stroke="none" d="M 13861,5094 L 14110,5094 13985,4846 13861,5094 Z"/>
 <path fill="none" stroke="rgb(87,157,28)" stroke-linejoin="round" d="M 13861,5094 L 14110,5094 13985,4846 13861,5094 Z"/>
 <path fill="rgb(87,157,28)" stroke="none" d="M 15002,4538 L 15251,4538 15126,4290 15002,4538 Z"/>
 <path fill="none" stroke="rgb(87,157,28)" stroke-linejoin="round" d="M 15002,4538 L 15251,4538 15126,4290 15002,4538 Z"/>
 <path fill="rgb(87,157,28)" stroke="none" d="M 16142,3904 L 16391,3904 16266,3656 16142,3904 Z"/>
 <path fill="none" stroke="rgb(87,157,28)" stroke-linejoin="round" d="M 16142,3904 L 16391,3904 16266,3656 16142,3904 Z"/>
 <path fill="rgb(87,157,28)" stroke="none" d="M 17282,3080 L 17531,3080 17406,2831 17282,3080 Z"/>
 <path fill="none" stroke="rgb(87,157,28)" stroke-linejoin="round" d="M 17282,3080 L 17531,3080 17406,2831 17282,3080 Z"/>
 <path fill="rgb(87,157,28)" stroke="none" d="M 18422,2513 L 18670,2513 18546,2265 18422,2513 Z"/>
 <path fill="none" stroke="rgb(87,157,28)" stroke-linejoin="round" d="M 18422,2513 L 18670,2513 18546,2265 18422,2513 Z"/>
 <path fill="rgb(87,157,28)" stroke="none" d="M 19561,1925 L 19810,1925 19686,1677 19561,1925 Z"/>
 <path fill="none" stroke="rgb(87,157,28)" stroke-linejoin="round" d="M 19561,1925 L 19810,1925 19686,1677 19561,1925 Z"/>
 <path fill="none" stroke="rgb(0,69,134)" stroke-width="80" stroke-linejoin="round" d="M 2585,10823 L 3725,10139 4865,9613 6005,8878 7145,8276 8286,7675 9426,7339 10566,6527 11706,6115 12846,5721 13985,5116 15126,4541 16266,4028 17406,3218 18546,2847 19686,2143"/>
 <path fill="rgb(0,69,134)" stroke="none" d="M 2461,10699 L 2461,10947 2710,10947 2710,10699 2461,10699 Z"/>
 <path fill="none" stroke="rgb(0,69,134)" stroke-linejoin="round" d="M 2461,10699 L 2461,10947 2710,10947 2710,10699 2461,10699 Z"/>
 <path fill="rgb(0,69,134)" stroke="none" d="M 3601,10015 L 3601,10263 3850,10263 3850,10015 3601,10015 Z"/>
 <path fill="none" stroke="rgb(0,69,134)" stroke-linejoin="round" d="M 3601,10015 L 3601,10263 3850,10263 3850,10015 3601,10015 Z"/>
 <path fill="rgb(0,69,134)" stroke="none" d="M 4741,9489 L 4741,9737 4990,9737 4990,9489 4741,9489 Z"/>
 <path fill="none" stroke="rgb(0,69,134)" stroke-linejoin="round" d="M 4741,9489 L 4741,9737 4990,9737 4990,9489 4741,9489 Z"/>
 <path fill="rgb(0,69,134)" stroke="none" d="M 5881,8754 L 5881,9002 6130,9002 6130,8754 5881,8754 Z"/>
 <path fill="none" stroke="rgb(0,69,134)" stroke-linejoin="round" d="M 5881,8754 L 5881,9002 6130,9002 6130,8754 5881,8754 Z"/>
 <path fill="rgb(0,69,134)" stroke="none" d="M 7021,8152 L 7021,8400 7269,8400 7269,8152 7021,8152 Z"/>
 <path fill="none" stroke="rgb(0,69,134)" stroke-linejoin="round" d="M 7021,8152 L 7021,8400 7269,8400 7269,8152 7021,8152 Z"/>
 <path fill="rgb(0,69,134)" stroke="none" d="M 8161,7551 L 8161,7799 8410,7799 8410,7551 8161,7551 Z"/>
 <path fill="none" stroke="rgb(0,69,134)" stroke-linejoin="round" d="M 8161,7551 L 8161,7799 8410,7799 8410,7551 8161,7551 Z"/>
 <path fill="rgb(0,69,134)" stroke="none" d="M 9301,7215 L 9301,7463 9550,7463 9550,7215 9301,7215 Z"/>
 <path fill="none" stroke="rgb(0,69,134)" stroke-linejoin="round" d="M 9301,7215 L 9301,7463 9550,7463 9550,7215 9301,7215 Z"/>
 <path fill="rgb(0,69,134)" stroke="none" d="M 10441,6403 L 10441,6651 10690,6651 10690,6403 10441,6403 Z"/>
 <path fill="none" stroke="rgb(0,69,134)" stroke-linejoin="round" d="M 10441,6403 L 10441,6651 10690,6651 10690,6403 10441,6403 Z"/>
 <path fill="rgb(0,69,134)" stroke="none" d="M 11581,5991 L 11581,6239 11830,6239 11830,5991 11581,5991 Z"/>
 <path fill="none" stroke="rgb(0,69,134)" stroke-linejoin="round" d="M 11581,5991 L 11581,6239 11830,6239 11830,5991 11581,5991 Z"/>
 <path fill="rgb(0,69,134)" stroke="none" d="M 12721,5596 L 12721,5845 12970,5845 12970,5596 12721,5596 Z"/>
 <path fill="none" stroke="rgb(0,69,134)" stroke-linejoin="round" d="M 12721,5596 L 12721,5845 12970,5845 12970,5596 12721,5596 Z"/>
 <path fill="rgb(0,69,134)" stroke="none" d="M 13861,4992 L 13861,5240 14110,5240 14110,4992 13861,4992 Z"/>
 <path fill="none" stroke="rgb(0,69,134)" stroke-linejoin="round" d="M 13861,4992 L 13861,5240 14110,5240 14110,4992 13861,4992 Z"/>
 <path fill="rgb(0,69,134)" stroke="none" d="M 15002,4417 L 15002,4665 15251,4665 15251,4417 15002,4417 Z"/>
 <path fill="none" stroke="rgb(0,69,134)" stroke-linejoin="round" d="M 15002,4417 L 15002,4665 15251,4665 15251,4417 15002,4417 Z"/>
 <path fill="rgb(0,69,134)" stroke="none" d="M 16142,3904 L 16142,4152 16391,4152 16391,3904 16142,3904 Z"/>
 <path fill="none" stroke="rgb(0,69,134)" stroke-linejoin="round" d="M 16142,3904 L 16142,4152 16391,4152 16391,3904 16142,3904 Z"/>
 <path fill="rgb(0,69,134)" stroke="none" d="M 17282,3094 L 17282,3342 17531,3342 17531,3094 17282,3094 Z"/>
 <path fill="none" stroke="rgb(0,69,134)" stroke-linejoin="round" d="M 17282,3094 L 17282,3342 17531,3342 17531,3094 17282,3094 Z"/>
 <path fill="rgb(0,69,134)" stroke="none" d="M 18422,2723 L 18422,2971 18670,2971 18670,2723 18422,2723 Z"/>
 <path fill="none" stroke="rgb(0,69,134)" stroke-linejoin="round" d="M 18422,2723 L 18422,2971 18670,2971 18670,2723 18422,2723 Z"/>
 <path fill="rgb(0,69,134)" stroke="none" d="M 19561,2019 L 19561,2267 19810,2267 19810,2019 19561,2019 Z"/>
 <path fill="none" stroke="rgb(0,69,134)" stroke-linejoin="round" d="M 19561,2019 L 19561,2267 19810,2267 19810,2019 19561,2019 Z"/>
 <text class="SVGTextShape"><tspan class="TextParagraph" font-family="Liberation Sans, sans-serif" font-size="350px" font-weight="400"><tspan class="TextPosition" x="2289" y="12319"><tspan fill="rgb(0,0,0)" stroke="none">100</tspan></tspan></tspan></text>
 <text class="SVGTextShape"><tspan class="TextParagraph" font-family="Liberation Sans, sans-serif" font-size="350px" font-weight="400"><tspan class="TextPosition" x="3429" y="12319"><tspan fill="rgb(0,0,0)" stroke="none">250</tspan></tspan></tspan></text>
 <text class="SVGTextShape"><tspan class="TextParagraph" font-family="Liberation Sans, sans-serif" font-size="350px" font-weight="400"><tspan class="TextPosition" x="4569" y="12319"><tspan fill="rgb(0,0,0)" stroke="none">500</tspan></tspan></tspan></text>
 <text class="SVGTextShape"><tspan class="TextParagraph" font-family="Liberation Sans, sans-serif" font-size="350px" font-weight="400"><tspan class="TextPosition" x="5788" y="12319"><tspan fill="rgb(0,0,0)" stroke="none">1K</tspan></tspan></tspan></text>
 <text class="SVGTextShape"><tspan class="TextParagraph" font-family="Liberation Sans, sans-serif" font-size="350px" font-weight="400"><tspan class="TextPosition" x="6776" y="12319"><tspan fill="rgb(0,0,0)" stroke="none">2.5K</tspan></tspan></tspan></text>
 <text class="SVGTextShape"><tspan class="TextParagraph" font-family="Liberation Sans, sans-serif" font-size="350px" font-weight="400"><tspan class="TextPosition" x="8067" y="12319"><tspan fill="rgb(0,0,0)" stroke="none">5K</tspan></tspan></tspan></text>
 <text class="SVGTextShape"><tspan class="TextParagraph" font-family="Liberation Sans, sans-serif" font-size="350px" font-weight="400"><tspan class="TextPosition" x="9110" y="12319"><tspan fill="rgb(0,0,0)" stroke="none">10K</tspan></tspan></tspan></text>
 <text class="SVGTextShape"><tspan class="TextParagraph" font-family="Liberation Sans, sans-serif" font-size="350px" font-weight="400"><tspan class="TextPosition" x="10250" y="12319"><tspan fill="rgb(0,0,0)" stroke="none">25K</tspan></tspan></tspan></text>
 <text class="SVGTextShape"><tspan class="TextParagraph" font-family="Liberation Sans, sans-serif" font-size="350px" font-weight="400"><tspan class="TextPosition" x="11390" y="12319"><tspan fill="rgb(0,0,0)" stroke="none">50K</tspan></tspan></tspan></text>
 <text class="SVGTextShape"><tspan class="TextParagraph" font-family="Liberation Sans, sans-serif" font-size="350px" font-weight="400"><tspan class="TextPosition" x="12431" y="12319"><tspan fill="rgb(0,0,0)" stroke="none">100K</tspan></tspan></tspan></text>
 <text class="SVGTextShape"><tspan class="TextParagraph" font-family="Liberation Sans, sans-serif" font-size="350px" font-weight="400"><tspan class="TextPosition" x="13571" y="12319"><tspan fill="rgb(0,0,0)" stroke="none">250K</tspan></tspan></tspan></text>
 <text class="SVGTextShape"><tspan class="TextParagraph" font-family="Liberation Sans, sans-serif" font-size="350px" font-weight="400"><tspan class="TextPosition" x="14712" y="12319"><tspan fill="rgb(0,0,0)" stroke="none">500K</tspan></tspan></tspan></text>
 <text class="SVGTextShape"><tspan class="TextParagraph" font-family="Liberation Sans, sans-serif" font-size="350px" font-weight="400"><tspan class="TextPosition" x="16023" y="12319"><tspan fill="rgb(0,0,0)" stroke="none">1M</tspan></tspan></tspan></text>
 <text class="SVGTextShape"><tspan class="TextParagraph" font-family="Liberation Sans, sans-serif" font-size="350px" font-weight="400"><tspan class="TextPosition" x="17011" y="12319"><tspan fill="rgb(0,0,0)" stroke="none">2.5M</tspan></tspan></tspan></text>
 <text class="SVGTextShape"><tspan class="TextParagraph" font-family="Liberation Sans, sans-serif" font-size="350px" font-weight="400"><tspan class="TextPosition" x="18303" y="12319"><tspan fill="rgb(0,0,0)" stroke="none">5M</tspan></tspan></tspan></text>
 <text class="SVGTextShape"><tspan class="TextParagraph" font-family="Liberation Sans, sans-serif" font-size="350px" font-weight="400"><tspan class="TextPosition" x="19344" y="12319"><tspan fill="rgb(0,0,0)" stroke="none">10M</tspan></tspan></tspan></text>
 <text class="SVGTextShape"><tspan class="TextParagraph" font-family="Liberation Sans, sans-serif" font-size="350px" font-weight="400"><tspan class="TextPosition" x="1493" y="11875"><tspan fill="rgb(0,0,0)" stroke="none">1E+1</tspan></tspan></tspan></text>
 <text class="SVGTextShape"><tspan class="TextParagraph" font-family="Liberation Sans, sans-serif" font-size="350px" font-weight="400"><tspan class="TextPosition" x="1493" y="10267"><tspan fill="rgb(0,0,0)" stroke="none">1E+2</tspan></tspan></tspan></text>
 <text class="SVGTextShape"><tspan class="TextParagraph" font-family="Liberation Sans, sans-serif" font-size="350px" font-weight="400"><tspan class="TextPosition" x="1493" y="8659"><tspan fill="rgb(0,0,0)" stroke="none">1E+3</tspan></tspan></tspan></text>
 <text class="SVGTextShape"><tspan class="TextParagraph" font-family="Liberation Sans, sans-serif" font-size="350px" font-weight="400"><tspan class="TextPosition" x="1493" y="7049"><tspan fill="rgb(0,0,0)" stroke="none">1E+4</tspan></tspan></tspan></text>
 <text class="SVGTextShape"><tspan class="TextParagraph" font-family="Liberation Sans, sans-serif" font-size="350px" font-weight="400"><tspan class="TextPosition" x="1493" y="5441"><tspan fill="rgb(0,0,0)" stroke="none">1E+5</tspan></tspan></tspan></text>
 <text class="SVGTextShape"><tspan class="TextParagraph" font-family="Liberation Sans, sans-serif" font-size="350px" font-weight="400"><tspan class="TextPosition" x="1493" y="3834"><tspan fill="rgb(0,0,0)" stroke="none">1E+6</tspan></tspan></tspan></text>
 <text class="SVGTextShape"><tspan class="TextParagraph" font-family="Liberation Sans, sans-serif" font-size="350px" font-weight="400"><tspan class="TextPosition" x="1493" y="2225"><tspan fill="rgb(0,0,0)" stroke="none">1E+7</tspan></tspan></tspan></text>
 <text class="SVGTextShape"><tspan class="TextParagraph" font-family="Liberation Sans, sans-serif" font-size="350px" font-weight="400"><tspan class="TextPosition" x="1493" y="617"><tspan fill="rgb(0,0,0)" stroke="none">1E+8</tspan></tspan></tspan></text>
 <path fill="none" stroke="rgb(255,66,14)" stroke-width="80" stroke-linejoin="round" d="M 20595,5360 L 21391,5360"/>
 <path fill="rgb(255,66,14)" stroke="none" d="M 20888,5360 L 20993,5466 21098,5360 20993,5256 20888,5360 Z"/>
 <path fill="none" stroke="rgb(255,66,14)" stroke-linejoin="round" d="M 20888,5360 L 20993,5466 21098,5360 20993,5256 20888,5360 Z"/>
 <path fill="none" stroke="rgb(255,211,32)" stroke-width="80" stroke-linejoin="round" d="M 20595,5854 L 21391,5854"/>
 <path fill="rgb(255,211,32)" stroke="none" d="M 20888,5750 L 20993,5960 21098,5750 20888,5750 Z"/>
 <path fill="none" stroke="rgb(255,211,32)" stroke-linejoin="round" d="M 20888,5750 L 20993,5960 21098,5750 20888,5750 Z"/>
 <path fill="none" stroke="rgb(126,0,33)" stroke-width="80" stroke-linejoin="round" d="M 20595,6349 L 21391,6349"/>
 <path fill="rgb(126,0,33)" stroke="none" d="M 20888,6244 L 20888,6454 21098,6349 20888,6244 Z"/>
 <path fill="none" stroke="rgb(126,0,33)" stroke-linejoin="round" d="M 20888,6244 L 20888,6454 21098,6349 20888,6244 Z"/>
 <path fill="none" stroke="rgb(87,157,28)" stroke-width="80" stroke-linejoin="round" d="M 20595,6843 L 21391,6843"/>
 <path fill="rgb(87,157,28)" stroke="none" d="M 20888,6948 L 21098,6948 20993,6738 20888,6948 Z"/>
 <path fill="none" stroke="rgb(87,157,28)" stroke-linejoin="round" d="M 20888,6948 L 21098,6948 20993,6738 20888,6948 Z"/>
 <path fill="none" stroke="rgb(0,69,134)" stroke-width="80" stroke-linejoin="round" d="M 20595,7337 L 21391,7337"/>
 <path fill="rgb(0,69,134)" stroke="none" d="M 20888,7232 L 20888,7442 21098,7442 21098,7232 20888,7232 Z"/>
 <path fill="none" stroke="rgb(0,69,134)" stroke-linejoin="round" d="M 20888,7232 L 20888,7442 21098,7442 21098,7232 20888,7232 Z"/>
 <text class="SVGTextShape"><tspan class="TextParagraph" font-family="Liberation Sans, sans-serif" font-size="350px" font-weight="400"><tspan class="TextPosition" x="21491" y="5479"><tspan fill="rgb(0,0,0)" stroke="none">CDT</tspan></tspan></tspan></text>
 <text class="SVGTextShape"><tspan class="TextParagraph" font-family="Liberation Sans, sans-serif" font-size="350px" font-weight="400"><tspan class="TextPosition" x="21491" y="5973"><tspan fill="rgb(0,0,0)" stroke="none">FAD</tspan></tspan></tspan></text>
 <text class="SVGTextShape"><tspan class="TextParagraph" font-family="Liberation Sans, sans-serif" font-size="350px" font-weight="400"><tspan class="TextPosition" x="21491" y="6468"><tspan fill="rgb(0,0,0)" stroke="none">DEL</tspan></tspan></tspan></text>
 <text class="SVGTextShape"><tspan class="TextParagraph" font-family="Liberation Sans, sans-serif" font-size="350px" font-weight="400"><tspan class="TextPosition" x="21491" y="6962"><tspan fill="rgb(0,0,0)" stroke="none">TRI</tspan></tspan></tspan></text>
 <text class="SVGTextShape"><tspan class="TextParagraph" font-family="Liberation Sans, sans-serif" font-size="350px" font-weight="400"><tspan class="TextPosition" x="21491" y="7456"><tspan fill="rgb(0,0,0)" stroke="none">DLB</tspan></tspan></tspan></text>
 <text class="SVGTextShape" transform="rotate(-90 884 6953)"><tspan class="TextParagraph" font-family="Liberation Sans, sans-serif" font-size="317px" font-weight="400"><tspan class="TextPosition" x="884" y="6953"><tspan fill="rgb(0,0,0)" stroke="none">time [µs]</tspan></tspan></tspan></text>
</svg>