<?xml version="1.0" encoding="UTF-8"?>
<!DOCTYPE svg PUBLIC "-//W3C//DTD SVG 1.1//EN" "http://www.w3.org/Graphics/SVG/1.1/DTD/svg11.dtd">
<svg width="160mm" height="90mm" viewBox="0 0 16000 9000" version="1.1" xmlns="http://www.w3.org/2000/svg" xmlns:xlink="http://www.w3.org/1999/xlink" stroke-width="28.222" stroke-linejoin="round" xml:space="preserve">
 <path fill="rgb(255,255,255)" stroke="none" d="M 8000,8998 L 0,8998 0,0 15999,0 15999,8998 8000,8998 Z"/>
 <path fill="none" stroke="rgb(179,179,179)" stroke-linejoin="round" d="M 7540,7334 L 2291,7334 2291,478 12788,478 12788,7334 7540,7334 Z"/>
 <path fill="none" stroke="rgb(221,221,221)" stroke-linejoin="round" d="M 2640,477 L 2640,7333"/>
 <path fill="none" stroke="rgb(221,221,221)" stroke-linejoin="round" d="M 3340,477 L 3340,7333"/>
 <path fill="none" stroke="rgb(221,221,221)" stroke-linejoin="round" d="M 4040,477 L 4040,7333"/>
 <path fill="none" stroke="rgb(221,221,221)" stroke-linejoin="round" d="M 4740,477 L 4740,7333"/>
 <path fill="none" stroke="rgb(221,221,221)" stroke-linejoin="round" d="M 5440,477 L 5440,7333"/>
 <path fill="none" stroke="rgb(221,221,221)" stroke-linejoin="round" d="M 6140,477 L 6140,7333"/>
 <path fill="none" stroke="rgb(221,221,221)" stroke-linejoin="round" d="M 6840,477 L 6840,7333"/>
 <path fill="none" stroke="rgb(221,221,221)" stroke-linejoin="round" d="M 7540,477 L 7540,7333"/>
 <path fill="none" stroke="rgb(221,221,221)" stroke-linejoin="round" d="M 8238,477 L 8238,7333"/>
 <path fill="none" stroke="rgb(221,221,221)" stroke-linejoin="round" d="M 8938,477 L 8938,7333"/>
 <path fill="none" stroke="rgb(221,221,221)" stroke-linejoin="round" d="M 9638,477 L 9638,7333"/>
 <path fill="none" stroke="rgb(221,221,221)" stroke-linejoin="round" d="M 10338,477 L 10338,7333"/>
 <path fill="none" stroke="rgb(221,221,221)" stroke-linejoin="round" d="M 11038,477 L 11038,7333"/>
 <path fill="none" stroke="rgb(221,221,221)" stroke-linejoin="round" d="M 11738,477 L 11738,7333"/>
 <path fill="none" stroke="rgb(221,221,221)" stroke-linejoin="round" d="M 12438,477 L 12438,7333"/>
 <path fill="none" stroke="rgb(179,179,179)" stroke-linejoin="round" d="M 12788,7333 L 2291,7333"/>
 <path fill="none" stroke="rgb(179,179,179)" stroke-linejoin="round" d="M 12788,6354 L 2291,6354"/>
 <path fill="none" stroke="rgb(179,179,179)" stroke-linejoin="round" d="M 12788,5374 L 2291,5374"/>
 <path fill="none" stroke="rgb(179,179,179)" stroke-linejoin="round" d="M 12788,4394 L 2291,4394"/>
 <path fill="none" stroke="rgb(179,179,179)" stroke-linejoin="round" d="M 12788,3415 L 2291,3415"/>
 <path fill="none" stroke="rgb(179,179,179)" stroke-linejoin="round" d="M 12788,2435 L 2291,2435"/>
 <path fill="none" stroke="rgb(179,179,179)" stroke-linejoin="round" d="M 12788,1456 L 2291,1456"/>
 <path fill="none" stroke="rgb(179,179,179)" stroke-linejoin="round" d="M 12788,477 L 2291,477"/>
 <path fill="none" stroke="rgb(179,179,179)" stroke-linejoin="round" d="M 2291,7483 L 2291,7333"/>
 <path fill="none" stroke="rgb(179,179,179)" stroke-linejoin="round" d="M 2291,7483 L 2291,7333"/>
 <path fill="none" stroke="rgb(179,179,179)" stroke-linejoin="round" d="M 2990,7483 L 2990,7333"/>
 <path fill="none" stroke="rgb(179,179,179)" stroke-linejoin="round" d="M 2990,7483 L 2990,7333"/>
 <path fill="none" stroke="rgb(179,179,179)" stroke-linejoin="round" d="M 3690,7483 L 3690,7333"/>
 <path fill="none" stroke="rgb(179,179,179)" stroke-linejoin="round" d="M 3690,7483 L 3690,7333"/>
 <path fill="none" stroke="rgb(179,179,179)" stroke-linejoin="round" d="M 4390,7483 L 4390,7333"/>
 <path fill="none" stroke="rgb(179,179,179)" stroke-linejoin="round" d="M 4390,7483 L 4390,7333"/>
 <path fill="none" stroke="rgb(179,179,179)" stroke-linejoin="round" d="M 5090,7483 L 5090,7333"/>
 <path fill="none" stroke="rgb(179,179,179)" stroke-linejoin="round" d="M 5090,7483 L 5090,7333"/>
 <path fill="none" stroke="rgb(179,179,179)" stroke-linejoin="round" d="M 5790,7483 L 5790,7333"/>
 <path fill="none" stroke="rgb(179,179,179)" stroke-linejoin="round" d="M 5790,7483 L 5790,7333"/>
 <path fill="none" stroke="rgb(179,179,179)" stroke-linejoin="round" d="M 6490,7483 L 6490,7333"/>
 <path fill="none" stroke="rgb(179,179,179)" stroke-linejoin="round" d="M 6490,7483 L 6490,7333"/>
 <path fill="none" stroke="rgb(179,179,179)" stroke-linejoin="round" d="M 7190,7483 L 7190,7333"/>
 <path fill="none" stroke="rgb(179,179,179)" stroke-linejoin="round" d="M 7190,7483 L 7190,7333"/>
 <path fill="none" stroke="rgb(179,179,179)" stroke-linejoin="round" d="M 7889,7483 L 7889,7333"/>
 <path fill="none" stroke="rgb(179,179,179)" stroke-linejoin="round" d="M 7889,7483 L 7889,7333"/>
 <path fill="none" stroke="rgb(179,179,179)" stroke-linejoin="round" d="M 8588,7483 L 8588,7333"/>
 <path fill="none" stroke="rgb(179,179,179)" stroke-linejoin="round" d="M 8588,7483 L 8588,7333"/>
 <path fill="none" stroke="rgb(179,179,179)" stroke-linejoin="round" d="M 9288,7483 L 9288,7333"/>
 <path fill="none" stroke="rgb(179,179,179)" stroke-linejoin="round" d="M 9288,7483 L 9288,7333"/>
 <path fill="none" stroke="rgb(179,179,179)" stroke-linejoin="round" d="M 9988,7483 L 9988,7333"/>
 <path fill="none" stroke="rgb(179,179,179)" stroke-linejoin="round" d="M 9988,7483 L 9988,7333"/>
 <path fill="none" stroke="rgb(179,179,179)" stroke-linejoin="round" d="M 10688,7483 L 10688,7333"/>
 <path fill="none" stroke="rgb(179,179,179)" stroke-linejoin="round" d="M 10688,7483 L 10688,7333"/>
 <path fill="none" stroke="rgb(179,179,179)" stroke-linejoin="round" d="M 11388,7483 L 11388,7333"/>
 <path fill="none" stroke="rgb(179,179,179)" stroke-linejoin="round" d="M 11388,7483 L 11388,7333"/>
 <path fill="none" stroke="rgb(179,179,179)" stroke-linejoin="round" d="M 12088,7483 L 12088,7333"/>
 <path fill="none" stroke="rgb(179,179,179)" stroke-linejoin="round" d="M 12088,7483 L 12088,7333"/>
 <path fill="none" stroke="rgb(179,179,179)" stroke-linejoin="round" d="M 12788,7483 L 12788,7333"/>
 <path fill="none" stroke="rgb(179,179,179)" stroke-linejoin="round" d="M 12788,7483 L 12788,7333"/>
 <path fill="none" stroke="rgb(179,179,179)" stroke-linejoin="round" d="M 2291,7333 L 12788,7333"/>
 <path fill="none" stroke="rgb(179,179,179)" stroke-linejoin="round" d="M 2141,7333 L 2291,7333"/>
 <path fill="none" stroke="rgb(179,179,179)" stroke-linejoin="round" d="M 2141,7333 L 2291,7333"/>
 <path fill="none" stroke="rgb(179,179,179)" stroke-linejoin="round" d="M 2141,6354 L 2291,6354"/>
 <path fill="none" stroke="rgb(179,179,179)" stroke-linejoin="round" d="M 2141,6354 L 2291,6354"/>
 <path fill="none" stroke="rgb(179,179,179)" stroke-linejoin="round" d="M 2141,5374 L 2291,5374"/>
 <path fill="none" stroke="rgb(179,179,179)" stroke-linejoin="round" d="M 2141,5374 L 2291,5374"/>
 <path fill="none" stroke="rgb(179,179,179)" stroke-linejoin="round" d="M 2141,4394 L 2291,4394"/>
 <path fill="none" stroke="rgb(179,179,179)" stroke-linejoin="round" d="M 2141,4394 L 2291,4394"/>
 <path fill="none" stroke="rgb(179,179,179)" stroke-linejoin="round" d="M 2141,3415 L 2291,3415"/>
 <path fill="none" stroke="rgb(179,179,179)" stroke-linejoin="round" d="M 2141,3415 L 2291,3415"/>
 <path fill="none" stroke="rgb(179,179,179)" stroke-linejoin="round" d="M 2141,2435 L 2291,2435"/>
 <path fill="none" stroke="rgb(179,179,179)" stroke-linejoin="round" d="M 2141,2435 L 2291,2435"/>
 <path fill="none" stroke="rgb(179,179,179)" stroke-linejoin="round" d="M 2141,1456 L 2291,1456"/>
 <path fill="none" stroke="rgb(179,179,179)" stroke-linejoin="round" d="M 2141,1456 L 2291,1456"/>
 <path fill="none" stroke="rgb(179,179,179)" stroke-linejoin="round" d="M 2141,477 L 2291,477"/>
 <path fill="none" stroke="rgb(179,179,179)" stroke-linejoin="round" d="M 2141,477 L 2291,477"/>
 <path fill="none" stroke="rgb(179,179,179)" stroke-linejoin="round" d="M 2291,7333 L 2291,477"/>
 <path fill="none" stroke="rgb(0,69,134)" stroke-width="80" stroke-linejoin="round" d="M 2291,6196 L 2990,5908 3690,5578 4390,5465 5090,4913 5790,4914 6490,4625 7190,4241 7889,3861 8588,3606 9288,3354 9988,3029 10688,2610 11388,2318 12088,1778 12788,1719"/>
 <path fill="rgb(0,69,134)" stroke="none" d="M 2166,6071 L 2166,6321 2416,6321 2416,6071 2166,6071 Z"/>
 <path fill="none" stroke="rgb(0,69,134)" stroke-linejoin="round" d="M 2166,6071 L 2166,6321 2416,6321 2416,6071 2166,6071 Z"/>
 <path fill="rgb(0,69,134)" stroke="none" d="M 2865,5783 L 2865,6033 3115,6033 3115,5783 2865,5783 Z"/>
 <path fill="none" stroke="rgb(0,69,134)" stroke-linejoin="round" d="M 2865,5783 L 2865,6033 3115,6033 3115,5783 2865,5783 Z"/>
 <path fill="rgb(0,69,134)" stroke="none" d="M 3565,5453 L 3565,5703 3815,5703 3815,5453 3565,5453 Z"/>
 <path fill="none" stroke="rgb(0,69,134)" stroke-linejoin="round" d="M 3565,5453 L 3565,5703 3815,5703 3815,5453 3565,5453 Z"/>
 <path fill="rgb(0,69,134)" stroke="none" d="M 4265,5340 L 4265,5590 4515,5590 4515,5340 4265,5340 Z"/>
 <path fill="none" stroke="rgb(0,69,134)" stroke-linejoin="round" d="M 4265,5340 L 4265,5590 4515,5590 4515,5340 4265,5340 Z"/>
 <path fill="rgb(0,69,134)" stroke="none" d="M 4965,4788 L 4965,5038 5215,5038 5215,4788 4965,4788 Z"/>
 <path fill="none" stroke="rgb(0,69,134)" stroke-linejoin="round" d="M 4965,4788 L 4965,5038 5215,5038 5215,4788 4965,4788 Z"/>
 <path fill="rgb(0,69,134)" stroke="none" d="M 5665,4789 L 5665,5039 5915,5039 5915,4789 5665,4789 Z"/>
 <path fill="none" stroke="rgb(0,69,134)" stroke-linejoin="round" d="M 5665,4789 L 5665,5039 5915,5039 5915,4789 5665,4789 Z"/>
 <path fill="rgb(0,69,134)" stroke="none" d="M 6365,4500 L 6365,4750 6615,4750 6615,4500 6365,4500 Z"/>
 <path fill="none" stroke="rgb(0,69,134)" stroke-linejoin="round" d="M 6365,4500 L 6365,4750 6615,4750 6615,4500 6365,4500 Z"/>
 <path fill="rgb(0,69,134)" stroke="none" d="M 7065,4116 L 7065,4366 7315,4366 7315,4116 7065,4116 Z"/>
 <path fill="none" stroke="rgb(0,69,134)" stroke-linejoin="round" d="M 7065,4116 L 7065,4366 7315,4366 7315,4116 7065,4116 Z"/>
 <path fill="rgb(0,69,134)" stroke="none" d="M 7764,3736 L 7764,3986 8013,3986 8013,3736 7764,3736 Z"/>
 <path fill="none" stroke="rgb(0,69,134)" stroke-linejoin="round" d="M 7764,3736 L 7764,3986 8013,3986 8013,3736 7764,3736 Z"/>
 <path fill="rgb(0,69,134)" stroke="none" d="M 8463,3481 L 8463,3731 8713,3731 8713,3481 8463,3481 Z"/>
 <path fill="none" stroke="rgb(0,69,134)" stroke-linejoin="round" d="M 8463,3481 L 8463,3731 8713,3731 8713,3481 8463,3481 Z"/>
 <path fill="rgb(0,69,134)" stroke="none" d="M 9163,3229 L 9163,3479 9413,3479 9413,3229 9163,3229 Z"/>
 <path fill="none" stroke="rgb(0,69,134)" stroke-linejoin="round" d="M 9163,3229 L 9163,3479 9413,3479 9413,3229 9163,3229 Z"/>
 <path fill="rgb(0,69,134)" stroke="none" d="M 9863,2904 L 9863,3154 10113,3154 10113,2904 9863,2904 Z"/>
 <path fill="none" stroke="rgb(0,69,134)" stroke-linejoin="round" d="M 9863,2904 L 9863,3154 10113,3154 10113,2904 9863,2904 Z"/>
 <path fill="rgb(0,69,134)" stroke="none" d="M 10563,2485 L 10563,2735 10813,2735 10813,2485 10563,2485 Z"/>
 <path fill="none" stroke="rgb(0,69,134)" stroke-linejoin="round" d="M 10563,2485 L 10563,2735 10813,2735 10813,2485 10563,2485 Z"/>
 <path fill="rgb(0,69,134)" stroke="none" d="M 11263,2194 L 11263,2443 11513,2443 11513,2194 11263,2194 Z"/>
 <path fill="none" stroke="rgb(0,69,134)" stroke-linejoin="round" d="M 11263,2194 L 11263,2443 11513,2443 11513,2194 11263,2194 Z"/>
 <path fill="rgb(0,69,134)" stroke="none" d="M 11963,1653 L 11963,1903 12213,1903 12213,1653 11963,1653 Z"/>
 <path fill="none" stroke="rgb(0,69,134)" stroke-linejoin="round" d="M 11963,1653 L 11963,1903 12213,1903 12213,1653 11963,1653 Z"/>
 <path fill="rgb(0,69,134)" stroke="none" d="M 12663,1594 L 12663,1844 12913,1844 12913,1594 12663,1594 Z"/>
 <path fill="none" stroke="rgb(0,69,134)" stroke-linejoin="round" d="M 12663,1594 L 12663,1844 12913,1844 12913,1594 12663,1594 Z"/>
 <path fill="none" stroke="rgb(255,66,14)" stroke-width="80" stroke-linejoin="round" d="M 2291,5737 L 2990,5519 3690,5260 4390,4928 5090,4611 5790,4336 6490,3957 7190,3572 7889,3194 8588,3009 9288,2551 9988,2159 10688,1762 11388,1277 12088,842 12529,477"/>
 <path fill="rgb(255,66,14)" stroke="none" d="M 2166,5737 L 2291,5862 2416,5737 2291,5612 2166,5737 Z"/>
 <path fill="none" stroke="rgb(255,66,14)" stroke-linejoin="round" d="M 2166,5737 L 2291,5862 2416,5737 2291,5612 2166,5737 Z"/>
 <path fill="rgb(255,66,14)" stroke="none" d="M 2865,5519 L 2990,5644 3115,5519 2990,5394 2865,5519 Z"/>
 <path fill="none" stroke="rgb(255,66,14)" stroke-linejoin="round" d="M 2865,5519 L 2990,5644 3115,5519 2990,5394 2865,5519 Z"/>
 <path fill="rgb(255,66,14)" stroke="none" d="M 3565,5260 L 3690,5385 3815,5260 3690,5135 3565,5260 Z"/>
 <path fill="none" stroke="rgb(255,66,14)" stroke-linejoin="round" d="M 3565,5260 L 3690,5385 3815,5260 3690,5135 3565,5260 Z"/>
 <path fill="rgb(255,66,14)" stroke="none" d="M 4265,4928 L 4390,5053 4515,4928 4390,4803 4265,4928 Z"/>
 <path fill="none" stroke="rgb(255,66,14)" stroke-linejoin="round" d="M 4265,4928 L 4390,5053 4515,4928 4390,4803 4265,4928 Z"/>
 <path fill="rgb(255,66,14)" stroke="none" d="M 4965,4611 L 5090,4736 5215,4611 5090,4486 4965,4611 Z"/>
 <path fill="none" stroke="rgb(255,66,14)" stroke-linejoin="round" d="M 4965,4611 L 5090,4736 5215,4611 5090,4486 4965,4611 Z"/>
 <path fill="rgb(255,66,14)" stroke="none" d="M 5665,4336 L 5790,4461 5915,4336 5790,4211 5665,4336 Z"/>
 <path fill="none" stroke="rgb(255,66,14)" stroke-linejoin="round" d="M 5665,4336 L 5790,4461 5915,4336 5790,4211 5665,4336 Z"/>
 <path fill="rgb(255,66,14)" stroke="none" d="M 6365,3957 L 6490,4082 6615,3957 6490,3832 6365,3957 Z"/>
 <path fill="none" stroke="rgb(255,66,14)" stroke-linejoin="round" d="M 6365,3957 L 6490,4082 6615,3957 6490,3832 6365,3957 Z"/>
 <path fill="rgb(255,66,14)" stroke="none" d="M 7065,3572 L 7190,3697 7315,3572 7190,3447 7065,3572 Z"/>
 <path fill="none" stroke="rgb(255,66,14)" stroke-linejoin="round" d="M 7065,3572 L 7190,3697 7315,3572 7190,3447 7065,3572 Z"/>
 <path fill="rgb(255,66,14)" stroke="none" d="M 7764,3194 L 7889,3319 8013,3194 7889,3069 7764,3194 Z"/>
 <path fill="none" stroke="rgb(255,66,14)" stroke-linejoin="round" d="M 7764,3194 L 7889,3319 8013,3194 7889,3069 7764,3194 Z"/>
 <path fill="rgb(255,66,14)" stroke="none" d="M 8463,3009 L 8588,3134 8713,3009 8588,2884 8463,3009 Z"/>
 <path fill="none" stroke="rgb(255,66,14)" stroke-linejoin="round" d="M 8463,3009 L 8588,3134 8713,3009 8588,2884 8463,3009 Z"/>
 <path fill="rgb(255,66,14)" stroke="none" d="M 9163,2551 L 9288,2676 9413,2551 9288,2426 9163,2551 Z"/>
 <path fill="none" stroke="rgb(255,66,14)" stroke-linejoin="round" d="M 9163,2551 L 9288,2676 9413,2551 9288,2426 9163,2551 Z"/>
 <path fill="rgb(255,66,14)" stroke="none" d="M 9863,2159 L 9988,2283 10113,2159 9988,2034 9863,2159 Z"/>
 <path fill="none" stroke="rgb(255,66,14)" stroke-linejoin="round" d="M 9863,2159 L 9988,2283 10113,2159 9988,2034 9863,2159 Z"/>
 <path fill="rgb(255,66,14)" stroke="none" d="M 10563,1762 L 10688,1887 10813,1762 10688,1637 10563,1762 Z"/>
 <path fill="none" stroke="rgb(255,66,14)" stroke-linejoin="round" d="M 10563,1762 L 10688,1887 10813,1762 10688,1637 10563,1762 Z"/>
 <path fill="rgb(255,66,14)" stroke="none" d="M 11263,1277 L 11388,1402 11513,1277 11388,1152 11263,1277 Z"/>
 <path fill="none" stroke="rgb(255,66,14)" stroke-linejoin="round" d="M 11263,1277 L 11388,1402 11513,1277 11388,1152 11263,1277 Z"/>
 <path fill="rgb(255,66,14)" stroke="none" d="M 11963,842 L 12088,967 12213,842 12088,717 11963,842 Z"/>
 <path fill="none" stroke="rgb(255,66,14)" stroke-linejoin="round" d="M 11963,842 L 12088,967 12213,842 12088,717 11963,842 Z"/>
 <path fill="none" stroke="rgb(255,211,32)" stroke-width="80" stroke-linejoin="round" d="M 2291,5602 L 2990,5362 3690,5043 4390,4825 5090,4606 5790,4354 6490,4160 7190,3849 7889,3552 8588,3256 9288,2850 9988,2523 10688,2186"/>
 <path fill="rgb(255,211,32)" stroke="none" d="M 2166,5477 L 2291,5727 2416,5477 2166,5477 Z"/>
 <path fill="none" stroke="rgb(255,211,32)" stroke-linejoin="round" d="M 2166,5477 L 2291,5727 2416,5477 2166,5477 Z"/>
 <path fill="rgb(255,211,32)" stroke="none" d="M 2865,5237 L 2990,5487 3115,5237 2865,5237 Z"/>
 <path fill="none" stroke="rgb(255,211,32)" stroke-linejoin="round" d="M 2865,5237 L 2990,5487 3115,5237 2865,5237 Z"/>
 <path fill="rgb(255,211,32)" stroke="none" d="M 3565,4918 L 3690,5168 3815,4918 3565,4918 Z"/>
 <path fill="none" stroke="rgb(255,211,32)" stroke-linejoin="round" d="M 3565,4918 L 3690,5168 3815,4918 3565,4918 Z"/>
 <path fill="rgb(255,211,32)" stroke="none" d="M 4265,4700 L 4390,4950 4515,4700 4265,4700 Z"/>
 <path fill="none" stroke="rgb(255,211,32)" stroke-linejoin="round" d="M 4265,4700 L 4390,4950 4515,4700 4265,4700 Z"/>
 <path fill="rgb(255,211,32)" stroke="none" d="M 4965,4481 L 5090,4731 5215,4481 4965,4481 Z"/>
 <path fill="none" stroke="rgb(255,211,32)" stroke-linejoin="round" d="M 4965,4481 L 5090,4731 5215,4481 4965,4481 Z"/>
 <path fill="rgb(255,211,32)" stroke="none" d="M 5665,4229 L 5790,4479 5915,4229 5665,4229 Z"/>
 <path fill="none" stroke="rgb(255,211,32)" stroke-linejoin="round" d="M 5665,4229 L 5790,4479 5915,4229 5665,4229 Z"/>
 <path fill="rgb(255,211,32)" stroke="none" d="M 6365,4035 L 6490,4285 6615,4035 6365,4035 Z"/>
 <path fill="none" stroke="rgb(255,211,32)" stroke-linejoin="round" d="M 6365,4035 L 6490,4285 6615,4035 6365,4035 Z"/>
 <path fill="rgb(255,211,32)" stroke="none" d="M 7065,3724 L 7190,3974 7315,3724 7065,3724 Z"/>
 <path fill="none" stroke="rgb(255,211,32)" stroke-linejoin="round" d="M 7065,3724 L 7190,3974 7315,3724 7065,3724 Z"/>
 <path fill="rgb(255,211,32)" stroke="none" d="M 7764,3427 L 7889,3677 8013,3427 7764,3427 Z"/>
 <path fill="none" stroke="rgb(255,211,32)" stroke-linejoin="round" d="M 7764,3427 L 7889,3677 8013,3427 7764,3427 Z"/>
 <path fill="rgb(255,211,32)" stroke="none" d="M 8463,3131 L 8588,3381 8713,3131 8463,3131 Z"/>
 <path fill="none" stroke="rgb(255,211,32)" stroke-linejoin="round" d="M 8463,3131 L 8588,3381 8713,3131 8463,3131 Z"/>
 <path fill="rgb(255,211,32)" stroke="none" d="M 9163,2725 L 9288,2975 9413,2725 9163,2725 Z"/>
 <path fill="none" stroke="rgb(255,211,32)" stroke-linejoin="round" d="M 9163,2725 L 9288,2975 9413,2725 9163,2725 Z"/>
 <path fill="rgb(255,211,32)" stroke="none" d="M 9863,2398 L 9988,2648 10113,2398 9863,2398 Z"/>
 <path fill="none" stroke="rgb(255,211,32)" stroke-linejoin="round" d="M 9863,2398 L 9988,2648 10113,2398 9863,2398 Z"/>
 <path fill="rgb(255,211,32)" stroke="none" d="M 10563,2061 L 10688,2310 10813,2061 10563,2061 Z"/>
 <path fill="none" stroke="rgb(255,211,32)" stroke-linejoin="round" d="M 10563,2061 L 10688,2310 10813,2061 10563,2061 Z"/>
 <path fill="none" stroke="rgb(87,157,28)" stroke-width="80" stroke-linejoin="round" d="M 2291,6544 L 2990,6329 3690,6116 4390,5814 5090,5352 5790,4929 6490,4252 7190,3428 7889,2710 8588,2015 9288,1174 9988,569"/>
 <path fill="rgb(87,157,28)" stroke="none" d="M 2166,6669 L 2416,6669 2291,6419 2166,6669 Z"/>
 <path fill="none" stroke="rgb(87,157,28)" stroke-linejoin="round" d="M 2166,6669 L 2416,6669 2291,6419 2166,6669 Z"/>
 <path fill="rgb(87,157,28)" stroke="none" d="M 2865,6454 L 3115,6454 2990,6204 2865,6454 Z"/>
 <path fill="none" stroke="rgb(87,157,28)" stroke-linejoin="round" d="M 2865,6454 L 3115,6454 2990,6204 2865,6454 Z"/>
 <path fill="rgb(87,157,28)" stroke="none" d="M 3565,6241 L 3815,6241 3690,5991 3565,6241 Z"/>
 <path fill="none" stroke="rgb(87,157,28)" stroke-linejoin="round" d="M 3565,6241 L 3815,6241 3690,5991 3565,6241 Z"/>
 <path fill="rgb(87,157,28)" stroke="none" d="M 4265,5939 L 4515,5939 4390,5689 4265,5939 Z"/>
 <path fill="none" stroke="rgb(87,157,28)" stroke-linejoin="round" d="M 4265,5939 L 4515,5939 4390,5689 4265,5939 Z"/>
 <path fill="rgb(87,157,28)" stroke="none" d="M 4965,5477 L 5215,5477 5090,5227 4965,5477 Z"/>
 <path fill="none" stroke="rgb(87,157,28)" stroke-linejoin="round" d="M 4965,5477 L 5215,5477 5090,5227 4965,5477 Z"/>
 <path fill="rgb(87,157,28)" stroke="none" d="M 5665,5054 L 5915,5054 5790,4804 5665,5054 Z"/>
 <path fill="none" stroke="rgb(87,157,28)" stroke-linejoin="round" d="M 5665,5054 L 5915,5054 5790,4804 5665,5054 Z"/>
 <path fill="rgb(87,157,28)" stroke="none" d="M 6365,4377 L 6615,4377 6490,4127 6365,4377 Z"/>
 <path fill="none" stroke="rgb(87,157,28)" stroke-linejoin="round" d="M 6365,4377 L 6615,4377 6490,4127 6365,4377 Z"/>
 <path fill="rgb(87,157,28)" stroke="none" d="M 7065,3553 L 7315,3553 7190,3303 7065,3553 Z"/>
 <path fill="none" stroke="rgb(87,157,28)" stroke-linejoin="round" d="M 7065,3553 L 7315,3553 7190,3303 7065,3553 Z"/>
 <path fill="rgb(87,157,28)" stroke="none" d="M 7764,2835 L 8013,2835 7889,2585 7764,2835 Z"/>
 <path fill="none" stroke="rgb(87,157,28)" stroke-linejoin="round" d="M 7764,2835 L 8013,2835 7889,2585 7764,2835 Z"/>
 <path fill="rgb(87,157,28)" stroke="none" d="M 8463,2140 L 8713,2140 8588,1890 8463,2140 Z"/>
 <path fill="none" stroke="rgb(87,157,28)" stroke-linejoin="round" d="M 8463,2140 L 8713,2140 8588,1890 8463,2140 Z"/>
 <path fill="rgb(87,157,28)" stroke="none" d="M 9163,1299 L 9413,1299 9288,1049 9163,1299 Z"/>
 <path fill="none" stroke="rgb(87,157,28)" stroke-linejoin="round" d="M 9163,1299 L 9413,1299 9288,1049 9163,1299 Z"/>
 <path fill="rgb(87,157,28)" stroke="none" d="M 9863,694 L 10113,694 9988,444 9863,694 Z"/>
 <path fill="none" stroke="rgb(87,157,28)" stroke-linejoin="round" d="M 9863,694 L 10113,694 9988,444 9863,694 Z"/>
 <text class="SVGTextShape" transform="rotate(-44.9 1953 8230)"><tspan class="TextParagraph" font-family="Liberation Sans, sans-serif" font-size="353px" font-weight="400"><tspan class="TextPosition" x="1953" y="8230"><tspan fill="rgb(0,0,0)" stroke="none">100</tspan></tspan></tspan></text>
 <text class="SVGTextShape" transform="rotate(-44.9 2652 8230)"><tspan class="TextParagraph" font-family="Liberation Sans, sans-serif" font-size="353px" font-weight="400"><tspan class="TextPosition" x="2652" y="8230"><tspan fill="rgb(0,0,0)" stroke="none">250</tspan></tspan></tspan></text>
 <text class="SVGTextShape" transform="rotate(-44.9 3352 8230)"><tspan class="TextParagraph" font-family="Liberation Sans, sans-serif" font-size="353px" font-weight="400"><tspan class="TextPosition" x="3352" y="8230"><tspan fill="rgb(0,0,0)" stroke="none">500</tspan></tspan></tspan></text>
 <text class="SVGTextShape" transform="rotate(-44.9 4164 8118)"><tspan class="TextParagraph" font-family="Liberation Sans, sans-serif" font-size="353px" font-weight="400"><tspan class="TextPosition" x="4164" y="8118"><tspan fill="rgb(0,0,0)" stroke="none">1K</tspan></tspan></tspan></text>
 <text class="SVGTextShape" transform="rotate(-44.9 4649 8332)"><tspan class="TextParagraph" font-family="Liberation Sans, sans-serif" font-size="353px" font-weight="400"><tspan class="TextPosition" x="4649" y="8332"><tspan fill="rgb(0,0,0)" stroke="none">2.5K</tspan></tspan></tspan></text>
 <text class="SVGTextShape" transform="rotate(-44.9 5564 8118)"><tspan class="TextParagraph" font-family="Liberation Sans, sans-serif" font-size="353px" font-weight="400"><tspan class="TextPosition" x="5564" y="8118"><tspan fill="rgb(0,0,0)" stroke="none">5K</tspan></tspan></tspan></text>
 <text class="SVGTextShape" transform="rotate(-44.9 6124 8258)"><tspan class="TextParagraph" font-family="Liberation Sans, sans-serif" font-size="353px" font-weight="400"><tspan class="TextPosition" x="6124" y="8258"><tspan fill="rgb(0,0,0)" stroke="none">10K</tspan></tspan></tspan></text>
 <text class="SVGTextShape" transform="rotate(-44.9 6824 8258)"><tspan class="TextParagraph" font-family="Liberation Sans, sans-serif" font-size="353px" font-weight="400"><tspan class="TextPosition" x="6824" y="8258"><tspan fill="rgb(0,0,0)" stroke="none">25K</tspan></tspan></tspan></text>
 <text class="SVGTextShape" transform="rotate(-44.9 7523 8258)"><tspan class="TextParagraph" font-family="Liberation Sans, sans-serif" font-size="353px" font-weight="400"><tspan class="TextPosition" x="7523" y="8258"><tspan fill="rgb(0,0,0)" stroke="none">50K</tspan></tspan></tspan></text>
 <text class="SVGTextShape" transform="rotate(-44.9 8083 8398)"><tspan class="TextParagraph" font-family="Liberation Sans, sans-serif" font-size="353px" font-weight="400"><tspan class="TextPosition" x="8083" y="8398"><tspan fill="rgb(0,0,0)" stroke="none">100K</tspan></tspan></tspan></text>
 <text class="SVGTextShape" transform="rotate(-44.9 8783 8398)"><tspan class="TextParagraph" font-family="Liberation Sans, sans-serif" font-size="353px" font-weight="400"><tspan class="TextPosition" x="8783" y="8398"><tspan fill="rgb(0,0,0)" stroke="none">250K</tspan></tspan></tspan></text>
 <text class="SVGTextShape" transform="rotate(-44.9 9483 8398)"><tspan class="TextParagraph" font-family="Liberation Sans, sans-serif" font-size="353px" font-weight="400"><tspan class="TextPosition" x="9483" y="8398"><tspan fill="rgb(0,0,0)" stroke="none">500K</tspan></tspan></tspan></text>
 <text class="SVGTextShape" transform="rotate(-44.9 10426 8154)"><tspan class="TextParagraph" font-family="Liberation Sans, sans-serif" font-size="353px" font-weight="400"><tspan class="TextPosition" x="10426" y="8154"><tspan fill="rgb(0,0,0)" stroke="none">1M</tspan></tspan></tspan></text>
 <text class="SVGTextShape" transform="rotate(-44.9 10910 8370)"><tspan class="TextParagraph" font-family="Liberation Sans, sans-serif" font-size="353px" font-weight="400"><tspan class="TextPosition" x="10910" y="8370"><tspan fill="rgb(0,0,0)" stroke="none">2.5M</tspan></tspan></tspan></text>
 <text class="SVGTextShape" transform="rotate(-44.9 11825 8154)"><tspan class="TextParagraph" font-family="Liberation Sans, sans-serif" font-size="353px" font-weight="400"><tspan class="TextPosition" x="11825" y="8154"><tspan fill="rgb(0,0,0)" stroke="none">5M</tspan></tspan></tspan></text>
 <text class="SVGTextShape" transform="rotate(-44.9 12385 8294)"><tspan class="TextParagraph" font-family="Liberation Sans, sans-serif" font-size="353px" font-weight="400"><tspan class="TextPosition" x="12385" y="8294"><tspan fill="rgb(0,0,0)" stroke="none">10M</tspan></tspan></tspan></text>
 <text class="SVGTextShape"><tspan class="TextParagraph" font-family="Liberation Sans, sans-serif" font-size="353px" font-weight="400"><tspan class="TextPosition" x="1194" y="7454"><tspan fill="rgb(0,0,0)" stroke="none">1E+1</tspan></tspan></tspan></text>
 <text class="SVGTextShape"><tspan class="TextParagraph" font-family="Liberation Sans, sans-serif" font-size="353px" font-weight="400"><tspan class="TextPosition" x="1194" y="6474"><tspan fill="rgb(0,0,0)" stroke="none">1E+2</tspan></tspan></tspan></text>
 <text class="SVGTextShape"><tspan class="TextParagraph" font-family="Liberation Sans, sans-serif" font-size="353px" font-weight="400"><tspan class="TextPosition" x="1194" y="5494"><tspan fill="rgb(0,0,0)" stroke="none">1E+3</tspan></tspan></tspan></text>
 <text class="SVGTextShape"><tspan class="TextParagraph" font-family="Liberation Sans, sans-serif" font-size="353px" font-weight="400"><tspan class="TextPosition" x="1194" y="4514"><tspan fill="rgb(0,0,0)" stroke="none">1E+4</tspan></tspan></tspan></text>
 <text class="SVGTextShape"><tspan class="TextParagraph" font-family="Liberation Sans, sans-serif" font-size="353px" font-weight="400"><tspan class="TextPosition" x="1194" y="3536"><tspan fill="rgb(0,0,0)" stroke="none">1E+5</tspan></tspan></tspan></text>
 <text class="SVGTextShape"><tspan class="TextParagraph" font-family="Liberation Sans, sans-serif" font-size="353px" font-weight="400"><tspan class="TextPosition" x="1194" y="2556"><tspan fill="rgb(0,0,0)" stroke="none">1E+6</tspan></tspan></tspan></text>
 <text class="SVGTextShape"><tspan class="TextParagraph" font-family="Liberation Sans, sans-serif" font-size="353px" font-weight="400"><tspan class="TextPosition" x="1194" y="1576"><tspan fill="rgb(0,0,0)" stroke="none">1E+7</tspan></tspan></tspan></text>
 <text class="SVGTextShape"><tspan class="TextParagraph" font-family="Liberation Sans, sans-serif" font-size="353px" font-weight="400"><tspan class="TextPosition" x="1194" y="597"><tspan fill="rgb(0,0,0)" stroke="none">1E+8</tspan></tspan></tspan></text>
 <path fill="none" stroke="rgb(0,69,134)" stroke-width="80" stroke-linejoin="round" d="M 14057,3751 L 14857,3751"/>
 <path fill="rgb(0,69,134)" stroke="none" d="M 14351,3646 L 14351,3857 14562,3857 14562,3646 14351,3646 Z"/>
 <path fill="none" stroke="rgb(0,69,134)" stroke-linejoin="round" d="M 14351,3646 L 14351,3857 14562,3857 14562,3646 14351,3646 Z"/>
 <path fill="none" stroke="rgb(255,66,14)" stroke-width="80" stroke-linejoin="round" d="M 14057,4249 L 14857,4249"/>
 <path fill="rgb(255,66,14)" stroke="none" d="M 14351,4249 L 14457,4355 14562,4249 14457,4144 14351,4249 Z"/>
 <path fill="none" stroke="rgb(255,66,14)" stroke-linejoin="round" d="M 14351,4249 L 14457,4355 14562,4249 14457,4144 14351,4249 Z"/>
 <path fill="none" stroke="rgb(255,211,32)" stroke-width="80" stroke-linejoin="round" d="M 14057,4747 L 14857,4747"/>
 <path fill="rgb(255,211,32)" stroke="none" d="M 14351,4642 L 14457,4853 14562,4642 14351,4642 Z"/>
 <path fill="none" stroke="rgb(255,211,32)" stroke-linejoin="round" d="M 14351,4642 L 14457,4853 14562,4642 14351,4642 Z"/>
 <path fill="none" stroke="rgb(87,157,28)" stroke-width="80" stroke-linejoin="round" d="M 14057,5245 L 14857,5245"/>
 <path fill="rgb(87,157,28)" stroke="none" d="M 14351,5351 L 14562,5351 14457,5140 14351,5351 Z"/>
 <path fill="none" stroke="rgb(87,157,28)" stroke-linejoin="round" d="M 14351,5351 L 14562,5351 14457,5140 14351,5351 Z"/>
 <text class="SVGTextShape"><tspan class="TextParagraph" font-family="Liberation Sans, sans-serif" font-size="353px" font-weight="400"><tspan class="TextPosition" x="14957" y="3871"><tspan fill="rgb(0,0,0)" stroke="none">DLB</tspan></tspan></tspan></text>
 <text class="SVGTextShape"><tspan class="TextParagraph" font-family="Liberation Sans, sans-serif" font-size="353px" font-weight="400"><tspan class="TextPosition" x="14957" y="4369"><tspan fill="rgb(0,0,0)" stroke="none">CDT</tspan></tspan></tspan></text>
 <text class="SVGTextShape"><tspan class="TextParagraph" font-family="Liberation Sans, sans-serif" font-size="353px" font-weight="400"><tspan class="TextPosition" x="14957" y="4867"><tspan fill="rgb(0,0,0)" stroke="none">FAD</tspan></tspan></tspan></text>
 <text class="SVGTextShape"><tspan class="TextParagraph" font-family="Liberation Sans, sans-serif" font-size="353px" font-weight="400"><tspan class="TextPosition" x="14957" y="5365"><tspan fill="rgb(0,0,0)" stroke="none">DEL</tspan></tspan></tspan></text>
 <text class="SVGTextShape"><tspan class="TextParagraph" font-family="Liberation Sans, sans-serif" font-size="318px" font-weight="400"><tspan class="TextPosition" x="6644" y="8838"><tspan fill="rgb(0,0,0)" stroke="none">points</tspan></tspan></tspan></text>
 <text class="SVGTextShape" transform="rotate(-90 712 4974)"><tspan class="TextParagraph" font-family="Liberation Sans, sans-serif" font-size="318px" font-weight="400"><tspan class="TextPosition" x="712" y="4974"><tspan fill="rgb(0,0,0)" stroke="none">time [µs]</tspan></tspan></tspan></text>
</svg>