<?xml version="1.0" encoding="UTF-8"?>
<!DOCTYPE svg PUBLIC "-//W3C//DTD SVG 1.1//EN" "http://www.w3.org/Graphics/SVG/1.1/DTD/svg11.dtd">
<svg width="226mm" height="127mm" viewBox="0 0 22600 12700" version="1.1" xmlns="http://www.w3.org/2000/svg" xmlns:xlink="http://www.w3.org/1999/xlink" stroke-width="28.222" stroke-linejoin="round" xml:space="preserve">
 <path fill="rgb(255,255,255)" stroke="none" d="M 11289,12650 L 50,12650 50,50 22528,50 22528,12650 11289,12650 Z"/>
 <path fill="none" stroke="rgb(0,0,0)" stroke-width="100" stroke-linejoin="round" d="M 11289,12650 L 50,12650 50,50 22528,50 22528,12650 11289,12650 Z"/>
 <path fill="none" stroke="rgb(179,179,179)" stroke-linejoin="round" d="M 11136,11757 L 2585,11757 2585,499 19687,499 19687,11757 11136,11757 Z"/>
 <path fill="none" stroke="rgb(221,221,221)" stroke-linejoin="round" d="M 3155,497 L 3155,11756"/>
 <path fill="none" stroke="rgb(221,221,221)" stroke-linejoin="round" d="M 4295,497 L 4295,11756"/>
 <path fill="none" stroke="rgb(221,221,221)" stroke-linejoin="round" d="M 5436,497 L 5436,11756"/>
 <path fill="none" stroke="rgb(221,221,221)" stroke-linejoin="round" d="M 6576,497 L 6576,11756"/>
 <path fill="none" stroke="rgb(221,221,221)" stroke-linejoin="round" d="M 7715,497 L 7715,11756"/>
 <path fill="none" stroke="rgb(221,221,221)" stroke-linejoin="round" d="M 8855,497 L 8855,11756"/>
 <path fill="none" stroke="rgb(221,221,221)" stroke-linejoin="round" d="M 9995,497 L 9995,11756"/>
 <path fill="none" stroke="rgb(221,221,221)" stroke-linejoin="round" d="M 11136,497 L 11136,11756"/>
 <path fill="none" stroke="rgb(221,221,221)" stroke-linejoin="round" d="M 12276,497 L 12276,11756"/>
 <path fill="none" stroke="rgb(221,221,221)" stroke-linejoin="round" d="M 13416,497 L 13416,11756"/>
 <path fill="none" stroke="rgb(221,221,221)" stroke-linejoin="round" d="M 14556,497 L 14556,11756"/>
 <path fill="none" stroke="rgb(221,221,221)" stroke-linejoin="round" d="M 15696,497 L 15696,11756"/>
 <path fill="none" stroke="rgb(221,221,221)" stroke-linejoin="round" d="M 16836,497 L 16836,11756"/>
 <path fill="none" stroke="rgb(221,221,221)" stroke-linejoin="round" d="M 17977,497 L 17977,11756"/>
 <path fill="none" stroke="rgb(221,221,221)" stroke-linejoin="round" d="M 19116,497 L 19116,11756"/>
 <path fill="none" stroke="rgb(179,179,179)" stroke-linejoin="round" d="M 19686,11756 L 2585,11756"/>
 <path fill="none" stroke="rgb(179,179,179)" stroke-linejoin="round" d="M 19686,10147 L 2585,10147"/>
 <path fill="none" stroke="rgb(179,179,179)" stroke-linejoin="round" d="M 19686,8539 L 2585,8539"/>
 <path fill="none" stroke="rgb(179,179,179)" stroke-linejoin="round" d="M 19686,6930 L 2585,6930"/>
 <path fill="none" stroke="rgb(179,179,179)" stroke-linejoin="round" d="M 19686,5322 L 2585,5322"/>
 <path fill="none" stroke="rgb(179,179,179)" stroke-linejoin="round" d="M 19686,3713 L 2585,3713"/>
 <path fill="none" stroke="rgb(179,179,179)" stroke-linejoin="round" d="M 19686,2105 L 2585,2105"/>
 <path fill="none" stroke="rgb(179,179,179)" stroke-linejoin="round" d="M 19686,497 L 2585,497"/>
 <path fill="none" stroke="rgb(179,179,179)" stroke-linejoin="round" d="M 2585,11904 L 2585,11756"/>
 <path fill="none" stroke="rgb(179,179,179)" stroke-linejoin="round" d="M 2585,11904 L 2585,11756"/>
 <path fill="none" stroke="rgb(179,179,179)" stroke-linejoin="round" d="M 3725,11904 L 3725,11756"/>
 <path fill="none" stroke="rgb(179,179,179)" stroke-linejoin="round" d="M 3725,11904 L 3725,11756"/>
 <path fill="none" stroke="rgb(179,179,179)" stroke-linejoin="round" d="M 4865,11904 L 4865,11756"/>
 <path fill="none" stroke="rgb(179,179,179)" stroke-linejoin="round" d="M 4865,11904 L 4865,11756"/>
 <path fill="none" stroke="rgb(179,179,179)" stroke-linejoin="round" d="M 6005,11904 L 6005,11756"/>
 <path fill="none" stroke="rgb(179,179,179)" stroke-linejoin="round" d="M 6005,11904 L 6005,11756"/>
 <path fill="none" stroke="rgb(179,179,179)" stroke-linejoin="round" d="M 7145,11904 L 7145,11756"/>
 <path fill="none" stroke="rgb(179,179,179)" stroke-linejoin="round" d="M 7145,11904 L 7145,11756"/>
 <path fill="none" stroke="rgb(179,179,179)" stroke-linejoin="round" d="M 8285,11904 L 8285,11756"/>
 <path fill="none" stroke="rgb(179,179,179)" stroke-linejoin="round" d="M 8285,11904 L 8285,11756"/>
 <path fill="none" stroke="rgb(179,179,179)" stroke-linejoin="round" d="M 9426,11904 L 9426,11756"/>
 <path fill="none" stroke="rgb(179,179,179)" stroke-linejoin="round" d="M 9426,11904 L 9426,11756"/>
 <path fill="none" stroke="rgb(179,179,179)" stroke-linejoin="round" d="M 10566,11904 L 10566,11756"/>
 <path fill="none" stroke="rgb(179,179,179)" stroke-linejoin="round" d="M 10566,11904 L 10566,11756"/>
 <path fill="none" stroke="rgb(179,179,179)" stroke-linejoin="round" d="M 11706,11904 L 11706,11756"/>
 <path fill="none" stroke="rgb(179,179,179)" stroke-linejoin="round" d="M 11706,11904 L 11706,11756"/>
 <path fill="none" stroke="rgb(179,179,179)" stroke-linejoin="round" d="M 12846,11904 L 12846,11756"/>
 <path fill="none" stroke="rgb(179,179,179)" stroke-linejoin="round" d="M 12846,11904 L 12846,11756"/>
 <path fill="none" stroke="rgb(179,179,179)" stroke-linejoin="round" d="M 13985,11904 L 13985,11756"/>
 <path fill="none" stroke="rgb(179,179,179)" stroke-linejoin="round" d="M 13985,11904 L 13985,11756"/>
 <path fill="none" stroke="rgb(179,179,179)" stroke-linejoin="round" d="M 15126,11904 L 15126,11756"/>
 <path fill="none" stroke="rgb(179,179,179)" stroke-linejoin="round" d="M 15126,11904 L 15126,11756"/>
 <path fill="none" stroke="rgb(179,179,179)" stroke-linejoin="round" d="M 16266,11904 L 16266,11756"/>
 <path fill="none" stroke="rgb(179,179,179)" stroke-linejoin="round" d="M 16266,11904 L 16266,11756"/>
 <path fill="none" stroke="rgb(179,179,179)" stroke-linejoin="round" d="M 17406,11904 L 17406,11756"/>
 <path fill="none" stroke="rgb(179,179,179)" stroke-linejoin="round" d="M 17406,11904 L 17406,11756"/>
 <path fill="none" stroke="rgb(179,179,179)" stroke-linejoin="round" d="M 18546,11904 L 18546,11756"/>
 <path fill="none" stroke="rgb(179,179,179)" stroke-linejoin="round" d="M 18546,11904 L 18546,11756"/>
 <path fill="none" stroke="rgb(179,179,179)" stroke-linejoin="round" d="M 19686,11904 L 19686,11756"/>
 <path fill="none" stroke="rgb(179,179,179)" stroke-linejoin="round" d="M 19686,11904 L 19686,11756"/>
 <path fill="none" stroke="rgb(179,179,179)" stroke-linejoin="round" d="M 2585,11756 L 19686,11756"/>
 <path fill="none" stroke="rgb(179,179,179)" stroke-linejoin="round" d="M 2436,11756 L 2585,11756"/>
 <path fill="none" stroke="rgb(179,179,179)" stroke-linejoin="round" d="M 2436,11756 L 2585,11756"/>
 <path fill="none" stroke="rgb(179,179,179)" stroke-linejoin="round" d="M 2436,10147 L 2585,10147"/>
 <path fill="none" stroke="rgb(179,179,179)" stroke-linejoin="round" d="M 2436,10147 L 2585,10147"/>
 <path fill="none" stroke="rgb(179,179,179)" stroke-linejoin="round" d="M 2436,8539 L 2585,8539"/>
 <path fill="none" stroke="rgb(179,179,179)" stroke-linejoin="round" d="M 2436,8539 L 2585,8539"/>
 <path fill="none" stroke="rgb(179,179,179)" stroke-linejoin="round" d="M 2436,6930 L 2585,6930"/>
 <path fill="none" stroke="rgb(179,179,179)" stroke-linejoin="round" d="M 2436,6930 L 2585,6930"/>
 <path fill="none" stroke="rgb(179,179,179)" stroke-linejoin="round" d="M 2436,5322 L 2585,5322"/>
 <path fill="none" stroke="rgb(179,179,179)" stroke-linejoin="round" d="M 2436,5322 L 2585,5322"/>
 <path fill="none" stroke="rgb(179,179,179)" stroke-linejoin="round" d="M 2436,3714 L 2585,3714"/>
 <path fill="none" stroke="rgb(179,179,179)" stroke-linejoin="round" d="M 2436,3714 L 2585,3714"/>
 <path fill="none" stroke="rgb(179,179,179)" stroke-linejoin="round" d="M 2436,2105 L 2585,2105"/>
 <path fill="none" stroke="rgb(179,179,179)" stroke-linejoin="round" d="M 2436,2105 L 2585,2105"/>
 <path fill="none" stroke="rgb(179,179,179)" stroke-linejoin="round" d="M 2436,497 L 2585,497"/>
 <path fill="none" stroke="rgb(179,179,179)" stroke-linejoin="round" d="M 2436,497 L 2585,497"/>
 <path fill="none" stroke="rgb(179,179,179)" stroke-linejoin="round" d="M 2585,11756 L 2585,497"/>
 <path fill="none" stroke="rgb(255,66,14)" stroke-width="80" stroke-linejoin="round" d="M 2585,9232 L 3725,8893 4865,8398 6005,8031 7145,7461 8286,7097 9426,6604 10566,5958 11706,5468 12846,5003 13985,4323 15126,3712 16266,3075 17406,2217 18546,1433 19439,497"/>
 <path fill="rgb(255,66,14)" stroke="none" d="M 2461,9232 L 2585,9356 2710,9232 2585,9108 2461,9232 Z"/>
 <path fill="none" stroke="rgb(255,66,14)" stroke-linejoin="round" d="M 2461,9232 L 2585,9356 2710,9232 2585,9108 2461,9232 Z"/>
 <path fill="rgb(255,66,14)" stroke="none" d="M 3601,8893 L 3725,9017 3850,8893 3725,8769 3601,8893 Z"/>
 <path fill="none" stroke="rgb(255,66,14)" stroke-linejoin="round" d="M 3601,8893 L 3725,9017 3850,8893 3725,8769 3601,8893 Z"/>
 <path fill="rgb(255,66,14)" stroke="none" d="M 4741,8398 L 4865,8522 4990,8398 4865,8274 4741,8398 Z"/>
 <path fill="none" stroke="rgb(255,66,14)" stroke-linejoin="round" d="M 4741,8398 L 4865,8522 4990,8398 4865,8274 4741,8398 Z"/>
 <path fill="rgb(255,66,14)" stroke="none" d="M 5881,8031 L 6005,8155 6130,8031 6005,7907 5881,8031 Z"/>
 <path fill="none" stroke="rgb(255,66,14)" stroke-linejoin="round" d="M 5881,8031 L 6005,8155 6130,8031 6005,7907 5881,8031 Z"/>
 <path fill="rgb(255,66,14)" stroke="none" d="M 7021,7461 L 7145,7585 7269,7461 7145,7337 7021,7461 Z"/>
 <path fill="none" stroke="rgb(255,66,14)" stroke-linejoin="round" d="M 7021,7461 L 7145,7585 7269,7461 7145,7337 7021,7461 Z"/>
 <path fill="rgb(255,66,14)" stroke="none" d="M 8161,7097 L 8286,7221 8410,7097 8286,6973 8161,7097 Z"/>
 <path fill="none" stroke="rgb(255,66,14)" stroke-linejoin="round" d="M 8161,7097 L 8286,7221 8410,7097 8286,6973 8161,7097 Z"/>
 <path fill="rgb(255,66,14)" stroke="none" d="M 9301,6604 L 9426,6728 9550,6604 9426,6480 9301,6604 Z"/>
 <path fill="none" stroke="rgb(255,66,14)" stroke-linejoin="round" d="M 9301,6604 L 9426,6728 9550,6604 9426,6480 9301,6604 Z"/>
 <path fill="rgb(255,66,14)" stroke="none" d="M 10441,5958 L 10566,6082 10690,5958 10566,5834 10441,5958 Z"/>
 <path fill="none" stroke="rgb(255,66,14)" stroke-linejoin="round" d="M 10441,5958 L 10566,6082 10690,5958 10566,5834 10441,5958 Z"/>
 <path fill="rgb(255,66,14)" stroke="none" d="M 11581,5468 L 11706,5592 11830,5468 11706,5344 11581,5468 Z"/>
 <path fill="none" stroke="rgb(255,66,14)" stroke-linejoin="round" d="M 11581,5468 L 11706,5592 11830,5468 11706,5344 11581,5468 Z"/>
 <path fill="rgb(255,66,14)" stroke="none" d="M 12721,5003 L 12846,5127 12970,5003 12846,4879 12721,5003 Z"/>
 <path fill="none" stroke="rgb(255,66,14)" stroke-linejoin="round" d="M 12721,5003 L 12846,5127 12970,5003 12846,4879 12721,5003 Z"/>
 <path fill="rgb(255,66,14)" stroke="none" d="M 13861,4323 L 13985,4447 14110,4323 13985,4199 13861,4323 Z"/>
 <path fill="none" stroke="rgb(255,66,14)" stroke-linejoin="round" d="M 13861,4323 L 13985,4447 14110,4323 13985,4199 13861,4323 Z"/>
 <path fill="rgb(255,66,14)" stroke="none" d="M 15002,3712 L 15126,3836 15251,3712 15126,3588 15002,3712 Z"/>
 <path fill="none" stroke="rgb(255,66,14)" stroke-linejoin="round" d="M 15002,3712 L 15126,3836 15251,3712 15126,3588 15002,3712 Z"/>
 <path fill="rgb(255,66,14)" stroke="none" d="M 16142,3075 L 16266,3199 16391,3075 16266,2951 16142,3075 Z"/>
 <path fill="none" stroke="rgb(255,66,14)" stroke-linejoin="round" d="M 16142,3075 L 16266,3199 16391,3075 16266,2951 16142,3075 Z"/>
 <path fill="rgb(255,66,14)" stroke="none" d="M 17282,2217 L 17406,2341 17531,2217 17406,2093 17282,2217 Z"/>
 <path fill="none" stroke="rgb(255,66,14)" stroke-linejoin="round" d="M 17282,2217 L 17406,2341 17531,2217 17406,2093 17282,2217 Z"/>
 <path fill="rgb(255,66,14)" stroke="none" d="M 18422,1433 L 18546,1557 18670,1433 18546,1309 18422,1433 Z"/>
 <path fill="none" stroke="rgb(255,66,14)" stroke-linejoin="round" d="M 18422,1433 L 18546,1557 18670,1433 18546,1309 18422,1433 Z"/>
 <path fill="none" stroke="rgb(255,211,32)" stroke-width="80" stroke-linejoin="round" d="M 2585,9010 L 3725,8642 4865,8111 6005,7637 7145,7499 8286,7070 9426,6654 10566,6034 11706,5562 12846,5071 13985,4434 15126,3897 16266,3335"/>
 <path fill="rgb(255,211,32)" stroke="none" d="M 2461,8886 L 2585,9134 2710,8886 2461,8886 Z"/>
 <path fill="none" stroke="rgb(255,211,32)" stroke-linejoin="round" d="M 2461,8886 L 2585,9134 2710,8886 2461,8886 Z"/>
 <path fill="rgb(255,211,32)" stroke="none" d="M 3601,8518 L 3725,8766 3850,8518 3601,8518 Z"/>
 <path fill="none" stroke="rgb(255,211,32)" stroke-linejoin="round" d="M 3601,8518 L 3725,8766 3850,8518 3601,8518 Z"/>
 <path fill="rgb(255,211,32)" stroke="none" d="M 4741,7987 L 4865,8236 4990,7987 4741,7987 Z"/>
 <path fill="none" stroke="rgb(255,211,32)" stroke-linejoin="round" d="M 4741,7987 L 4865,8236 4990,7987 4741,7987 Z"/>
 <path fill="rgb(255,211,32)" stroke="none" d="M 5881,7513 L 6005,7761 6130,7513 5881,7513 Z"/>
 <path fill="none" stroke="rgb(255,211,32)" stroke-linejoin="round" d="M 5881,7513 L 6005,7761 6130,7513 5881,7513 Z"/>
 <path fill="rgb(255,211,32)" stroke="none" d="M 7021,7375 L 7145,7623 7269,7375 7021,7375 Z"/>
 <path fill="none" stroke="rgb(255,211,32)" stroke-linejoin="round" d="M 7021,7375 L 7145,7623 7269,7375 7021,7375 Z"/>
 <path fill="rgb(255,211,32)" stroke="none" d="M 8161,6946 L 8286,7194 8410,6946 8161,6946 Z"/>
 <path fill="none" stroke="rgb(255,211,32)" stroke-linejoin="round" d="M 8161,6946 L 8286,7194 8410,6946 8161,6946 Z"/>
 <path fill="rgb(255,211,32)" stroke="none" d="M 9301,6530 L 9426,6778 9550,6530 9301,6530 Z"/>
 <path fill="none" stroke="rgb(255,211,32)" stroke-linejoin="round" d="M 9301,6530 L 9426,6778 9550,6530 9301,6530 Z"/>
 <path fill="rgb(255,211,32)" stroke="none" d="M 10441,5910 L 10566,6158 10690,5910 10441,5910 Z"/>
 <path fill="none" stroke="rgb(255,211,32)" stroke-linejoin="round" d="M 10441,5910 L 10566,6158 10690,5910 10441,5910 Z"/>
 <path fill="rgb(255,211,32)" stroke="none" d="M 11581,5438 L 11706,5686 11830,5438 11581,5438 Z"/>
 <path fill="none" stroke="rgb(255,211,32)" stroke-linejoin="round" d="M 11581,5438 L 11706,5686 11830,5438 11581,5438 Z"/>
 <path fill="rgb(255,211,32)" stroke="none" d="M 12721,4947 L 12846,5195 12970,4947 12721,4947 Z"/>
 <path fill="none" stroke="rgb(255,211,32)" stroke-linejoin="round" d="M 12721,4947 L 12846,5195 12970,4947 12721,4947 Z"/>
 <path fill="rgb(255,211,32)" stroke="none" d="M 13861,4310 L 13985,4558 14110,4310 13861,4310 Z"/>
 <path fill="none" stroke="rgb(255,211,32)" stroke-linejoin="round" d="M 13861,4310 L 13985,4558 14110,4310 13861,4310 Z"/>
 <path fill="rgb(255,211,32)" stroke="none" d="M 15002,3773 L 15126,4021 15251,3773 15002,3773 Z"/>
 <path fill="none" stroke="rgb(255,211,32)" stroke-linejoin="round" d="M 15002,3773 L 15126,4021 15251,3773 15002,3773 Z"/>
 <path fill="rgb(255,211,32)" stroke="none" d="M 16142,3211 L 16266,3459 16391,3211 16142,3211 Z"/>
 <path fill="none" stroke="rgb(255,211,32)" stroke-linejoin="round" d="M 16142,3211 L 16266,3459 16391,3211 16142,3211 Z"/>
 <path fill="none" stroke="rgb(126,0,33)" stroke-width="80" stroke-linejoin="round" d="M 2585,10481 L 3725,10161 4865,9691 6005,9233 7145,8555 8286,7661 9426,6694 10566,5254 11706,4199 12846,3148 13985,1706 15126,702"/>
 <path fill="rgb(126,0,33)" stroke="none" d="M 2461,10357 L 2461,10605 2710,10481 2461,10357 Z"/>
 <path fill="none" stroke="rgb(126,0,33)" stroke-linejoin="round" d="M 2461,10357 L 2461,10605 2710,10481 2461,10357 Z"/>
 <path fill="rgb(126,0,33)" stroke="none" d="M 3601,10037 L 3601,10285 3850,10161 3601,10037 Z"/>
 <path fill="none" stroke="rgb(126,0,33)" stroke-linejoin="round" d="M 3601,10037 L 3601,10285 3850,10161 3601,10037 Z"/>
 <path fill="rgb(126,0,33)" stroke="none" d="M 4741,9567 L 4741,9815 4990,9691 4741,9567 Z"/>
 <path fill="none" stroke="rgb(126,0,33)" stroke-linejoin="round" d="M 4741,9567 L 4741,9815 4990,9691 4741,9567 Z"/>
 <path fill="rgb(126,0,33)" stroke="none" d="M 5881,9109 L 5881,9357 6130,9233 5881,9109 Z"/>
 <path fill="none" stroke="rgb(126,0,33)" stroke-linejoin="round" d="M 5881,9109 L 5881,9357 6130,9233 5881,9109 Z"/>
 <path fill="rgb(126,0,33)" stroke="none" d="M 7021,8431 L 7021,8679 7269,8555 7021,8431 Z"/>
 <path fill="none" stroke="rgb(126,0,33)" stroke-linejoin="round" d="M 7021,8431 L 7021,8679 7269,8555 7021,8431 Z"/>
 <path fill="rgb(126,0,33)" stroke="none" d="M 8161,7537 L 8161,7785 8410,7661 8161,7537 Z"/>
 <path fill="none" stroke="rgb(126,0,33)" stroke-linejoin="round" d="M 8161,7537 L 8161,7785 8410,7661 8161,7537 Z"/>
 <path fill="rgb(126,0,33)" stroke="none" d="M 9301,6570 L 9301,6818 9550,6694 9301,6570 Z"/>
 <path fill="none" stroke="rgb(126,0,33)" stroke-linejoin="round" d="M 9301,6570 L 9301,6818 9550,6694 9301,6570 Z"/>
 <path fill="rgb(126,0,33)" stroke="none" d="M 10441,5130 L 10441,5378 10690,5254 10441,5130 Z"/>
 <path fill="none" stroke="rgb(126,0,33)" stroke-linejoin="round" d="M 10441,5130 L 10441,5378 10690,5254 10441,5130 Z"/>
 <path fill="rgb(126,0,33)" stroke="none" d="M 11581,4075 L 11581,4323 11830,4199 11581,4075 Z"/>
 <path fill="none" stroke="rgb(126,0,33)" stroke-linejoin="round" d="M 11581,4075 L 11581,4323 11830,4199 11581,4075 Z"/>
 <path fill="rgb(126,0,33)" stroke="none" d="M 12721,3024 L 12721,3272 12970,3148 12721,3024 Z"/>
 <path fill="none" stroke="rgb(126,0,33)" stroke-linejoin="round" d="M 12721,3024 L 12721,3272 12970,3148 12721,3024 Z"/>
 <path fill="rgb(126,0,33)" stroke="none" d="M 13861,1582 L 13861,1830 14110,1706 13861,1582 Z"/>
 <path fill="none" stroke="rgb(126,0,33)" stroke-linejoin="round" d="M 13861,1582 L 13861,1830 14110,1706 13861,1582 Z"/>
 <path fill="rgb(126,0,33)" stroke="none" d="M 15002,578 L 15002,826 15251,702 15002,578 Z"/>
 <path fill="none" stroke="rgb(126,0,33)" stroke-linejoin="round" d="M 15002,578 L 15002,826 15251,702 15002,578 Z"/>
 <path fill="none" stroke="rgb(87,157,28)" stroke-width="80" stroke-linejoin="round" d="M 2585,9859 L 3725,9638 4865,9154 6005,8808 7145,8302 8286,7854 9426,7388 10566,6741 11706,6328 12846,5822 13985,5140 15126,4523 16266,3885 17406,3018 18546,2446 19686,1866"/>
 <path fill="rgb(87,157,28)" stroke="none" d="M 2461,9983 L 2710,9983 2585,9735 2461,9983 Z"/>
 <path fill="none" stroke="rgb(87,157,28)" stroke-linejoin="round" d="M 2461,9983 L 2710,9983 2585,9735 2461,9983 Z"/>
 <path fill="rgb(87,157,28)" stroke="none" d="M 3601,9762 L 3850,9762 3725,9514 3601,9762 Z"/>
 <path fill="none" stroke="rgb(87,157,28)" stroke-linejoin="round" d="M 3601,9762 L 3850,9762 3725,9514 3601,9762 Z"/>
 <path fill="rgb(87,157,28)" stroke="none" d="M 4741,9278 L 4990,9278 4865,9030 4741,9278 Z"/>
 <path fill="none" stroke="rgb(87,157,28)" stroke-linejoin="round" d="M 4741,9278 L 4990,9278 4865,9030 4741,9278 Z"/>
 <path fill="rgb(87,157,28)" stroke="none" d="M 5881,8932 L 6130,8932 6005,8684 5881,8932 Z"/>
 <path fill="none" stroke="rgb(87,157,28)" stroke-linejoin="round" d="M 5881,8932 L 6130,8932 6005,8684 5881,8932 Z"/>
 <path fill="rgb(87,157,28)" stroke="none" d="M 7021,8426 L 7269,8426 7145,8178 7021,8426 Z"/>
 <path fill="none" stroke="rgb(87,157,28)" stroke-linejoin="round" d="M 7021,8426 L 7269,8426 7145,8178 7021,8426 Z"/>
 <path fill="rgb(87,157,28)" stroke="none" d="M 8161,7978 L 8410,7978 8286,7730 8161,7978 Z"/>
 <path fill="none" stroke="rgb(87,157,28)" stroke-linejoin="round" d="M 8161,7978 L 8410,7978 8286,7730 8161,7978 Z"/>
 <path fill="rgb(87,157,28)" stroke="none" d="M 9301,7512 L 9550,7512 9426,7264 9301,7512 Z"/>
 <path fill="none" stroke="rgb(87,157,28)" stroke-linejoin="round" d="M 9301,7512 L 9550,7512 9426,7264 9301,7512 Z"/>
 <path fill="rgb(87,157,28)" stroke="none" d="M 10441,6865 L 10690,6865 10566,6617 10441,6865 Z"/>
 <path fill="none" stroke="rgb(87,157,28)" stroke-linejoin="round" d="M 10441,6865 L 10690,6865 10566,6617 10441,6865 Z"/>
 <path fill="rgb(87,157,28)" stroke="none" d="M 11581,6452 L 11830,6452 11706,6204 11581,6452 Z"/>
 <path fill="none" stroke="rgb(87,157,28)" stroke-linejoin="round" d="M 11581,6452 L 11830,6452 11706,6204 11581,6452 Z"/>
 <path fill="rgb(87,157,28)" stroke="none" d="M 12721,5946 L 12970,5946 12846,5698 12721,5946 Z"/>
 <path fill="none" stroke="rgb(87,157,28)" stroke-linejoin="round" d="M 12721,5946 L 12970,5946 12846,5698 12721,5946 Z"/>
 <path fill="rgb(87,157,28)" stroke="none" d="M 13861,5264 L 14110,5264 13985,5016 13861,5264 Z"/>
 <path fill="none" stroke="rgb(87,157,28)" stroke-linejoin="round" d="M 13861,5264 L 14110,5264 13985,5016 13861,5264 Z"/>
 <path fill="rgb(87,157,28)" stroke="none" d="M 15002,4647 L 15251,4647 15126,4399 15002,4647 Z"/>
 <path fill="none" stroke="rgb(87,157,28)" stroke-linejoin="round" d="M 15002,4647 L 15251,4647 15126,4399 15002,4647 Z"/>
 <path fill="rgb(87,157,28)" stroke="none" d="M 16142,4009 L 16391,4009 16266,3761 16142,4009 Z"/>
 <path fill="none" stroke="rgb(87,157,28)" stroke-linejoin="round" d="M 16142,4009 L 16391,4009 16266,3761 16142,4009 Z"/>
 <path fill="rgb(87,157,28)" stroke="none" d="M 17282,3142 L 17531,3142 17406,2894 17282,3142 Z"/>
 <path fill="none" stroke="rgb(87,157,28)" stroke-linejoin="round" d="M 17282,3142 L 17531,3142 17406,2894 17282,3142 Z"/>
 <path fill="rgb(87,157,28)" stroke="none" d="M 18422,2570 L 18670,2570 18546,2322 18422,2570 Z"/>
 <path fill="none" stroke="rgb(87,157,28)" stroke-linejoin="round" d="M 18422,2570 L 18670,2570 18546,2322 18422,2570 Z"/>
 <path fill="rgb(87,157,28)" stroke="none" d="M 19561,1990 L 19810,1990 19686,1742 19561,1990 Z"/>
 <path fill="none" stroke="rgb(87,157,28)" stroke-linejoin="round" d="M 19561,1990 L 19810,1990 19686,1742 19561,1990 Z"/>
 <path fill="none" stroke="rgb(0,69,134)" stroke-width="80" stroke-linejoin="round" d="M 2585,9953 L 3725,9408 4865,8858 6005,8714 7145,7880 8286,7865 9426,7326 10566,6685 11706,6076 12846,5665 13985,5241 15126,4710 16266,4026 17406,3544 18546,2666 19686,2556"/>
 <path fill="rgb(0,69,134)" stroke="none" d="M 2461,9829 L 2461,10077 2710,10077 2710,9829 2461,9829 Z"/>
 <path fill="none" stroke="rgb(0,69,134)" stroke-linejoin="round" d="M 2461,9829 L 2461,10077 2710,10077 2710,9829 2461,9829 Z"/>
 <path fill="rgb(0,69,134)" stroke="none" d="M 3601,9284 L 3601,9532 3850,9532 3850,9284 3601,9284 Z"/>
 <path fill="none" stroke="rgb(0,69,134)" stroke-linejoin="round" d="M 3601,9284 L 3601,9532 3850,9532 3850,9284 3601,9284 Z"/>
 <path fill="rgb(0,69,134)" stroke="none" d="M 4741,8734 L 4741,8982 4990,8982 4990,8734 4741,8734 Z"/>
 <path fill="none" stroke="rgb(0,69,134)" stroke-linejoin="round" d="M 4741,8734 L 4741,8982 4990,8982 4990,8734 4741,8734 Z"/>
 <path fill="rgb(0,69,134)" stroke="none" d="M 5881,8590 L 5881,8838 6130,8838 6130,8590 5881,8590 Z"/>
 <path fill="none" stroke="rgb(0,69,134)" stroke-linejoin="round" d="M 5881,8590 L 5881,8838 6130,8838 6130,8590 5881,8590 Z"/>
 <path fill="rgb(0,69,134)" stroke="none" d="M 7021,7756 L 7021,8004 7269,8004 7269,7756 7021,7756 Z"/>
 <path fill="none" stroke="rgb(0,69,134)" stroke-linejoin="round" d="M 7021,7756 L 7021,8004 7269,8004 7269,7756 7021,7756 Z"/>
 <path fill="rgb(0,69,134)" stroke="none" d="M 8161,7741 L 8161,7989 8410,7989 8410,7741 8161,7741 Z"/>
 <path fill="none" stroke="rgb(0,69,134)" stroke-linejoin="round" d="M 8161,7741 L 8161,7989 8410,7989 8410,7741 8161,7741 Z"/>
 <path fill="rgb(0,69,134)" stroke="none" d="M 9301,7202 L 9301,7450 9550,7450 9550,7202 9301,7202 Z"/>
 <path fill="none" stroke="rgb(0,69,134)" stroke-linejoin="round" d="M 9301,7202 L 9301,7450 9550,7450 9550,7202 9301,7202 Z"/>
 <path fill="rgb(0,69,134)" stroke="none" d="M 10441,6561 L 10441,6809 10690,6809 10690,6561 10441,6561 Z"/>
 <path fill="none" stroke="rgb(0,69,134)" stroke-linejoin="round" d="M 10441,6561 L 10441,6809 10690,6809 10690,6561 10441,6561 Z"/>
 <path fill="rgb(0,69,134)" stroke="none" d="M 11581,5952 L 11581,6200 11830,6200 11830,5952 11581,5952 Z"/>
 <path fill="none" stroke="rgb(0,69,134)" stroke-linejoin="round" d="M 11581,5952 L 11581,6200 11830,6200 11830,5952 11581,5952 Z"/>
 <path fill="rgb(0,69,134)" stroke="none" d="M 12721,5541 L 12721,5789 12970,5789 12970,5541 12721,5541 Z"/>
 <path fill="none" stroke="rgb(0,69,134)" stroke-linejoin="round" d="M 12721,5541 L 12721,5789 12970,5789 12970,5541 12721,5541 Z"/>
 <path fill="rgb(0,69,134)" stroke="none" d="M 13861,5117 L 13861,5365 14110,5365 14110,5117 13861,5117 Z"/>
 <path fill="none" stroke="rgb(0,69,134)" stroke-linejoin="round" d="M 13861,5117 L 13861,5365 14110,5365 14110,5117 13861,5117 Z"/>
 <path fill="rgb(0,69,134)" stroke="none" d="M 15002,4586 L 15002,4834 15251,4834 15251,4586 15002,4586 Z"/>
 <path fill="none" stroke="rgb(0,69,134)" stroke-linejoin="round" d="M 15002,4586 L 15002,4834 15251,4834 15251,4586 15002,4586 Z"/>
 <path fill="rgb(0,69,134)" stroke="none" d="M 16142,3902 L 16142,4150 16391,4150 16391,3902 16142,3902 Z"/>
 <path fill="none" stroke="rgb(0,69,134)" stroke-linejoin="round" d="M 16142,3902 L 16142,4150 16391,4150 16391,3902 16142,3902 Z"/>
 <path fill="rgb(0,69,134)" stroke="none" d="M 17282,3420 L 17282,3668 17531,3668 17531,3420 17282,3420 Z"/>
 <path fill="none" stroke="rgb(0,69,134)" stroke-linejoin="round" d="M 17282,3420 L 17282,3668 17531,3668 17531,3420 17282,3420 Z"/>
 <path fill="rgb(0,69,134)" stroke="none" d="M 18422,2542 L 18422,2790 18670,2790 18670,2542 18422,2542 Z"/>
 <path fill="none" stroke="rgb(0,69,134)" stroke-linejoin="round" d="M 18422,2542 L 18422,2790 18670,2790 18670,2542 18422,2542 Z"/>
 <path fill="rgb(0,69,134)" stroke="none" d="M 19561,2432 L 19561,2680 19810,2680 19810,2432 19561,2432 Z"/>
 <path fill="none" stroke="rgb(0,69,134)" stroke-linejoin="round" d="M 19561,2432 L 19561,2680 19810,2680 19810,2432 19561,2432 Z"/>
 <text class="SVGTextShape"><tspan class="TextParagraph" font-family="Liberation Sans, sans-serif" font-size="350px" font-weight="400"><tspan class="TextPosition" x="2289" y="12319"><tspan fill="rgb(0,0,0)" stroke="none">100</tspan></tspan></tspan></text>
 <text class="SVGTextShape"><tspan class="TextParagraph" font-family="Liberation Sans, sans-serif" font-size="350px" font-weight="400"><tspan class="TextPosition" x="3429" y="12319"><tspan fill="rgb(0,0,0)" stroke="none">250</tspan></tspan></tspan></text>
 <text class="SVGTextShape"><tspan class="TextParagraph" font-family="Liberation Sans, sans-serif" font-size="350px" font-weight="400"><tspan class="TextPosition" x="4569" y="12319"><tspan fill="rgb(0,0,0)" stroke="none">500</tspan></tspan></tspan></text>
 <text class="SVGTextShape"><tspan class="TextParagraph" font-family="Liberation Sans, sans-serif" font-size="350px" font-weight="400"><tspan class="TextPosition" x="5788" y="12319"><tspan fill="rgb(0,0,0)" stroke="none">1K</tspan></tspan></tspan></text>
 <text class="SVGTextShape"><tspan class="TextParagraph" font-family="Liberation Sans, sans-serif" font-size="350px" font-weight="400"><tspan class="TextPosition" x="6776" y="12319"><tspan fill="rgb(0,0,0)" stroke="none">2.5K</tspan></tspan></tspan></text>
 <text class="SVGTextShape"><tspan class="TextParagraph" font-family="Liberation Sans, sans-serif" font-size="350px" font-weight="400"><tspan class="TextPosition" x="8067" y="12319"><tspan fill="rgb(0,0,0)" stroke="none">5K</tspan></tspan></tspan></text>
 <text class="SVGTextShape"><tspan class="TextParagraph" font-family="Liberation Sans, sans-serif" font-size="350px" font-weight="400"><tspan class="TextPosition" x="9110" y="12319"><tspan fill="rgb(0,0,0)" stroke="none">10K</tspan></tspan></tspan></text>
 <text class="SVGTextShape"><tspan class="TextParagraph" font-family="Liberation Sans, sans-serif" font-size="350px" font-weight="400"><tspan class="TextPosition" x="10250" y="12319"><tspan fill="rgb(0,0,0)" stroke="none">25K</tspan></tspan></tspan></text>
 <text class="SVGTextShape"><tspan class="TextParagraph" font-family="Liberation Sans, sans-serif" font-size="350px" font-weight="400"><tspan class="TextPosition" x="11390" y="12319"><tspan fill="rgb(0,0,0)" stroke="none">50K</tspan></tspan></tspan></text>
 <text class="SVGTextShape"><tspan class="TextParagraph" font-family="Liberation Sans, sans-serif" font-size="350px" font-weight="400"><tspan class="TextPosition" x="12431" y="12319"><tspan fill="rgb(0,0,0)" stroke="none">100K</tspan></tspan></tspan></text>
 <text class="SVGTextShape"><tspan class="TextParagraph" font-family="Liberation Sans, sans-serif" font-size="350px" font-weight="400"><tspan class="TextPosition" x="13571" y="12319"><tspan fill="rgb(0,0,0)" stroke="none">250K</tspan></tspan></tspan></text>
 <text class="SVGTextShape"><tspan class="TextParagraph" font-family="Liberation Sans, sans-serif" font-size="350px" font-weight="400"><tspan class="TextPosition" x="14712" y="12319"><tspan fill="rgb(0,0,0)" stroke="none">500K</tspan></tspan></tspan></text>
 <text class="SVGTextShape"><tspan class="TextParagraph" font-family="Liberation Sans, sans-serif" font-size="350px" font-weight="400"><tspan class="TextPosition" x="16023" y="12319"><tspan fill="rgb(0,0,0)" stroke="none">1M</tspan></tspan></tspan></text>
 <text class="SVGTextShape"><tspan class="TextParagraph" font-family="Liberation Sans, sans-serif" font-size="350px" font-weight="400"><tspan class="TextPosition" x="17011" y="12319"><tspan fill="rgb(0,0,0)" stroke="none">2.5M</tspan></tspan></tspan></text>
 <text class="SVGTextShape"><tspan class="TextParagraph" font-family="Liberation Sans, sans-serif" font-size="350px" font-weight="400"><tspan class="TextPosition" x="18303" y="12319"><tspan fill="rgb(0,0,0)" stroke="none">5M</tspan></tspan></tspan></text>
 <text class="SVGTextShape"><tspan class="TextParagraph" font-family="Liberation Sans, sans-serif" font-size="350px" font-weight="400"><tspan class="TextPosition" x="19344" y="12319"><tspan fill="rgb(0,0,0)" stroke="none">10M</tspan></tspan></tspan></text>
 <text class="SVGTextShape"><tspan class="TextParagraph" font-family="Liberation Sans, sans-serif" font-size="350px" font-weight="400"><tspan class="TextPosition" x="1493" y="11875"><tspan fill="rgb(0,0,0)" stroke="none">1E+1</tspan></tspan></tspan></text>
 <text class="SVGTextShape"><tspan class="TextParagraph" font-family="Liberation Sans, sans-serif" font-size="350px" font-weight="400"><tspan class="TextPosition" x="1493" y="10267"><tspan fill="rgb(0,0,0)" stroke="none">1E+2</tspan></tspan></tspan></text>
 <text class="SVGTextShape"><tspan class="TextParagraph" font-family="Liberation Sans, sans-serif" font-size="350px" font-weight="400"><tspan class="TextPosition" x="1493" y="8659"><tspan fill="rgb(0,0,0)" stroke="none">1E+3</tspan></tspan></tspan></text>
 <text class="SVGTextShape"><tspan class="TextParagraph" font-family="Liberation Sans, sans-serif" font-size="350px" font-weight="400"><tspan class="TextPosition" x="1493" y="7049"><tspan fill="rgb(0,0,0)" stroke="none">1E+4</tspan></tspan></tspan></text>
 <text class="SVGTextShape"><tspan class="TextParagraph" font-family="Liberation Sans, sans-serif" font-size="350px" font-weight="400"><tspan class="TextPosition" x="1493" y="5441"><tspan fill="rgb(0,0,0)" stroke="none">1E+5</tspan></tspan></tspan></text>
 <text class="SVGTextShape"><tspan class="TextParagraph" font-family="Liberation Sans, sans-serif" font-size="350px" font-weight="400"><tspan class="TextPosition" x="1493" y="3834"><tspan fill="rgb(0,0,0)" stroke="none">1E+6</tspan></tspan></tspan></text>
 <text class="SVGTextShape"><tspan class="TextParagraph" font-family="Liberation Sans, sans-serif" font-size="350px" font-weight="400"><tspan class="TextPosition" x="1493" y="2225"><tspan fill="rgb(0,0,0)" stroke="none">1E+7</tspan></tspan></tspan></text>
 <text class="SVGTextShape"><tspan class="TextParagraph" font-family="Liberation Sans, sans-serif" font-size="350px" font-weight="400"><tspan class="TextPosition" x="1493" y="617"><tspan fill="rgb(0,0,0)" stroke="none">1E+8</tspan></tspan></tspan></text>
 <path fill="none" stroke="rgb(255,66,14)" stroke-width="80" stroke-linejoin="round" d="M 20595,5360 L 21391,5360"/>
 <path fill="rgb(255,66,14)" stroke="none" d="M 20888,5360 L 20993,5466 21098,5360 20993,5256 20888,5360 Z"/>
 <path fill="none" stroke="rgb(255,66,14)" stroke-linejoin="round" d="M 20888,5360 L 20993,5466 21098,5360 20993,5256 20888,5360 Z"/>
 <path fill="none" stroke="rgb(255,211,32)" stroke-width="80" stroke-linejoin="round" d="M 20595,5854 L 21391,5854"/>
 <path fill="rgb(255,211,32)" stroke="none" d="M 20888,5750 L 20993,5960 21098,5750 20888,5750 Z"/>
 <path fill="none" stroke="rgb(255,211,32)" stroke-linejoin="round" d="M 20888,5750 L 20993,5960 21098,5750 20888,5750 Z"/>
 <path fill="none" stroke="rgb(126,0,33)" stroke-width="80" stroke-linejoin="round" d="M 20595,6349 L 21391,6349"/>
 <path fill="rgb(126,0,33)" stroke="none" d="M 20888,6244 L 20888,6454 21098,6349 20888,6244 Z"/>
 <path fill="none" stroke="rgb(126,0,33)" stroke-linejoin="round" d="M 20888,6244 L 20888,6454 21098,6349 20888,6244 Z"/>
 <path fill="none" stroke="rgb(87,157,28)" stroke-width="80" stroke-linejoin="round" d="M 20595,6843 L 21391,6843"/>
 <path fill="rgb(87,157,28)" stroke="none" d="M 20888,6948 L 21098,6948 20993,6738 20888,6948 Z"/>
 <path fill="none" stroke="rgb(87,157,28)" stroke-linejoin="round" d="M 20888,6948 L 21098,6948 20993,6738 20888,6948 Z"/>
 <path fill="none" stroke="rgb(0,69,134)" stroke-width="80" stroke-linejoin="round" d="M 20595,7337 L 21391,7337"/>
 <path fill="rgb(0,69,134)" stroke="none" d="M 20888,7232 L 20888,7442 21098,7442 21098,7232 20888,7232 Z"/>
 <path fill="none" stroke="rgb(0,69,134)" stroke-linejoin="round" d="M 20888,7232 L 20888,7442 21098,7442 21098,7232 20888,7232 Z"/>
 <text class="SVGTextShape"><tspan class="TextParagraph" font-family="Liberation Sans, sans-serif" font-size="350px" font-weight="400"><tspan class="TextPosition" x="21491" y="5479"><tspan fill="rgb(0,0,0)" stroke="none">CDT</tspan></tspan></tspan></text>
 <text class="SVGTextShape"><tspan class="TextParagraph" font-family="Liberation Sans, sans-serif" font-size="350px" font-weight="400"><tspan class="TextPosition" x="21491" y="5973"><tspan fill="rgb(0,0,0)" stroke="none">FAD</tspan></tspan></tspan></text>
 <text class="SVGTextShape"><tspan class="TextParagraph" font-family="Liberation Sans, sans-serif" font-size="350px" font-weight="400"><tspan class="TextPosition" x="21491" y="6468"><tspan fill="rgb(0,0,0)" stroke="none">DEL</tspan></tspan></tspan></text>
 <text class="SVGTextShape"><tspan class="TextParagraph" font-family="Liberation Sans, sans-serif" font-size="350px" font-weight="400"><tspan class="TextPosition" x="21491" y="6962"><tspan fill="rgb(0,0,0)" stroke="none">TRI</tspan></tspan></tspan></text>
 <text class="SVGTextShape"><tspan class="TextParagraph" font-family="Liberation Sans, sans-serif" font-size="350px" font-weight="400"><tspan class="TextPosition" x="21491" y="7456"><tspan fill="rgb(0,0,0)" stroke="none">DLB</tspan></tspan></tspan></text>
 <text class="SVGTextShape" transform="rotate(-90 884 6953)"><tspan class="TextParagraph" font-family="Liberation Sans, sans-serif" font-size="317px" font-weight="400"><tspan class="TextPosition" x="884" y="6953"><tspan fill="rgb(0,0,0)" stroke="none">time [µs]</tspan></tspan></tspan></text>
</svg>