<?xml version="1.0" encoding="UTF-8"?>
<!DOCTYPE svg PUBLIC "-//W3C//DTD SVG 1.1//EN" "http://www.w3.org/Graphics/SVG/1.1/DTD/svg11.dtd">
<svg width="226mm" height="127mm" viewBox="0 0 22600 12700" version="1.1" xmlns="http://www.w3.org/2000/svg" xmlns:xlink="http://www.w3.org/1999/xlink" stroke-width="28.222" stroke-linejoin="round" xml:space="preserve">
 <path fill="rgb(255,255,255)" stroke="none" d="M 11289,12650 L 50,12650 50,50 22528,50 22528,12650 11289,12650 Z"/>
 <path fill="none" stroke="rgb(0,0,0)" stroke-width="100" stroke-linejoin="round" d="M 11289,12650 L 50,12650 50,50 22528,50 22528,12650 11289,12650 Z"/>
 <path fill="none" stroke="rgb(179,179,179)" stroke-linejoin="round" d="M 11136,11757 L 2585,11757 2585,499 19687,499 19687,11757 11136,11757 Z"/>
 <path fill="none" stroke="rgb(221,221,221)" stroke-linejoin="round" d="M 3155,497 L 3155,11756"/>
 <path fill="none" stroke="rgb(221,221,221)" stroke-linejoin="round" d="M 4295,497 L 4295,11756"/>
 <path fill="none" stroke="rgb(221,221,221)" stroke-linejoin="round" d="M 5436,497 L 5436,11756"/>
 <path fill="none" stroke="rgb(221,221,221)" stroke-linejoin="round" d="M 6576,497 L 6576,11756"/>
 <path fill="none" stroke="rgb(221,221,221)" stroke-linejoin="round" d="M 7715,497 L 7715,11756"/>
 <path fill="none" stroke="rgb(221,221,221)" stroke-linejoin="round" d="M 8855,497 L 8855,11756"/>
 <path fill="none" stroke="rgb(221,221,221)" stroke-linejoin="round" d="M 9995,497 L 9995,11756"/>
 <path fill="none" stroke="rgb(221,221,221)" stroke-linejoin="round" d="M 11136,497 L 11136,11756"/>
 <path fill="none" stroke="rgb(221,221,221)" stroke-linejoin="round" d="M 12276,497 L 12276,11756"/>
 <path fill="none" stroke="rgb(221,221,221)" stroke-linejoin="round" d="M 13416,497 L 13416,11756"/>
 <path fill="none" stroke="rgb(221,221,221)" stroke-linejoin="round" d="M 14556,497 L 14556,11756"/>
 <path fill="none" stroke="rgb(221,221,221)" stroke-linejoin="round" d="M 15696,497 L 15696,11756"/>
 <path fill="none" stroke="rgb(221,221,221)" stroke-linejoin="round" d="M 16836,497 L 16836,11756"/>
 <path fill="none" stroke="rgb(221,221,221)" stroke-linejoin="round" d="M 17977,497 L 17977,11756"/>
 <path fill="none" stroke="rgb(221,221,221)" stroke-linejoin="round" d="M 19116,497 L 19116,11756"/>
 <path fill="none" stroke="rgb(179,179,179)" stroke-linejoin="round" d="M 19686,11756 L 2585,11756"/>
 <path fill="none" stroke="rgb(179,179,179)" stroke-linejoin="round" d="M 19686,10147 L 2585,10147"/>
 <path fill="none" stroke="rgb(179,179,179)" stroke-linejoin="round" d="M 19686,8539 L 2585,8539"/>
 <path fill="none" stroke="rgb(179,179,179)" stroke-linejoin="round" d="M 19686,6930 L 2585,6930"/>
 <path fill="none" stroke="rgb(179,179,179)" stroke-linejoin="round" d="M 19686,5322 L 2585,5322"/>
 <path fill="none" stroke="rgb(179,179,179)" stroke-linejoin="round" d="M 19686,3713 L 2585,3713"/>
 <path fill="none" stroke="rgb(179,179,179)" stroke-linejoin="round" d="M 19686,2105 L 2585,2105"/>
 <path fill="none" stroke="rgb(179,179,179)" stroke-linejoin="round" d="M 19686,497 L 2585,497"/>
 <path fill="none" stroke="rgb(179,179,179)" stroke-linejoin="round" d="M 2585,11904 L 2585,11756"/>
 <path fill="none" stroke="rgb(179,179,179)" stroke-linejoin="round" d="M 2585,11904 L 2585,11756"/>
 <path fill="none" stroke="rgb(179,179,179)" stroke-linejoin="round" d="M 3725,11904 L 3725,11756"/>
 <path fill="none" stroke="rgb(179,179,179)" stroke-linejoin="round" d="M 3725,11904 L 3725,11756"/>
 <path fill="none" stroke="rgb(179,179,179)" stroke-linejoin="round" d="M 4865,11904 L 4865,11756"/>
 <path fill="none" stroke="rgb(179,179,179)" stroke-linejoin="round" d="M 4865,11904 L 4865,11756"/>
 <path fill="none" stroke="rgb(179,179,179)" stroke-linejoin="round" d="M 6005,11904 L 6005,11756"/>
 <path fill="none" stroke="rgb(179,179,179)" stroke-linejoin="round" d="M 6005,11904 L 6005,11756"/>
 <path fill="none" stroke="rgb(179,179,179)" stroke-linejoin="round" d="M 7145,11904 L 7145,11756"/>
 <path fill="none" stroke="rgb(179,179,179)" stroke-linejoin="round" d="M 7145,11904 L 7145,11756"/>
 <path fill="none" stroke="rgb(179,179,179)" stroke-linejoin="round" d="M 8285,11904 L 8285,11756"/>
 <path fill="none" stroke="rgb(179,179,179)" stroke-linejoin="round" d="M 8285,11904 L 8285,11756"/>
 <path fill="none" stroke="rgb(179,179,179)" stroke-linejoin="round" d="M 9426,11904 L 9426,11756"/>
 <path fill="none" stroke="rgb(179,179,179)" stroke-linejoin="round" d="M 9426,11904 L 9426,11756"/>
 <path fill="none" stroke="rgb(179,179,179)" stroke-linejoin="round" d="M 10566,11904 L 10566,11756"/>
 <path fill="none" stroke="rgb(179,179,179)" stroke-linejoin="round" d="M 10566,11904 L 10566,11756"/>
 <path fill="none" stroke="rgb(179,179,179)" stroke-linejoin="round" d="M 11706,11904 L 11706,11756"/>
 <path fill="none" stroke="rgb(179,179,179)" stroke-linejoin="round" d="M 11706,11904 L 11706,11756"/>
 <path fill="none" stroke="rgb(179,179,179)" stroke-linejoin="round" d="M 12846,11904 L 12846,11756"/>
 <path fill="none" stroke="rgb(179,179,179)" stroke-linejoin="round" d="M 12846,11904 L 12846,11756"/>
 <path fill="none" stroke="rgb(179,179,179)" stroke-linejoin="round" d="M 13985,11904 L 13985,11756"/>
 <path fill="none" stroke="rgb(179,179,179)" stroke-linejoin="round" d="M 13985,11904 L 13985,11756"/>
 <path fill="none" stroke="rgb(179,179,179)" stroke-linejoin="round" d="M 15126,11904 L 15126,11756"/>
 <path fill="none" stroke="rgb(179,179,179)" stroke-linejoin="round" d="M 15126,11904 L 15126,11756"/>
 <path fill="none" stroke="rgb(179,179,179)" stroke-linejoin="round" d="M 16266,11904 L 16266,11756"/>
 <path fill="none" stroke="rgb(179,179,179)" stroke-linejoin="round" d="M 16266,11904 L 16266,11756"/>
 <path fill="none" stroke="rgb(179,179,179)" stroke-linejoin="round" d="M 17406,11904 L 17406,11756"/>
 <path fill="none" stroke="rgb(179,179,179)" stroke-linejoin="round" d="M 17406,11904 L 17406,11756"/>
 <path fill="none" stroke="rgb(179,179,179)" stroke-linejoin="round" d="M 18546,11904 L 18546,11756"/>
 <path fill="none" stroke="rgb(179,179,179)" stroke-linejoin="round" d="M 18546,11904 L 18546,11756"/>
 <path fill="none" stroke="rgb(179,179,179)" stroke-linejoin="round" d="M 19686,11904 L 19686,11756"/>
 <path fill="none" stroke="rgb(179,179,179)" stroke-linejoin="round" d="M 19686,11904 L 19686,11756"/>
 <path fill="none" stroke="rgb(179,179,179)" stroke-linejoin="round" d="M 2585,11756 L 19686,11756"/>
 <path fill="none" stroke="rgb(179,179,179)" stroke-linejoin="round" d="M 2436,11756 L 2585,11756"/>
 <path fill="none" stroke="rgb(179,179,179)" stroke-linejoin="round" d="M 2436,11756 L 2585,11756"/>
 <path fill="none" stroke="rgb(179,179,179)" stroke-linejoin="round" d="M 2436,10147 L 2585,10147"/>
 <path fill="none" stroke="rgb(179,179,179)" stroke-linejoin="round" d="M 2436,10147 L 2585,10147"/>
 <path fill="none" stroke="rgb(179,179,179)" stroke-linejoin="round" d="M 2436,8539 L 2585,8539"/>
 <path fill="none" stroke="rgb(179,179,179)" stroke-linejoin="round" d="M 2436,8539 L 2585,8539"/>
 <path fill="none" stroke="rgb(179,179,179)" stroke-linejoin="round" d="M 2436,6930 L 2585,6930"/>
 <path fill="none" stroke="rgb(179,179,179)" stroke-linejoin="round" d="M 2436,6930 L 2585,6930"/>
 <path fill="none" stroke="rgb(179,179,179)" stroke-linejoin="round" d="M 2436,5322 L 2585,5322"/>
 <path fill="none" stroke="rgb(179,179,179)" stroke-linejoin="round" d="M 2436,5322 L 2585,5322"/>
 <path fill="none" stroke="rgb(179,179,179)" stroke-linejoin="round" d="M 2436,3714 L 2585,3714"/>
 <path fill="none" stroke="rgb(179,179,179)" stroke-linejoin="round" d="M 2436,3714 L 2585,3714"/>
 <path fill="none" stroke="rgb(179,179,179)" stroke-linejoin="round" d="M 2436,2105 L 2585,2105"/>
 <path fill="none" stroke="rgb(179,179,179)" stroke-linejoin="round" d="M 2436,2105 L 2585,2105"/>
 <path fill="none" stroke="rgb(179,179,179)" stroke-linejoin="round" d="M 2436,497 L 2585,497"/>
 <path fill="none" stroke="rgb(179,179,179)" stroke-linejoin="round" d="M 2436,497 L 2585,497"/>
 <path fill="none" stroke="rgb(179,179,179)" stroke-linejoin="round" d="M 2585,11756 L 2585,497"/>
 <path fill="none" stroke="rgb(255,66,14)" stroke-width="80" stroke-linejoin="round" d="M 2585,7738 L 3725,7676 4865,7402 6005,7741 7145,7174 8286,6811 9426,6406 10566,5734 11706,5225 12846,4765 13985,4077 15126,3483 16266,2848 17406,1999 18546,1458 19686,944"/>
 <path fill="rgb(255,66,14)" stroke="none" d="M 2461,7738 L 2585,7862 2710,7738 2585,7614 2461,7738 Z"/>
 <path fill="none" stroke="rgb(255,66,14)" stroke-linejoin="round" d="M 2461,7738 L 2585,7862 2710,7738 2585,7614 2461,7738 Z"/>
 <path fill="rgb(255,66,14)" stroke="none" d="M 3601,7676 L 3725,7800 3850,7676 3725,7552 3601,7676 Z"/>
 <path fill="none" stroke="rgb(255,66,14)" stroke-linejoin="round" d="M 3601,7676 L 3725,7800 3850,7676 3725,7552 3601,7676 Z"/>
 <path fill="rgb(255,66,14)" stroke="none" d="M 4741,7402 L 4865,7526 4990,7402 4865,7278 4741,7402 Z"/>
 <path fill="none" stroke="rgb(255,66,14)" stroke-linejoin="round" d="M 4741,7402 L 4865,7526 4990,7402 4865,7278 4741,7402 Z"/>
 <path fill="rgb(255,66,14)" stroke="none" d="M 5881,7741 L 6005,7865 6130,7741 6005,7617 5881,7741 Z"/>
 <path fill="none" stroke="rgb(255,66,14)" stroke-linejoin="round" d="M 5881,7741 L 6005,7865 6130,7741 6005,7617 5881,7741 Z"/>
 <path fill="rgb(255,66,14)" stroke="none" d="M 7021,7174 L 7145,7298 7269,7174 7145,7050 7021,7174 Z"/>
 <path fill="none" stroke="rgb(255,66,14)" stroke-linejoin="round" d="M 7021,7174 L 7145,7298 7269,7174 7145,7050 7021,7174 Z"/>
 <path fill="rgb(255,66,14)" stroke="none" d="M 8161,6811 L 8286,6935 8410,6811 8286,6687 8161,6811 Z"/>
 <path fill="none" stroke="rgb(255,66,14)" stroke-linejoin="round" d="M 8161,6811 L 8286,6935 8410,6811 8286,6687 8161,6811 Z"/>
 <path fill="rgb(255,66,14)" stroke="none" d="M 9301,6406 L 9426,6530 9550,6406 9426,6282 9301,6406 Z"/>
 <path fill="none" stroke="rgb(255,66,14)" stroke-linejoin="round" d="M 9301,6406 L 9426,6530 9550,6406 9426,6282 9301,6406 Z"/>
 <path fill="rgb(255,66,14)" stroke="none" d="M 10441,5734 L 10566,5858 10690,5734 10566,5610 10441,5734 Z"/>
 <path fill="none" stroke="rgb(255,66,14)" stroke-linejoin="round" d="M 10441,5734 L 10566,5858 10690,5734 10566,5610 10441,5734 Z"/>
 <path fill="rgb(255,66,14)" stroke="none" d="M 11581,5225 L 11706,5349 11830,5225 11706,5101 11581,5225 Z"/>
 <path fill="none" stroke="rgb(255,66,14)" stroke-linejoin="round" d="M 11581,5225 L 11706,5349 11830,5225 11706,5101 11581,5225 Z"/>
 <path fill="rgb(255,66,14)" stroke="none" d="M 12721,4765 L 12846,4889 12970,4765 12846,4641 12721,4765 Z"/>
 <path fill="none" stroke="rgb(255,66,14)" stroke-linejoin="round" d="M 12721,4765 L 12846,4889 12970,4765 12846,4641 12721,4765 Z"/>
 <path fill="rgb(255,66,14)" stroke="none" d="M 13861,4077 L 13985,4201 14110,4077 13985,3953 13861,4077 Z"/>
 <path fill="none" stroke="rgb(255,66,14)" stroke-linejoin="round" d="M 13861,4077 L 13985,4201 14110,4077 13985,3953 13861,4077 Z"/>
 <path fill="rgb(255,66,14)" stroke="none" d="M 15002,3483 L 15126,3607 15251,3483 15126,3359 15002,3483 Z"/>
 <path fill="none" stroke="rgb(255,66,14)" stroke-linejoin="round" d="M 15002,3483 L 15126,3607 15251,3483 15126,3359 15002,3483 Z"/>
 <path fill="rgb(255,66,14)" stroke="none" d="M 16142,2848 L 16266,2972 16391,2848 16266,2724 16142,2848 Z"/>
 <path fill="none" stroke="rgb(255,66,14)" stroke-linejoin="round" d="M 16142,2848 L 16266,2972 16391,2848 16266,2724 16142,2848 Z"/>
 <path fill="rgb(255,66,14)" stroke="none" d="M 17282,1999 L 17406,2123 17531,1999 17406,1875 17282,1999 Z"/>
 <path fill="none" stroke="rgb(255,66,14)" stroke-linejoin="round" d="M 17282,1999 L 17406,2123 17531,1999 17406,1875 17282,1999 Z"/>
 <path fill="rgb(255,66,14)" stroke="none" d="M 18422,1458 L 18546,1582 18670,1458 18546,1334 18422,1458 Z"/>
 <path fill="none" stroke="rgb(255,66,14)" stroke-linejoin="round" d="M 18422,1458 L 18546,1582 18670,1458 18546,1334 18422,1458 Z"/>
 <path fill="rgb(255,66,14)" stroke="none" d="M 19561,944 L 19686,1069 19810,944 19686,820 19561,944 Z"/>
 <path fill="none" stroke="rgb(255,66,14)" stroke-linejoin="round" d="M 19561,944 L 19686,1069 19810,944 19686,820 19561,944 Z"/>
 <path fill="none" stroke="rgb(255,211,32)" stroke-width="80" stroke-linejoin="round" d="M 2585,10190 L 3725,9616 4865,9041 6005,8431 7145,7725 8286,6978 9426,6196 10566,5073 11706,4196 12846,3412 13985,2439 15126,1616 16266,734"/>
 <path fill="rgb(255,211,32)" stroke="none" d="M 2461,10066 L 2585,10314 2710,10066 2461,10066 Z"/>
 <path fill="none" stroke="rgb(255,211,32)" stroke-linejoin="round" d="M 2461,10066 L 2585,10314 2710,10066 2461,10066 Z"/>
 <path fill="rgb(255,211,32)" stroke="none" d="M 3601,9492 L 3725,9740 3850,9492 3601,9492 Z"/>
 <path fill="none" stroke="rgb(255,211,32)" stroke-linejoin="round" d="M 3601,9492 L 3725,9740 3850,9492 3601,9492 Z"/>
 <path fill="rgb(255,211,32)" stroke="none" d="M 4741,8917 L 4865,9165 4990,8917 4741,8917 Z"/>
 <path fill="none" stroke="rgb(255,211,32)" stroke-linejoin="round" d="M 4741,8917 L 4865,9165 4990,8917 4741,8917 Z"/>
 <path fill="rgb(255,211,32)" stroke="none" d="M 5881,8307 L 6005,8555 6130,8307 5881,8307 Z"/>
 <path fill="none" stroke="rgb(255,211,32)" stroke-linejoin="round" d="M 5881,8307 L 6005,8555 6130,8307 5881,8307 Z"/>
 <path fill="rgb(255,211,32)" stroke="none" d="M 7021,7601 L 7145,7849 7269,7601 7021,7601 Z"/>
 <path fill="none" stroke="rgb(255,211,32)" stroke-linejoin="round" d="M 7021,7601 L 7145,7849 7269,7601 7021,7601 Z"/>
 <path fill="rgb(255,211,32)" stroke="none" d="M 8161,6853 L 8286,7102 8410,6853 8161,6853 Z"/>
 <path fill="none" stroke="rgb(255,211,32)" stroke-linejoin="round" d="M 8161,6853 L 8286,7102 8410,6853 8161,6853 Z"/>
 <path fill="rgb(255,211,32)" stroke="none" d="M 9301,6072 L 9426,6320 9550,6072 9301,6072 Z"/>
 <path fill="none" stroke="rgb(255,211,32)" stroke-linejoin="round" d="M 9301,6072 L 9426,6320 9550,6072 9301,6072 Z"/>
 <path fill="rgb(255,211,32)" stroke="none" d="M 10441,4949 L 10566,5197 10690,4949 10441,4949 Z"/>
 <path fill="none" stroke="rgb(255,211,32)" stroke-linejoin="round" d="M 10441,4949 L 10566,5197 10690,4949 10441,4949 Z"/>
 <path fill="rgb(255,211,32)" stroke="none" d="M 11581,4072 L 11706,4320 11830,4072 11581,4072 Z"/>
 <path fill="none" stroke="rgb(255,211,32)" stroke-linejoin="round" d="M 11581,4072 L 11706,4320 11830,4072 11581,4072 Z"/>
 <path fill="rgb(255,211,32)" stroke="none" d="M 12721,3288 L 12846,3536 12970,3288 12721,3288 Z"/>
 <path fill="none" stroke="rgb(255,211,32)" stroke-linejoin="round" d="M 12721,3288 L 12846,3536 12970,3288 12721,3288 Z"/>
 <path fill="rgb(255,211,32)" stroke="none" d="M 13861,2315 L 13985,2563 14110,2315 13861,2315 Z"/>
 <path fill="none" stroke="rgb(255,211,32)" stroke-linejoin="round" d="M 13861,2315 L 13985,2563 14110,2315 13861,2315 Z"/>
 <path fill="rgb(255,211,32)" stroke="none" d="M 15002,1492 L 15126,1740 15251,1492 15002,1492 Z"/>
 <path fill="none" stroke="rgb(255,211,32)" stroke-linejoin="round" d="M 15002,1492 L 15126,1740 15251,1492 15002,1492 Z"/>
 <path fill="rgb(255,211,32)" stroke="none" d="M 16142,610 L 16266,858 16391,610 16142,610 Z"/>
 <path fill="none" stroke="rgb(255,211,32)" stroke-linejoin="round" d="M 16142,610 L 16266,858 16391,610 16142,610 Z"/>
 <path fill="none" stroke="rgb(126,0,33)" stroke-width="80" stroke-linejoin="round" d="M 2585,8665 L 3725,8411 4865,8816 6005,8635 7145,8235 8286,7990 9426,7516 10566,6874 11706,6366 12846,5713 13985,4453 15126,3771 16266,2564 17406,1769 18546,1049"/>
 <path fill="rgb(126,0,33)" stroke="none" d="M 2461,8541 L 2461,8789 2710,8665 2461,8541 Z"/>
 <path fill="none" stroke="rgb(126,0,33)" stroke-linejoin="round" d="M 2461,8541 L 2461,8789 2710,8665 2461,8541 Z"/>
 <path fill="rgb(126,0,33)" stroke="none" d="M 3601,8287 L 3601,8535 3850,8411 3601,8287 Z"/>
 <path fill="none" stroke="rgb(126,0,33)" stroke-linejoin="round" d="M 3601,8287 L 3601,8535 3850,8411 3601,8287 Z"/>
 <path fill="rgb(126,0,33)" stroke="none" d="M 4741,8692 L 4741,8940 4990,8816 4741,8692 Z"/>
 <path fill="none" stroke="rgb(126,0,33)" stroke-linejoin="round" d="M 4741,8692 L 4741,8940 4990,8816 4741,8692 Z"/>
 <path fill="rgb(126,0,33)" stroke="none" d="M 5881,8511 L 5881,8759 6130,8635 5881,8511 Z"/>
 <path fill="none" stroke="rgb(126,0,33)" stroke-linejoin="round" d="M 5881,8511 L 5881,8759 6130,8635 5881,8511 Z"/>
 <path fill="rgb(126,0,33)" stroke="none" d="M 7021,8110 L 7021,8359 7269,8235 7021,8110 Z"/>
 <path fill="none" stroke="rgb(126,0,33)" stroke-linejoin="round" d="M 7021,8110 L 7021,8359 7269,8235 7021,8110 Z"/>
 <path fill="rgb(126,0,33)" stroke="none" d="M 8161,7866 L 8161,8114 8410,7990 8161,7866 Z"/>
 <path fill="none" stroke="rgb(126,0,33)" stroke-linejoin="round" d="M 8161,7866 L 8161,8114 8410,7990 8161,7866 Z"/>
 <path fill="rgb(126,0,33)" stroke="none" d="M 9301,7392 L 9301,7640 9550,7516 9301,7392 Z"/>
 <path fill="none" stroke="rgb(126,0,33)" stroke-linejoin="round" d="M 9301,7392 L 9301,7640 9550,7516 9301,7392 Z"/>
 <path fill="rgb(126,0,33)" stroke="none" d="M 10441,6750 L 10441,6998 10690,6874 10441,6750 Z"/>
 <path fill="none" stroke="rgb(126,0,33)" stroke-linejoin="round" d="M 10441,6750 L 10441,6998 10690,6874 10441,6750 Z"/>
 <path fill="rgb(126,0,33)" stroke="none" d="M 11581,6242 L 11581,6490 11830,6366 11581,6242 Z"/>
 <path fill="none" stroke="rgb(126,0,33)" stroke-linejoin="round" d="M 11581,6242 L 11581,6490 11830,6366 11581,6242 Z"/>
 <path fill="rgb(126,0,33)" stroke="none" d="M 12721,5589 L 12721,5837 12970,5713 12721,5589 Z"/>
 <path fill="none" stroke="rgb(126,0,33)" stroke-linejoin="round" d="M 12721,5589 L 12721,5837 12970,5713 12721,5589 Z"/>
 <path fill="rgb(126,0,33)" stroke="none" d="M 13861,4329 L 13861,4577 14110,4453 13861,4329 Z"/>
 <path fill="none" stroke="rgb(126,0,33)" stroke-linejoin="round" d="M 13861,4329 L 13861,4577 14110,4453 13861,4329 Z"/>
 <path fill="rgb(126,0,33)" stroke="none" d="M 15002,3647 L 15002,3895 15251,3771 15002,3647 Z"/>
 <path fill="none" stroke="rgb(126,0,33)" stroke-linejoin="round" d="M 15002,3647 L 15002,3895 15251,3771 15002,3647 Z"/>
 <path fill="rgb(126,0,33)" stroke="none" d="M 16142,2440 L 16142,2688 16391,2564 16142,2440 Z"/>
 <path fill="none" stroke="rgb(126,0,33)" stroke-linejoin="round" d="M 16142,2440 L 16142,2688 16391,2564 16142,2440 Z"/>
 <path fill="rgb(126,0,33)" stroke="none" d="M 17282,1645 L 17282,1893 17531,1769 17282,1645 Z"/>
 <path fill="none" stroke="rgb(126,0,33)" stroke-linejoin="round" d="M 17282,1645 L 17282,1893 17531,1769 17282,1645 Z"/>
 <path fill="rgb(126,0,33)" stroke="none" d="M 18422,925 L 18422,1173 18670,1049 18422,925 Z"/>
 <path fill="none" stroke="rgb(126,0,33)" stroke-linejoin="round" d="M 18422,925 L 18422,1173 18670,1049 18422,925 Z"/>
 <path fill="none" stroke="rgb(87,157,28)" stroke-width="80" stroke-linejoin="round" d="M 2585,9695 L 3725,9776 4865,9198 6005,8724 7145,8184 8286,7625 9426,7198 10566,6498 11706,5977 12846,5482 13985,4772 15126,4232 16266,3602 17406,2789 18546,2245 19686,1679"/>
 <path fill="rgb(87,157,28)" stroke="none" d="M 2461,9819 L 2710,9819 2585,9571 2461,9819 Z"/>
 <path fill="none" stroke="rgb(87,157,28)" stroke-linejoin="round" d="M 2461,9819 L 2710,9819 2585,9571 2461,9819 Z"/>
 <path fill="rgb(87,157,28)" stroke="none" d="M 3601,9900 L 3850,9900 3725,9652 3601,9900 Z"/>
 <path fill="none" stroke="rgb(87,157,28)" stroke-linejoin="round" d="M 3601,9900 L 3850,9900 3725,9652 3601,9900 Z"/>
 <path fill="rgb(87,157,28)" stroke="none" d="M 4741,9322 L 4990,9322 4865,9074 4741,9322 Z"/>
 <path fill="none" stroke="rgb(87,157,28)" stroke-linejoin="round" d="M 4741,9322 L 4990,9322 4865,9074 4741,9322 Z"/>
 <path fill="rgb(87,157,28)" stroke="none" d="M 5881,8848 L 6130,8848 6005,8600 5881,8848 Z"/>
 <path fill="none" stroke="rgb(87,157,28)" stroke-linejoin="round" d="M 5881,8848 L 6130,8848 6005,8600 5881,8848 Z"/>
 <path fill="rgb(87,157,28)" stroke="none" d="M 7021,8308 L 7269,8308 7145,8060 7021,8308 Z"/>
 <path fill="none" stroke="rgb(87,157,28)" stroke-linejoin="round" d="M 7021,8308 L 7269,8308 7145,8060 7021,8308 Z"/>
 <path fill="rgb(87,157,28)" stroke="none" d="M 8161,7749 L 8410,7749 8286,7501 8161,7749 Z"/>
 <path fill="none" stroke="rgb(87,157,28)" stroke-linejoin="round" d="M 8161,7749 L 8410,7749 8286,7501 8161,7749 Z"/>
 <path fill="rgb(87,157,28)" stroke="none" d="M 9301,7322 L 9550,7322 9426,7074 9301,7322 Z"/>
 <path fill="none" stroke="rgb(87,157,28)" stroke-linejoin="round" d="M 9301,7322 L 9550,7322 9426,7074 9301,7322 Z"/>
 <path fill="rgb(87,157,28)" stroke="none" d="M 10441,6622 L 10690,6622 10566,6374 10441,6622 Z"/>
 <path fill="none" stroke="rgb(87,157,28)" stroke-linejoin="round" d="M 10441,6622 L 10690,6622 10566,6374 10441,6622 Z"/>
 <path fill="rgb(87,157,28)" stroke="none" d="M 11581,6101 L 11830,6101 11706,5853 11581,6101 Z"/>
 <path fill="none" stroke="rgb(87,157,28)" stroke-linejoin="round" d="M 11581,6101 L 11830,6101 11706,5853 11581,6101 Z"/>
 <path fill="rgb(87,157,28)" stroke="none" d="M 12721,5606 L 12970,5606 12846,5358 12721,5606 Z"/>
 <path fill="none" stroke="rgb(87,157,28)" stroke-linejoin="round" d="M 12721,5606 L 12970,5606 12846,5358 12721,5606 Z"/>
 <path fill="rgb(87,157,28)" stroke="none" d="M 13861,4896 L 14110,4896 13985,4648 13861,4896 Z"/>
 <path fill="none" stroke="rgb(87,157,28)" stroke-linejoin="round" d="M 13861,4896 L 14110,4896 13985,4648 13861,4896 Z"/>
 <path fill="rgb(87,157,28)" stroke="none" d="M 15002,4356 L 15251,4356 15126,4108 15002,4356 Z"/>
 <path fill="none" stroke="rgb(87,157,28)" stroke-linejoin="round" d="M 15002,4356 L 15251,4356 15126,4108 15002,4356 Z"/>
 <path fill="rgb(87,157,28)" stroke="none" d="M 16142,3726 L 16391,3726 16266,3478 16142,3726 Z"/>
 <path fill="none" stroke="rgb(87,157,28)" stroke-linejoin="round" d="M 16142,3726 L 16391,3726 16266,3478 16142,3726 Z"/>
 <path fill="rgb(87,157,28)" stroke="none" d="M 17282,2913 L 17531,2913 17406,2665 17282,2913 Z"/>
 <path fill="none" stroke="rgb(87,157,28)" stroke-linejoin="round" d="M 17282,2913 L 17531,2913 17406,2665 17282,2913 Z"/>
 <path fill="rgb(87,157,28)" stroke="none" d="M 18422,2369 L 18670,2369 18546,2121 18422,2369 Z"/>
 <path fill="none" stroke="rgb(87,157,28)" stroke-linejoin="round" d="M 18422,2369 L 18670,2369 18546,2121 18422,2369 Z"/>
 <path fill="rgb(87,157,28)" stroke="none" d="M 19561,1803 L 19810,1803 19686,1555 19561,1803 Z"/>
 <path fill="none" stroke="rgb(87,157,28)" stroke-linejoin="round" d="M 19561,1803 L 19810,1803 19686,1555 19561,1803 Z"/>
 <path fill="none" stroke="rgb(0,69,134)" stroke-width="80" stroke-linejoin="round" d="M 2585,10769 L 3725,10100 4865,9448 6005,9101 7145,8127 8286,7675 9426,7231 10566,6630 11706,6143 12846,5655 13985,4950 15126,4344 16266,3868 17406,3085 18546,2582 19686,2063"/>
 <path fill="rgb(0,69,134)" stroke="none" d="M 2461,10645 L 2461,10893 2710,10893 2710,10645 2461,10645 Z"/>
 <path fill="none" stroke="rgb(0,69,134)" stroke-linejoin="round" d="M 2461,10645 L 2461,10893 2710,10893 2710,10645 2461,10645 Z"/>
 <path fill="rgb(0,69,134)" stroke="none" d="M 3601,9976 L 3601,10224 3850,10224 3850,9976 3601,9976 Z"/>
 <path fill="none" stroke="rgb(0,69,134)" stroke-linejoin="round" d="M 3601,9976 L 3601,10224 3850,10224 3850,9976 3601,9976 Z"/>
 <path fill="rgb(0,69,134)" stroke="none" d="M 4741,9324 L 4741,9572 4990,9572 4990,9324 4741,9324 Z"/>
 <path fill="none" stroke="rgb(0,69,134)" stroke-linejoin="round" d="M 4741,9324 L 4741,9572 4990,9572 4990,9324 4741,9324 Z"/>
 <path fill="rgb(0,69,134)" stroke="none" d="M 5881,8977 L 5881,9225 6130,9225 6130,8977 5881,8977 Z"/>
 <path fill="none" stroke="rgb(0,69,134)" stroke-linejoin="round" d="M 5881,8977 L 5881,9225 6130,9225 6130,8977 5881,8977 Z"/>
 <path fill="rgb(0,69,134)" stroke="none" d="M 7021,8003 L 7021,8251 7269,8251 7269,8003 7021,8003 Z"/>
 <path fill="none" stroke="rgb(0,69,134)" stroke-linejoin="round" d="M 7021,8003 L 7021,8251 7269,8251 7269,8003 7021,8003 Z"/>
 <path fill="rgb(0,69,134)" stroke="none" d="M 8161,7551 L 8161,7799 8410,7799 8410,7551 8161,7551 Z"/>
 <path fill="none" stroke="rgb(0,69,134)" stroke-linejoin="round" d="M 8161,7551 L 8161,7799 8410,7799 8410,7551 8161,7551 Z"/>
 <path fill="rgb(0,69,134)" stroke="none" d="M 9301,7107 L 9301,7356 9550,7356 9550,7107 9301,7107 Z"/>
 <path fill="none" stroke="rgb(0,69,134)" stroke-linejoin="round" d="M 9301,7107 L 9301,7356 9550,7356 9550,7107 9301,7107 Z"/>
 <path fill="rgb(0,69,134)" stroke="none" d="M 10441,6506 L 10441,6754 10690,6754 10690,6506 10441,6506 Z"/>
 <path fill="none" stroke="rgb(0,69,134)" stroke-linejoin="round" d="M 10441,6506 L 10441,6754 10690,6754 10690,6506 10441,6506 Z"/>
 <path fill="rgb(0,69,134)" stroke="none" d="M 11581,6019 L 11581,6267 11830,6267 11830,6019 11581,6019 Z"/>
 <path fill="none" stroke="rgb(0,69,134)" stroke-linejoin="round" d="M 11581,6019 L 11581,6267 11830,6267 11830,6019 11581,6019 Z"/>
 <path fill="rgb(0,69,134)" stroke="none" d="M 12721,5531 L 12721,5779 12970,5779 12970,5531 12721,5531 Z"/>
 <path fill="none" stroke="rgb(0,69,134)" stroke-linejoin="round" d="M 12721,5531 L 12721,5779 12970,5779 12970,5531 12721,5531 Z"/>
 <path fill="rgb(0,69,134)" stroke="none" d="M 13861,4826 L 13861,5074 14110,5074 14110,4826 13861,4826 Z"/>
 <path fill="none" stroke="rgb(0,69,134)" stroke-linejoin="round" d="M 13861,4826 L 13861,5074 14110,5074 14110,4826 13861,4826 Z"/>
 <path fill="rgb(0,69,134)" stroke="none" d="M 15002,4220 L 15002,4468 15251,4468 15251,4220 15002,4220 Z"/>
 <path fill="none" stroke="rgb(0,69,134)" stroke-linejoin="round" d="M 15002,4220 L 15002,4468 15251,4468 15251,4220 15002,4220 Z"/>
 <path fill="rgb(0,69,134)" stroke="none" d="M 16142,3744 L 16142,3992 16391,3992 16391,3744 16142,3744 Z"/>
 <path fill="none" stroke="rgb(0,69,134)" stroke-linejoin="round" d="M 16142,3744 L 16142,3992 16391,3992 16391,3744 16142,3744 Z"/>
 <path fill="rgb(0,69,134)" stroke="none" d="M 17282,2961 L 17282,3209 17531,3209 17531,2961 17282,2961 Z"/>
 <path fill="none" stroke="rgb(0,69,134)" stroke-linejoin="round" d="M 17282,2961 L 17282,3209 17531,3209 17531,2961 17282,2961 Z"/>
 <path fill="rgb(0,69,134)" stroke="none" d="M 18422,2458 L 18422,2706 18670,2706 18670,2458 18422,2458 Z"/>
 <path fill="none" stroke="rgb(0,69,134)" stroke-linejoin="round" d="M 18422,2458 L 18422,2706 18670,2706 18670,2458 18422,2458 Z"/>
 <path fill="rgb(0,69,134)" stroke="none" d="M 19561,1939 L 19561,2187 19810,2187 19810,1939 19561,1939 Z"/>
 <path fill="none" stroke="rgb(0,69,134)" stroke-linejoin="round" d="M 19561,1939 L 19561,2187 19810,2187 19810,1939 19561,1939 Z"/>
 <text class="SVGTextShape"><tspan class="TextParagraph" font-family="Liberation Sans, sans-serif" font-size="350px" font-weight="400"><tspan class="TextPosition" x="2289" y="12319"><tspan fill="rgb(0,0,0)" stroke="none">100</tspan></tspan></tspan></text>
 <text class="SVGTextShape"><tspan class="TextParagraph" font-family="Liberation Sans, sans-serif" font-size="350px" font-weight="400"><tspan class="TextPosition" x="3429" y="12319"><tspan fill="rgb(0,0,0)" stroke="none">250</tspan></tspan></tspan></text>
 <text class="SVGTextShape"><tspan class="TextParagraph" font-family="Liberation Sans, sans-serif" font-size="350px" font-weight="400"><tspan class="TextPosition" x="4569" y="12319"><tspan fill="rgb(0,0,0)" stroke="none">500</tspan></tspan></tspan></text>
 <text class="SVGTextShape"><tspan class="TextParagraph" font-family="Liberation Sans, sans-serif" font-size="350px" font-weight="400"><tspan class="TextPosition" x="5788" y="12319"><tspan fill="rgb(0,0,0)" stroke="none">1K</tspan></tspan></tspan></text>
 <text class="SVGTextShape"><tspan class="TextParagraph" font-family="Liberation Sans, sans-serif" font-size="350px" font-weight="400"><tspan class="TextPosition" x="6776" y="12319"><tspan fill="rgb(0,0,0)" stroke="none">2.5K</tspan></tspan></tspan></text>
 <text class="SVGTextShape"><tspan class="TextParagraph" font-family="Liberation Sans, sans-serif" font-size="350px" font-weight="400"><tspan class="TextPosition" x="8067" y="12319"><tspan fill="rgb(0,0,0)" stroke="none">5K</tspan></tspan></tspan></text>
 <text class="SVGTextShape"><tspan class="TextParagraph" font-family="Liberation Sans, sans-serif" font-size="350px" font-weight="400"><tspan class="TextPosition" x="9110" y="12319"><tspan fill="rgb(0,0,0)" stroke="none">10K</tspan></tspan></tspan></text>
 <text class="SVGTextShape"><tspan class="TextParagraph" font-family="Liberation Sans, sans-serif" font-size="350px" font-weight="400"><tspan class="TextPosition" x="10250" y="12319"><tspan fill="rgb(0,0,0)" stroke="none">25K</tspan></tspan></tspan></text>
 <text class="SVGTextShape"><tspan class="TextParagraph" font-family="Liberation Sans, sans-serif" font-size="350px" font-weight="400"><tspan class="TextPosition" x="11390" y="12319"><tspan fill="rgb(0,0,0)" stroke="none">50K</tspan></tspan></tspan></text>
 <text class="SVGTextShape"><tspan class="TextParagraph" font-family="Liberation Sans, sans-serif" font-size="350px" font-weight="400"><tspan class="TextPosition" x="12431" y="12319"><tspan fill="rgb(0,0,0)" stroke="none">100K</tspan></tspan></tspan></text>
 <text class="SVGTextShape"><tspan class="TextParagraph" font-family="Liberation Sans, sans-serif" font-size="350px" font-weight="400"><tspan class="TextPosition" x="13571" y="12319"><tspan fill="rgb(0,0,0)" stroke="none">250K</tspan></tspan></tspan></text>
 <text class="SVGTextShape"><tspan class="TextParagraph" font-family="Liberation Sans, sans-serif" font-size="350px" font-weight="400"><tspan class="TextPosition" x="14712" y="12319"><tspan fill="rgb(0,0,0)" stroke="none">500K</tspan></tspan></tspan></text>
 <text class="SVGTextShape"><tspan class="TextParagraph" font-family="Liberation Sans, sans-serif" font-size="350px" font-weight="400"><tspan class="TextPosition" x="16023" y="12319"><tspan fill="rgb(0,0,0)" stroke="none">1M</tspan></tspan></tspan></text>
 <text class="SVGTextShape"><tspan class="TextParagraph" font-family="Liberation Sans, sans-serif" font-size="350px" font-weight="400"><tspan class="TextPosition" x="17011" y="12319"><tspan fill="rgb(0,0,0)" stroke="none">2.5M</tspan></tspan></tspan></text>
 <text class="SVGTextShape"><tspan class="TextParagraph" font-family="Liberation Sans, sans-serif" font-size="350px" font-weight="400"><tspan class="TextPosition" x="18303" y="12319"><tspan fill="rgb(0,0,0)" stroke="none">5M</tspan></tspan></tspan></text>
 <text class="SVGTextShape"><tspan class="TextParagraph" font-family="Liberation Sans, sans-serif" font-size="350px" font-weight="400"><tspan class="TextPosition" x="19344" y="12319"><tspan fill="rgb(0,0,0)" stroke="none">10M</tspan></tspan></tspan></text>
 <text class="SVGTextShape"><tspan class="TextParagraph" font-family="Liberation Sans, sans-serif" font-size="350px" font-weight="400"><tspan class="TextPosition" x="1493" y="11875"><tspan fill="rgb(0,0,0)" stroke="none">1E+1</tspan></tspan></tspan></text>
 <text class="SVGTextShape"><tspan class="TextParagraph" font-family="Liberation Sans, sans-serif" font-size="350px" font-weight="400"><tspan class="TextPosition" x="1493" y="10267"><tspan fill="rgb(0,0,0)" stroke="none">1E+2</tspan></tspan></tspan></text>
 <text class="SVGTextShape"><tspan class="TextParagraph" font-family="Liberation Sans, sans-serif" font-size="350px" font-weight="400"><tspan class="TextPosition" x="1493" y="8659"><tspan fill="rgb(0,0,0)" stroke="none">1E+3</tspan></tspan></tspan></text>
 <text class="SVGTextShape"><tspan class="TextParagraph" font-family="Liberation Sans, sans-serif" font-size="350px" font-weight="400"><tspan class="TextPosition" x="1493" y="7049"><tspan fill="rgb(0,0,0)" stroke="none">1E+4</tspan></tspan></tspan></text>
 <text class="SVGTextShape"><tspan class="TextParagraph" font-family="Liberation Sans, sans-serif" font-size="350px" font-weight="400"><tspan class="TextPosition" x="1493" y="5441"><tspan fill="rgb(0,0,0)" stroke="none">1E+5</tspan></tspan></tspan></text>
 <text class="SVGTextShape"><tspan class="TextParagraph" font-family="Liberation Sans, sans-serif" font-size="350px" font-weight="400"><tspan class="TextPosition" x="1493" y="3834"><tspan fill="rgb(0,0,0)" stroke="none">1E+6</tspan></tspan></tspan></text>
 <text class="SVGTextShape"><tspan class="TextParagraph" font-family="Liberation Sans, sans-serif" font-size="350px" font-weight="400"><tspan class="TextPosition" x="1493" y="2225"><tspan fill="rgb(0,0,0)" stroke="none">1E+7</tspan></tspan></tspan></text>
 <text class="SVGTextShape"><tspan class="TextParagraph" font-family="Liberation Sans, sans-serif" font-size="350px" font-weight="400"><tspan class="TextPosition" x="1493" y="617"><tspan fill="rgb(0,0,0)" stroke="none">1E+8</tspan></tspan></tspan></text>
 <path fill="none" stroke="rgb(255,66,14)" stroke-width="80" stroke-linejoin="round" d="M 20595,5360 L 21391,5360"/>
 <path fill="rgb(255,66,14)" stroke="none" d="M 20888,5360 L 20993,5466 21098,5360 20993,5256 20888,5360 Z"/>
 <path fill="none" stroke="rgb(255,66,14)" stroke-linejoin="round" d="M 20888,5360 L 20993,5466 21098,5360 20993,5256 20888,5360 Z"/>
 <path fill="none" stroke="rgb(255,211,32)" stroke-width="80" stroke-linejoin="round" d="M 20595,5854 L 21391,5854"/>
 <path fill="rgb(255,211,32)" stroke="none" d="M 20888,5750 L 20993,5960 21098,5750 20888,5750 Z"/>
 <path fill="none" stroke="rgb(255,211,32)" stroke-linejoin="round" d="M 20888,5750 L 20993,5960 21098,5750 20888,5750 Z"/>
 <path fill="none" stroke="rgb(126,0,33)" stroke-width="80" stroke-linejoin="round" d="M 20595,6349 L 21391,6349"/>
 <path fill="rgb(126,0,33)" stroke="none" d="M 20888,6244 L 20888,6454 21098,6349 20888,6244 Z"/>
 <path fill="none" stroke="rgb(126,0,33)" stroke-linejoin="round" d="M 20888,6244 L 20888,6454 21098,6349 20888,6244 Z"/>
 <path fill="none" stroke="rgb(87,157,28)" stroke-width="80" stroke-linejoin="round" d="M 20595,6843 L 21391,6843"/>
 <path fill="rgb(87,157,28)" stroke="none" d="M 20888,6948 L 21098,6948 20993,6738 20888,6948 Z"/>
 <path fill="none" stroke="rgb(87,157,28)" stroke-linejoin="round" d="M 20888,6948 L 21098,6948 20993,6738 20888,6948 Z"/>
 <path fill="none" stroke="rgb(0,69,134)" stroke-width="80" stroke-linejoin="round" d="M 20595,7337 L 21391,7337"/>
 <path fill="rgb(0,69,134)" stroke="none" d="M 20888,7232 L 20888,7442 21098,7442 21098,7232 20888,7232 Z"/>
 <path fill="none" stroke="rgb(0,69,134)" stroke-linejoin="round" d="M 20888,7232 L 20888,7442 21098,7442 21098,7232 20888,7232 Z"/>
 <text class="SVGTextShape"><tspan class="TextParagraph" font-family="Liberation Sans, sans-serif" font-size="350px" font-weight="400"><tspan class="TextPosition" x="21491" y="5479"><tspan fill="rgb(0,0,0)" stroke="none">CDT</tspan></tspan></tspan></text>
 <text class="SVGTextShape"><tspan class="TextParagraph" font-family="Liberation Sans, sans-serif" font-size="350px" font-weight="400"><tspan class="TextPosition" x="21491" y="5973"><tspan fill="rgb(0,0,0)" stroke="none">FAD</tspan></tspan></tspan></text>
 <text class="SVGTextShape"><tspan class="TextParagraph" font-family="Liberation Sans, sans-serif" font-size="350px" font-weight="400"><tspan class="TextPosition" x="21491" y="6468"><tspan fill="rgb(0,0,0)" stroke="none">DEL</tspan></tspan></tspan></text>
 <text class="SVGTextShape"><tspan class="TextParagraph" font-family="Liberation Sans, sans-serif" font-size="350px" font-weight="400"><tspan class="TextPosition" x="21491" y="6962"><tspan fill="rgb(0,0,0)" stroke="none">TRI</tspan></tspan></tspan></text>
 <text class="SVGTextShape"><tspan class="TextParagraph" font-family="Liberation Sans, sans-serif" font-size="350px" font-weight="400"><tspan class="TextPosition" x="21491" y="7456"><tspan fill="rgb(0,0,0)" stroke="none">DLB</tspan></tspan></tspan></text>
 <text class="SVGTextShape" transform="rotate(-90 884 6953)"><tspan class="TextParagraph" font-family="Liberation Sans, sans-serif" font-size="317px" font-weight="400"><tspan class="TextPosition" x="884" y="6953"><tspan fill="rgb(0,0,0)" stroke="none">time [µs]</tspan></tspan></tspan></text>
</svg>