<?xml version="1.0" encoding="UTF-8"?>
<!DOCTYPE svg PUBLIC "-//W3C//DTD SVG 1.1//EN" "http://www.w3.org/Graphics/SVG/1.1/DTD/svg11.dtd">
<svg width="160mm" height="90mm" viewBox="0 0 16000 9000" version="1.1" xmlns="http://www.w3.org/2000/svg" xmlns:xlink="http://www.w3.org/1999/xlink" stroke-width="28.222" stroke-linejoin="round" xml:space="preserve">
 <path fill="rgb(255,255,255)" stroke="none" d="M 8000,8998 L 0,8998 0,0 15999,0 15999,8998 8000,8998 Z"/>
 <path fill="none" stroke="rgb(179,179,179)" stroke-linejoin="round" d="M 7540,7334 L 2291,7334 2291,478 12788,478 12788,7334 7540,7334 Z"/>
 <path fill="none" stroke="rgb(221,221,221)" stroke-linejoin="round" d="M 2640,477 L 2640,7333"/>
 <path fill="none" stroke="rgb(221,221,221)" stroke-linejoin="round" d="M 3340,477 L 3340,7333"/>
 <path fill="none" stroke="rgb(221,221,221)" stroke-linejoin="round" d="M 4040,477 L 4040,7333"/>
 <path fill="none" stroke="rgb(221,221,221)" stroke-linejoin="round" d="M 4740,477 L 4740,7333"/>
 <path fill="none" stroke="rgb(221,221,221)" stroke-linejoin="round" d="M 5440,477 L 5440,7333"/>
 <path fill="none" stroke="rgb(221,221,221)" stroke-linejoin="round" d="M 6140,477 L 6140,7333"/>
 <path fill="none" stroke="rgb(221,221,221)" stroke-linejoin="round" d="M 6840,477 L 6840,7333"/>
 <path fill="none" stroke="rgb(221,221,221)" stroke-linejoin="round" d="M 7540,477 L 7540,7333"/>
 <path fill="none" stroke="rgb(221,221,221)" stroke-linejoin="round" d="M 8238,477 L 8238,7333"/>
 <path fill="none" stroke="rgb(221,221,221)" stroke-linejoin="round" d="M 8938,477 L 8938,7333"/>
 <path fill="none" stroke="rgb(221,221,221)" stroke-linejoin="round" d="M 9638,477 L 9638,7333"/>
 <path fill="none" stroke="rgb(221,221,221)" stroke-linejoin="round" d="M 10338,477 L 10338,7333"/>
 <path fill="none" stroke="rgb(221,221,221)" stroke-linejoin="round" d="M 11038,477 L 11038,7333"/>
 <path fill="none" stroke="rgb(221,221,221)" stroke-linejoin="round" d="M 11738,477 L 11738,7333"/>
 <path fill="none" stroke="rgb(221,221,221)" stroke-linejoin="round" d="M 12438,477 L 12438,7333"/>
 <path fill="none" stroke="rgb(179,179,179)" stroke-linejoin="round" d="M 12788,7333 L 2291,7333"/>
 <path fill="none" stroke="rgb(179,179,179)" stroke-linejoin="round" d="M 12788,6354 L 2291,6354"/>
 <path fill="none" stroke="rgb(179,179,179)" stroke-linejoin="round" d="M 12788,5374 L 2291,5374"/>
 <path fill="none" stroke="rgb(179,179,179)" stroke-linejoin="round" d="M 12788,4394 L 2291,4394"/>
 <path fill="none" stroke="rgb(179,179,179)" stroke-linejoin="round" d="M 12788,3415 L 2291,3415"/>
 <path fill="none" stroke="rgb(179,179,179)" stroke-linejoin="round" d="M 12788,2435 L 2291,2435"/>
 <path fill="none" stroke="rgb(179,179,179)" stroke-linejoin="round" d="M 12788,1456 L 2291,1456"/>
 <path fill="none" stroke="rgb(179,179,179)" stroke-linejoin="round" d="M 12788,477 L 2291,477"/>
 <path fill="none" stroke="rgb(179,179,179)" stroke-linejoin="round" d="M 2291,7483 L 2291,7333"/>
 <path fill="none" stroke="rgb(179,179,179)" stroke-linejoin="round" d="M 2291,7483 L 2291,7333"/>
 <path fill="none" stroke="rgb(179,179,179)" stroke-linejoin="round" d="M 2990,7483 L 2990,7333"/>
 <path fill="none" stroke="rgb(179,179,179)" stroke-linejoin="round" d="M 2990,7483 L 2990,7333"/>
 <path fill="none" stroke="rgb(179,179,179)" stroke-linejoin="round" d="M 3690,7483 L 3690,7333"/>
 <path fill="none" stroke="rgb(179,179,179)" stroke-linejoin="round" d="M 3690,7483 L 3690,7333"/>
 <path fill="none" stroke="rgb(179,179,179)" stroke-linejoin="round" d="M 4390,7483 L 4390,7333"/>
 <path fill="none" stroke="rgb(179,179,179)" stroke-linejoin="round" d="M 4390,7483 L 4390,7333"/>
 <path fill="none" stroke="rgb(179,179,179)" stroke-linejoin="round" d="M 5090,7483 L 5090,7333"/>
 <path fill="none" stroke="rgb(179,179,179)" stroke-linejoin="round" d="M 5090,7483 L 5090,7333"/>
 <path fill="none" stroke="rgb(179,179,179)" stroke-linejoin="round" d="M 5790,7483 L 5790,7333"/>
 <path fill="none" stroke="rgb(179,179,179)" stroke-linejoin="round" d="M 5790,7483 L 5790,7333"/>
 <path fill="none" stroke="rgb(179,179,179)" stroke-linejoin="round" d="M 6490,7483 L 6490,7333"/>
 <path fill="none" stroke="rgb(179,179,179)" stroke-linejoin="round" d="M 6490,7483 L 6490,7333"/>
 <path fill="none" stroke="rgb(179,179,179)" stroke-linejoin="round" d="M 7190,7483 L 7190,7333"/>
 <path fill="none" stroke="rgb(179,179,179)" stroke-linejoin="round" d="M 7190,7483 L 7190,7333"/>
 <path fill="none" stroke="rgb(179,179,179)" stroke-linejoin="round" d="M 7889,7483 L 7889,7333"/>
 <path fill="none" stroke="rgb(179,179,179)" stroke-linejoin="round" d="M 7889,7483 L 7889,7333"/>
 <path fill="none" stroke="rgb(179,179,179)" stroke-linejoin="round" d="M 8588,7483 L 8588,7333"/>
 <path fill="none" stroke="rgb(179,179,179)" stroke-linejoin="round" d="M 8588,7483 L 8588,7333"/>
 <path fill="none" stroke="rgb(179,179,179)" stroke-linejoin="round" d="M 9288,7483 L 9288,7333"/>
 <path fill="none" stroke="rgb(179,179,179)" stroke-linejoin="round" d="M 9288,7483 L 9288,7333"/>
 <path fill="none" stroke="rgb(179,179,179)" stroke-linejoin="round" d="M 9988,7483 L 9988,7333"/>
 <path fill="none" stroke="rgb(179,179,179)" stroke-linejoin="round" d="M 9988,7483 L 9988,7333"/>
 <path fill="none" stroke="rgb(179,179,179)" stroke-linejoin="round" d="M 10688,7483 L 10688,7333"/>
 <path fill="none" stroke="rgb(179,179,179)" stroke-linejoin="round" d="M 10688,7483 L 10688,7333"/>
 <path fill="none" stroke="rgb(179,179,179)" stroke-linejoin="round" d="M 11388,7483 L 11388,7333"/>
 <path fill="none" stroke="rgb(179,179,179)" stroke-linejoin="round" d="M 11388,7483 L 11388,7333"/>
 <path fill="none" stroke="rgb(179,179,179)" stroke-linejoin="round" d="M 12088,7483 L 12088,7333"/>
 <path fill="none" stroke="rgb(179,179,179)" stroke-linejoin="round" d="M 12088,7483 L 12088,7333"/>
 <path fill="none" stroke="rgb(179,179,179)" stroke-linejoin="round" d="M 12788,7483 L 12788,7333"/>
 <path fill="none" stroke="rgb(179,179,179)" stroke-linejoin="round" d="M 12788,7483 L 12788,7333"/>
 <path fill="none" stroke="rgb(179,179,179)" stroke-linejoin="round" d="M 2291,7333 L 12788,7333"/>
 <path fill="none" stroke="rgb(179,179,179)" stroke-linejoin="round" d="M 2141,7333 L 2291,7333"/>
 <path fill="none" stroke="rgb(179,179,179)" stroke-linejoin="round" d="M 2141,7333 L 2291,7333"/>
 <path fill="none" stroke="rgb(179,179,179)" stroke-linejoin="round" d="M 2141,6354 L 2291,6354"/>
 <path fill="none" stroke="rgb(179,179,179)" stroke-linejoin="round" d="M 2141,6354 L 2291,6354"/>
 <path fill="none" stroke="rgb(179,179,179)" stroke-linejoin="round" d="M 2141,5374 L 2291,5374"/>
 <path fill="none" stroke="rgb(179,179,179)" stroke-linejoin="round" d="M 2141,5374 L 2291,5374"/>
 <path fill="none" stroke="rgb(179,179,179)" stroke-linejoin="round" d="M 2141,4394 L 2291,4394"/>
 <path fill="none" stroke="rgb(179,179,179)" stroke-linejoin="round" d="M 2141,4394 L 2291,4394"/>
 <path fill="none" stroke="rgb(179,179,179)" stroke-linejoin="round" d="M 2141,3415 L 2291,3415"/>
 <path fill="none" stroke="rgb(179,179,179)" stroke-linejoin="round" d="M 2141,3415 L 2291,3415"/>
 <path fill="none" stroke="rgb(179,179,179)" stroke-linejoin="round" d="M 2141,2435 L 2291,2435"/>
 <path fill="none" stroke="rgb(179,179,179)" stroke-linejoin="round" d="M 2141,2435 L 2291,2435"/>
 <path fill="none" stroke="rgb(179,179,179)" stroke-linejoin="round" d="M 2141,1456 L 2291,1456"/>
 <path fill="none" stroke="rgb(179,179,179)" stroke-linejoin="round" d="M 2141,1456 L 2291,1456"/>
 <path fill="none" stroke="rgb(179,179,179)" stroke-linejoin="round" d="M 2141,477 L 2291,477"/>
 <path fill="none" stroke="rgb(179,179,179)" stroke-linejoin="round" d="M 2141,477 L 2291,477"/>
 <path fill="none" stroke="rgb(179,179,179)" stroke-linejoin="round" d="M 2291,7333 L 2291,477"/>
 <path fill="none" stroke="rgb(0,69,134)" stroke-width="80" stroke-linejoin="round" d="M 2291,6454 L 2990,6044 3690,5677 4390,5464 5090,5073 5790,4777 6490,4483 7190,4093 7889,3783 8588,3487 9288,3067 9988,2770 10688,2459 11388,2048 12088,1749 12788,1404"/>
 <path fill="rgb(0,69,134)" stroke="none" d="M 2166,6329 L 2166,6579 2416,6579 2416,6329 2166,6329 Z"/>
 <path fill="none" stroke="rgb(0,69,134)" stroke-linejoin="round" d="M 2166,6329 L 2166,6579 2416,6579 2416,6329 2166,6329 Z"/>
 <path fill="rgb(0,69,134)" stroke="none" d="M 2865,5919 L 2865,6169 3115,6169 3115,5919 2865,5919 Z"/>
 <path fill="none" stroke="rgb(0,69,134)" stroke-linejoin="round" d="M 2865,5919 L 2865,6169 3115,6169 3115,5919 2865,5919 Z"/>
 <path fill="rgb(0,69,134)" stroke="none" d="M 3565,5552 L 3565,5802 3815,5802 3815,5552 3565,5552 Z"/>
 <path fill="none" stroke="rgb(0,69,134)" stroke-linejoin="round" d="M 3565,5552 L 3565,5802 3815,5802 3815,5552 3565,5552 Z"/>
 <path fill="rgb(0,69,134)" stroke="none" d="M 4265,5339 L 4265,5589 4515,5589 4515,5339 4265,5339 Z"/>
 <path fill="none" stroke="rgb(0,69,134)" stroke-linejoin="round" d="M 4265,5339 L 4265,5589 4515,5589 4515,5339 4265,5339 Z"/>
 <path fill="rgb(0,69,134)" stroke="none" d="M 4965,4948 L 4965,5198 5215,5198 5215,4948 4965,4948 Z"/>
 <path fill="none" stroke="rgb(0,69,134)" stroke-linejoin="round" d="M 4965,4948 L 4965,5198 5215,5198 5215,4948 4965,4948 Z"/>
 <path fill="rgb(0,69,134)" stroke="none" d="M 5665,4652 L 5665,4902 5915,4902 5915,4652 5665,4652 Z"/>
 <path fill="none" stroke="rgb(0,69,134)" stroke-linejoin="round" d="M 5665,4652 L 5665,4902 5915,4902 5915,4652 5665,4652 Z"/>
 <path fill="rgb(0,69,134)" stroke="none" d="M 6365,4358 L 6365,4608 6615,4608 6615,4358 6365,4358 Z"/>
 <path fill="none" stroke="rgb(0,69,134)" stroke-linejoin="round" d="M 6365,4358 L 6365,4608 6615,4608 6615,4358 6365,4358 Z"/>
 <path fill="rgb(0,69,134)" stroke="none" d="M 7065,3968 L 7065,4218 7315,4218 7315,3968 7065,3968 Z"/>
 <path fill="none" stroke="rgb(0,69,134)" stroke-linejoin="round" d="M 7065,3968 L 7065,4218 7315,4218 7315,3968 7065,3968 Z"/>
 <path fill="rgb(0,69,134)" stroke="none" d="M 7764,3658 L 7764,3908 8013,3908 8013,3658 7764,3658 Z"/>
 <path fill="none" stroke="rgb(0,69,134)" stroke-linejoin="round" d="M 7764,3658 L 7764,3908 8013,3908 8013,3658 7764,3658 Z"/>
 <path fill="rgb(0,69,134)" stroke="none" d="M 8463,3362 L 8463,3612 8713,3612 8713,3362 8463,3362 Z"/>
 <path fill="none" stroke="rgb(0,69,134)" stroke-linejoin="round" d="M 8463,3362 L 8463,3612 8713,3612 8713,3362 8463,3362 Z"/>
 <path fill="rgb(0,69,134)" stroke="none" d="M 9163,2942 L 9163,3192 9413,3192 9413,2942 9163,2942 Z"/>
 <path fill="none" stroke="rgb(0,69,134)" stroke-linejoin="round" d="M 9163,2942 L 9163,3192 9413,3192 9413,2942 9163,2942 Z"/>
 <path fill="rgb(0,69,134)" stroke="none" d="M 9863,2645 L 9863,2895 10113,2895 10113,2645 9863,2645 Z"/>
 <path fill="none" stroke="rgb(0,69,134)" stroke-linejoin="round" d="M 9863,2645 L 9863,2895 10113,2895 10113,2645 9863,2645 Z"/>
 <path fill="rgb(0,69,134)" stroke="none" d="M 10563,2334 L 10563,2584 10813,2584 10813,2334 10563,2334 Z"/>
 <path fill="none" stroke="rgb(0,69,134)" stroke-linejoin="round" d="M 10563,2334 L 10563,2584 10813,2584 10813,2334 10563,2334 Z"/>
 <path fill="rgb(0,69,134)" stroke="none" d="M 11263,1923 L 11263,2173 11513,2173 11513,1923 11263,1923 Z"/>
 <path fill="none" stroke="rgb(0,69,134)" stroke-linejoin="round" d="M 11263,1923 L 11263,2173 11513,2173 11513,1923 11263,1923 Z"/>
 <path fill="rgb(0,69,134)" stroke="none" d="M 11963,1624 L 11963,1874 12213,1874 12213,1624 11963,1624 Z"/>
 <path fill="none" stroke="rgb(0,69,134)" stroke-linejoin="round" d="M 11963,1624 L 11963,1874 12213,1874 12213,1624 11963,1624 Z"/>
 <path fill="rgb(0,69,134)" stroke="none" d="M 12663,1279 L 12663,1529 12913,1529 12913,1279 12663,1279 Z"/>
 <path fill="none" stroke="rgb(0,69,134)" stroke-linejoin="round" d="M 12663,1279 L 12663,1529 12913,1529 12913,1279 12663,1279 Z"/>
 <path fill="none" stroke="rgb(255,66,14)" stroke-width="80" stroke-linejoin="round" d="M 2291,5822 L 2990,5489 3690,5244 4390,4901 5090,4440 5790,4305 6490,3998 7190,3575 7889,3271 8588,2954 9288,2517 9988,2136 10688,1747 11388,1267 12088,935 12788,621"/>
 <path fill="rgb(255,66,14)" stroke="none" d="M 2166,5822 L 2291,5947 2416,5822 2291,5697 2166,5822 Z"/>
 <path fill="none" stroke="rgb(255,66,14)" stroke-linejoin="round" d="M 2166,5822 L 2291,5947 2416,5822 2291,5697 2166,5822 Z"/>
 <path fill="rgb(255,66,14)" stroke="none" d="M 2865,5489 L 2990,5614 3115,5489 2990,5364 2865,5489 Z"/>
 <path fill="none" stroke="rgb(255,66,14)" stroke-linejoin="round" d="M 2865,5489 L 2990,5614 3115,5489 2990,5364 2865,5489 Z"/>
 <path fill="rgb(255,66,14)" stroke="none" d="M 3565,5244 L 3690,5369 3815,5244 3690,5119 3565,5244 Z"/>
 <path fill="none" stroke="rgb(255,66,14)" stroke-linejoin="round" d="M 3565,5244 L 3690,5369 3815,5244 3690,5119 3565,5244 Z"/>
 <path fill="rgb(255,66,14)" stroke="none" d="M 4265,4901 L 4390,5026 4515,4901 4390,4776 4265,4901 Z"/>
 <path fill="none" stroke="rgb(255,66,14)" stroke-linejoin="round" d="M 4265,4901 L 4390,5026 4515,4901 4390,4776 4265,4901 Z"/>
 <path fill="rgb(255,66,14)" stroke="none" d="M 4965,4440 L 5090,4565 5215,4440 5090,4315 4965,4440 Z"/>
 <path fill="none" stroke="rgb(255,66,14)" stroke-linejoin="round" d="M 4965,4440 L 5090,4565 5215,4440 5090,4315 4965,4440 Z"/>
 <path fill="rgb(255,66,14)" stroke="none" d="M 5665,4305 L 5790,4430 5915,4305 5790,4180 5665,4305 Z"/>
 <path fill="none" stroke="rgb(255,66,14)" stroke-linejoin="round" d="M 5665,4305 L 5790,4430 5915,4305 5790,4180 5665,4305 Z"/>
 <path fill="rgb(255,66,14)" stroke="none" d="M 6365,3998 L 6490,4123 6615,3998 6490,3873 6365,3998 Z"/>
 <path fill="none" stroke="rgb(255,66,14)" stroke-linejoin="round" d="M 6365,3998 L 6490,4123 6615,3998 6490,3873 6365,3998 Z"/>
 <path fill="rgb(255,66,14)" stroke="none" d="M 7065,3575 L 7190,3700 7315,3575 7190,3450 7065,3575 Z"/>
 <path fill="none" stroke="rgb(255,66,14)" stroke-linejoin="round" d="M 7065,3575 L 7190,3700 7315,3575 7190,3450 7065,3575 Z"/>
 <path fill="rgb(255,66,14)" stroke="none" d="M 7764,3271 L 7889,3396 8013,3271 7889,3146 7764,3271 Z"/>
 <path fill="none" stroke="rgb(255,66,14)" stroke-linejoin="round" d="M 7764,3271 L 7889,3396 8013,3271 7889,3146 7764,3271 Z"/>
 <path fill="rgb(255,66,14)" stroke="none" d="M 8463,2954 L 8588,3079 8713,2954 8588,2829 8463,2954 Z"/>
 <path fill="none" stroke="rgb(255,66,14)" stroke-linejoin="round" d="M 8463,2954 L 8588,3079 8713,2954 8588,2829 8463,2954 Z"/>
 <path fill="rgb(255,66,14)" stroke="none" d="M 9163,2517 L 9288,2642 9413,2517 9288,2392 9163,2517 Z"/>
 <path fill="none" stroke="rgb(255,66,14)" stroke-linejoin="round" d="M 9163,2517 L 9288,2642 9413,2517 9288,2392 9163,2517 Z"/>
 <path fill="rgb(255,66,14)" stroke="none" d="M 9863,2136 L 9988,2260 10113,2136 9988,2011 9863,2136 Z"/>
 <path fill="none" stroke="rgb(255,66,14)" stroke-linejoin="round" d="M 9863,2136 L 9988,2260 10113,2136 9988,2011 9863,2136 Z"/>
 <path fill="rgb(255,66,14)" stroke="none" d="M 10563,1747 L 10688,1872 10813,1747 10688,1622 10563,1747 Z"/>
 <path fill="none" stroke="rgb(255,66,14)" stroke-linejoin="round" d="M 10563,1747 L 10688,1872 10813,1747 10688,1622 10563,1747 Z"/>
 <path fill="rgb(255,66,14)" stroke="none" d="M 11263,1267 L 11388,1392 11513,1267 11388,1142 11263,1267 Z"/>
 <path fill="none" stroke="rgb(255,66,14)" stroke-linejoin="round" d="M 11263,1267 L 11388,1392 11513,1267 11388,1142 11263,1267 Z"/>
 <path fill="rgb(255,66,14)" stroke="none" d="M 11963,935 L 12088,1060 12213,935 12088,810 11963,935 Z"/>
 <path fill="none" stroke="rgb(255,66,14)" stroke-linejoin="round" d="M 11963,935 L 12088,1060 12213,935 12088,810 11963,935 Z"/>
 <path fill="rgb(255,66,14)" stroke="none" d="M 12663,621 L 12788,746 12913,621 12788,496 12663,621 Z"/>
 <path fill="none" stroke="rgb(255,66,14)" stroke-linejoin="round" d="M 12663,621 L 12788,746 12913,621 12788,496 12663,621 Z"/>
 <path fill="none" stroke="rgb(255,211,32)" stroke-width="80" stroke-linejoin="round" d="M 2291,5805 L 2990,5420 3690,5097 4390,4937 5090,4531 5790,4250 6490,3926 7190,3553 7889,3257 8588,2967 9288,2568 9988,2274 10688,1983"/>
 <path fill="rgb(255,211,32)" stroke="none" d="M 2166,5680 L 2291,5930 2416,5680 2166,5680 Z"/>
 <path fill="none" stroke="rgb(255,211,32)" stroke-linejoin="round" d="M 2166,5680 L 2291,5930 2416,5680 2166,5680 Z"/>
 <path fill="rgb(255,211,32)" stroke="none" d="M 2865,5295 L 2990,5545 3115,5295 2865,5295 Z"/>
 <path fill="none" stroke="rgb(255,211,32)" stroke-linejoin="round" d="M 2865,5295 L 2990,5545 3115,5295 2865,5295 Z"/>
 <path fill="rgb(255,211,32)" stroke="none" d="M 3565,4972 L 3690,5222 3815,4972 3565,4972 Z"/>
 <path fill="none" stroke="rgb(255,211,32)" stroke-linejoin="round" d="M 3565,4972 L 3690,5222 3815,4972 3565,4972 Z"/>
 <path fill="rgb(255,211,32)" stroke="none" d="M 4265,4812 L 4390,5062 4515,4812 4265,4812 Z"/>
 <path fill="none" stroke="rgb(255,211,32)" stroke-linejoin="round" d="M 4265,4812 L 4390,5062 4515,4812 4265,4812 Z"/>
 <path fill="rgb(255,211,32)" stroke="none" d="M 4965,4406 L 5090,4656 5215,4406 4965,4406 Z"/>
 <path fill="none" stroke="rgb(255,211,32)" stroke-linejoin="round" d="M 4965,4406 L 5090,4656 5215,4406 4965,4406 Z"/>
 <path fill="rgb(255,211,32)" stroke="none" d="M 5665,4125 L 5790,4375 5915,4125 5665,4125 Z"/>
 <path fill="none" stroke="rgb(255,211,32)" stroke-linejoin="round" d="M 5665,4125 L 5790,4375 5915,4125 5665,4125 Z"/>
 <path fill="rgb(255,211,32)" stroke="none" d="M 6365,3801 L 6490,4051 6615,3801 6365,3801 Z"/>
 <path fill="none" stroke="rgb(255,211,32)" stroke-linejoin="round" d="M 6365,3801 L 6490,4051 6615,3801 6365,3801 Z"/>
 <path fill="rgb(255,211,32)" stroke="none" d="M 7065,3428 L 7190,3678 7315,3428 7065,3428 Z"/>
 <path fill="none" stroke="rgb(255,211,32)" stroke-linejoin="round" d="M 7065,3428 L 7190,3678 7315,3428 7065,3428 Z"/>
 <path fill="rgb(255,211,32)" stroke="none" d="M 7764,3132 L 7889,3382 8013,3132 7764,3132 Z"/>
 <path fill="none" stroke="rgb(255,211,32)" stroke-linejoin="round" d="M 7764,3132 L 7889,3382 8013,3132 7764,3132 Z"/>
 <path fill="rgb(255,211,32)" stroke="none" d="M 8463,2842 L 8588,3092 8713,2842 8463,2842 Z"/>
 <path fill="none" stroke="rgb(255,211,32)" stroke-linejoin="round" d="M 8463,2842 L 8588,3092 8713,2842 8463,2842 Z"/>
 <path fill="rgb(255,211,32)" stroke="none" d="M 9163,2443 L 9288,2693 9413,2443 9163,2443 Z"/>
 <path fill="none" stroke="rgb(255,211,32)" stroke-linejoin="round" d="M 9163,2443 L 9288,2693 9413,2443 9163,2443 Z"/>
 <path fill="rgb(255,211,32)" stroke="none" d="M 9863,2150 L 9988,2399 10113,2150 9863,2150 Z"/>
 <path fill="none" stroke="rgb(255,211,32)" stroke-linejoin="round" d="M 9863,2150 L 9988,2399 10113,2150 9863,2150 Z"/>
 <path fill="rgb(255,211,32)" stroke="none" d="M 10563,1858 L 10688,2108 10813,1858 10563,1858 Z"/>
 <path fill="none" stroke="rgb(255,211,32)" stroke-linejoin="round" d="M 10563,1858 L 10688,2108 10813,1858 10563,1858 Z"/>
 <path fill="none" stroke="rgb(87,157,28)" stroke-width="80" stroke-linejoin="round" d="M 2291,6537 L 2990,6362 3690,6090 4390,5896 5090,5472 5790,5219 6490,4904 7190,4492 7889,4188 8588,3881 9288,3459 9988,3128 10688,2807 11388,2351 12088,2024 12788,1659"/>
 <path fill="rgb(87,157,28)" stroke="none" d="M 2166,6662 L 2416,6662 2291,6412 2166,6662 Z"/>
 <path fill="none" stroke="rgb(87,157,28)" stroke-linejoin="round" d="M 2166,6662 L 2416,6662 2291,6412 2166,6662 Z"/>
 <path fill="rgb(87,157,28)" stroke="none" d="M 2865,6487 L 3115,6487 2990,6237 2865,6487 Z"/>
 <path fill="none" stroke="rgb(87,157,28)" stroke-linejoin="round" d="M 2865,6487 L 3115,6487 2990,6237 2865,6487 Z"/>
 <path fill="rgb(87,157,28)" stroke="none" d="M 3565,6215 L 3815,6215 3690,5965 3565,6215 Z"/>
 <path fill="none" stroke="rgb(87,157,28)" stroke-linejoin="round" d="M 3565,6215 L 3815,6215 3690,5965 3565,6215 Z"/>
 <path fill="rgb(87,157,28)" stroke="none" d="M 4265,6021 L 4515,6021 4390,5771 4265,6021 Z"/>
 <path fill="none" stroke="rgb(87,157,28)" stroke-linejoin="round" d="M 4265,6021 L 4515,6021 4390,5771 4265,6021 Z"/>
 <path fill="rgb(87,157,28)" stroke="none" d="M 4965,5597 L 5215,5597 5090,5347 4965,5597 Z"/>
 <path fill="none" stroke="rgb(87,157,28)" stroke-linejoin="round" d="M 4965,5597 L 5215,5597 5090,5347 4965,5597 Z"/>
 <path fill="rgb(87,157,28)" stroke="none" d="M 5665,5344 L 5915,5344 5790,5094 5665,5344 Z"/>
 <path fill="none" stroke="rgb(87,157,28)" stroke-linejoin="round" d="M 5665,5344 L 5915,5344 5790,5094 5665,5344 Z"/>
 <path fill="rgb(87,157,28)" stroke="none" d="M 6365,5029 L 6615,5029 6490,4779 6365,5029 Z"/>
 <path fill="none" stroke="rgb(87,157,28)" stroke-linejoin="round" d="M 6365,5029 L 6615,5029 6490,4779 6365,5029 Z"/>
 <path fill="rgb(87,157,28)" stroke="none" d="M 7065,4617 L 7315,4617 7190,4367 7065,4617 Z"/>
 <path fill="none" stroke="rgb(87,157,28)" stroke-linejoin="round" d="M 7065,4617 L 7315,4617 7190,4367 7065,4617 Z"/>
 <path fill="rgb(87,157,28)" stroke="none" d="M 7764,4313 L 8013,4313 7889,4063 7764,4313 Z"/>
 <path fill="none" stroke="rgb(87,157,28)" stroke-linejoin="round" d="M 7764,4313 L 8013,4313 7889,4063 7764,4313 Z"/>
 <path fill="rgb(87,157,28)" stroke="none" d="M 8463,4006 L 8713,4006 8588,3756 8463,4006 Z"/>
 <path fill="none" stroke="rgb(87,157,28)" stroke-linejoin="round" d="M 8463,4006 L 8713,4006 8588,3756 8463,4006 Z"/>
 <path fill="rgb(87,157,28)" stroke="none" d="M 9163,3584 L 9413,3584 9288,3334 9163,3584 Z"/>
 <path fill="none" stroke="rgb(87,157,28)" stroke-linejoin="round" d="M 9163,3584 L 9413,3584 9288,3334 9163,3584 Z"/>
 <path fill="rgb(87,157,28)" stroke="none" d="M 9863,3253 L 10113,3253 9988,3003 9863,3253 Z"/>
 <path fill="none" stroke="rgb(87,157,28)" stroke-linejoin="round" d="M 9863,3253 L 10113,3253 9988,3003 9863,3253 Z"/>
 <path fill="rgb(87,157,28)" stroke="none" d="M 10563,2932 L 10813,2932 10688,2682 10563,2932 Z"/>
 <path fill="none" stroke="rgb(87,157,28)" stroke-linejoin="round" d="M 10563,2932 L 10813,2932 10688,2682 10563,2932 Z"/>
 <path fill="rgb(87,157,28)" stroke="none" d="M 11263,2476 L 11513,2476 11388,2227 11263,2476 Z"/>
 <path fill="none" stroke="rgb(87,157,28)" stroke-linejoin="round" d="M 11263,2476 L 11513,2476 11388,2227 11263,2476 Z"/>
 <path fill="rgb(87,157,28)" stroke="none" d="M 11963,2149 L 12213,2149 12088,1899 11963,2149 Z"/>
 <path fill="none" stroke="rgb(87,157,28)" stroke-linejoin="round" d="M 11963,2149 L 12213,2149 12088,1899 11963,2149 Z"/>
 <path fill="rgb(87,157,28)" stroke="none" d="M 12663,1784 L 12913,1784 12788,1534 12663,1784 Z"/>
 <path fill="none" stroke="rgb(87,157,28)" stroke-linejoin="round" d="M 12663,1784 L 12913,1784 12788,1534 12663,1784 Z"/>
 <text class="SVGTextShape" transform="rotate(-44.9 1953 8230)"><tspan class="TextParagraph" font-family="Liberation Sans, sans-serif" font-size="353px" font-weight="400"><tspan class="TextPosition" x="1953" y="8230"><tspan fill="rgb(0,0,0)" stroke="none">100</tspan></tspan></tspan></text>
 <text class="SVGTextShape" transform="rotate(-44.9 2652 8230)"><tspan class="TextParagraph" font-family="Liberation Sans, sans-serif" font-size="353px" font-weight="400"><tspan class="TextPosition" x="2652" y="8230"><tspan fill="rgb(0,0,0)" stroke="none">250</tspan></tspan></tspan></text>
 <text class="SVGTextShape" transform="rotate(-44.9 3352 8230)"><tspan class="TextParagraph" font-family="Liberation Sans, sans-serif" font-size="353px" font-weight="400"><tspan class="TextPosition" x="3352" y="8230"><tspan fill="rgb(0,0,0)" stroke="none">500</tspan></tspan></tspan></text>
 <text class="SVGTextShape" transform="rotate(-44.9 4164 8118)"><tspan class="TextParagraph" font-family="Liberation Sans, sans-serif" font-size="353px" font-weight="400"><tspan class="TextPosition" x="4164" y="8118"><tspan fill="rgb(0,0,0)" stroke="none">1K</tspan></tspan></tspan></text>
 <text class="SVGTextShape" transform="rotate(-44.9 4649 8332)"><tspan class="TextParagraph" font-family="Liberation Sans, sans-serif" font-size="353px" font-weight="400"><tspan class="TextPosition" x="4649" y="8332"><tspan fill="rgb(0,0,0)" stroke="none">2.5K</tspan></tspan></tspan></text>
 <text class="SVGTextShape" transform="rotate(-44.9 5564 8118)"><tspan class="TextParagraph" font-family="Liberation Sans, sans-serif" font-size="353px" font-weight="400"><tspan class="TextPosition" x="5564" y="8118"><tspan fill="rgb(0,0,0)" stroke="none">5K</tspan></tspan></tspan></text>
 <text class="SVGTextShape" transform="rotate(-44.9 6124 8258)"><tspan class="TextParagraph" font-family="Liberation Sans, sans-serif" font-size="353px" font-weight="400"><tspan class="TextPosition" x="6124" y="8258"><tspan fill="rgb(0,0,0)" stroke="none">10K</tspan></tspan></tspan></text>
 <text class="SVGTextShape" transform="rotate(-44.9 6824 8258)"><tspan class="TextParagraph" font-family="Liberation Sans, sans-serif" font-size="353px" font-weight="400"><tspan class="TextPosition" x="6824" y="8258"><tspan fill="rgb(0,0,0)" stroke="none">25K</tspan></tspan></tspan></text>
 <text class="SVGTextShape" transform="rotate(-44.9 7523 8258)"><tspan class="TextParagraph" font-family="Liberation Sans, sans-serif" font-size="353px" font-weight="400"><tspan class="TextPosition" x="7523" y="8258"><tspan fill="rgb(0,0,0)" stroke="none">50K</tspan></tspan></tspan></text>
 <text class="SVGTextShape" transform="rotate(-44.9 8083 8398)"><tspan class="TextParagraph" font-family="Liberation Sans, sans-serif" font-size="353px" font-weight="400"><tspan class="TextPosition" x="8083" y="8398"><tspan fill="rgb(0,0,0)" stroke="none">100K</tspan></tspan></tspan></text>
 <text class="SVGTextShape" transform="rotate(-44.9 8783 8398)"><tspan class="TextParagraph" font-family="Liberation Sans, sans-serif" font-size="353px" font-weight="400"><tspan class="TextPosition" x="8783" y="8398"><tspan fill="rgb(0,0,0)" stroke="none">250K</tspan></tspan></tspan></text>
 <text class="SVGTextShape" transform="rotate(-44.9 9483 8398)"><tspan class="TextParagraph" font-family="Liberation Sans, sans-serif" font-size="353px" font-weight="400"><tspan class="TextPosition" x="9483" y="8398"><tspan fill="rgb(0,0,0)" stroke="none">500K</tspan></tspan></tspan></text>
 <text class="SVGTextShape" transform="rotate(-44.9 10426 8154)"><tspan class="TextParagraph" font-family="Liberation Sans, sans-serif" font-size="353px" font-weight="400"><tspan class="TextPosition" x="10426" y="8154"><tspan fill="rgb(0,0,0)" stroke="none">1M</tspan></tspan></tspan></text>
 <text class="SVGTextShape" transform="rotate(-44.9 10910 8370)"><tspan class="TextParagraph" font-family="Liberation Sans, sans-serif" font-size="353px" font-weight="400"><tspan class="TextPosition" x="10910" y="8370"><tspan fill="rgb(0,0,0)" stroke="none">2.5M</tspan></tspan></tspan></text>
 <text class="SVGTextShape" transform="rotate(-44.9 11825 8154)"><tspan class="TextParagraph" font-family="Liberation Sans, sans-serif" font-size="353px" font-weight="400"><tspan class="TextPosition" x="11825" y="8154"><tspan fill="rgb(0,0,0)" stroke="none">5M</tspan></tspan></tspan></text>
 <text class="SVGTextShape" transform="rotate(-44.9 12385 8294)"><tspan class="TextParagraph" font-family="Liberation Sans, sans-serif" font-size="353px" font-weight="400"><tspan class="TextPosition" x="12385" y="8294"><tspan fill="rgb(0,0,0)" stroke="none">10M</tspan></tspan></tspan></text>
 <text class="SVGTextShape"><tspan class="TextParagraph" font-family="Liberation Sans, sans-serif" font-size="353px" font-weight="400"><tspan class="TextPosition" x="1194" y="7454"><tspan fill="rgb(0,0,0)" stroke="none">1E+1</tspan></tspan></tspan></text>
 <text class="SVGTextShape"><tspan class="TextParagraph" font-family="Liberation Sans, sans-serif" font-size="353px" font-weight="400"><tspan class="TextPosition" x="1194" y="6474"><tspan fill="rgb(0,0,0)" stroke="none">1E+2</tspan></tspan></tspan></text>
 <text class="SVGTextShape"><tspan class="TextParagraph" font-family="Liberation Sans, sans-serif" font-size="353px" font-weight="400"><tspan class="TextPosition" x="1194" y="5494"><tspan fill="rgb(0,0,0)" stroke="none">1E+3</tspan></tspan></tspan></text>
 <text class="SVGTextShape"><tspan class="TextParagraph" font-family="Liberation Sans, sans-serif" font-size="353px" font-weight="400"><tspan class="TextPosition" x="1194" y="4514"><tspan fill="rgb(0,0,0)" stroke="none">1E+4</tspan></tspan></tspan></text>
 <text class="SVGTextShape"><tspan class="TextParagraph" font-family="Liberation Sans, sans-serif" font-size="353px" font-weight="400"><tspan class="TextPosition" x="1194" y="3536"><tspan fill="rgb(0,0,0)" stroke="none">1E+5</tspan></tspan></tspan></text>
 <text class="SVGTextShape"><tspan class="TextParagraph" font-family="Liberation Sans, sans-serif" font-size="353px" font-weight="400"><tspan class="TextPosition" x="1194" y="2556"><tspan fill="rgb(0,0,0)" stroke="none">1E+6</tspan></tspan></tspan></text>
 <text class="SVGTextShape"><tspan class="TextParagraph" font-family="Liberation Sans, sans-serif" font-size="353px" font-weight="400"><tspan class="TextPosition" x="1194" y="1576"><tspan fill="rgb(0,0,0)" stroke="none">1E+7</tspan></tspan></tspan></text>
 <text class="SVGTextShape"><tspan class="TextParagraph" font-family="Liberation Sans, sans-serif" font-size="353px" font-weight="400"><tspan class="TextPosition" x="1194" y="597"><tspan fill="rgb(0,0,0)" stroke="none">1E+8</tspan></tspan></tspan></text>
 <path fill="none" stroke="rgb(0,69,134)" stroke-width="80" stroke-linejoin="round" d="M 14057,3751 L 14857,3751"/>
 <path fill="rgb(0,69,134)" stroke="none" d="M 14351,3646 L 14351,3857 14562,3857 14562,3646 14351,3646 Z"/>
 <path fill="none" stroke="rgb(0,69,134)" stroke-linejoin="round" d="M 14351,3646 L 14351,3857 14562,3857 14562,3646 14351,3646 Z"/>
 <path fill="none" stroke="rgb(255,66,14)" stroke-width="80" stroke-linejoin="round" d="M 14057,4249 L 14857,4249"/>
 <path fill="rgb(255,66,14)" stroke="none" d="M 14351,4249 L 14457,4355 14562,4249 14457,4144 14351,4249 Z"/>
 <path fill="none" stroke="rgb(255,66,14)" stroke-linejoin="round" d="M 14351,4249 L 14457,4355 14562,4249 14457,4144 14351,4249 Z"/>
 <path fill="none" stroke="rgb(255,211,32)" stroke-width="80" stroke-linejoin="round" d="M 14057,4747 L 14857,4747"/>
 <path fill="rgb(255,211,32)" stroke="none" d="M 14351,4642 L 14457,4853 14562,4642 14351,4642 Z"/>
 <path fill="none" stroke="rgb(255,211,32)" stroke-linejoin="round" d="M 14351,4642 L 14457,4853 14562,4642 14351,4642 Z"/>
 <path fill="none" stroke="rgb(87,157,28)" stroke-width="80" stroke-linejoin="round" d="M 14057,5245 L 14857,5245"/>
 <path fill="rgb(87,157,28)" stroke="none" d="M 14351,5351 L 14562,5351 14457,5140 14351,5351 Z"/>
 <path fill="none" stroke="rgb(87,157,28)" stroke-linejoin="round" d="M 14351,5351 L 14562,5351 14457,5140 14351,5351 Z"/>
 <text class="SVGTextShape"><tspan class="TextParagraph" font-family="Liberation Sans, sans-serif" font-size="353px" font-weight="400"><tspan class="TextPosition" x="14957" y="3871"><tspan fill="rgb(0,0,0)" stroke="none">DLB</tspan></tspan></tspan></text>
 <text class="SVGTextShape"><tspan class="TextParagraph" font-family="Liberation Sans, sans-serif" font-size="353px" font-weight="400"><tspan class="TextPosition" x="14957" y="4369"><tspan fill="rgb(0,0,0)" stroke="none">CDT</tspan></tspan></tspan></text>
 <text class="SVGTextShape"><tspan class="TextParagraph" font-family="Liberation Sans, sans-serif" font-size="353px" font-weight="400"><tspan class="TextPosition" x="14957" y="4867"><tspan fill="rgb(0,0,0)" stroke="none">FAD</tspan></tspan></tspan></text>
 <text class="SVGTextShape"><tspan class="TextParagraph" font-family="Liberation Sans, sans-serif" font-size="353px" font-weight="400"><tspan class="TextPosition" x="14957" y="5365"><tspan fill="rgb(0,0,0)" stroke="none">DEL</tspan></tspan></tspan></text>
 <text class="SVGTextShape"><tspan class="TextParagraph" font-family="Liberation Sans, sans-serif" font-size="318px" font-weight="400"><tspan class="TextPosition" x="6644" y="8838"><tspan fill="rgb(0,0,0)" stroke="none">points</tspan></tspan></tspan></text>
 <text class="SVGTextShape" transform="rotate(-90 712 4974)"><tspan class="TextParagraph" font-family="Liberation Sans, sans-serif" font-size="318px" font-weight="400"><tspan class="TextPosition" x="712" y="4974"><tspan fill="rgb(0,0,0)" stroke="none">time [µs]</tspan></tspan></tspan></text>
</svg>