<?xml version="1.0" encoding="UTF-8"?>
<!DOCTYPE svg PUBLIC "-//W3C//DTD SVG 1.1//EN" "http://www.w3.org/Graphics/SVG/1.1/DTD/svg11.dtd">
<svg width="226mm" height="127mm" viewBox="0 0 22600 12700" version="1.1" xmlns="http://www.w3.org/2000/svg" xmlns:xlink="http://www.w3.org/1999/xlink" stroke-width="28.222" stroke-linejoin="round" xml:space="preserve">
 <path fill="rgb(255,255,255)" stroke="none" d="M 11289,12650 L 50,12650 50,50 22528,50 22528,12650 11289,12650 Z"/>
 <path fill="none" stroke="rgb(0,0,0)" stroke-width="100" stroke-linejoin="round" d="M 11289,12650 L 50,12650 50,50 22528,50 22528,12650 11289,12650 Z"/>
 <path fill="none" stroke="rgb(179,179,179)" stroke-linejoin="round" d="M 11136,11757 L 2585,11757 2585,499 19687,499 19687,11757 11136,11757 Z"/>
 <path fill="none" stroke="rgb(221,221,221)" stroke-linejoin="round" d="M 3155,497 L 3155,11756"/>
 <path fill="none" stroke="rgb(221,221,221)" stroke-linejoin="round" d="M 4295,497 L 4295,11756"/>
 <path fill="none" stroke="rgb(221,221,221)" stroke-linejoin="round" d="M 5436,497 L 5436,11756"/>
 <path fill="none" stroke="rgb(221,221,221)" stroke-linejoin="round" d="M 6576,497 L 6576,11756"/>
 <path fill="none" stroke="rgb(221,221,221)" stroke-linejoin="round" d="M 7715,497 L 7715,11756"/>
 <path fill="none" stroke="rgb(221,221,221)" stroke-linejoin="round" d="M 8855,497 L 8855,11756"/>
 <path fill="none" stroke="rgb(221,221,221)" stroke-linejoin="round" d="M 9995,497 L 9995,11756"/>
 <path fill="none" stroke="rgb(221,221,221)" stroke-linejoin="round" d="M 11136,497 L 11136,11756"/>
 <path fill="none" stroke="rgb(221,221,221)" stroke-linejoin="round" d="M 12276,497 L 12276,11756"/>
 <path fill="none" stroke="rgb(221,221,221)" stroke-linejoin="round" d="M 13416,497 L 13416,11756"/>
 <path fill="none" stroke="rgb(221,221,221)" stroke-linejoin="round" d="M 14556,497 L 14556,11756"/>
 <path fill="none" stroke="rgb(221,221,221)" stroke-linejoin="round" d="M 15696,497 L 15696,11756"/>
 <path fill="none" stroke="rgb(221,221,221)" stroke-linejoin="round" d="M 16836,497 L 16836,11756"/>
 <path fill="none" stroke="rgb(221,221,221)" stroke-linejoin="round" d="M 17977,497 L 17977,11756"/>
 <path fill="none" stroke="rgb(221,221,221)" stroke-linejoin="round" d="M 19116,497 L 19116,11756"/>
 <path fill="none" stroke="rgb(179,179,179)" stroke-linejoin="round" d="M 19686,11756 L 2585,11756"/>
 <path fill="none" stroke="rgb(179,179,179)" stroke-linejoin="round" d="M 19686,10147 L 2585,10147"/>
 <path fill="none" stroke="rgb(179,179,179)" stroke-linejoin="round" d="M 19686,8539 L 2585,8539"/>
 <path fill="none" stroke="rgb(179,179,179)" stroke-linejoin="round" d="M 19686,6930 L 2585,6930"/>
 <path fill="none" stroke="rgb(179,179,179)" stroke-linejoin="round" d="M 19686,5322 L 2585,5322"/>
 <path fill="none" stroke="rgb(179,179,179)" stroke-linejoin="round" d="M 19686,3713 L 2585,3713"/>
 <path fill="none" stroke="rgb(179,179,179)" stroke-linejoin="round" d="M 19686,2105 L 2585,2105"/>
 <path fill="none" stroke="rgb(179,179,179)" stroke-linejoin="round" d="M 19686,497 L 2585,497"/>
 <path fill="none" stroke="rgb(179,179,179)" stroke-linejoin="round" d="M 2585,11904 L 2585,11756"/>
 <path fill="none" stroke="rgb(179,179,179)" stroke-linejoin="round" d="M 2585,11904 L 2585,11756"/>
 <path fill="none" stroke="rgb(179,179,179)" stroke-linejoin="round" d="M 3725,11904 L 3725,11756"/>
 <path fill="none" stroke="rgb(179,179,179)" stroke-linejoin="round" d="M 3725,11904 L 3725,11756"/>
 <path fill="none" stroke="rgb(179,179,179)" stroke-linejoin="round" d="M 4865,11904 L 4865,11756"/>
 <path fill="none" stroke="rgb(179,179,179)" stroke-linejoin="round" d="M 4865,11904 L 4865,11756"/>
 <path fill="none" stroke="rgb(179,179,179)" stroke-linejoin="round" d="M 6005,11904 L 6005,11756"/>
 <path fill="none" stroke="rgb(179,179,179)" stroke-linejoin="round" d="M 6005,11904 L 6005,11756"/>
 <path fill="none" stroke="rgb(179,179,179)" stroke-linejoin="round" d="M 7145,11904 L 7145,11756"/>
 <path fill="none" stroke="rgb(179,179,179)" stroke-linejoin="round" d="M 7145,11904 L 7145,11756"/>
 <path fill="none" stroke="rgb(179,179,179)" stroke-linejoin="round" d="M 8285,11904 L 8285,11756"/>
 <path fill="none" stroke="rgb(179,179,179)" stroke-linejoin="round" d="M 8285,11904 L 8285,11756"/>
 <path fill="none" stroke="rgb(179,179,179)" stroke-linejoin="round" d="M 9426,11904 L 9426,11756"/>
 <path fill="none" stroke="rgb(179,179,179)" stroke-linejoin="round" d="M 9426,11904 L 9426,11756"/>
 <path fill="none" stroke="rgb(179,179,179)" stroke-linejoin="round" d="M 10566,11904 L 10566,11756"/>
 <path fill="none" stroke="rgb(179,179,179)" stroke-linejoin="round" d="M 10566,11904 L 10566,11756"/>
 <path fill="none" stroke="rgb(179,179,179)" stroke-linejoin="round" d="M 11706,11904 L 11706,11756"/>
 <path fill="none" stroke="rgb(179,179,179)" stroke-linejoin="round" d="M 11706,11904 L 11706,11756"/>
 <path fill="none" stroke="rgb(179,179,179)" stroke-linejoin="round" d="M 12846,11904 L 12846,11756"/>
 <path fill="none" stroke="rgb(179,179,179)" stroke-linejoin="round" d="M 12846,11904 L 12846,11756"/>
 <path fill="none" stroke="rgb(179,179,179)" stroke-linejoin="round" d="M 13985,11904 L 13985,11756"/>
 <path fill="none" stroke="rgb(179,179,179)" stroke-linejoin="round" d="M 13985,11904 L 13985,11756"/>
 <path fill="none" stroke="rgb(179,179,179)" stroke-linejoin="round" d="M 15126,11904 L 15126,11756"/>
 <path fill="none" stroke="rgb(179,179,179)" stroke-linejoin="round" d="M 15126,11904 L 15126,11756"/>
 <path fill="none" stroke="rgb(179,179,179)" stroke-linejoin="round" d="M 16266,11904 L 16266,11756"/>
 <path fill="none" stroke="rgb(179,179,179)" stroke-linejoin="round" d="M 16266,11904 L 16266,11756"/>
 <path fill="none" stroke="rgb(179,179,179)" stroke-linejoin="round" d="M 17406,11904 L 17406,11756"/>
 <path fill="none" stroke="rgb(179,179,179)" stroke-linejoin="round" d="M 17406,11904 L 17406,11756"/>
 <path fill="none" stroke="rgb(179,179,179)" stroke-linejoin="round" d="M 18546,11904 L 18546,11756"/>
 <path fill="none" stroke="rgb(179,179,179)" stroke-linejoin="round" d="M 18546,11904 L 18546,11756"/>
 <path fill="none" stroke="rgb(179,179,179)" stroke-linejoin="round" d="M 19686,11904 L 19686,11756"/>
 <path fill="none" stroke="rgb(179,179,179)" stroke-linejoin="round" d="M 19686,11904 L 19686,11756"/>
 <path fill="none" stroke="rgb(179,179,179)" stroke-linejoin="round" d="M 2585,11756 L 19686,11756"/>
 <path fill="none" stroke="rgb(179,179,179)" stroke-linejoin="round" d="M 2436,11756 L 2585,11756"/>
 <path fill="none" stroke="rgb(179,179,179)" stroke-linejoin="round" d="M 2436,11756 L 2585,11756"/>
 <path fill="none" stroke="rgb(179,179,179)" stroke-linejoin="round" d="M 2436,10147 L 2585,10147"/>
 <path fill="none" stroke="rgb(179,179,179)" stroke-linejoin="round" d="M 2436,10147 L 2585,10147"/>
 <path fill="none" stroke="rgb(179,179,179)" stroke-linejoin="round" d="M 2436,8539 L 2585,8539"/>
 <path fill="none" stroke="rgb(179,179,179)" stroke-linejoin="round" d="M 2436,8539 L 2585,8539"/>
 <path fill="none" stroke="rgb(179,179,179)" stroke-linejoin="round" d="M 2436,6930 L 2585,6930"/>
 <path fill="none" stroke="rgb(179,179,179)" stroke-linejoin="round" d="M 2436,6930 L 2585,6930"/>
 <path fill="none" stroke="rgb(179,179,179)" stroke-linejoin="round" d="M 2436,5322 L 2585,5322"/>
 <path fill="none" stroke="rgb(179,179,179)" stroke-linejoin="round" d="M 2436,5322 L 2585,5322"/>
 <path fill="none" stroke="rgb(179,179,179)" stroke-linejoin="round" d="M 2436,3714 L 2585,3714"/>
 <path fill="none" stroke="rgb(179,179,179)" stroke-linejoin="round" d="M 2436,3714 L 2585,3714"/>
 <path fill="none" stroke="rgb(179,179,179)" stroke-linejoin="round" d="M 2436,2105 L 2585,2105"/>
 <path fill="none" stroke="rgb(179,179,179)" stroke-linejoin="round" d="M 2436,2105 L 2585,2105"/>
 <path fill="none" stroke="rgb(179,179,179)" stroke-linejoin="round" d="M 2436,497 L 2585,497"/>
 <path fill="none" stroke="rgb(179,179,179)" stroke-linejoin="round" d="M 2436,497 L 2585,497"/>
 <path fill="none" stroke="rgb(179,179,179)" stroke-linejoin="round" d="M 2585,11756 L 2585,497"/>
 <path fill="none" stroke="rgb(255,66,14)" stroke-width="80" stroke-linejoin="round" d="M 2585,7747 L 3725,7778 4865,8062 6005,7853 7145,7271 8286,6470 9426,6390 10566,5743 11706,5313 12846,4821 13985,4122 15126,3496 16266,2888 17406,2075 18546,1535 19686,1000"/>
 <path fill="rgb(255,66,14)" stroke="none" d="M 2461,7747 L 2585,7871 2710,7747 2585,7623 2461,7747 Z"/>
 <path fill="none" stroke="rgb(255,66,14)" stroke-linejoin="round" d="M 2461,7747 L 2585,7871 2710,7747 2585,7623 2461,7747 Z"/>
 <path fill="rgb(255,66,14)" stroke="none" d="M 3601,7778 L 3725,7902 3850,7778 3725,7654 3601,7778 Z"/>
 <path fill="none" stroke="rgb(255,66,14)" stroke-linejoin="round" d="M 3601,7778 L 3725,7902 3850,7778 3725,7654 3601,7778 Z"/>
 <path fill="rgb(255,66,14)" stroke="none" d="M 4741,8062 L 4865,8186 4990,8062 4865,7938 4741,8062 Z"/>
 <path fill="none" stroke="rgb(255,66,14)" stroke-linejoin="round" d="M 4741,8062 L 4865,8186 4990,8062 4865,7938 4741,8062 Z"/>
 <path fill="rgb(255,66,14)" stroke="none" d="M 5881,7853 L 6005,7977 6130,7853 6005,7729 5881,7853 Z"/>
 <path fill="none" stroke="rgb(255,66,14)" stroke-linejoin="round" d="M 5881,7853 L 6005,7977 6130,7853 6005,7729 5881,7853 Z"/>
 <path fill="rgb(255,66,14)" stroke="none" d="M 7021,7271 L 7145,7395 7269,7271 7145,7147 7021,7271 Z"/>
 <path fill="none" stroke="rgb(255,66,14)" stroke-linejoin="round" d="M 7021,7271 L 7145,7395 7269,7271 7145,7147 7021,7271 Z"/>
 <path fill="rgb(255,66,14)" stroke="none" d="M 8161,6470 L 8286,6594 8410,6470 8286,6346 8161,6470 Z"/>
 <path fill="none" stroke="rgb(255,66,14)" stroke-linejoin="round" d="M 8161,6470 L 8286,6594 8410,6470 8286,6346 8161,6470 Z"/>
 <path fill="rgb(255,66,14)" stroke="none" d="M 9301,6390 L 9426,6514 9550,6390 9426,6266 9301,6390 Z"/>
 <path fill="none" stroke="rgb(255,66,14)" stroke-linejoin="round" d="M 9301,6390 L 9426,6514 9550,6390 9426,6266 9301,6390 Z"/>
 <path fill="rgb(255,66,14)" stroke="none" d="M 10441,5743 L 10566,5867 10690,5743 10566,5619 10441,5743 Z"/>
 <path fill="none" stroke="rgb(255,66,14)" stroke-linejoin="round" d="M 10441,5743 L 10566,5867 10690,5743 10566,5619 10441,5743 Z"/>
 <path fill="rgb(255,66,14)" stroke="none" d="M 11581,5313 L 11706,5437 11830,5313 11706,5189 11581,5313 Z"/>
 <path fill="none" stroke="rgb(255,66,14)" stroke-linejoin="round" d="M 11581,5313 L 11706,5437 11830,5313 11706,5189 11581,5313 Z"/>
 <path fill="rgb(255,66,14)" stroke="none" d="M 12721,4821 L 12846,4945 12970,4821 12846,4697 12721,4821 Z"/>
 <path fill="none" stroke="rgb(255,66,14)" stroke-linejoin="round" d="M 12721,4821 L 12846,4945 12970,4821 12846,4697 12721,4821 Z"/>
 <path fill="rgb(255,66,14)" stroke="none" d="M 13861,4122 L 13985,4246 14110,4122 13985,3998 13861,4122 Z"/>
 <path fill="none" stroke="rgb(255,66,14)" stroke-linejoin="round" d="M 13861,4122 L 13985,4246 14110,4122 13985,3998 13861,4122 Z"/>
 <path fill="rgb(255,66,14)" stroke="none" d="M 15002,3496 L 15126,3620 15251,3496 15126,3372 15002,3496 Z"/>
 <path fill="none" stroke="rgb(255,66,14)" stroke-linejoin="round" d="M 15002,3496 L 15126,3620 15251,3496 15126,3372 15002,3496 Z"/>
 <path fill="rgb(255,66,14)" stroke="none" d="M 16142,2888 L 16266,3012 16391,2888 16266,2764 16142,2888 Z"/>
 <path fill="none" stroke="rgb(255,66,14)" stroke-linejoin="round" d="M 16142,2888 L 16266,3012 16391,2888 16266,2764 16142,2888 Z"/>
 <path fill="rgb(255,66,14)" stroke="none" d="M 17282,2075 L 17406,2199 17531,2075 17406,1950 17282,2075 Z"/>
 <path fill="none" stroke="rgb(255,66,14)" stroke-linejoin="round" d="M 17282,2075 L 17406,2199 17531,2075 17406,1950 17282,2075 Z"/>
 <path fill="rgb(255,66,14)" stroke="none" d="M 18422,1535 L 18546,1659 18670,1535 18546,1411 18422,1535 Z"/>
 <path fill="none" stroke="rgb(255,66,14)" stroke-linejoin="round" d="M 18422,1535 L 18546,1659 18670,1535 18546,1411 18422,1535 Z"/>
 <path fill="rgb(255,66,14)" stroke="none" d="M 19561,1000 L 19686,1124 19810,1000 19686,876 19561,1000 Z"/>
 <path fill="none" stroke="rgb(255,66,14)" stroke-linejoin="round" d="M 19561,1000 L 19686,1124 19810,1000 19686,876 19561,1000 Z"/>
 <path fill="none" stroke="rgb(255,211,32)" stroke-width="80" stroke-linejoin="round" d="M 2585,10268 L 3725,9772 4865,9581 6005,9258 7145,8678 8286,8208 9426,7666 10566,7078 11706,6572 12846,6079 13985,5439 15126,4926 16266,4428"/>
 <path fill="rgb(255,211,32)" stroke="none" d="M 2461,10144 L 2585,10392 2710,10144 2461,10144 Z"/>
 <path fill="none" stroke="rgb(255,211,32)" stroke-linejoin="round" d="M 2461,10144 L 2585,10392 2710,10144 2461,10144 Z"/>
 <path fill="rgb(255,211,32)" stroke="none" d="M 3601,9648 L 3725,9896 3850,9648 3601,9648 Z"/>
 <path fill="none" stroke="rgb(255,211,32)" stroke-linejoin="round" d="M 3601,9648 L 3725,9896 3850,9648 3601,9648 Z"/>
 <path fill="rgb(255,211,32)" stroke="none" d="M 4741,9457 L 4865,9705 4990,9457 4741,9457 Z"/>
 <path fill="none" stroke="rgb(255,211,32)" stroke-linejoin="round" d="M 4741,9457 L 4865,9705 4990,9457 4741,9457 Z"/>
 <path fill="rgb(255,211,32)" stroke="none" d="M 5881,9134 L 6005,9382 6130,9134 5881,9134 Z"/>
 <path fill="none" stroke="rgb(255,211,32)" stroke-linejoin="round" d="M 5881,9134 L 6005,9382 6130,9134 5881,9134 Z"/>
 <path fill="rgb(255,211,32)" stroke="none" d="M 7021,8554 L 7145,8802 7269,8554 7021,8554 Z"/>
 <path fill="none" stroke="rgb(255,211,32)" stroke-linejoin="round" d="M 7021,8554 L 7145,8802 7269,8554 7021,8554 Z"/>
 <path fill="rgb(255,211,32)" stroke="none" d="M 8161,8084 L 8286,8332 8410,8084 8161,8084 Z"/>
 <path fill="none" stroke="rgb(255,211,32)" stroke-linejoin="round" d="M 8161,8084 L 8286,8332 8410,8084 8161,8084 Z"/>
 <path fill="rgb(255,211,32)" stroke="none" d="M 9301,7542 L 9426,7790 9550,7542 9301,7542 Z"/>
 <path fill="none" stroke="rgb(255,211,32)" stroke-linejoin="round" d="M 9301,7542 L 9426,7790 9550,7542 9301,7542 Z"/>
 <path fill="rgb(255,211,32)" stroke="none" d="M 10441,6954 L 10566,7202 10690,6954 10441,6954 Z"/>
 <path fill="none" stroke="rgb(255,211,32)" stroke-linejoin="round" d="M 10441,6954 L 10566,7202 10690,6954 10441,6954 Z"/>
 <path fill="rgb(255,211,32)" stroke="none" d="M 11581,6448 L 11706,6696 11830,6448 11581,6448 Z"/>
 <path fill="none" stroke="rgb(255,211,32)" stroke-linejoin="round" d="M 11581,6448 L 11706,6696 11830,6448 11581,6448 Z"/>
 <path fill="rgb(255,211,32)" stroke="none" d="M 12721,5955 L 12846,6203 12970,5955 12721,5955 Z"/>
 <path fill="none" stroke="rgb(255,211,32)" stroke-linejoin="round" d="M 12721,5955 L 12846,6203 12970,5955 12721,5955 Z"/>
 <path fill="rgb(255,211,32)" stroke="none" d="M 13861,5315 L 13985,5563 14110,5315 13861,5315 Z"/>
 <path fill="none" stroke="rgb(255,211,32)" stroke-linejoin="round" d="M 13861,5315 L 13985,5563 14110,5315 13861,5315 Z"/>
 <path fill="rgb(255,211,32)" stroke="none" d="M 15002,4802 L 15126,5050 15251,4802 15002,4802 Z"/>
 <path fill="none" stroke="rgb(255,211,32)" stroke-linejoin="round" d="M 15002,4802 L 15126,5050 15251,4802 15002,4802 Z"/>
 <path fill="rgb(255,211,32)" stroke="none" d="M 16142,4304 L 16266,4552 16391,4304 16142,4304 Z"/>
 <path fill="none" stroke="rgb(255,211,32)" stroke-linejoin="round" d="M 16142,4304 L 16266,4552 16391,4304 16142,4304 Z"/>
 <path fill="none" stroke="rgb(126,0,33)" stroke-width="80" stroke-linejoin="round" d="M 2585,8831 L 3725,8893 4865,8834 6005,8624 7145,8286 8286,7931 9426,7489 10566,6894 11706,6402 12846,5908 13985,5233 15126,4640 16266,4012 17406,3204 18546,2611 19686,2062"/>
 <path fill="rgb(126,0,33)" stroke="none" d="M 2461,8707 L 2461,8955 2710,8831 2461,8707 Z"/>
 <path fill="none" stroke="rgb(126,0,33)" stroke-linejoin="round" d="M 2461,8707 L 2461,8955 2710,8831 2461,8707 Z"/>
 <path fill="rgb(126,0,33)" stroke="none" d="M 3601,8769 L 3601,9017 3850,8893 3601,8769 Z"/>
 <path fill="none" stroke="rgb(126,0,33)" stroke-linejoin="round" d="M 3601,8769 L 3601,9017 3850,8893 3601,8769 Z"/>
 <path fill="rgb(126,0,33)" stroke="none" d="M 4741,8710 L 4741,8958 4990,8834 4741,8710 Z"/>
 <path fill="none" stroke="rgb(126,0,33)" stroke-linejoin="round" d="M 4741,8710 L 4741,8958 4990,8834 4741,8710 Z"/>
 <path fill="rgb(126,0,33)" stroke="none" d="M 5881,8500 L 5881,8748 6130,8624 5881,8500 Z"/>
 <path fill="none" stroke="rgb(126,0,33)" stroke-linejoin="round" d="M 5881,8500 L 5881,8748 6130,8624 5881,8500 Z"/>
 <path fill="rgb(126,0,33)" stroke="none" d="M 7021,8162 L 7021,8410 7269,8286 7021,8162 Z"/>
 <path fill="none" stroke="rgb(126,0,33)" stroke-linejoin="round" d="M 7021,8162 L 7021,8410 7269,8286 7021,8162 Z"/>
 <path fill="rgb(126,0,33)" stroke="none" d="M 8161,7807 L 8161,8055 8410,7931 8161,7807 Z"/>
 <path fill="none" stroke="rgb(126,0,33)" stroke-linejoin="round" d="M 8161,7807 L 8161,8055 8410,7931 8161,7807 Z"/>
 <path fill="rgb(126,0,33)" stroke="none" d="M 9301,7365 L 9301,7613 9550,7489 9301,7365 Z"/>
 <path fill="none" stroke="rgb(126,0,33)" stroke-linejoin="round" d="M 9301,7365 L 9301,7613 9550,7489 9301,7365 Z"/>
 <path fill="rgb(126,0,33)" stroke="none" d="M 10441,6770 L 10441,7018 10690,6894 10441,6770 Z"/>
 <path fill="none" stroke="rgb(126,0,33)" stroke-linejoin="round" d="M 10441,6770 L 10441,7018 10690,6894 10441,6770 Z"/>
 <path fill="rgb(126,0,33)" stroke="none" d="M 11581,6278 L 11581,6526 11830,6402 11581,6278 Z"/>
 <path fill="none" stroke="rgb(126,0,33)" stroke-linejoin="round" d="M 11581,6278 L 11581,6526 11830,6402 11581,6278 Z"/>
 <path fill="rgb(126,0,33)" stroke="none" d="M 12721,5784 L 12721,6032 12970,5908 12721,5784 Z"/>
 <path fill="none" stroke="rgb(126,0,33)" stroke-linejoin="round" d="M 12721,5784 L 12721,6032 12970,5908 12721,5784 Z"/>
 <path fill="rgb(126,0,33)" stroke="none" d="M 13861,5109 L 13861,5357 14110,5233 13861,5109 Z"/>
 <path fill="none" stroke="rgb(126,0,33)" stroke-linejoin="round" d="M 13861,5109 L 13861,5357 14110,5233 13861,5109 Z"/>
 <path fill="rgb(126,0,33)" stroke="none" d="M 15002,4516 L 15002,4764 15251,4640 15002,4516 Z"/>
 <path fill="none" stroke="rgb(126,0,33)" stroke-linejoin="round" d="M 15002,4516 L 15002,4764 15251,4640 15002,4516 Z"/>
 <path fill="rgb(126,0,33)" stroke="none" d="M 16142,3888 L 16142,4136 16391,4012 16142,3888 Z"/>
 <path fill="none" stroke="rgb(126,0,33)" stroke-linejoin="round" d="M 16142,3888 L 16142,4136 16391,4012 16142,3888 Z"/>
 <path fill="rgb(126,0,33)" stroke="none" d="M 17282,3080 L 17282,3328 17531,3204 17282,3080 Z"/>
 <path fill="none" stroke="rgb(126,0,33)" stroke-linejoin="round" d="M 17282,3080 L 17282,3328 17531,3204 17282,3080 Z"/>
 <path fill="rgb(126,0,33)" stroke="none" d="M 18422,2487 L 18422,2735 18670,2611 18422,2487 Z"/>
 <path fill="none" stroke="rgb(126,0,33)" stroke-linejoin="round" d="M 18422,2487 L 18422,2735 18670,2611 18422,2487 Z"/>
 <path fill="rgb(126,0,33)" stroke="none" d="M 19561,1938 L 19561,2186 19810,2062 19561,1938 Z"/>
 <path fill="none" stroke="rgb(126,0,33)" stroke-linejoin="round" d="M 19561,1938 L 19561,2186 19810,2062 19561,1938 Z"/>
 <path fill="none" stroke="rgb(87,157,28)" stroke-width="80" stroke-linejoin="round" d="M 2585,9810 L 3725,9538 4865,9315 6005,8764 7145,8295 8286,7735 9426,7303 10566,6665 11706,6144 12846,5647 13985,4963 15126,4380 16266,3765 17406,2930 18546,2385 19686,1827"/>
 <path fill="rgb(87,157,28)" stroke="none" d="M 2461,9934 L 2710,9934 2585,9686 2461,9934 Z"/>
 <path fill="none" stroke="rgb(87,157,28)" stroke-linejoin="round" d="M 2461,9934 L 2710,9934 2585,9686 2461,9934 Z"/>
 <path fill="rgb(87,157,28)" stroke="none" d="M 3601,9662 L 3850,9662 3725,9414 3601,9662 Z"/>
 <path fill="none" stroke="rgb(87,157,28)" stroke-linejoin="round" d="M 3601,9662 L 3850,9662 3725,9414 3601,9662 Z"/>
 <path fill="rgb(87,157,28)" stroke="none" d="M 4741,9439 L 4990,9439 4865,9191 4741,9439 Z"/>
 <path fill="none" stroke="rgb(87,157,28)" stroke-linejoin="round" d="M 4741,9439 L 4990,9439 4865,9191 4741,9439 Z"/>
 <path fill="rgb(87,157,28)" stroke="none" d="M 5881,8888 L 6130,8888 6005,8640 5881,8888 Z"/>
 <path fill="none" stroke="rgb(87,157,28)" stroke-linejoin="round" d="M 5881,8888 L 6130,8888 6005,8640 5881,8888 Z"/>
 <path fill="rgb(87,157,28)" stroke="none" d="M 7021,8419 L 7269,8419 7145,8171 7021,8419 Z"/>
 <path fill="none" stroke="rgb(87,157,28)" stroke-linejoin="round" d="M 7021,8419 L 7269,8419 7145,8171 7021,8419 Z"/>
 <path fill="rgb(87,157,28)" stroke="none" d="M 8161,7859 L 8410,7859 8286,7611 8161,7859 Z"/>
 <path fill="none" stroke="rgb(87,157,28)" stroke-linejoin="round" d="M 8161,7859 L 8410,7859 8286,7611 8161,7859 Z"/>
 <path fill="rgb(87,157,28)" stroke="none" d="M 9301,7427 L 9550,7427 9426,7179 9301,7427 Z"/>
 <path fill="none" stroke="rgb(87,157,28)" stroke-linejoin="round" d="M 9301,7427 L 9550,7427 9426,7179 9301,7427 Z"/>
 <path fill="rgb(87,157,28)" stroke="none" d="M 10441,6789 L 10690,6789 10566,6541 10441,6789 Z"/>
 <path fill="none" stroke="rgb(87,157,28)" stroke-linejoin="round" d="M 10441,6789 L 10690,6789 10566,6541 10441,6789 Z"/>
 <path fill="rgb(87,157,28)" stroke="none" d="M 11581,6268 L 11830,6268 11706,6020 11581,6268 Z"/>
 <path fill="none" stroke="rgb(87,157,28)" stroke-linejoin="round" d="M 11581,6268 L 11830,6268 11706,6020 11581,6268 Z"/>
 <path fill="rgb(87,157,28)" stroke="none" d="M 12721,5771 L 12970,5771 12846,5523 12721,5771 Z"/>
 <path fill="none" stroke="rgb(87,157,28)" stroke-linejoin="round" d="M 12721,5771 L 12970,5771 12846,5523 12721,5771 Z"/>
 <path fill="rgb(87,157,28)" stroke="none" d="M 13861,5087 L 14110,5087 13985,4839 13861,5087 Z"/>
 <path fill="none" stroke="rgb(87,157,28)" stroke-linejoin="round" d="M 13861,5087 L 14110,5087 13985,4839 13861,5087 Z"/>
 <path fill="rgb(87,157,28)" stroke="none" d="M 15002,4504 L 15251,4504 15126,4256 15002,4504 Z"/>
 <path fill="none" stroke="rgb(87,157,28)" stroke-linejoin="round" d="M 15002,4504 L 15251,4504 15126,4256 15002,4504 Z"/>
 <path fill="rgb(87,157,28)" stroke="none" d="M 16142,3889 L 16391,3889 16266,3641 16142,3889 Z"/>
 <path fill="none" stroke="rgb(87,157,28)" stroke-linejoin="round" d="M 16142,3889 L 16391,3889 16266,3641 16142,3889 Z"/>
 <path fill="rgb(87,157,28)" stroke="none" d="M 17282,3054 L 17531,3054 17406,2806 17282,3054 Z"/>
 <path fill="none" stroke="rgb(87,157,28)" stroke-linejoin="round" d="M 17282,3054 L 17531,3054 17406,2806 17282,3054 Z"/>
 <path fill="rgb(87,157,28)" stroke="none" d="M 18422,2509 L 18670,2509 18546,2261 18422,2509 Z"/>
 <path fill="none" stroke="rgb(87,157,28)" stroke-linejoin="round" d="M 18422,2509 L 18670,2509 18546,2261 18422,2509 Z"/>
 <path fill="rgb(87,157,28)" stroke="none" d="M 19561,1951 L 19810,1951 19686,1703 19561,1951 Z"/>
 <path fill="none" stroke="rgb(87,157,28)" stroke-linejoin="round" d="M 19561,1951 L 19810,1951 19686,1703 19561,1951 Z"/>
 <path fill="none" stroke="rgb(0,69,134)" stroke-width="80" stroke-linejoin="round" d="M 2585,10752 L 3725,10161 4865,9635 6005,9105 7145,8351 8286,7903 9426,7451 10566,6738 11706,6263 12846,5755 13985,5056 15126,4548 16266,4016 17406,3317 18546,2763 19686,2186"/>
 <path fill="rgb(0,69,134)" stroke="none" d="M 2461,10628 L 2461,10877 2710,10877 2710,10628 2461,10628 Z"/>
 <path fill="none" stroke="rgb(0,69,134)" stroke-linejoin="round" d="M 2461,10628 L 2461,10877 2710,10877 2710,10628 2461,10628 Z"/>
 <path fill="rgb(0,69,134)" stroke="none" d="M 3601,10037 L 3601,10285 3850,10285 3850,10037 3601,10037 Z"/>
 <path fill="none" stroke="rgb(0,69,134)" stroke-linejoin="round" d="M 3601,10037 L 3601,10285 3850,10285 3850,10037 3601,10037 Z"/>
 <path fill="rgb(0,69,134)" stroke="none" d="M 4741,9511 L 4741,9759 4990,9759 4990,9511 4741,9511 Z"/>
 <path fill="none" stroke="rgb(0,69,134)" stroke-linejoin="round" d="M 4741,9511 L 4741,9759 4990,9759 4990,9511 4741,9511 Z"/>
 <path fill="rgb(0,69,134)" stroke="none" d="M 5881,8981 L 5881,9229 6130,9229 6130,8981 5881,8981 Z"/>
 <path fill="none" stroke="rgb(0,69,134)" stroke-linejoin="round" d="M 5881,8981 L 5881,9229 6130,9229 6130,8981 5881,8981 Z"/>
 <path fill="rgb(0,69,134)" stroke="none" d="M 7021,8227 L 7021,8475 7269,8475 7269,8227 7021,8227 Z"/>
 <path fill="none" stroke="rgb(0,69,134)" stroke-linejoin="round" d="M 7021,8227 L 7021,8475 7269,8475 7269,8227 7021,8227 Z"/>
 <path fill="rgb(0,69,134)" stroke="none" d="M 8161,7779 L 8161,8027 8410,8027 8410,7779 8161,7779 Z"/>
 <path fill="none" stroke="rgb(0,69,134)" stroke-linejoin="round" d="M 8161,7779 L 8161,8027 8410,8027 8410,7779 8161,7779 Z"/>
 <path fill="rgb(0,69,134)" stroke="none" d="M 9301,7327 L 9301,7575 9550,7575 9550,7327 9301,7327 Z"/>
 <path fill="none" stroke="rgb(0,69,134)" stroke-linejoin="round" d="M 9301,7327 L 9301,7575 9550,7575 9550,7327 9301,7327 Z"/>
 <path fill="rgb(0,69,134)" stroke="none" d="M 10441,6614 L 10441,6862 10690,6862 10690,6614 10441,6614 Z"/>
 <path fill="none" stroke="rgb(0,69,134)" stroke-linejoin="round" d="M 10441,6614 L 10441,6862 10690,6862 10690,6614 10441,6614 Z"/>
 <path fill="rgb(0,69,134)" stroke="none" d="M 11581,6139 L 11581,6387 11830,6387 11830,6139 11581,6139 Z"/>
 <path fill="none" stroke="rgb(0,69,134)" stroke-linejoin="round" d="M 11581,6139 L 11581,6387 11830,6387 11830,6139 11581,6139 Z"/>
 <path fill="rgb(0,69,134)" stroke="none" d="M 12721,5631 L 12721,5879 12970,5879 12970,5631 12721,5631 Z"/>
 <path fill="none" stroke="rgb(0,69,134)" stroke-linejoin="round" d="M 12721,5631 L 12721,5879 12970,5879 12970,5631 12721,5631 Z"/>
 <path fill="rgb(0,69,134)" stroke="none" d="M 13861,4932 L 13861,5180 14110,5180 14110,4932 13861,4932 Z"/>
 <path fill="none" stroke="rgb(0,69,134)" stroke-linejoin="round" d="M 13861,4932 L 13861,5180 14110,5180 14110,4932 13861,4932 Z"/>
 <path fill="rgb(0,69,134)" stroke="none" d="M 15002,4424 L 15002,4672 15251,4672 15251,4424 15002,4424 Z"/>
 <path fill="none" stroke="rgb(0,69,134)" stroke-linejoin="round" d="M 15002,4424 L 15002,4672 15251,4672 15251,4424 15002,4424 Z"/>
 <path fill="rgb(0,69,134)" stroke="none" d="M 16142,3892 L 16142,4140 16391,4140 16391,3892 16142,3892 Z"/>
 <path fill="none" stroke="rgb(0,69,134)" stroke-linejoin="round" d="M 16142,3892 L 16142,4140 16391,4140 16391,3892 16142,3892 Z"/>
 <path fill="rgb(0,69,134)" stroke="none" d="M 17282,3193 L 17282,3441 17531,3441 17531,3193 17282,3193 Z"/>
 <path fill="none" stroke="rgb(0,69,134)" stroke-linejoin="round" d="M 17282,3193 L 17282,3441 17531,3441 17531,3193 17282,3193 Z"/>
 <path fill="rgb(0,69,134)" stroke="none" d="M 18422,2639 L 18422,2887 18670,2887 18670,2639 18422,2639 Z"/>
 <path fill="none" stroke="rgb(0,69,134)" stroke-linejoin="round" d="M 18422,2639 L 18422,2887 18670,2887 18670,2639 18422,2639 Z"/>
 <path fill="rgb(0,69,134)" stroke="none" d="M 19561,2062 L 19561,2310 19810,2310 19810,2062 19561,2062 Z"/>
 <path fill="none" stroke="rgb(0,69,134)" stroke-linejoin="round" d="M 19561,2062 L 19561,2310 19810,2310 19810,2062 19561,2062 Z"/>
 <text class="SVGTextShape"><tspan class="TextParagraph" font-family="Liberation Sans, sans-serif" font-size="350px" font-weight="400"><tspan class="TextPosition" x="2289" y="12319"><tspan fill="rgb(0,0,0)" stroke="none">100</tspan></tspan></tspan></text>
 <text class="SVGTextShape"><tspan class="TextParagraph" font-family="Liberation Sans, sans-serif" font-size="350px" font-weight="400"><tspan class="TextPosition" x="3429" y="12319"><tspan fill="rgb(0,0,0)" stroke="none">250</tspan></tspan></tspan></text>
 <text class="SVGTextShape"><tspan class="TextParagraph" font-family="Liberation Sans, sans-serif" font-size="350px" font-weight="400"><tspan class="TextPosition" x="4569" y="12319"><tspan fill="rgb(0,0,0)" stroke="none">500</tspan></tspan></tspan></text>
 <text class="SVGTextShape"><tspan class="TextParagraph" font-family="Liberation Sans, sans-serif" font-size="350px" font-weight="400"><tspan class="TextPosition" x="5788" y="12319"><tspan fill="rgb(0,0,0)" stroke="none">1K</tspan></tspan></tspan></text>
 <text class="SVGTextShape"><tspan class="TextParagraph" font-family="Liberation Sans, sans-serif" font-size="350px" font-weight="400"><tspan class="TextPosition" x="6776" y="12319"><tspan fill="rgb(0,0,0)" stroke="none">2.5K</tspan></tspan></tspan></text>
 <text class="SVGTextShape"><tspan class="TextParagraph" font-family="Liberation Sans, sans-serif" font-size="350px" font-weight="400"><tspan class="TextPosition" x="8067" y="12319"><tspan fill="rgb(0,0,0)" stroke="none">5K</tspan></tspan></tspan></text>
 <text class="SVGTextShape"><tspan class="TextParagraph" font-family="Liberation Sans, sans-serif" font-size="350px" font-weight="400"><tspan class="TextPosition" x="9110" y="12319"><tspan fill="rgb(0,0,0)" stroke="none">10K</tspan></tspan></tspan></text>
 <text class="SVGTextShape"><tspan class="TextParagraph" font-family="Liberation Sans, sans-serif" font-size="350px" font-weight="400"><tspan class="TextPosition" x="10250" y="12319"><tspan fill="rgb(0,0,0)" stroke="none">25K</tspan></tspan></tspan></text>
 <text class="SVGTextShape"><tspan class="TextParagraph" font-family="Liberation Sans, sans-serif" font-size="350px" font-weight="400"><tspan class="TextPosition" x="11390" y="12319"><tspan fill="rgb(0,0,0)" stroke="none">50K</tspan></tspan></tspan></text>
 <text class="SVGTextShape"><tspan class="TextParagraph" font-family="Liberation Sans, sans-serif" font-size="350px" font-weight="400"><tspan class="TextPosition" x="12431" y="12319"><tspan fill="rgb(0,0,0)" stroke="none">100K</tspan></tspan></tspan></text>
 <text class="SVGTextShape"><tspan class="TextParagraph" font-family="Liberation Sans, sans-serif" font-size="350px" font-weight="400"><tspan class="TextPosition" x="13571" y="12319"><tspan fill="rgb(0,0,0)" stroke="none">250K</tspan></tspan></tspan></text>
 <text class="SVGTextShape"><tspan class="TextParagraph" font-family="Liberation Sans, sans-serif" font-size="350px" font-weight="400"><tspan class="TextPosition" x="14712" y="12319"><tspan fill="rgb(0,0,0)" stroke="none">500K</tspan></tspan></tspan></text>
 <text class="SVGTextShape"><tspan class="TextParagraph" font-family="Liberation Sans, sans-serif" font-size="350px" font-weight="400"><tspan class="TextPosition" x="16023" y="12319"><tspan fill="rgb(0,0,0)" stroke="none">1M</tspan></tspan></tspan></text>
 <text class="SVGTextShape"><tspan class="TextParagraph" font-family="Liberation Sans, sans-serif" font-size="350px" font-weight="400"><tspan class="TextPosition" x="17011" y="12319"><tspan fill="rgb(0,0,0)" stroke="none">2.5M</tspan></tspan></tspan></text>
 <text class="SVGTextShape"><tspan class="TextParagraph" font-family="Liberation Sans, sans-serif" font-size="350px" font-weight="400"><tspan class="TextPosition" x="18303" y="12319"><tspan fill="rgb(0,0,0)" stroke="none">5M</tspan></tspan></tspan></text>
 <text class="SVGTextShape"><tspan class="TextParagraph" font-family="Liberation Sans, sans-serif" font-size="350px" font-weight="400"><tspan class="TextPosition" x="19344" y="12319"><tspan fill="rgb(0,0,0)" stroke="none">10M</tspan></tspan></tspan></text>
 <text class="SVGTextShape"><tspan class="TextParagraph" font-family="Liberation Sans, sans-serif" font-size="350px" font-weight="400"><tspan class="TextPosition" x="1493" y="11875"><tspan fill="rgb(0,0,0)" stroke="none">1E+1</tspan></tspan></tspan></text>
 <text class="SVGTextShape"><tspan class="TextParagraph" font-family="Liberation Sans, sans-serif" font-size="350px" font-weight="400"><tspan class="TextPosition" x="1493" y="10267"><tspan fill="rgb(0,0,0)" stroke="none">1E+2</tspan></tspan></tspan></text>
 <text class="SVGTextShape"><tspan class="TextParagraph" font-family="Liberation Sans, sans-serif" font-size="350px" font-weight="400"><tspan class="TextPosition" x="1493" y="8659"><tspan fill="rgb(0,0,0)" stroke="none">1E+3</tspan></tspan></tspan></text>
 <text class="SVGTextShape"><tspan class="TextParagraph" font-family="Liberation Sans, sans-serif" font-size="350px" font-weight="400"><tspan class="TextPosition" x="1493" y="7049"><tspan fill="rgb(0,0,0)" stroke="none">1E+4</tspan></tspan></tspan></text>
 <text class="SVGTextShape"><tspan class="TextParagraph" font-family="Liberation Sans, sans-serif" font-size="350px" font-weight="400"><tspan class="TextPosition" x="1493" y="5441"><tspan fill="rgb(0,0,0)" stroke="none">1E+5</tspan></tspan></tspan></text>
 <text class="SVGTextShape"><tspan class="TextParagraph" font-family="Liberation Sans, sans-serif" font-size="350px" font-weight="400"><tspan class="TextPosition" x="1493" y="3834"><tspan fill="rgb(0,0,0)" stroke="none">1E+6</tspan></tspan></tspan></text>
 <text class="SVGTextShape"><tspan class="TextParagraph" font-family="Liberation Sans, sans-serif" font-size="350px" font-weight="400"><tspan class="TextPosition" x="1493" y="2225"><tspan fill="rgb(0,0,0)" stroke="none">1E+7</tspan></tspan></tspan></text>
 <text class="SVGTextShape"><tspan class="TextParagraph" font-family="Liberation Sans, sans-serif" font-size="350px" font-weight="400"><tspan class="TextPosition" x="1493" y="617"><tspan fill="rgb(0,0,0)" stroke="none">1E+8</tspan></tspan></tspan></text>
 <path fill="none" stroke="rgb(255,66,14)" stroke-width="80" stroke-linejoin="round" d="M 20595,5360 L 21391,5360"/>
 <path fill="rgb(255,66,14)" stroke="none" d="M 20888,5360 L 20993,5466 21098,5360 20993,5256 20888,5360 Z"/>
 <path fill="none" stroke="rgb(255,66,14)" stroke-linejoin="round" d="M 20888,5360 L 20993,5466 21098,5360 20993,5256 20888,5360 Z"/>
 <path fill="none" stroke="rgb(255,211,32)" stroke-width="80" stroke-linejoin="round" d="M 20595,5854 L 21391,5854"/>
 <path fill="rgb(255,211,32)" stroke="none" d="M 20888,5750 L 20993,5960 21098,5750 20888,5750 Z"/>
 <path fill="none" stroke="rgb(255,211,32)" stroke-linejoin="round" d="M 20888,5750 L 20993,5960 21098,5750 20888,5750 Z"/>
 <path fill="none" stroke="rgb(126,0,33)" stroke-width="80" stroke-linejoin="round" d="M 20595,6349 L 21391,6349"/>
 <path fill="rgb(126,0,33)" stroke="none" d="M 20888,6244 L 20888,6454 21098,6349 20888,6244 Z"/>
 <path fill="none" stroke="rgb(126,0,33)" stroke-linejoin="round" d="M 20888,6244 L 20888,6454 21098,6349 20888,6244 Z"/>
 <path fill="none" stroke="rgb(87,157,28)" stroke-width="80" stroke-linejoin="round" d="M 20595,6843 L 21391,6843"/>
 <path fill="rgb(87,157,28)" stroke="none" d="M 20888,6948 L 21098,6948 20993,6738 20888,6948 Z"/>
 <path fill="none" stroke="rgb(87,157,28)" stroke-linejoin="round" d="M 20888,6948 L 21098,6948 20993,6738 20888,6948 Z"/>
 <path fill="none" stroke="rgb(0,69,134)" stroke-width="80" stroke-linejoin="round" d="M 20595,7337 L 21391,7337"/>
 <path fill="rgb(0,69,134)" stroke="none" d="M 20888,7232 L 20888,7442 21098,7442 21098,7232 20888,7232 Z"/>
 <path fill="none" stroke="rgb(0,69,134)" stroke-linejoin="round" d="M 20888,7232 L 20888,7442 21098,7442 21098,7232 20888,7232 Z"/>
 <text class="SVGTextShape"><tspan class="TextParagraph" font-family="Liberation Sans, sans-serif" font-size="350px" font-weight="400"><tspan class="TextPosition" x="21491" y="5479"><tspan fill="rgb(0,0,0)" stroke="none">CDT</tspan></tspan></tspan></text>
 <text class="SVGTextShape"><tspan class="TextParagraph" font-family="Liberation Sans, sans-serif" font-size="350px" font-weight="400"><tspan class="TextPosition" x="21491" y="5973"><tspan fill="rgb(0,0,0)" stroke="none">FAD</tspan></tspan></tspan></text>
 <text class="SVGTextShape"><tspan class="TextParagraph" font-family="Liberation Sans, sans-serif" font-size="350px" font-weight="400"><tspan class="TextPosition" x="21491" y="6468"><tspan fill="rgb(0,0,0)" stroke="none">DEL</tspan></tspan></tspan></text>
 <text class="SVGTextShape"><tspan class="TextParagraph" font-family="Liberation Sans, sans-serif" font-size="350px" font-weight="400"><tspan class="TextPosition" x="21491" y="6962"><tspan fill="rgb(0,0,0)" stroke="none">TRI</tspan></tspan></tspan></text>
 <text class="SVGTextShape"><tspan class="TextParagraph" font-family="Liberation Sans, sans-serif" font-size="350px" font-weight="400"><tspan class="TextPosition" x="21491" y="7456"><tspan fill="rgb(0,0,0)" stroke="none">DLB</tspan></tspan></tspan></text>
 <text class="SVGTextShape" transform="rotate(-90 884 6953)"><tspan class="TextParagraph" font-family="Liberation Sans, sans-serif" font-size="317px" font-weight="400"><tspan class="TextPosition" x="884" y="6953"><tspan fill="rgb(0,0,0)" stroke="none">time [µs]</tspan></tspan></tspan></text>
</svg>