<?xml version="1.0" encoding="UTF-8"?>
<!DOCTYPE svg PUBLIC "-//W3C//DTD SVG 1.1//EN" "http://www.w3.org/Graphics/SVG/1.1/DTD/svg11.dtd">
<svg width="160mm" height="90mm" viewBox="0 0 16000 9000" version="1.1" xmlns="http://www.w3.org/2000/svg" xmlns:xlink="http://www.w3.org/1999/xlink" stroke-width="28.222" stroke-linejoin="round" xml:space="preserve">
 <path fill="rgb(255,255,255)" stroke="none" d="M 8000,8998 L 0,8998 0,0 15999,0 15999,8998 8000,8998 Z"/>
 <path fill="none" stroke="rgb(179,179,179)" stroke-linejoin="round" d="M 7540,7334 L 2291,7334 2291,478 12788,478 12788,7334 7540,7334 Z"/>
 <path fill="none" stroke="rgb(221,221,221)" stroke-linejoin="round" d="M 2640,477 L 2640,7333"/>
 <path fill="none" stroke="rgb(221,221,221)" stroke-linejoin="round" d="M 3340,477 L 3340,7333"/>
 <path fill="none" stroke="rgb(221,221,221)" stroke-linejoin="round" d="M 4040,477 L 4040,7333"/>
 <path fill="none" stroke="rgb(221,221,221)" stroke-linejoin="round" d="M 4740,477 L 4740,7333"/>
 <path fill="none" stroke="rgb(221,221,221)" stroke-linejoin="round" d="M 5440,477 L 5440,7333"/>
 <path fill="none" stroke="rgb(221,221,221)" stroke-linejoin="round" d="M 6140,477 L 6140,7333"/>
 <path fill="none" stroke="rgb(221,221,221)" stroke-linejoin="round" d="M 6840,477 L 6840,7333"/>
 <path fill="none" stroke="rgb(221,221,221)" stroke-linejoin="round" d="M 7540,477 L 7540,7333"/>
 <path fill="none" stroke="rgb(221,221,221)" stroke-linejoin="round" d="M 8238,477 L 8238,7333"/>
 <path fill="none" stroke="rgb(221,221,221)" stroke-linejoin="round" d="M 8938,477 L 8938,7333"/>
 <path fill="none" stroke="rgb(221,221,221)" stroke-linejoin="round" d="M 9638,477 L 9638,7333"/>
 <path fill="none" stroke="rgb(221,221,221)" stroke-linejoin="round" d="M 10338,477 L 10338,7333"/>
 <path fill="none" stroke="rgb(221,221,221)" stroke-linejoin="round" d="M 11038,477 L 11038,7333"/>
 <path fill="none" stroke="rgb(221,221,221)" stroke-linejoin="round" d="M 11738,477 L 11738,7333"/>
 <path fill="none" stroke="rgb(221,221,221)" stroke-linejoin="round" d="M 12438,477 L 12438,7333"/>
 <path fill="none" stroke="rgb(179,179,179)" stroke-linejoin="round" d="M 12788,7333 L 2291,7333"/>
 <path fill="none" stroke="rgb(179,179,179)" stroke-linejoin="round" d="M 12788,6354 L 2291,6354"/>
 <path fill="none" stroke="rgb(179,179,179)" stroke-linejoin="round" d="M 12788,5374 L 2291,5374"/>
 <path fill="none" stroke="rgb(179,179,179)" stroke-linejoin="round" d="M 12788,4394 L 2291,4394"/>
 <path fill="none" stroke="rgb(179,179,179)" stroke-linejoin="round" d="M 12788,3415 L 2291,3415"/>
 <path fill="none" stroke="rgb(179,179,179)" stroke-linejoin="round" d="M 12788,2435 L 2291,2435"/>
 <path fill="none" stroke="rgb(179,179,179)" stroke-linejoin="round" d="M 12788,1456 L 2291,1456"/>
 <path fill="none" stroke="rgb(179,179,179)" stroke-linejoin="round" d="M 12788,477 L 2291,477"/>
 <path fill="none" stroke="rgb(179,179,179)" stroke-linejoin="round" d="M 2291,7483 L 2291,7333"/>
 <path fill="none" stroke="rgb(179,179,179)" stroke-linejoin="round" d="M 2291,7483 L 2291,7333"/>
 <path fill="none" stroke="rgb(179,179,179)" stroke-linejoin="round" d="M 2990,7483 L 2990,7333"/>
 <path fill="none" stroke="rgb(179,179,179)" stroke-linejoin="round" d="M 2990,7483 L 2990,7333"/>
 <path fill="none" stroke="rgb(179,179,179)" stroke-linejoin="round" d="M 3690,7483 L 3690,7333"/>
 <path fill="none" stroke="rgb(179,179,179)" stroke-linejoin="round" d="M 3690,7483 L 3690,7333"/>
 <path fill="none" stroke="rgb(179,179,179)" stroke-linejoin="round" d="M 4390,7483 L 4390,7333"/>
 <path fill="none" stroke="rgb(179,179,179)" stroke-linejoin="round" d="M 4390,7483 L 4390,7333"/>
 <path fill="none" stroke="rgb(179,179,179)" stroke-linejoin="round" d="M 5090,7483 L 5090,7333"/>
 <path fill="none" stroke="rgb(179,179,179)" stroke-linejoin="round" d="M 5090,7483 L 5090,7333"/>
 <path fill="none" stroke="rgb(179,179,179)" stroke-linejoin="round" d="M 5790,7483 L 5790,7333"/>
 <path fill="none" stroke="rgb(179,179,179)" stroke-linejoin="round" d="M 5790,7483 L 5790,7333"/>
 <path fill="none" stroke="rgb(179,179,179)" stroke-linejoin="round" d="M 6490,7483 L 6490,7333"/>
 <path fill="none" stroke="rgb(179,179,179)" stroke-linejoin="round" d="M 6490,7483 L 6490,7333"/>
 <path fill="none" stroke="rgb(179,179,179)" stroke-linejoin="round" d="M 7190,7483 L 7190,7333"/>
 <path fill="none" stroke="rgb(179,179,179)" stroke-linejoin="round" d="M 7190,7483 L 7190,7333"/>
 <path fill="none" stroke="rgb(179,179,179)" stroke-linejoin="round" d="M 7889,7483 L 7889,7333"/>
 <path fill="none" stroke="rgb(179,179,179)" stroke-linejoin="round" d="M 7889,7483 L 7889,7333"/>
 <path fill="none" stroke="rgb(179,179,179)" stroke-linejoin="round" d="M 8588,7483 L 8588,7333"/>
 <path fill="none" stroke="rgb(179,179,179)" stroke-linejoin="round" d="M 8588,7483 L 8588,7333"/>
 <path fill="none" stroke="rgb(179,179,179)" stroke-linejoin="round" d="M 9288,7483 L 9288,7333"/>
 <path fill="none" stroke="rgb(179,179,179)" stroke-linejoin="round" d="M 9288,7483 L 9288,7333"/>
 <path fill="none" stroke="rgb(179,179,179)" stroke-linejoin="round" d="M 9988,7483 L 9988,7333"/>
 <path fill="none" stroke="rgb(179,179,179)" stroke-linejoin="round" d="M 9988,7483 L 9988,7333"/>
 <path fill="none" stroke="rgb(179,179,179)" stroke-linejoin="round" d="M 10688,7483 L 10688,7333"/>
 <path fill="none" stroke="rgb(179,179,179)" stroke-linejoin="round" d="M 10688,7483 L 10688,7333"/>
 <path fill="none" stroke="rgb(179,179,179)" stroke-linejoin="round" d="M 11388,7483 L 11388,7333"/>
 <path fill="none" stroke="rgb(179,179,179)" stroke-linejoin="round" d="M 11388,7483 L 11388,7333"/>
 <path fill="none" stroke="rgb(179,179,179)" stroke-linejoin="round" d="M 12088,7483 L 12088,7333"/>
 <path fill="none" stroke="rgb(179,179,179)" stroke-linejoin="round" d="M 12088,7483 L 12088,7333"/>
 <path fill="none" stroke="rgb(179,179,179)" stroke-linejoin="round" d="M 12788,7483 L 12788,7333"/>
 <path fill="none" stroke="rgb(179,179,179)" stroke-linejoin="round" d="M 12788,7483 L 12788,7333"/>
 <path fill="none" stroke="rgb(179,179,179)" stroke-linejoin="round" d="M 2291,7333 L 12788,7333"/>
 <path fill="none" stroke="rgb(179,179,179)" stroke-linejoin="round" d="M 2141,7333 L 2291,7333"/>
 <path fill="none" stroke="rgb(179,179,179)" stroke-linejoin="round" d="M 2141,7333 L 2291,7333"/>
 <path fill="none" stroke="rgb(179,179,179)" stroke-linejoin="round" d="M 2141,6354 L 2291,6354"/>
 <path fill="none" stroke="rgb(179,179,179)" stroke-linejoin="round" d="M 2141,6354 L 2291,6354"/>
 <path fill="none" stroke="rgb(179,179,179)" stroke-linejoin="round" d="M 2141,5374 L 2291,5374"/>
 <path fill="none" stroke="rgb(179,179,179)" stroke-linejoin="round" d="M 2141,5374 L 2291,5374"/>
 <path fill="none" stroke="rgb(179,179,179)" stroke-linejoin="round" d="M 2141,4394 L 2291,4394"/>
 <path fill="none" stroke="rgb(179,179,179)" stroke-linejoin="round" d="M 2141,4394 L 2291,4394"/>
 <path fill="none" stroke="rgb(179,179,179)" stroke-linejoin="round" d="M 2141,3415 L 2291,3415"/>
 <path fill="none" stroke="rgb(179,179,179)" stroke-linejoin="round" d="M 2141,3415 L 2291,3415"/>
 <path fill="none" stroke="rgb(179,179,179)" stroke-linejoin="round" d="M 2141,2435 L 2291,2435"/>
 <path fill="none" stroke="rgb(179,179,179)" stroke-linejoin="round" d="M 2141,2435 L 2291,2435"/>
 <path fill="none" stroke="rgb(179,179,179)" stroke-linejoin="round" d="M 2141,1456 L 2291,1456"/>
 <path fill="none" stroke="rgb(179,179,179)" stroke-linejoin="round" d="M 2141,1456 L 2291,1456"/>
 <path fill="none" stroke="rgb(179,179,179)" stroke-linejoin="round" d="M 2141,477 L 2291,477"/>
 <path fill="none" stroke="rgb(179,179,179)" stroke-linejoin="round" d="M 2141,477 L 2291,477"/>
 <path fill="none" stroke="rgb(179,179,179)" stroke-linejoin="round" d="M 2291,7333 L 2291,477"/>
 <path fill="none" stroke="rgb(0,69,134)" stroke-width="80" stroke-linejoin="round" d="M 2291,6713 L 2990,6329 3690,6055 4390,5642 5090,5286 5790,4976 6490,4692 7190,4275 7889,3984 8588,3689 9288,3262 9988,2949 10688,2633 11388,2207 12088,1870 12788,1534"/>
 <path fill="rgb(0,69,134)" stroke="none" d="M 2166,6588 L 2166,6837 2416,6837 2416,6588 2166,6588 Z"/>
 <path fill="none" stroke="rgb(0,69,134)" stroke-linejoin="round" d="M 2166,6588 L 2166,6837 2416,6837 2416,6588 2166,6588 Z"/>
 <path fill="rgb(0,69,134)" stroke="none" d="M 2865,6204 L 2865,6454 3115,6454 3115,6204 2865,6204 Z"/>
 <path fill="none" stroke="rgb(0,69,134)" stroke-linejoin="round" d="M 2865,6204 L 2865,6454 3115,6454 3115,6204 2865,6204 Z"/>
 <path fill="rgb(0,69,134)" stroke="none" d="M 3565,5930 L 3565,6180 3815,6180 3815,5930 3565,5930 Z"/>
 <path fill="none" stroke="rgb(0,69,134)" stroke-linejoin="round" d="M 3565,5930 L 3565,6180 3815,6180 3815,5930 3565,5930 Z"/>
 <path fill="rgb(0,69,134)" stroke="none" d="M 4265,5517 L 4265,5767 4515,5767 4515,5517 4265,5517 Z"/>
 <path fill="none" stroke="rgb(0,69,134)" stroke-linejoin="round" d="M 4265,5517 L 4265,5767 4515,5767 4515,5517 4265,5517 Z"/>
 <path fill="rgb(0,69,134)" stroke="none" d="M 4965,5161 L 4965,5411 5215,5411 5215,5161 4965,5161 Z"/>
 <path fill="none" stroke="rgb(0,69,134)" stroke-linejoin="round" d="M 4965,5161 L 4965,5411 5215,5411 5215,5161 4965,5161 Z"/>
 <path fill="rgb(0,69,134)" stroke="none" d="M 5665,4851 L 5665,5101 5915,5101 5915,4851 5665,4851 Z"/>
 <path fill="none" stroke="rgb(0,69,134)" stroke-linejoin="round" d="M 5665,4851 L 5665,5101 5915,5101 5915,4851 5665,4851 Z"/>
 <path fill="rgb(0,69,134)" stroke="none" d="M 6365,4567 L 6365,4817 6615,4817 6615,4567 6365,4567 Z"/>
 <path fill="none" stroke="rgb(0,69,134)" stroke-linejoin="round" d="M 6365,4567 L 6365,4817 6615,4817 6615,4567 6365,4567 Z"/>
 <path fill="rgb(0,69,134)" stroke="none" d="M 7065,4150 L 7065,4400 7315,4400 7315,4150 7065,4150 Z"/>
 <path fill="none" stroke="rgb(0,69,134)" stroke-linejoin="round" d="M 7065,4150 L 7065,4400 7315,4400 7315,4150 7065,4150 Z"/>
 <path fill="rgb(0,69,134)" stroke="none" d="M 7764,3859 L 7764,4109 8013,4109 8013,3859 7764,3859 Z"/>
 <path fill="none" stroke="rgb(0,69,134)" stroke-linejoin="round" d="M 7764,3859 L 7764,4109 8013,4109 8013,3859 7764,3859 Z"/>
 <path fill="rgb(0,69,134)" stroke="none" d="M 8463,3564 L 8463,3814 8713,3814 8713,3564 8463,3564 Z"/>
 <path fill="none" stroke="rgb(0,69,134)" stroke-linejoin="round" d="M 8463,3564 L 8463,3814 8713,3814 8713,3564 8463,3564 Z"/>
 <path fill="rgb(0,69,134)" stroke="none" d="M 9163,3137 L 9163,3387 9413,3387 9413,3137 9163,3137 Z"/>
 <path fill="none" stroke="rgb(0,69,134)" stroke-linejoin="round" d="M 9163,3137 L 9163,3387 9413,3387 9413,3137 9163,3137 Z"/>
 <path fill="rgb(0,69,134)" stroke="none" d="M 9863,2824 L 9863,3074 10113,3074 10113,2824 9863,2824 Z"/>
 <path fill="none" stroke="rgb(0,69,134)" stroke-linejoin="round" d="M 9863,2824 L 9863,3074 10113,3074 10113,2824 9863,2824 Z"/>
 <path fill="rgb(0,69,134)" stroke="none" d="M 10563,2508 L 10563,2758 10813,2758 10813,2508 10563,2508 Z"/>
 <path fill="none" stroke="rgb(0,69,134)" stroke-linejoin="round" d="M 10563,2508 L 10563,2758 10813,2758 10813,2508 10563,2508 Z"/>
 <path fill="rgb(0,69,134)" stroke="none" d="M 11263,2082 L 11263,2331 11513,2331 11513,2082 11263,2082 Z"/>
 <path fill="none" stroke="rgb(0,69,134)" stroke-linejoin="round" d="M 11263,2082 L 11263,2331 11513,2331 11513,2082 11263,2082 Z"/>
 <path fill="rgb(0,69,134)" stroke="none" d="M 11963,1745 L 11963,1995 12213,1995 12213,1745 11963,1745 Z"/>
 <path fill="none" stroke="rgb(0,69,134)" stroke-linejoin="round" d="M 11963,1745 L 11963,1995 12213,1995 12213,1745 11963,1745 Z"/>
 <path fill="rgb(0,69,134)" stroke="none" d="M 12663,1409 L 12663,1659 12913,1659 12913,1409 12663,1409 Z"/>
 <path fill="none" stroke="rgb(0,69,134)" stroke-linejoin="round" d="M 12663,1409 L 12663,1659 12913,1659 12913,1409 12663,1409 Z"/>
 <path fill="none" stroke="rgb(255,66,14)" stroke-width="80" stroke-linejoin="round" d="M 2291,4896 L 2990,4946 3690,4751 4390,4858 5090,4414 5790,4288 6490,4003 7190,3594 7889,3271 8588,2972 9288,2539 9988,2130 10688,1729 11388,1241 12088,910 12788,586"/>
 <path fill="rgb(255,66,14)" stroke="none" d="M 2166,4896 L 2291,5021 2416,4896 2291,4771 2166,4896 Z"/>
 <path fill="none" stroke="rgb(255,66,14)" stroke-linejoin="round" d="M 2166,4896 L 2291,5021 2416,4896 2291,4771 2166,4896 Z"/>
 <path fill="rgb(255,66,14)" stroke="none" d="M 2865,4946 L 2990,5071 3115,4946 2990,4821 2865,4946 Z"/>
 <path fill="none" stroke="rgb(255,66,14)" stroke-linejoin="round" d="M 2865,4946 L 2990,5071 3115,4946 2990,4821 2865,4946 Z"/>
 <path fill="rgb(255,66,14)" stroke="none" d="M 3565,4751 L 3690,4876 3815,4751 3690,4626 3565,4751 Z"/>
 <path fill="none" stroke="rgb(255,66,14)" stroke-linejoin="round" d="M 3565,4751 L 3690,4876 3815,4751 3690,4626 3565,4751 Z"/>
 <path fill="rgb(255,66,14)" stroke="none" d="M 4265,4858 L 4390,4983 4515,4858 4390,4733 4265,4858 Z"/>
 <path fill="none" stroke="rgb(255,66,14)" stroke-linejoin="round" d="M 4265,4858 L 4390,4983 4515,4858 4390,4733 4265,4858 Z"/>
 <path fill="rgb(255,66,14)" stroke="none" d="M 4965,4414 L 5090,4539 5215,4414 5090,4289 4965,4414 Z"/>
 <path fill="none" stroke="rgb(255,66,14)" stroke-linejoin="round" d="M 4965,4414 L 5090,4539 5215,4414 5090,4289 4965,4414 Z"/>
 <path fill="rgb(255,66,14)" stroke="none" d="M 5665,4288 L 5790,4413 5915,4288 5790,4163 5665,4288 Z"/>
 <path fill="none" stroke="rgb(255,66,14)" stroke-linejoin="round" d="M 5665,4288 L 5790,4413 5915,4288 5790,4163 5665,4288 Z"/>
 <path fill="rgb(255,66,14)" stroke="none" d="M 6365,4003 L 6490,4128 6615,4003 6490,3878 6365,4003 Z"/>
 <path fill="none" stroke="rgb(255,66,14)" stroke-linejoin="round" d="M 6365,4003 L 6490,4128 6615,4003 6490,3878 6365,4003 Z"/>
 <path fill="rgb(255,66,14)" stroke="none" d="M 7065,3594 L 7190,3719 7315,3594 7190,3469 7065,3594 Z"/>
 <path fill="none" stroke="rgb(255,66,14)" stroke-linejoin="round" d="M 7065,3594 L 7190,3719 7315,3594 7190,3469 7065,3594 Z"/>
 <path fill="rgb(255,66,14)" stroke="none" d="M 7764,3271 L 7889,3396 8013,3271 7889,3146 7764,3271 Z"/>
 <path fill="none" stroke="rgb(255,66,14)" stroke-linejoin="round" d="M 7764,3271 L 7889,3396 8013,3271 7889,3146 7764,3271 Z"/>
 <path fill="rgb(255,66,14)" stroke="none" d="M 8463,2972 L 8588,3097 8713,2972 8588,2847 8463,2972 Z"/>
 <path fill="none" stroke="rgb(255,66,14)" stroke-linejoin="round" d="M 8463,2972 L 8588,3097 8713,2972 8588,2847 8463,2972 Z"/>
 <path fill="rgb(255,66,14)" stroke="none" d="M 9163,2539 L 9288,2664 9413,2539 9288,2414 9163,2539 Z"/>
 <path fill="none" stroke="rgb(255,66,14)" stroke-linejoin="round" d="M 9163,2539 L 9288,2664 9413,2539 9288,2414 9163,2539 Z"/>
 <path fill="rgb(255,66,14)" stroke="none" d="M 9863,2130 L 9988,2254 10113,2130 9988,2005 9863,2130 Z"/>
 <path fill="none" stroke="rgb(255,66,14)" stroke-linejoin="round" d="M 9863,2130 L 9988,2254 10113,2130 9988,2005 9863,2130 Z"/>
 <path fill="rgb(255,66,14)" stroke="none" d="M 10563,1729 L 10688,1854 10813,1729 10688,1604 10563,1729 Z"/>
 <path fill="none" stroke="rgb(255,66,14)" stroke-linejoin="round" d="M 10563,1729 L 10688,1854 10813,1729 10688,1604 10563,1729 Z"/>
 <path fill="rgb(255,66,14)" stroke="none" d="M 11263,1241 L 11388,1366 11513,1241 11388,1116 11263,1241 Z"/>
 <path fill="none" stroke="rgb(255,66,14)" stroke-linejoin="round" d="M 11263,1241 L 11388,1366 11513,1241 11388,1116 11263,1241 Z"/>
 <path fill="rgb(255,66,14)" stroke="none" d="M 11963,910 L 12088,1035 12213,910 12088,785 11963,910 Z"/>
 <path fill="none" stroke="rgb(255,66,14)" stroke-linejoin="round" d="M 11963,910 L 12088,1035 12213,910 12088,785 11963,910 Z"/>
 <path fill="rgb(255,66,14)" stroke="none" d="M 12663,586 L 12788,711 12913,586 12788,461 12663,586 Z"/>
 <path fill="none" stroke="rgb(255,66,14)" stroke-linejoin="round" d="M 12663,586 L 12788,711 12913,586 12788,461 12663,586 Z"/>
 <path fill="none" stroke="rgb(255,211,32)" stroke-width="80" stroke-linejoin="round" d="M 2291,6413 L 2990,6196 3690,6074 4390,5756 5090,5441 5790,5106 6490,4868 7190,4488 7889,4193 8588,3905 9288,3496 9988,3190 10688,2879"/>
 <path fill="rgb(255,211,32)" stroke="none" d="M 2166,6288 L 2291,6538 2416,6288 2166,6288 Z"/>
 <path fill="none" stroke="rgb(255,211,32)" stroke-linejoin="round" d="M 2166,6288 L 2291,6538 2416,6288 2166,6288 Z"/>
 <path fill="rgb(255,211,32)" stroke="none" d="M 2865,6071 L 2990,6321 3115,6071 2865,6071 Z"/>
 <path fill="none" stroke="rgb(255,211,32)" stroke-linejoin="round" d="M 2865,6071 L 2990,6321 3115,6071 2865,6071 Z"/>
 <path fill="rgb(255,211,32)" stroke="none" d="M 3565,5949 L 3690,6199 3815,5949 3565,5949 Z"/>
 <path fill="none" stroke="rgb(255,211,32)" stroke-linejoin="round" d="M 3565,5949 L 3690,6199 3815,5949 3565,5949 Z"/>
 <path fill="rgb(255,211,32)" stroke="none" d="M 4265,5631 L 4390,5881 4515,5631 4265,5631 Z"/>
 <path fill="none" stroke="rgb(255,211,32)" stroke-linejoin="round" d="M 4265,5631 L 4390,5881 4515,5631 4265,5631 Z"/>
 <path fill="rgb(255,211,32)" stroke="none" d="M 4965,5316 L 5090,5566 5215,5316 4965,5316 Z"/>
 <path fill="none" stroke="rgb(255,211,32)" stroke-linejoin="round" d="M 4965,5316 L 5090,5566 5215,5316 4965,5316 Z"/>
 <path fill="rgb(255,211,32)" stroke="none" d="M 5665,4981 L 5790,5231 5915,4981 5665,4981 Z"/>
 <path fill="none" stroke="rgb(255,211,32)" stroke-linejoin="round" d="M 5665,4981 L 5790,5231 5915,4981 5665,4981 Z"/>
 <path fill="rgb(255,211,32)" stroke="none" d="M 6365,4743 L 6490,4993 6615,4743 6365,4743 Z"/>
 <path fill="none" stroke="rgb(255,211,32)" stroke-linejoin="round" d="M 6365,4743 L 6490,4993 6615,4743 6365,4743 Z"/>
 <path fill="rgb(255,211,32)" stroke="none" d="M 7065,4363 L 7190,4613 7315,4363 7065,4363 Z"/>
 <path fill="none" stroke="rgb(255,211,32)" stroke-linejoin="round" d="M 7065,4363 L 7190,4613 7315,4363 7065,4363 Z"/>
 <path fill="rgb(255,211,32)" stroke="none" d="M 7764,4068 L 7889,4318 8013,4068 7764,4068 Z"/>
 <path fill="none" stroke="rgb(255,211,32)" stroke-linejoin="round" d="M 7764,4068 L 7889,4318 8013,4068 7764,4068 Z"/>
 <path fill="rgb(255,211,32)" stroke="none" d="M 8463,3780 L 8588,4030 8713,3780 8463,3780 Z"/>
 <path fill="none" stroke="rgb(255,211,32)" stroke-linejoin="round" d="M 8463,3780 L 8588,4030 8713,3780 8463,3780 Z"/>
 <path fill="rgb(255,211,32)" stroke="none" d="M 9163,3371 L 9288,3621 9413,3371 9163,3371 Z"/>
 <path fill="none" stroke="rgb(255,211,32)" stroke-linejoin="round" d="M 9163,3371 L 9288,3621 9413,3371 9163,3371 Z"/>
 <path fill="rgb(255,211,32)" stroke="none" d="M 9863,3065 L 9988,3315 10113,3065 9863,3065 Z"/>
 <path fill="none" stroke="rgb(255,211,32)" stroke-linejoin="round" d="M 9863,3065 L 9988,3315 10113,3065 9863,3065 Z"/>
 <path fill="rgb(255,211,32)" stroke="none" d="M 10563,2754 L 10688,3004 10813,2754 10563,2754 Z"/>
 <path fill="none" stroke="rgb(255,211,32)" stroke-linejoin="round" d="M 10563,2754 L 10688,3004 10813,2754 10563,2754 Z"/>
 <path fill="none" stroke="rgb(87,157,28)" stroke-width="80" stroke-linejoin="round" d="M 2291,5249 L 2990,5535 3690,5591 4390,5503 5090,5290 5790,4989 6490,4756 7190,4372 7889,4102 8588,3787 9288,3359 9988,3009 10688,2632 11388,2133 12088,1786 12788,1441"/>
 <path fill="rgb(87,157,28)" stroke="none" d="M 2166,5374 L 2416,5374 2291,5124 2166,5374 Z"/>
 <path fill="none" stroke="rgb(87,157,28)" stroke-linejoin="round" d="M 2166,5374 L 2416,5374 2291,5124 2166,5374 Z"/>
 <path fill="rgb(87,157,28)" stroke="none" d="M 2865,5660 L 3115,5660 2990,5410 2865,5660 Z"/>
 <path fill="none" stroke="rgb(87,157,28)" stroke-linejoin="round" d="M 2865,5660 L 3115,5660 2990,5410 2865,5660 Z"/>
 <path fill="rgb(87,157,28)" stroke="none" d="M 3565,5716 L 3815,5716 3690,5466 3565,5716 Z"/>
 <path fill="none" stroke="rgb(87,157,28)" stroke-linejoin="round" d="M 3565,5716 L 3815,5716 3690,5466 3565,5716 Z"/>
 <path fill="rgb(87,157,28)" stroke="none" d="M 4265,5628 L 4515,5628 4390,5378 4265,5628 Z"/>
 <path fill="none" stroke="rgb(87,157,28)" stroke-linejoin="round" d="M 4265,5628 L 4515,5628 4390,5378 4265,5628 Z"/>
 <path fill="rgb(87,157,28)" stroke="none" d="M 4965,5415 L 5215,5415 5090,5165 4965,5415 Z"/>
 <path fill="none" stroke="rgb(87,157,28)" stroke-linejoin="round" d="M 4965,5415 L 5215,5415 5090,5165 4965,5415 Z"/>
 <path fill="rgb(87,157,28)" stroke="none" d="M 5665,5114 L 5915,5114 5790,4864 5665,5114 Z"/>
 <path fill="none" stroke="rgb(87,157,28)" stroke-linejoin="round" d="M 5665,5114 L 5915,5114 5790,4864 5665,5114 Z"/>
 <path fill="rgb(87,157,28)" stroke="none" d="M 6365,4881 L 6615,4881 6490,4631 6365,4881 Z"/>
 <path fill="none" stroke="rgb(87,157,28)" stroke-linejoin="round" d="M 6365,4881 L 6615,4881 6490,4631 6365,4881 Z"/>
 <path fill="rgb(87,157,28)" stroke="none" d="M 7065,4497 L 7315,4497 7190,4247 7065,4497 Z"/>
 <path fill="none" stroke="rgb(87,157,28)" stroke-linejoin="round" d="M 7065,4497 L 7315,4497 7190,4247 7065,4497 Z"/>
 <path fill="rgb(87,157,28)" stroke="none" d="M 7764,4227 L 8013,4227 7889,3977 7764,4227 Z"/>
 <path fill="none" stroke="rgb(87,157,28)" stroke-linejoin="round" d="M 7764,4227 L 8013,4227 7889,3977 7764,4227 Z"/>
 <path fill="rgb(87,157,28)" stroke="none" d="M 8463,3912 L 8713,3912 8588,3662 8463,3912 Z"/>
 <path fill="none" stroke="rgb(87,157,28)" stroke-linejoin="round" d="M 8463,3912 L 8713,3912 8588,3662 8463,3912 Z"/>
 <path fill="rgb(87,157,28)" stroke="none" d="M 9163,3484 L 9413,3484 9288,3234 9163,3484 Z"/>
 <path fill="none" stroke="rgb(87,157,28)" stroke-linejoin="round" d="M 9163,3484 L 9413,3484 9288,3234 9163,3484 Z"/>
 <path fill="rgb(87,157,28)" stroke="none" d="M 9863,3134 L 10113,3134 9988,2884 9863,3134 Z"/>
 <path fill="none" stroke="rgb(87,157,28)" stroke-linejoin="round" d="M 9863,3134 L 10113,3134 9988,2884 9863,3134 Z"/>
 <path fill="rgb(87,157,28)" stroke="none" d="M 10563,2757 L 10813,2757 10688,2507 10563,2757 Z"/>
 <path fill="none" stroke="rgb(87,157,28)" stroke-linejoin="round" d="M 10563,2757 L 10813,2757 10688,2507 10563,2757 Z"/>
 <path fill="rgb(87,157,28)" stroke="none" d="M 11263,2257 L 11513,2257 11388,2008 11263,2257 Z"/>
 <path fill="none" stroke="rgb(87,157,28)" stroke-linejoin="round" d="M 11263,2257 L 11513,2257 11388,2008 11263,2257 Z"/>
 <path fill="rgb(87,157,28)" stroke="none" d="M 11963,1911 L 12213,1911 12088,1661 11963,1911 Z"/>
 <path fill="none" stroke="rgb(87,157,28)" stroke-linejoin="round" d="M 11963,1911 L 12213,1911 12088,1661 11963,1911 Z"/>
 <path fill="rgb(87,157,28)" stroke="none" d="M 12663,1566 L 12913,1566 12788,1316 12663,1566 Z"/>
 <path fill="none" stroke="rgb(87,157,28)" stroke-linejoin="round" d="M 12663,1566 L 12913,1566 12788,1316 12663,1566 Z"/>
 <text class="SVGTextShape" transform="rotate(-44.9 1953 8230)"><tspan class="TextParagraph" font-family="Liberation Sans, sans-serif" font-size="353px" font-weight="400"><tspan class="TextPosition" x="1953" y="8230"><tspan fill="rgb(0,0,0)" stroke="none">100</tspan></tspan></tspan></text>
 <text class="SVGTextShape" transform="rotate(-44.9 2652 8230)"><tspan class="TextParagraph" font-family="Liberation Sans, sans-serif" font-size="353px" font-weight="400"><tspan class="TextPosition" x="2652" y="8230"><tspan fill="rgb(0,0,0)" stroke="none">250</tspan></tspan></tspan></text>
 <text class="SVGTextShape" transform="rotate(-44.9 3352 8230)"><tspan class="TextParagraph" font-family="Liberation Sans, sans-serif" font-size="353px" font-weight="400"><tspan class="TextPosition" x="3352" y="8230"><tspan fill="rgb(0,0,0)" stroke="none">500</tspan></tspan></tspan></text>
 <text class="SVGTextShape" transform="rotate(-44.9 4164 8118)"><tspan class="TextParagraph" font-family="Liberation Sans, sans-serif" font-size="353px" font-weight="400"><tspan class="TextPosition" x="4164" y="8118"><tspan fill="rgb(0,0,0)" stroke="none">1K</tspan></tspan></tspan></text>
 <text class="SVGTextShape" transform="rotate(-44.9 4649 8332)"><tspan class="TextParagraph" font-family="Liberation Sans, sans-serif" font-size="353px" font-weight="400"><tspan class="TextPosition" x="4649" y="8332"><tspan fill="rgb(0,0,0)" stroke="none">2.5K</tspan></tspan></tspan></text>
 <text class="SVGTextShape" transform="rotate(-44.9 5564 8118)"><tspan class="TextParagraph" font-family="Liberation Sans, sans-serif" font-size="353px" font-weight="400"><tspan class="TextPosition" x="5564" y="8118"><tspan fill="rgb(0,0,0)" stroke="none">5K</tspan></tspan></tspan></text>
 <text class="SVGTextShape" transform="rotate(-44.9 6124 8258)"><tspan class="TextParagraph" font-family="Liberation Sans, sans-serif" font-size="353px" font-weight="400"><tspan class="TextPosition" x="6124" y="8258"><tspan fill="rgb(0,0,0)" stroke="none">10K</tspan></tspan></tspan></text>
 <text class="SVGTextShape" transform="rotate(-44.9 6824 8258)"><tspan class="TextParagraph" font-family="Liberation Sans, sans-serif" font-size="353px" font-weight="400"><tspan class="TextPosition" x="6824" y="8258"><tspan fill="rgb(0,0,0)" stroke="none">25K</tspan></tspan></tspan></text>
 <text class="SVGTextShape" transform="rotate(-44.9 7523 8258)"><tspan class="TextParagraph" font-family="Liberation Sans, sans-serif" font-size="353px" font-weight="400"><tspan class="TextPosition" x="7523" y="8258"><tspan fill="rgb(0,0,0)" stroke="none">50K</tspan></tspan></tspan></text>
 <text class="SVGTextShape" transform="rotate(-44.9 8083 8398)"><tspan class="TextParagraph" font-family="Liberation Sans, sans-serif" font-size="353px" font-weight="400"><tspan class="TextPosition" x="8083" y="8398"><tspan fill="rgb(0,0,0)" stroke="none">100K</tspan></tspan></tspan></text>
 <text class="SVGTextShape" transform="rotate(-44.9 8783 8398)"><tspan class="TextParagraph" font-family="Liberation Sans, sans-serif" font-size="353px" font-weight="400"><tspan class="TextPosition" x="8783" y="8398"><tspan fill="rgb(0,0,0)" stroke="none">250K</tspan></tspan></tspan></text>
 <text class="SVGTextShape" transform="rotate(-44.9 9483 8398)"><tspan class="TextParagraph" font-family="Liberation Sans, sans-serif" font-size="353px" font-weight="400"><tspan class="TextPosition" x="9483" y="8398"><tspan fill="rgb(0,0,0)" stroke="none">500K</tspan></tspan></tspan></text>
 <text class="SVGTextShape" transform="rotate(-44.9 10426 8154)"><tspan class="TextParagraph" font-family="Liberation Sans, sans-serif" font-size="353px" font-weight="400"><tspan class="TextPosition" x="10426" y="8154"><tspan fill="rgb(0,0,0)" stroke="none">1M</tspan></tspan></tspan></text>
 <text class="SVGTextShape" transform="rotate(-44.9 10910 8370)"><tspan class="TextParagraph" font-family="Liberation Sans, sans-serif" font-size="353px" font-weight="400"><tspan class="TextPosition" x="10910" y="8370"><tspan fill="rgb(0,0,0)" stroke="none">2.5M</tspan></tspan></tspan></text>
 <text class="SVGTextShape" transform="rotate(-44.9 11825 8154)"><tspan class="TextParagraph" font-family="Liberation Sans, sans-serif" font-size="353px" font-weight="400"><tspan class="TextPosition" x="11825" y="8154"><tspan fill="rgb(0,0,0)" stroke="none">5M</tspan></tspan></tspan></text>
 <text class="SVGTextShape" transform="rotate(-44.9 12385 8294)"><tspan class="TextParagraph" font-family="Liberation Sans, sans-serif" font-size="353px" font-weight="400"><tspan class="TextPosition" x="12385" y="8294"><tspan fill="rgb(0,0,0)" stroke="none">10M</tspan></tspan></tspan></text>
 <text class="SVGTextShape"><tspan class="TextParagraph" font-family="Liberation Sans, sans-serif" font-size="353px" font-weight="400"><tspan class="TextPosition" x="1194" y="7454"><tspan fill="rgb(0,0,0)" stroke="none">1E+1</tspan></tspan></tspan></text>
 <text class="SVGTextShape"><tspan class="TextParagraph" font-family="Liberation Sans, sans-serif" font-size="353px" font-weight="400"><tspan class="TextPosition" x="1194" y="6474"><tspan fill="rgb(0,0,0)" stroke="none">1E+2</tspan></tspan></tspan></text>
 <text class="SVGTextShape"><tspan class="TextParagraph" font-family="Liberation Sans, sans-serif" font-size="353px" font-weight="400"><tspan class="TextPosition" x="1194" y="5494"><tspan fill="rgb(0,0,0)" stroke="none">1E+3</tspan></tspan></tspan></text>
 <text class="SVGTextShape"><tspan class="TextParagraph" font-family="Liberation Sans, sans-serif" font-size="353px" font-weight="400"><tspan class="TextPosition" x="1194" y="4514"><tspan fill="rgb(0,0,0)" stroke="none">1E+4</tspan></tspan></tspan></text>
 <text class="SVGTextShape"><tspan class="TextParagraph" font-family="Liberation Sans, sans-serif" font-size="353px" font-weight="400"><tspan class="TextPosition" x="1194" y="3536"><tspan fill="rgb(0,0,0)" stroke="none">1E+5</tspan></tspan></tspan></text>
 <text class="SVGTextShape"><tspan class="TextParagraph" font-family="Liberation Sans, sans-serif" font-size="353px" font-weight="400"><tspan class="TextPosition" x="1194" y="2556"><tspan fill="rgb(0,0,0)" stroke="none">1E+6</tspan></tspan></tspan></text>
 <text class="SVGTextShape"><tspan class="TextParagraph" font-family="Liberation Sans, sans-serif" font-size="353px" font-weight="400"><tspan class="TextPosition" x="1194" y="1576"><tspan fill="rgb(0,0,0)" stroke="none">1E+7</tspan></tspan></tspan></text>
 <text class="SVGTextShape"><tspan class="TextParagraph" font-family="Liberation Sans, sans-serif" font-size="353px" font-weight="400"><tspan class="TextPosition" x="1194" y="597"><tspan fill="rgb(0,0,0)" stroke="none">1E+8</tspan></tspan></tspan></text>
 <path fill="none" stroke="rgb(0,69,134)" stroke-width="80" stroke-linejoin="round" d="M 14057,3751 L 14857,3751"/>
 <path fill="rgb(0,69,134)" stroke="none" d="M 14351,3646 L 14351,3857 14562,3857 14562,3646 14351,3646 Z"/>
 <path fill="none" stroke="rgb(0,69,134)" stroke-linejoin="round" d="M 14351,3646 L 14351,3857 14562,3857 14562,3646 14351,3646 Z"/>
 <path fill="none" stroke="rgb(255,66,14)" stroke-width="80" stroke-linejoin="round" d="M 14057,4249 L 14857,4249"/>
 <path fill="rgb(255,66,14)" stroke="none" d="M 14351,4249 L 14457,4355 14562,4249 14457,4144 14351,4249 Z"/>
 <path fill="none" stroke="rgb(255,66,14)" stroke-linejoin="round" d="M 14351,4249 L 14457,4355 14562,4249 14457,4144 14351,4249 Z"/>
 <path fill="none" stroke="rgb(255,211,32)" stroke-width="80" stroke-linejoin="round" d="M 14057,4747 L 14857,4747"/>
 <path fill="rgb(255,211,32)" stroke="none" d="M 14351,4642 L 14457,4853 14562,4642 14351,4642 Z"/>
 <path fill="none" stroke="rgb(255,211,32)" stroke-linejoin="round" d="M 14351,4642 L 14457,4853 14562,4642 14351,4642 Z"/>
 <path fill="none" stroke="rgb(87,157,28)" stroke-width="80" stroke-linejoin="round" d="M 14057,5245 L 14857,5245"/>
 <path fill="rgb(87,157,28)" stroke="none" d="M 14351,5351 L 14562,5351 14457,5140 14351,5351 Z"/>
 <path fill="none" stroke="rgb(87,157,28)" stroke-linejoin="round" d="M 14351,5351 L 14562,5351 14457,5140 14351,5351 Z"/>
 <text class="SVGTextShape"><tspan class="TextParagraph" font-family="Liberation Sans, sans-serif" font-size="353px" font-weight="400"><tspan class="TextPosition" x="14957" y="3871"><tspan fill="rgb(0,0,0)" stroke="none">DLB</tspan></tspan></tspan></text>
 <text class="SVGTextShape"><tspan class="TextParagraph" font-family="Liberation Sans, sans-serif" font-size="353px" font-weight="400"><tspan class="TextPosition" x="14957" y="4369"><tspan fill="rgb(0,0,0)" stroke="none">CDT</tspan></tspan></tspan></text>
 <text class="SVGTextShape"><tspan class="TextParagraph" font-family="Liberation Sans, sans-serif" font-size="353px" font-weight="400"><tspan class="TextPosition" x="14957" y="4867"><tspan fill="rgb(0,0,0)" stroke="none">FAD</tspan></tspan></tspan></text>
 <text class="SVGTextShape"><tspan class="TextParagraph" font-family="Liberation Sans, sans-serif" font-size="353px" font-weight="400"><tspan class="TextPosition" x="14957" y="5365"><tspan fill="rgb(0,0,0)" stroke="none">DEL</tspan></tspan></tspan></text>
 <text class="SVGTextShape"><tspan class="TextParagraph" font-family="Liberation Sans, sans-serif" font-size="318px" font-weight="400"><tspan class="TextPosition" x="6644" y="8838"><tspan fill="rgb(0,0,0)" stroke="none">points</tspan></tspan></tspan></text>
 <text class="SVGTextShape" transform="rotate(-90 712 4974)"><tspan class="TextParagraph" font-family="Liberation Sans, sans-serif" font-size="318px" font-weight="400"><tspan class="TextPosition" x="712" y="4974"><tspan fill="rgb(0,0,0)" stroke="none">time [µs]</tspan></tspan></tspan></text>
</svg>