<?xml version="1.0" encoding="UTF-8"?>
<!DOCTYPE svg PUBLIC "-//W3C//DTD SVG 1.1//EN" "http://www.w3.org/Graphics/SVG/1.1/DTD/svg11.dtd">
<svg width="226mm" height="127mm" viewBox="0 0 22600 12700" version="1.1" xmlns="http://www.w3.org/2000/svg" xmlns:xlink="http://www.w3.org/1999/xlink" stroke-width="28.222" stroke-linejoin="round" xml:space="preserve">
 <path fill="rgb(255,255,255)" stroke="none" d="M 11289,12650 L 50,12650 50,50 22528,50 22528,12650 11289,12650 Z"/>
 <path fill="none" stroke="rgb(0,0,0)" stroke-width="100" stroke-linejoin="round" d="M 11289,12650 L 50,12650 50,50 22528,50 22528,12650 11289,12650 Z"/>
 <path fill="none" stroke="rgb(179,179,179)" stroke-linejoin="round" d="M 11136,11757 L 2585,11757 2585,499 19687,499 19687,11757 11136,11757 Z"/>
 <path fill="none" stroke="rgb(221,221,221)" stroke-linejoin="round" d="M 3155,497 L 3155,11756"/>
 <path fill="none" stroke="rgb(221,221,221)" stroke-linejoin="round" d="M 4295,497 L 4295,11756"/>
 <path fill="none" stroke="rgb(221,221,221)" stroke-linejoin="round" d="M 5436,497 L 5436,11756"/>
 <path fill="none" stroke="rgb(221,221,221)" stroke-linejoin="round" d="M 6576,497 L 6576,11756"/>
 <path fill="none" stroke="rgb(221,221,221)" stroke-linejoin="round" d="M 7715,497 L 7715,11756"/>
 <path fill="none" stroke="rgb(221,221,221)" stroke-linejoin="round" d="M 8855,497 L 8855,11756"/>
 <path fill="none" stroke="rgb(221,221,221)" stroke-linejoin="round" d="M 9995,497 L 9995,11756"/>
 <path fill="none" stroke="rgb(221,221,221)" stroke-linejoin="round" d="M 11136,497 L 11136,11756"/>
 <path fill="none" stroke="rgb(221,221,221)" stroke-linejoin="round" d="M 12276,497 L 12276,11756"/>
 <path fill="none" stroke="rgb(221,221,221)" stroke-linejoin="round" d="M 13416,497 L 13416,11756"/>
 <path fill="none" stroke="rgb(221,221,221)" stroke-linejoin="round" d="M 14556,497 L 14556,11756"/>
 <path fill="none" stroke="rgb(221,221,221)" stroke-linejoin="round" d="M 15696,497 L 15696,11756"/>
 <path fill="none" stroke="rgb(221,221,221)" stroke-linejoin="round" d="M 16836,497 L 16836,11756"/>
 <path fill="none" stroke="rgb(221,221,221)" stroke-linejoin="round" d="M 17977,497 L 17977,11756"/>
 <path fill="none" stroke="rgb(221,221,221)" stroke-linejoin="round" d="M 19116,497 L 19116,11756"/>
 <path fill="none" stroke="rgb(179,179,179)" stroke-linejoin="round" d="M 19686,11756 L 2585,11756"/>
 <path fill="none" stroke="rgb(179,179,179)" stroke-linejoin="round" d="M 19686,10147 L 2585,10147"/>
 <path fill="none" stroke="rgb(179,179,179)" stroke-linejoin="round" d="M 19686,8539 L 2585,8539"/>
 <path fill="none" stroke="rgb(179,179,179)" stroke-linejoin="round" d="M 19686,6930 L 2585,6930"/>
 <path fill="none" stroke="rgb(179,179,179)" stroke-linejoin="round" d="M 19686,5322 L 2585,5322"/>
 <path fill="none" stroke="rgb(179,179,179)" stroke-linejoin="round" d="M 19686,3713 L 2585,3713"/>
 <path fill="none" stroke="rgb(179,179,179)" stroke-linejoin="round" d="M 19686,2105 L 2585,2105"/>
 <path fill="none" stroke="rgb(179,179,179)" stroke-linejoin="round" d="M 19686,497 L 2585,497"/>
 <path fill="none" stroke="rgb(179,179,179)" stroke-linejoin="round" d="M 2585,11904 L 2585,11756"/>
 <path fill="none" stroke="rgb(179,179,179)" stroke-linejoin="round" d="M 2585,11904 L 2585,11756"/>
 <path fill="none" stroke="rgb(179,179,179)" stroke-linejoin="round" d="M 3725,11904 L 3725,11756"/>
 <path fill="none" stroke="rgb(179,179,179)" stroke-linejoin="round" d="M 3725,11904 L 3725,11756"/>
 <path fill="none" stroke="rgb(179,179,179)" stroke-linejoin="round" d="M 4865,11904 L 4865,11756"/>
 <path fill="none" stroke="rgb(179,179,179)" stroke-linejoin="round" d="M 4865,11904 L 4865,11756"/>
 <path fill="none" stroke="rgb(179,179,179)" stroke-linejoin="round" d="M 6005,11904 L 6005,11756"/>
 <path fill="none" stroke="rgb(179,179,179)" stroke-linejoin="round" d="M 6005,11904 L 6005,11756"/>
 <path fill="none" stroke="rgb(179,179,179)" stroke-linejoin="round" d="M 7145,11904 L 7145,11756"/>
 <path fill="none" stroke="rgb(179,179,179)" stroke-linejoin="round" d="M 7145,11904 L 7145,11756"/>
 <path fill="none" stroke="rgb(179,179,179)" stroke-linejoin="round" d="M 8285,11904 L 8285,11756"/>
 <path fill="none" stroke="rgb(179,179,179)" stroke-linejoin="round" d="M 8285,11904 L 8285,11756"/>
 <path fill="none" stroke="rgb(179,179,179)" stroke-linejoin="round" d="M 9426,11904 L 9426,11756"/>
 <path fill="none" stroke="rgb(179,179,179)" stroke-linejoin="round" d="M 9426,11904 L 9426,11756"/>
 <path fill="none" stroke="rgb(179,179,179)" stroke-linejoin="round" d="M 10566,11904 L 10566,11756"/>
 <path fill="none" stroke="rgb(179,179,179)" stroke-linejoin="round" d="M 10566,11904 L 10566,11756"/>
 <path fill="none" stroke="rgb(179,179,179)" stroke-linejoin="round" d="M 11706,11904 L 11706,11756"/>
 <path fill="none" stroke="rgb(179,179,179)" stroke-linejoin="round" d="M 11706,11904 L 11706,11756"/>
 <path fill="none" stroke="rgb(179,179,179)" stroke-linejoin="round" d="M 12846,11904 L 12846,11756"/>
 <path fill="none" stroke="rgb(179,179,179)" stroke-linejoin="round" d="M 12846,11904 L 12846,11756"/>
 <path fill="none" stroke="rgb(179,179,179)" stroke-linejoin="round" d="M 13985,11904 L 13985,11756"/>
 <path fill="none" stroke="rgb(179,179,179)" stroke-linejoin="round" d="M 13985,11904 L 13985,11756"/>
 <path fill="none" stroke="rgb(179,179,179)" stroke-linejoin="round" d="M 15126,11904 L 15126,11756"/>
 <path fill="none" stroke="rgb(179,179,179)" stroke-linejoin="round" d="M 15126,11904 L 15126,11756"/>
 <path fill="none" stroke="rgb(179,179,179)" stroke-linejoin="round" d="M 16266,11904 L 16266,11756"/>
 <path fill="none" stroke="rgb(179,179,179)" stroke-linejoin="round" d="M 16266,11904 L 16266,11756"/>
 <path fill="none" stroke="rgb(179,179,179)" stroke-linejoin="round" d="M 17406,11904 L 17406,11756"/>
 <path fill="none" stroke="rgb(179,179,179)" stroke-linejoin="round" d="M 17406,11904 L 17406,11756"/>
 <path fill="none" stroke="rgb(179,179,179)" stroke-linejoin="round" d="M 18546,11904 L 18546,11756"/>
 <path fill="none" stroke="rgb(179,179,179)" stroke-linejoin="round" d="M 18546,11904 L 18546,11756"/>
 <path fill="none" stroke="rgb(179,179,179)" stroke-linejoin="round" d="M 19686,11904 L 19686,11756"/>
 <path fill="none" stroke="rgb(179,179,179)" stroke-linejoin="round" d="M 19686,11904 L 19686,11756"/>
 <path fill="none" stroke="rgb(179,179,179)" stroke-linejoin="round" d="M 2585,11756 L 19686,11756"/>
 <path fill="none" stroke="rgb(179,179,179)" stroke-linejoin="round" d="M 2436,11756 L 2585,11756"/>
 <path fill="none" stroke="rgb(179,179,179)" stroke-linejoin="round" d="M 2436,11756 L 2585,11756"/>
 <path fill="none" stroke="rgb(179,179,179)" stroke-linejoin="round" d="M 2436,10147 L 2585,10147"/>
 <path fill="none" stroke="rgb(179,179,179)" stroke-linejoin="round" d="M 2436,10147 L 2585,10147"/>
 <path fill="none" stroke="rgb(179,179,179)" stroke-linejoin="round" d="M 2436,8539 L 2585,8539"/>
 <path fill="none" stroke="rgb(179,179,179)" stroke-linejoin="round" d="M 2436,8539 L 2585,8539"/>
 <path fill="none" stroke="rgb(179,179,179)" stroke-linejoin="round" d="M 2436,6930 L 2585,6930"/>
 <path fill="none" stroke="rgb(179,179,179)" stroke-linejoin="round" d="M 2436,6930 L 2585,6930"/>
 <path fill="none" stroke="rgb(179,179,179)" stroke-linejoin="round" d="M 2436,5322 L 2585,5322"/>
 <path fill="none" stroke="rgb(179,179,179)" stroke-linejoin="round" d="M 2436,5322 L 2585,5322"/>
 <path fill="none" stroke="rgb(179,179,179)" stroke-linejoin="round" d="M 2436,3714 L 2585,3714"/>
 <path fill="none" stroke="rgb(179,179,179)" stroke-linejoin="round" d="M 2436,3714 L 2585,3714"/>
 <path fill="none" stroke="rgb(179,179,179)" stroke-linejoin="round" d="M 2436,2105 L 2585,2105"/>
 <path fill="none" stroke="rgb(179,179,179)" stroke-linejoin="round" d="M 2436,2105 L 2585,2105"/>
 <path fill="none" stroke="rgb(179,179,179)" stroke-linejoin="round" d="M 2436,497 L 2585,497"/>
 <path fill="none" stroke="rgb(179,179,179)" stroke-linejoin="round" d="M 2436,497 L 2585,497"/>
 <path fill="none" stroke="rgb(179,179,179)" stroke-linejoin="round" d="M 2585,11756 L 2585,497"/>
 <path fill="none" stroke="rgb(255,66,14)" stroke-width="80" stroke-linejoin="round" d="M 2585,8178 L 3725,8143 4865,7929 6005,7762 7145,7230 8286,6820 9426,6365 10566,5750 11706,5245 12846,4797 13985,4110 15126,3499 16266,2892 17406,2093 18546,1557 19686,1031"/>
 <path fill="rgb(255,66,14)" stroke="none" d="M 2461,8178 L 2585,8302 2710,8178 2585,8054 2461,8178 Z"/>
 <path fill="none" stroke="rgb(255,66,14)" stroke-linejoin="round" d="M 2461,8178 L 2585,8302 2710,8178 2585,8054 2461,8178 Z"/>
 <path fill="rgb(255,66,14)" stroke="none" d="M 3601,8143 L 3725,8267 3850,8143 3725,8019 3601,8143 Z"/>
 <path fill="none" stroke="rgb(255,66,14)" stroke-linejoin="round" d="M 3601,8143 L 3725,8267 3850,8143 3725,8019 3601,8143 Z"/>
 <path fill="rgb(255,66,14)" stroke="none" d="M 4741,7929 L 4865,8053 4990,7929 4865,7805 4741,7929 Z"/>
 <path fill="none" stroke="rgb(255,66,14)" stroke-linejoin="round" d="M 4741,7929 L 4865,8053 4990,7929 4865,7805 4741,7929 Z"/>
 <path fill="rgb(255,66,14)" stroke="none" d="M 5881,7762 L 6005,7886 6130,7762 6005,7638 5881,7762 Z"/>
 <path fill="none" stroke="rgb(255,66,14)" stroke-linejoin="round" d="M 5881,7762 L 6005,7886 6130,7762 6005,7638 5881,7762 Z"/>
 <path fill="rgb(255,66,14)" stroke="none" d="M 7021,7230 L 7145,7355 7269,7230 7145,7106 7021,7230 Z"/>
 <path fill="none" stroke="rgb(255,66,14)" stroke-linejoin="round" d="M 7021,7230 L 7145,7355 7269,7230 7145,7106 7021,7230 Z"/>
 <path fill="rgb(255,66,14)" stroke="none" d="M 8161,6820 L 8286,6944 8410,6820 8286,6696 8161,6820 Z"/>
 <path fill="none" stroke="rgb(255,66,14)" stroke-linejoin="round" d="M 8161,6820 L 8286,6944 8410,6820 8286,6696 8161,6820 Z"/>
 <path fill="rgb(255,66,14)" stroke="none" d="M 9301,6365 L 9426,6489 9550,6365 9426,6241 9301,6365 Z"/>
 <path fill="none" stroke="rgb(255,66,14)" stroke-linejoin="round" d="M 9301,6365 L 9426,6489 9550,6365 9426,6241 9301,6365 Z"/>
 <path fill="rgb(255,66,14)" stroke="none" d="M 10441,5750 L 10566,5874 10690,5750 10566,5626 10441,5750 Z"/>
 <path fill="none" stroke="rgb(255,66,14)" stroke-linejoin="round" d="M 10441,5750 L 10566,5874 10690,5750 10566,5626 10441,5750 Z"/>
 <path fill="rgb(255,66,14)" stroke="none" d="M 11581,5245 L 11706,5369 11830,5245 11706,5121 11581,5245 Z"/>
 <path fill="none" stroke="rgb(255,66,14)" stroke-linejoin="round" d="M 11581,5245 L 11706,5369 11830,5245 11706,5121 11581,5245 Z"/>
 <path fill="rgb(255,66,14)" stroke="none" d="M 12721,4797 L 12846,4921 12970,4797 12846,4673 12721,4797 Z"/>
 <path fill="none" stroke="rgb(255,66,14)" stroke-linejoin="round" d="M 12721,4797 L 12846,4921 12970,4797 12846,4673 12721,4797 Z"/>
 <path fill="rgb(255,66,14)" stroke="none" d="M 13861,4110 L 13985,4234 14110,4110 13985,3986 13861,4110 Z"/>
 <path fill="none" stroke="rgb(255,66,14)" stroke-linejoin="round" d="M 13861,4110 L 13985,4234 14110,4110 13985,3986 13861,4110 Z"/>
 <path fill="rgb(255,66,14)" stroke="none" d="M 15002,3499 L 15126,3623 15251,3499 15126,3375 15002,3499 Z"/>
 <path fill="none" stroke="rgb(255,66,14)" stroke-linejoin="round" d="M 15002,3499 L 15126,3623 15251,3499 15126,3375 15002,3499 Z"/>
 <path fill="rgb(255,66,14)" stroke="none" d="M 16142,2892 L 16266,3016 16391,2892 16266,2768 16142,2892 Z"/>
 <path fill="none" stroke="rgb(255,66,14)" stroke-linejoin="round" d="M 16142,2892 L 16266,3016 16391,2892 16266,2768 16142,2892 Z"/>
 <path fill="rgb(255,66,14)" stroke="none" d="M 17282,2093 L 17406,2217 17531,2093 17406,1969 17282,2093 Z"/>
 <path fill="none" stroke="rgb(255,66,14)" stroke-linejoin="round" d="M 17282,2093 L 17406,2217 17531,2093 17406,1969 17282,2093 Z"/>
 <path fill="rgb(255,66,14)" stroke="none" d="M 18422,1557 L 18546,1681 18670,1557 18546,1433 18422,1557 Z"/>
 <path fill="none" stroke="rgb(255,66,14)" stroke-linejoin="round" d="M 18422,1557 L 18546,1681 18670,1557 18546,1433 18422,1557 Z"/>
 <path fill="rgb(255,66,14)" stroke="none" d="M 19561,1031 L 19686,1155 19810,1031 19686,907 19561,1031 Z"/>
 <path fill="none" stroke="rgb(255,66,14)" stroke-linejoin="round" d="M 19561,1031 L 19686,1155 19810,1031 19686,907 19561,1031 Z"/>
 <path fill="none" stroke="rgb(255,211,32)" stroke-width="80" stroke-linejoin="round" d="M 2585,9080 L 3725,8803 4865,8378 6005,8068 7145,7380 8286,6768 9426,6165 10566,5307 11706,4583 12846,3797 13985,2790 15126,2182 16266,1364"/>
 <path fill="rgb(255,211,32)" stroke="none" d="M 2461,8956 L 2585,9204 2710,8956 2461,8956 Z"/>
 <path fill="none" stroke="rgb(255,211,32)" stroke-linejoin="round" d="M 2461,8956 L 2585,9204 2710,8956 2461,8956 Z"/>
 <path fill="rgb(255,211,32)" stroke="none" d="M 3601,8679 L 3725,8927 3850,8679 3601,8679 Z"/>
 <path fill="none" stroke="rgb(255,211,32)" stroke-linejoin="round" d="M 3601,8679 L 3725,8927 3850,8679 3601,8679 Z"/>
 <path fill="rgb(255,211,32)" stroke="none" d="M 4741,8254 L 4865,8502 4990,8254 4741,8254 Z"/>
 <path fill="none" stroke="rgb(255,211,32)" stroke-linejoin="round" d="M 4741,8254 L 4865,8502 4990,8254 4741,8254 Z"/>
 <path fill="rgb(255,211,32)" stroke="none" d="M 5881,7944 L 6005,8192 6130,7944 5881,7944 Z"/>
 <path fill="none" stroke="rgb(255,211,32)" stroke-linejoin="round" d="M 5881,7944 L 6005,8192 6130,7944 5881,7944 Z"/>
 <path fill="rgb(255,211,32)" stroke="none" d="M 7021,7256 L 7145,7504 7269,7256 7021,7256 Z"/>
 <path fill="none" stroke="rgb(255,211,32)" stroke-linejoin="round" d="M 7021,7256 L 7145,7504 7269,7256 7021,7256 Z"/>
 <path fill="rgb(255,211,32)" stroke="none" d="M 8161,6644 L 8286,6892 8410,6644 8161,6644 Z"/>
 <path fill="none" stroke="rgb(255,211,32)" stroke-linejoin="round" d="M 8161,6644 L 8286,6892 8410,6644 8161,6644 Z"/>
 <path fill="rgb(255,211,32)" stroke="none" d="M 9301,6041 L 9426,6289 9550,6041 9301,6041 Z"/>
 <path fill="none" stroke="rgb(255,211,32)" stroke-linejoin="round" d="M 9301,6041 L 9426,6289 9550,6041 9301,6041 Z"/>
 <path fill="rgb(255,211,32)" stroke="none" d="M 10441,5183 L 10566,5431 10690,5183 10441,5183 Z"/>
 <path fill="none" stroke="rgb(255,211,32)" stroke-linejoin="round" d="M 10441,5183 L 10566,5431 10690,5183 10441,5183 Z"/>
 <path fill="rgb(255,211,32)" stroke="none" d="M 11581,4459 L 11706,4707 11830,4459 11581,4459 Z"/>
 <path fill="none" stroke="rgb(255,211,32)" stroke-linejoin="round" d="M 11581,4459 L 11706,4707 11830,4459 11581,4459 Z"/>
 <path fill="rgb(255,211,32)" stroke="none" d="M 12721,3673 L 12846,3921 12970,3673 12721,3673 Z"/>
 <path fill="none" stroke="rgb(255,211,32)" stroke-linejoin="round" d="M 12721,3673 L 12846,3921 12970,3673 12721,3673 Z"/>
 <path fill="rgb(255,211,32)" stroke="none" d="M 13861,2666 L 13985,2914 14110,2666 13861,2666 Z"/>
 <path fill="none" stroke="rgb(255,211,32)" stroke-linejoin="round" d="M 13861,2666 L 13985,2914 14110,2666 13861,2666 Z"/>
 <path fill="rgb(255,211,32)" stroke="none" d="M 15002,2058 L 15126,2306 15251,2058 15002,2058 Z"/>
 <path fill="none" stroke="rgb(255,211,32)" stroke-linejoin="round" d="M 15002,2058 L 15126,2306 15251,2058 15002,2058 Z"/>
 <path fill="rgb(255,211,32)" stroke="none" d="M 16142,1240 L 16266,1488 16391,1240 16142,1240 Z"/>
 <path fill="none" stroke="rgb(255,211,32)" stroke-linejoin="round" d="M 16142,1240 L 16266,1488 16391,1240 16142,1240 Z"/>
 <path fill="none" stroke="rgb(126,0,33)" stroke-width="80" stroke-linejoin="round" d="M 2585,8349 L 3725,9045 4865,8745 6005,8650 7145,8348 8286,8108 9426,7665 10566,7167 11706,6631 12846,6193 13985,5518 15126,5018 16266,4451 17406,3741 18546,3206 19686,2675"/>
 <path fill="rgb(126,0,33)" stroke="none" d="M 2461,8225 L 2461,8473 2710,8349 2461,8225 Z"/>
 <path fill="none" stroke="rgb(126,0,33)" stroke-linejoin="round" d="M 2461,8225 L 2461,8473 2710,8349 2461,8225 Z"/>
 <path fill="rgb(126,0,33)" stroke="none" d="M 3601,8921 L 3601,9169 3850,9045 3601,8921 Z"/>
 <path fill="none" stroke="rgb(126,0,33)" stroke-linejoin="round" d="M 3601,8921 L 3601,9169 3850,9045 3601,8921 Z"/>
 <path fill="rgb(126,0,33)" stroke="none" d="M 4741,8621 L 4741,8869 4990,8745 4741,8621 Z"/>
 <path fill="none" stroke="rgb(126,0,33)" stroke-linejoin="round" d="M 4741,8621 L 4741,8869 4990,8745 4741,8621 Z"/>
 <path fill="rgb(126,0,33)" stroke="none" d="M 5881,8526 L 5881,8774 6130,8650 5881,8526 Z"/>
 <path fill="none" stroke="rgb(126,0,33)" stroke-linejoin="round" d="M 5881,8526 L 5881,8774 6130,8650 5881,8526 Z"/>
 <path fill="rgb(126,0,33)" stroke="none" d="M 7021,8224 L 7021,8472 7269,8348 7021,8224 Z"/>
 <path fill="none" stroke="rgb(126,0,33)" stroke-linejoin="round" d="M 7021,8224 L 7021,8472 7269,8348 7021,8224 Z"/>
 <path fill="rgb(126,0,33)" stroke="none" d="M 8161,7984 L 8161,8232 8410,8108 8161,7984 Z"/>
 <path fill="none" stroke="rgb(126,0,33)" stroke-linejoin="round" d="M 8161,7984 L 8161,8232 8410,8108 8161,7984 Z"/>
 <path fill="rgb(126,0,33)" stroke="none" d="M 9301,7541 L 9301,7789 9550,7665 9301,7541 Z"/>
 <path fill="none" stroke="rgb(126,0,33)" stroke-linejoin="round" d="M 9301,7541 L 9301,7789 9550,7665 9301,7541 Z"/>
 <path fill="rgb(126,0,33)" stroke="none" d="M 10441,7043 L 10441,7291 10690,7167 10441,7043 Z"/>
 <path fill="none" stroke="rgb(126,0,33)" stroke-linejoin="round" d="M 10441,7043 L 10441,7291 10690,7167 10441,7043 Z"/>
 <path fill="rgb(126,0,33)" stroke="none" d="M 11581,6507 L 11581,6755 11830,6631 11581,6507 Z"/>
 <path fill="none" stroke="rgb(126,0,33)" stroke-linejoin="round" d="M 11581,6507 L 11581,6755 11830,6631 11581,6507 Z"/>
 <path fill="rgb(126,0,33)" stroke="none" d="M 12721,6069 L 12721,6317 12970,6193 12721,6069 Z"/>
 <path fill="none" stroke="rgb(126,0,33)" stroke-linejoin="round" d="M 12721,6069 L 12721,6317 12970,6193 12721,6069 Z"/>
 <path fill="rgb(126,0,33)" stroke="none" d="M 13861,5394 L 13861,5642 14110,5518 13861,5394 Z"/>
 <path fill="none" stroke="rgb(126,0,33)" stroke-linejoin="round" d="M 13861,5394 L 13861,5642 14110,5518 13861,5394 Z"/>
 <path fill="rgb(126,0,33)" stroke="none" d="M 15002,4894 L 15002,5142 15251,5018 15002,4894 Z"/>
 <path fill="none" stroke="rgb(126,0,33)" stroke-linejoin="round" d="M 15002,4894 L 15002,5142 15251,5018 15002,4894 Z"/>
 <path fill="rgb(126,0,33)" stroke="none" d="M 16142,4327 L 16142,4575 16391,4451 16142,4327 Z"/>
 <path fill="none" stroke="rgb(126,0,33)" stroke-linejoin="round" d="M 16142,4327 L 16142,4575 16391,4451 16142,4327 Z"/>
 <path fill="rgb(126,0,33)" stroke="none" d="M 17282,3617 L 17282,3865 17531,3741 17282,3617 Z"/>
 <path fill="none" stroke="rgb(126,0,33)" stroke-linejoin="round" d="M 17282,3617 L 17282,3865 17531,3741 17282,3617 Z"/>
 <path fill="rgb(126,0,33)" stroke="none" d="M 18422,3081 L 18422,3330 18670,3206 18422,3081 Z"/>
 <path fill="none" stroke="rgb(126,0,33)" stroke-linejoin="round" d="M 18422,3081 L 18422,3330 18670,3206 18422,3081 Z"/>
 <path fill="rgb(126,0,33)" stroke="none" d="M 19561,2551 L 19561,2799 19810,2675 19561,2551 Z"/>
 <path fill="none" stroke="rgb(126,0,33)" stroke-linejoin="round" d="M 19561,2551 L 19561,2799 19810,2675 19561,2551 Z"/>
 <path fill="none" stroke="rgb(87,157,28)" stroke-width="80" stroke-linejoin="round" d="M 2585,9330 L 3725,9313 4865,8906 6005,8516 7145,7952 8286,7545 9426,7091 10566,6478 11706,5937 12846,5475 13985,4785 15126,4237 16266,3632 17406,2848 18546,2311 19686,1771"/>
 <path fill="rgb(87,157,28)" stroke="none" d="M 2461,9454 L 2710,9454 2585,9206 2461,9454 Z"/>
 <path fill="none" stroke="rgb(87,157,28)" stroke-linejoin="round" d="M 2461,9454 L 2710,9454 2585,9206 2461,9454 Z"/>
 <path fill="rgb(87,157,28)" stroke="none" d="M 3601,9437 L 3850,9437 3725,9189 3601,9437 Z"/>
 <path fill="none" stroke="rgb(87,157,28)" stroke-linejoin="round" d="M 3601,9437 L 3850,9437 3725,9189 3601,9437 Z"/>
 <path fill="rgb(87,157,28)" stroke="none" d="M 4741,9030 L 4990,9030 4865,8782 4741,9030 Z"/>
 <path fill="none" stroke="rgb(87,157,28)" stroke-linejoin="round" d="M 4741,9030 L 4990,9030 4865,8782 4741,9030 Z"/>
 <path fill="rgb(87,157,28)" stroke="none" d="M 5881,8640 L 6130,8640 6005,8392 5881,8640 Z"/>
 <path fill="none" stroke="rgb(87,157,28)" stroke-linejoin="round" d="M 5881,8640 L 6130,8640 6005,8392 5881,8640 Z"/>
 <path fill="rgb(87,157,28)" stroke="none" d="M 7021,8076 L 7269,8076 7145,7828 7021,8076 Z"/>
 <path fill="none" stroke="rgb(87,157,28)" stroke-linejoin="round" d="M 7021,8076 L 7269,8076 7145,7828 7021,8076 Z"/>
 <path fill="rgb(87,157,28)" stroke="none" d="M 8161,7669 L 8410,7669 8286,7421 8161,7669 Z"/>
 <path fill="none" stroke="rgb(87,157,28)" stroke-linejoin="round" d="M 8161,7669 L 8410,7669 8286,7421 8161,7669 Z"/>
 <path fill="rgb(87,157,28)" stroke="none" d="M 9301,7215 L 9550,7215 9426,6967 9301,7215 Z"/>
 <path fill="none" stroke="rgb(87,157,28)" stroke-linejoin="round" d="M 9301,7215 L 9550,7215 9426,6967 9301,7215 Z"/>
 <path fill="rgb(87,157,28)" stroke="none" d="M 10441,6602 L 10690,6602 10566,6354 10441,6602 Z"/>
 <path fill="none" stroke="rgb(87,157,28)" stroke-linejoin="round" d="M 10441,6602 L 10690,6602 10566,6354 10441,6602 Z"/>
 <path fill="rgb(87,157,28)" stroke="none" d="M 11581,6061 L 11830,6061 11706,5813 11581,6061 Z"/>
 <path fill="none" stroke="rgb(87,157,28)" stroke-linejoin="round" d="M 11581,6061 L 11830,6061 11706,5813 11581,6061 Z"/>
 <path fill="rgb(87,157,28)" stroke="none" d="M 12721,5599 L 12970,5599 12846,5351 12721,5599 Z"/>
 <path fill="none" stroke="rgb(87,157,28)" stroke-linejoin="round" d="M 12721,5599 L 12970,5599 12846,5351 12721,5599 Z"/>
 <path fill="rgb(87,157,28)" stroke="none" d="M 13861,4909 L 14110,4909 13985,4661 13861,4909 Z"/>
 <path fill="none" stroke="rgb(87,157,28)" stroke-linejoin="round" d="M 13861,4909 L 14110,4909 13985,4661 13861,4909 Z"/>
 <path fill="rgb(87,157,28)" stroke="none" d="M 15002,4361 L 15251,4361 15126,4113 15002,4361 Z"/>
 <path fill="none" stroke="rgb(87,157,28)" stroke-linejoin="round" d="M 15002,4361 L 15251,4361 15126,4113 15002,4361 Z"/>
 <path fill="rgb(87,157,28)" stroke="none" d="M 16142,3756 L 16391,3756 16266,3508 16142,3756 Z"/>
 <path fill="none" stroke="rgb(87,157,28)" stroke-linejoin="round" d="M 16142,3756 L 16391,3756 16266,3508 16142,3756 Z"/>
 <path fill="rgb(87,157,28)" stroke="none" d="M 17282,2972 L 17531,2972 17406,2724 17282,2972 Z"/>
 <path fill="none" stroke="rgb(87,157,28)" stroke-linejoin="round" d="M 17282,2972 L 17531,2972 17406,2724 17282,2972 Z"/>
 <path fill="rgb(87,157,28)" stroke="none" d="M 18422,2435 L 18670,2435 18546,2187 18422,2435 Z"/>
 <path fill="none" stroke="rgb(87,157,28)" stroke-linejoin="round" d="M 18422,2435 L 18670,2435 18546,2187 18422,2435 Z"/>
 <path fill="rgb(87,157,28)" stroke="none" d="M 19561,1895 L 19810,1895 19686,1647 19561,1895 Z"/>
 <path fill="none" stroke="rgb(87,157,28)" stroke-linejoin="round" d="M 19561,1895 L 19810,1895 19686,1647 19561,1895 Z"/>
 <path fill="none" stroke="rgb(0,69,134)" stroke-width="80" stroke-linejoin="round" d="M 2585,10074 L 3725,9628 4865,9172 6005,8795 7145,8040 8286,7716 9426,7268 10566,6630 11706,6160 12846,5683 13985,4995 15126,4513 16266,3950 17406,3273 18546,2696 19686,2196"/>
 <path fill="rgb(0,69,134)" stroke="none" d="M 2461,9950 L 2461,10198 2710,10198 2710,9950 2461,9950 Z"/>
 <path fill="none" stroke="rgb(0,69,134)" stroke-linejoin="round" d="M 2461,9950 L 2461,10198 2710,10198 2710,9950 2461,9950 Z"/>
 <path fill="rgb(0,69,134)" stroke="none" d="M 3601,9504 L 3601,9752 3850,9752 3850,9504 3601,9504 Z"/>
 <path fill="none" stroke="rgb(0,69,134)" stroke-linejoin="round" d="M 3601,9504 L 3601,9752 3850,9752 3850,9504 3601,9504 Z"/>
 <path fill="rgb(0,69,134)" stroke="none" d="M 4741,9048 L 4741,9296 4990,9296 4990,9048 4741,9048 Z"/>
 <path fill="none" stroke="rgb(0,69,134)" stroke-linejoin="round" d="M 4741,9048 L 4741,9296 4990,9296 4990,9048 4741,9048 Z"/>
 <path fill="rgb(0,69,134)" stroke="none" d="M 5881,8671 L 5881,8919 6130,8919 6130,8671 5881,8671 Z"/>
 <path fill="none" stroke="rgb(0,69,134)" stroke-linejoin="round" d="M 5881,8671 L 5881,8919 6130,8919 6130,8671 5881,8671 Z"/>
 <path fill="rgb(0,69,134)" stroke="none" d="M 7021,7916 L 7021,8164 7269,8164 7269,7916 7021,7916 Z"/>
 <path fill="none" stroke="rgb(0,69,134)" stroke-linejoin="round" d="M 7021,7916 L 7021,8164 7269,8164 7269,7916 7021,7916 Z"/>
 <path fill="rgb(0,69,134)" stroke="none" d="M 8161,7592 L 8161,7840 8410,7840 8410,7592 8161,7592 Z"/>
 <path fill="none" stroke="rgb(0,69,134)" stroke-linejoin="round" d="M 8161,7592 L 8161,7840 8410,7840 8410,7592 8161,7592 Z"/>
 <path fill="rgb(0,69,134)" stroke="none" d="M 9301,7144 L 9301,7392 9550,7392 9550,7144 9301,7144 Z"/>
 <path fill="none" stroke="rgb(0,69,134)" stroke-linejoin="round" d="M 9301,7144 L 9301,7392 9550,7392 9550,7144 9301,7144 Z"/>
 <path fill="rgb(0,69,134)" stroke="none" d="M 10441,6506 L 10441,6754 10690,6754 10690,6506 10441,6506 Z"/>
 <path fill="none" stroke="rgb(0,69,134)" stroke-linejoin="round" d="M 10441,6506 L 10441,6754 10690,6754 10690,6506 10441,6506 Z"/>
 <path fill="rgb(0,69,134)" stroke="none" d="M 11581,6036 L 11581,6284 11830,6284 11830,6036 11581,6036 Z"/>
 <path fill="none" stroke="rgb(0,69,134)" stroke-linejoin="round" d="M 11581,6036 L 11581,6284 11830,6284 11830,6036 11581,6036 Z"/>
 <path fill="rgb(0,69,134)" stroke="none" d="M 12721,5559 L 12721,5807 12970,5807 12970,5559 12721,5559 Z"/>
 <path fill="none" stroke="rgb(0,69,134)" stroke-linejoin="round" d="M 12721,5559 L 12721,5807 12970,5807 12970,5559 12721,5559 Z"/>
 <path fill="rgb(0,69,134)" stroke="none" d="M 13861,4871 L 13861,5119 14110,5119 14110,4871 13861,4871 Z"/>
 <path fill="none" stroke="rgb(0,69,134)" stroke-linejoin="round" d="M 13861,4871 L 13861,5119 14110,5119 14110,4871 13861,4871 Z"/>
 <path fill="rgb(0,69,134)" stroke="none" d="M 15002,4389 L 15002,4637 15251,4637 15251,4389 15002,4389 Z"/>
 <path fill="none" stroke="rgb(0,69,134)" stroke-linejoin="round" d="M 15002,4389 L 15002,4637 15251,4637 15251,4389 15002,4389 Z"/>
 <path fill="rgb(0,69,134)" stroke="none" d="M 16142,3826 L 16142,4074 16391,4074 16391,3826 16142,3826 Z"/>
 <path fill="none" stroke="rgb(0,69,134)" stroke-linejoin="round" d="M 16142,3826 L 16142,4074 16391,4074 16391,3826 16142,3826 Z"/>
 <path fill="rgb(0,69,134)" stroke="none" d="M 17282,3149 L 17282,3397 17531,3397 17531,3149 17282,3149 Z"/>
 <path fill="none" stroke="rgb(0,69,134)" stroke-linejoin="round" d="M 17282,3149 L 17282,3397 17531,3397 17531,3149 17282,3149 Z"/>
 <path fill="rgb(0,69,134)" stroke="none" d="M 18422,2572 L 18422,2820 18670,2820 18670,2572 18422,2572 Z"/>
 <path fill="none" stroke="rgb(0,69,134)" stroke-linejoin="round" d="M 18422,2572 L 18422,2820 18670,2820 18670,2572 18422,2572 Z"/>
 <path fill="rgb(0,69,134)" stroke="none" d="M 19561,2072 L 19561,2320 19810,2320 19810,2072 19561,2072 Z"/>
 <path fill="none" stroke="rgb(0,69,134)" stroke-linejoin="round" d="M 19561,2072 L 19561,2320 19810,2320 19810,2072 19561,2072 Z"/>
 <text class="SVGTextShape"><tspan class="TextParagraph" font-family="Liberation Sans, sans-serif" font-size="350px" font-weight="400"><tspan class="TextPosition" x="2289" y="12319"><tspan fill="rgb(0,0,0)" stroke="none">100</tspan></tspan></tspan></text>
 <text class="SVGTextShape"><tspan class="TextParagraph" font-family="Liberation Sans, sans-serif" font-size="350px" font-weight="400"><tspan class="TextPosition" x="3429" y="12319"><tspan fill="rgb(0,0,0)" stroke="none">250</tspan></tspan></tspan></text>
 <text class="SVGTextShape"><tspan class="TextParagraph" font-family="Liberation Sans, sans-serif" font-size="350px" font-weight="400"><tspan class="TextPosition" x="4569" y="12319"><tspan fill="rgb(0,0,0)" stroke="none">500</tspan></tspan></tspan></text>
 <text class="SVGTextShape"><tspan class="TextParagraph" font-family="Liberation Sans, sans-serif" font-size="350px" font-weight="400"><tspan class="TextPosition" x="5788" y="12319"><tspan fill="rgb(0,0,0)" stroke="none">1K</tspan></tspan></tspan></text>
 <text class="SVGTextShape"><tspan class="TextParagraph" font-family="Liberation Sans, sans-serif" font-size="350px" font-weight="400"><tspan class="TextPosition" x="6776" y="12319"><tspan fill="rgb(0,0,0)" stroke="none">2.5K</tspan></tspan></tspan></text>
 <text class="SVGTextShape"><tspan class="TextParagraph" font-family="Liberation Sans, sans-serif" font-size="350px" font-weight="400"><tspan class="TextPosition" x="8067" y="12319"><tspan fill="rgb(0,0,0)" stroke="none">5K</tspan></tspan></tspan></text>
 <text class="SVGTextShape"><tspan class="TextParagraph" font-family="Liberation Sans, sans-serif" font-size="350px" font-weight="400"><tspan class="TextPosition" x="9110" y="12319"><tspan fill="rgb(0,0,0)" stroke="none">10K</tspan></tspan></tspan></text>
 <text class="SVGTextShape"><tspan class="TextParagraph" font-family="Liberation Sans, sans-serif" font-size="350px" font-weight="400"><tspan class="TextPosition" x="10250" y="12319"><tspan fill="rgb(0,0,0)" stroke="none">25K</tspan></tspan></tspan></text>
 <text class="SVGTextShape"><tspan class="TextParagraph" font-family="Liberation Sans, sans-serif" font-size="350px" font-weight="400"><tspan class="TextPosition" x="11390" y="12319"><tspan fill="rgb(0,0,0)" stroke="none">50K</tspan></tspan></tspan></text>
 <text class="SVGTextShape"><tspan class="TextParagraph" font-family="Liberation Sans, sans-serif" font-size="350px" font-weight="400"><tspan class="TextPosition" x="12431" y="12319"><tspan fill="rgb(0,0,0)" stroke="none">100K</tspan></tspan></tspan></text>
 <text class="SVGTextShape"><tspan class="TextParagraph" font-family="Liberation Sans, sans-serif" font-size="350px" font-weight="400"><tspan class="TextPosition" x="13571" y="12319"><tspan fill="rgb(0,0,0)" stroke="none">250K</tspan></tspan></tspan></text>
 <text class="SVGTextShape"><tspan class="TextParagraph" font-family="Liberation Sans, sans-serif" font-size="350px" font-weight="400"><tspan class="TextPosition" x="14712" y="12319"><tspan fill="rgb(0,0,0)" stroke="none">500K</tspan></tspan></tspan></text>
 <text class="SVGTextShape"><tspan class="TextParagraph" font-family="Liberation Sans, sans-serif" font-size="350px" font-weight="400"><tspan class="TextPosition" x="16023" y="12319"><tspan fill="rgb(0,0,0)" stroke="none">1M</tspan></tspan></tspan></text>
 <text class="SVGTextShape"><tspan class="TextParagraph" font-family="Liberation Sans, sans-serif" font-size="350px" font-weight="400"><tspan class="TextPosition" x="17011" y="12319"><tspan fill="rgb(0,0,0)" stroke="none">2.5M</tspan></tspan></tspan></text>
 <text class="SVGTextShape"><tspan class="TextParagraph" font-family="Liberation Sans, sans-serif" font-size="350px" font-weight="400"><tspan class="TextPosition" x="18303" y="12319"><tspan fill="rgb(0,0,0)" stroke="none">5M</tspan></tspan></tspan></text>
 <text class="SVGTextShape"><tspan class="TextParagraph" font-family="Liberation Sans, sans-serif" font-size="350px" font-weight="400"><tspan class="TextPosition" x="19344" y="12319"><tspan fill="rgb(0,0,0)" stroke="none">10M</tspan></tspan></tspan></text>
 <text class="SVGTextShape"><tspan class="TextParagraph" font-family="Liberation Sans, sans-serif" font-size="350px" font-weight="400"><tspan class="TextPosition" x="1493" y="11875"><tspan fill="rgb(0,0,0)" stroke="none">1E+1</tspan></tspan></tspan></text>
 <text class="SVGTextShape"><tspan class="TextParagraph" font-family="Liberation Sans, sans-serif" font-size="350px" font-weight="400"><tspan class="TextPosition" x="1493" y="10267"><tspan fill="rgb(0,0,0)" stroke="none">1E+2</tspan></tspan></tspan></text>
 <text class="SVGTextShape"><tspan class="TextParagraph" font-family="Liberation Sans, sans-serif" font-size="350px" font-weight="400"><tspan class="TextPosition" x="1493" y="8659"><tspan fill="rgb(0,0,0)" stroke="none">1E+3</tspan></tspan></tspan></text>
 <text class="SVGTextShape"><tspan class="TextParagraph" font-family="Liberation Sans, sans-serif" font-size="350px" font-weight="400"><tspan class="TextPosition" x="1493" y="7049"><tspan fill="rgb(0,0,0)" stroke="none">1E+4</tspan></tspan></tspan></text>
 <text class="SVGTextShape"><tspan class="TextParagraph" font-family="Liberation Sans, sans-serif" font-size="350px" font-weight="400"><tspan class="TextPosition" x="1493" y="5441"><tspan fill="rgb(0,0,0)" stroke="none">1E+5</tspan></tspan></tspan></text>
 <text class="SVGTextShape"><tspan class="TextParagraph" font-family="Liberation Sans, sans-serif" font-size="350px" font-weight="400"><tspan class="TextPosition" x="1493" y="3834"><tspan fill="rgb(0,0,0)" stroke="none">1E+6</tspan></tspan></tspan></text>
 <text class="SVGTextShape"><tspan class="TextParagraph" font-family="Liberation Sans, sans-serif" font-size="350px" font-weight="400"><tspan class="TextPosition" x="1493" y="2225"><tspan fill="rgb(0,0,0)" stroke="none">1E+7</tspan></tspan></tspan></text>
 <text class="SVGTextShape"><tspan class="TextParagraph" font-family="Liberation Sans, sans-serif" font-size="350px" font-weight="400"><tspan class="TextPosition" x="1493" y="617"><tspan fill="rgb(0,0,0)" stroke="none">1E+8</tspan></tspan></tspan></text>
 <path fill="none" stroke="rgb(255,66,14)" stroke-width="80" stroke-linejoin="round" d="M 20595,5360 L 21391,5360"/>
 <path fill="rgb(255,66,14)" stroke="none" d="M 20888,5360 L 20993,5466 21098,5360 20993,5256 20888,5360 Z"/>
 <path fill="none" stroke="rgb(255,66,14)" stroke-linejoin="round" d="M 20888,5360 L 20993,5466 21098,5360 20993,5256 20888,5360 Z"/>
 <path fill="none" stroke="rgb(255,211,32)" stroke-width="80" stroke-linejoin="round" d="M 20595,5854 L 21391,5854"/>
 <path fill="rgb(255,211,32)" stroke="none" d="M 20888,5750 L 20993,5960 21098,5750 20888,5750 Z"/>
 <path fill="none" stroke="rgb(255,211,32)" stroke-linejoin="round" d="M 20888,5750 L 20993,5960 21098,5750 20888,5750 Z"/>
 <path fill="none" stroke="rgb(126,0,33)" stroke-width="80" stroke-linejoin="round" d="M 20595,6349 L 21391,6349"/>
 <path fill="rgb(126,0,33)" stroke="none" d="M 20888,6244 L 20888,6454 21098,6349 20888,6244 Z"/>
 <path fill="none" stroke="rgb(126,0,33)" stroke-linejoin="round" d="M 20888,6244 L 20888,6454 21098,6349 20888,6244 Z"/>
 <path fill="none" stroke="rgb(87,157,28)" stroke-width="80" stroke-linejoin="round" d="M 20595,6843 L 21391,6843"/>
 <path fill="rgb(87,157,28)" stroke="none" d="M 20888,6948 L 21098,6948 20993,6738 20888,6948 Z"/>
 <path fill="none" stroke="rgb(87,157,28)" stroke-linejoin="round" d="M 20888,6948 L 21098,6948 20993,6738 20888,6948 Z"/>
 <path fill="none" stroke="rgb(0,69,134)" stroke-width="80" stroke-linejoin="round" d="M 20595,7337 L 21391,7337"/>
 <path fill="rgb(0,69,134)" stroke="none" d="M 20888,7232 L 20888,7442 21098,7442 21098,7232 20888,7232 Z"/>
 <path fill="none" stroke="rgb(0,69,134)" stroke-linejoin="round" d="M 20888,7232 L 20888,7442 21098,7442 21098,7232 20888,7232 Z"/>
 <text class="SVGTextShape"><tspan class="TextParagraph" font-family="Liberation Sans, sans-serif" font-size="350px" font-weight="400"><tspan class="TextPosition" x="21491" y="5479"><tspan fill="rgb(0,0,0)" stroke="none">CDT</tspan></tspan></tspan></text>
 <text class="SVGTextShape"><tspan class="TextParagraph" font-family="Liberation Sans, sans-serif" font-size="350px" font-weight="400"><tspan class="TextPosition" x="21491" y="5973"><tspan fill="rgb(0,0,0)" stroke="none">FAD</tspan></tspan></tspan></text>
 <text class="SVGTextShape"><tspan class="TextParagraph" font-family="Liberation Sans, sans-serif" font-size="350px" font-weight="400"><tspan class="TextPosition" x="21491" y="6468"><tspan fill="rgb(0,0,0)" stroke="none">DEL</tspan></tspan></tspan></text>
 <text class="SVGTextShape"><tspan class="TextParagraph" font-family="Liberation Sans, sans-serif" font-size="350px" font-weight="400"><tspan class="TextPosition" x="21491" y="6962"><tspan fill="rgb(0,0,0)" stroke="none">TRI</tspan></tspan></tspan></text>
 <text class="SVGTextShape"><tspan class="TextParagraph" font-family="Liberation Sans, sans-serif" font-size="350px" font-weight="400"><tspan class="TextPosition" x="21491" y="7456"><tspan fill="rgb(0,0,0)" stroke="none">DLB</tspan></tspan></tspan></text>
 <text class="SVGTextShape" transform="rotate(-90 884 6953)"><tspan class="TextParagraph" font-family="Liberation Sans, sans-serif" font-size="317px" font-weight="400"><tspan class="TextPosition" x="884" y="6953"><tspan fill="rgb(0,0,0)" stroke="none">time [µs]</tspan></tspan></tspan></text>
</svg>