<?xml version="1.0" encoding="UTF-8"?>
<!DOCTYPE svg PUBLIC "-//W3C//DTD SVG 1.1//EN" "http://www.w3.org/Graphics/SVG/1.1/DTD/svg11.dtd">
<svg width="226mm" height="127mm" viewBox="0 0 22600 12700" version="1.1" xmlns="http://www.w3.org/2000/svg" xmlns:xlink="http://www.w3.org/1999/xlink" stroke-width="28.222" stroke-linejoin="round" xml:space="preserve">
 <path fill="rgb(255,255,255)" stroke="none" d="M 11289,12650 L 50,12650 50,50 22528,50 22528,12650 11289,12650 Z"/>
 <path fill="none" stroke="rgb(0,0,0)" stroke-width="100" stroke-linejoin="round" d="M 11289,12650 L 50,12650 50,50 22528,50 22528,12650 11289,12650 Z"/>
 <path fill="none" stroke="rgb(179,179,179)" stroke-linejoin="round" d="M 11136,11757 L 2585,11757 2585,499 19687,499 19687,11757 11136,11757 Z"/>
 <path fill="none" stroke="rgb(221,221,221)" stroke-linejoin="round" d="M 3155,497 L 3155,11756"/>
 <path fill="none" stroke="rgb(221,221,221)" stroke-linejoin="round" d="M 4295,497 L 4295,11756"/>
 <path fill="none" stroke="rgb(221,221,221)" stroke-linejoin="round" d="M 5436,497 L 5436,11756"/>
 <path fill="none" stroke="rgb(221,221,221)" stroke-linejoin="round" d="M 6576,497 L 6576,11756"/>
 <path fill="none" stroke="rgb(221,221,221)" stroke-linejoin="round" d="M 7715,497 L 7715,11756"/>
 <path fill="none" stroke="rgb(221,221,221)" stroke-linejoin="round" d="M 8855,497 L 8855,11756"/>
 <path fill="none" stroke="rgb(221,221,221)" stroke-linejoin="round" d="M 9995,497 L 9995,11756"/>
 <path fill="none" stroke="rgb(221,221,221)" stroke-linejoin="round" d="M 11136,497 L 11136,11756"/>
 <path fill="none" stroke="rgb(221,221,221)" stroke-linejoin="round" d="M 12276,497 L 12276,11756"/>
 <path fill="none" stroke="rgb(221,221,221)" stroke-linejoin="round" d="M 13416,497 L 13416,11756"/>
 <path fill="none" stroke="rgb(221,221,221)" stroke-linejoin="round" d="M 14556,497 L 14556,11756"/>
 <path fill="none" stroke="rgb(221,221,221)" stroke-linejoin="round" d="M 15696,497 L 15696,11756"/>
 <path fill="none" stroke="rgb(221,221,221)" stroke-linejoin="round" d="M 16836,497 L 16836,11756"/>
 <path fill="none" stroke="rgb(221,221,221)" stroke-linejoin="round" d="M 17977,497 L 17977,11756"/>
 <path fill="none" stroke="rgb(221,221,221)" stroke-linejoin="round" d="M 19116,497 L 19116,11756"/>
 <path fill="none" stroke="rgb(179,179,179)" stroke-linejoin="round" d="M 19686,11756 L 2585,11756"/>
 <path fill="none" stroke="rgb(179,179,179)" stroke-linejoin="round" d="M 19686,10147 L 2585,10147"/>
 <path fill="none" stroke="rgb(179,179,179)" stroke-linejoin="round" d="M 19686,8539 L 2585,8539"/>
 <path fill="none" stroke="rgb(179,179,179)" stroke-linejoin="round" d="M 19686,6930 L 2585,6930"/>
 <path fill="none" stroke="rgb(179,179,179)" stroke-linejoin="round" d="M 19686,5322 L 2585,5322"/>
 <path fill="none" stroke="rgb(179,179,179)" stroke-linejoin="round" d="M 19686,3713 L 2585,3713"/>
 <path fill="none" stroke="rgb(179,179,179)" stroke-linejoin="round" d="M 19686,2105 L 2585,2105"/>
 <path fill="none" stroke="rgb(179,179,179)" stroke-linejoin="round" d="M 19686,497 L 2585,497"/>
 <path fill="none" stroke="rgb(179,179,179)" stroke-linejoin="round" d="M 2585,11904 L 2585,11756"/>
 <path fill="none" stroke="rgb(179,179,179)" stroke-linejoin="round" d="M 2585,11904 L 2585,11756"/>
 <path fill="none" stroke="rgb(179,179,179)" stroke-linejoin="round" d="M 3725,11904 L 3725,11756"/>
 <path fill="none" stroke="rgb(179,179,179)" stroke-linejoin="round" d="M 3725,11904 L 3725,11756"/>
 <path fill="none" stroke="rgb(179,179,179)" stroke-linejoin="round" d="M 4865,11904 L 4865,11756"/>
 <path fill="none" stroke="rgb(179,179,179)" stroke-linejoin="round" d="M 4865,11904 L 4865,11756"/>
 <path fill="none" stroke="rgb(179,179,179)" stroke-linejoin="round" d="M 6005,11904 L 6005,11756"/>
 <path fill="none" stroke="rgb(179,179,179)" stroke-linejoin="round" d="M 6005,11904 L 6005,11756"/>
 <path fill="none" stroke="rgb(179,179,179)" stroke-linejoin="round" d="M 7145,11904 L 7145,11756"/>
 <path fill="none" stroke="rgb(179,179,179)" stroke-linejoin="round" d="M 7145,11904 L 7145,11756"/>
 <path fill="none" stroke="rgb(179,179,179)" stroke-linejoin="round" d="M 8285,11904 L 8285,11756"/>
 <path fill="none" stroke="rgb(179,179,179)" stroke-linejoin="round" d="M 8285,11904 L 8285,11756"/>
 <path fill="none" stroke="rgb(179,179,179)" stroke-linejoin="round" d="M 9426,11904 L 9426,11756"/>
 <path fill="none" stroke="rgb(179,179,179)" stroke-linejoin="round" d="M 9426,11904 L 9426,11756"/>
 <path fill="none" stroke="rgb(179,179,179)" stroke-linejoin="round" d="M 10566,11904 L 10566,11756"/>
 <path fill="none" stroke="rgb(179,179,179)" stroke-linejoin="round" d="M 10566,11904 L 10566,11756"/>
 <path fill="none" stroke="rgb(179,179,179)" stroke-linejoin="round" d="M 11706,11904 L 11706,11756"/>
 <path fill="none" stroke="rgb(179,179,179)" stroke-linejoin="round" d="M 11706,11904 L 11706,11756"/>
 <path fill="none" stroke="rgb(179,179,179)" stroke-linejoin="round" d="M 12846,11904 L 12846,11756"/>
 <path fill="none" stroke="rgb(179,179,179)" stroke-linejoin="round" d="M 12846,11904 L 12846,11756"/>
 <path fill="none" stroke="rgb(179,179,179)" stroke-linejoin="round" d="M 13985,11904 L 13985,11756"/>
 <path fill="none" stroke="rgb(179,179,179)" stroke-linejoin="round" d="M 13985,11904 L 13985,11756"/>
 <path fill="none" stroke="rgb(179,179,179)" stroke-linejoin="round" d="M 15126,11904 L 15126,11756"/>
 <path fill="none" stroke="rgb(179,179,179)" stroke-linejoin="round" d="M 15126,11904 L 15126,11756"/>
 <path fill="none" stroke="rgb(179,179,179)" stroke-linejoin="round" d="M 16266,11904 L 16266,11756"/>
 <path fill="none" stroke="rgb(179,179,179)" stroke-linejoin="round" d="M 16266,11904 L 16266,11756"/>
 <path fill="none" stroke="rgb(179,179,179)" stroke-linejoin="round" d="M 17406,11904 L 17406,11756"/>
 <path fill="none" stroke="rgb(179,179,179)" stroke-linejoin="round" d="M 17406,11904 L 17406,11756"/>
 <path fill="none" stroke="rgb(179,179,179)" stroke-linejoin="round" d="M 18546,11904 L 18546,11756"/>
 <path fill="none" stroke="rgb(179,179,179)" stroke-linejoin="round" d="M 18546,11904 L 18546,11756"/>
 <path fill="none" stroke="rgb(179,179,179)" stroke-linejoin="round" d="M 19686,11904 L 19686,11756"/>
 <path fill="none" stroke="rgb(179,179,179)" stroke-linejoin="round" d="M 19686,11904 L 19686,11756"/>
 <path fill="none" stroke="rgb(179,179,179)" stroke-linejoin="round" d="M 2585,11756 L 19686,11756"/>
 <path fill="none" stroke="rgb(179,179,179)" stroke-linejoin="round" d="M 2436,11756 L 2585,11756"/>
 <path fill="none" stroke="rgb(179,179,179)" stroke-linejoin="round" d="M 2436,11756 L 2585,11756"/>
 <path fill="none" stroke="rgb(179,179,179)" stroke-linejoin="round" d="M 2436,10147 L 2585,10147"/>
 <path fill="none" stroke="rgb(179,179,179)" stroke-linejoin="round" d="M 2436,10147 L 2585,10147"/>
 <path fill="none" stroke="rgb(179,179,179)" stroke-linejoin="round" d="M 2436,8539 L 2585,8539"/>
 <path fill="none" stroke="rgb(179,179,179)" stroke-linejoin="round" d="M 2436,8539 L 2585,8539"/>
 <path fill="none" stroke="rgb(179,179,179)" stroke-linejoin="round" d="M 2436,6930 L 2585,6930"/>
 <path fill="none" stroke="rgb(179,179,179)" stroke-linejoin="round" d="M 2436,6930 L 2585,6930"/>
 <path fill="none" stroke="rgb(179,179,179)" stroke-linejoin="round" d="M 2436,5322 L 2585,5322"/>
 <path fill="none" stroke="rgb(179,179,179)" stroke-linejoin="round" d="M 2436,5322 L 2585,5322"/>
 <path fill="none" stroke="rgb(179,179,179)" stroke-linejoin="round" d="M 2436,3714 L 2585,3714"/>
 <path fill="none" stroke="rgb(179,179,179)" stroke-linejoin="round" d="M 2436,3714 L 2585,3714"/>
 <path fill="none" stroke="rgb(179,179,179)" stroke-linejoin="round" d="M 2436,2105 L 2585,2105"/>
 <path fill="none" stroke="rgb(179,179,179)" stroke-linejoin="round" d="M 2436,2105 L 2585,2105"/>
 <path fill="none" stroke="rgb(179,179,179)" stroke-linejoin="round" d="M 2436,497 L 2585,497"/>
 <path fill="none" stroke="rgb(179,179,179)" stroke-linejoin="round" d="M 2436,497 L 2585,497"/>
 <path fill="none" stroke="rgb(179,179,179)" stroke-linejoin="round" d="M 2585,11756 L 2585,497"/>
 <path fill="none" stroke="rgb(255,66,14)" stroke-width="80" stroke-linejoin="round" d="M 2585,8791 L 3725,8586 4865,8212 6005,7824 7145,7202 8286,6792 9426,6422 10566,5806 11706,5309 12846,4827 13985,4113 15126,3531 16266,2936 17406,2113 18546,1558 19686,1028"/>
 <path fill="rgb(255,66,14)" stroke="none" d="M 2461,8791 L 2585,8915 2710,8791 2585,8667 2461,8791 Z"/>
 <path fill="none" stroke="rgb(255,66,14)" stroke-linejoin="round" d="M 2461,8791 L 2585,8915 2710,8791 2585,8667 2461,8791 Z"/>
 <path fill="rgb(255,66,14)" stroke="none" d="M 3601,8586 L 3725,8710 3850,8586 3725,8462 3601,8586 Z"/>
 <path fill="none" stroke="rgb(255,66,14)" stroke-linejoin="round" d="M 3601,8586 L 3725,8710 3850,8586 3725,8462 3601,8586 Z"/>
 <path fill="rgb(255,66,14)" stroke="none" d="M 4741,8212 L 4865,8336 4990,8212 4865,8088 4741,8212 Z"/>
 <path fill="none" stroke="rgb(255,66,14)" stroke-linejoin="round" d="M 4741,8212 L 4865,8336 4990,8212 4865,8088 4741,8212 Z"/>
 <path fill="rgb(255,66,14)" stroke="none" d="M 5881,7824 L 6005,7948 6130,7824 6005,7700 5881,7824 Z"/>
 <path fill="none" stroke="rgb(255,66,14)" stroke-linejoin="round" d="M 5881,7824 L 6005,7948 6130,7824 6005,7700 5881,7824 Z"/>
 <path fill="rgb(255,66,14)" stroke="none" d="M 7021,7202 L 7145,7326 7269,7202 7145,7078 7021,7202 Z"/>
 <path fill="none" stroke="rgb(255,66,14)" stroke-linejoin="round" d="M 7021,7202 L 7145,7326 7269,7202 7145,7078 7021,7202 Z"/>
 <path fill="rgb(255,66,14)" stroke="none" d="M 8161,6792 L 8286,6916 8410,6792 8286,6668 8161,6792 Z"/>
 <path fill="none" stroke="rgb(255,66,14)" stroke-linejoin="round" d="M 8161,6792 L 8286,6916 8410,6792 8286,6668 8161,6792 Z"/>
 <path fill="rgb(255,66,14)" stroke="none" d="M 9301,6422 L 9426,6546 9550,6422 9426,6298 9301,6422 Z"/>
 <path fill="none" stroke="rgb(255,66,14)" stroke-linejoin="round" d="M 9301,6422 L 9426,6546 9550,6422 9426,6298 9301,6422 Z"/>
 <path fill="rgb(255,66,14)" stroke="none" d="M 10441,5806 L 10566,5930 10690,5806 10566,5682 10441,5806 Z"/>
 <path fill="none" stroke="rgb(255,66,14)" stroke-linejoin="round" d="M 10441,5806 L 10566,5930 10690,5806 10566,5682 10441,5806 Z"/>
 <path fill="rgb(255,66,14)" stroke="none" d="M 11581,5309 L 11706,5433 11830,5309 11706,5185 11581,5309 Z"/>
 <path fill="none" stroke="rgb(255,66,14)" stroke-linejoin="round" d="M 11581,5309 L 11706,5433 11830,5309 11706,5185 11581,5309 Z"/>
 <path fill="rgb(255,66,14)" stroke="none" d="M 12721,4827 L 12846,4951 12970,4827 12846,4703 12721,4827 Z"/>
 <path fill="none" stroke="rgb(255,66,14)" stroke-linejoin="round" d="M 12721,4827 L 12846,4951 12970,4827 12846,4703 12721,4827 Z"/>
 <path fill="rgb(255,66,14)" stroke="none" d="M 13861,4113 L 13985,4237 14110,4113 13985,3989 13861,4113 Z"/>
 <path fill="none" stroke="rgb(255,66,14)" stroke-linejoin="round" d="M 13861,4113 L 13985,4237 14110,4113 13985,3989 13861,4113 Z"/>
 <path fill="rgb(255,66,14)" stroke="none" d="M 15002,3531 L 15126,3655 15251,3531 15126,3407 15002,3531 Z"/>
 <path fill="none" stroke="rgb(255,66,14)" stroke-linejoin="round" d="M 15002,3531 L 15126,3655 15251,3531 15126,3407 15002,3531 Z"/>
 <path fill="rgb(255,66,14)" stroke="none" d="M 16142,2936 L 16266,3060 16391,2936 16266,2812 16142,2936 Z"/>
 <path fill="none" stroke="rgb(255,66,14)" stroke-linejoin="round" d="M 16142,2936 L 16266,3060 16391,2936 16266,2812 16142,2936 Z"/>
 <path fill="rgb(255,66,14)" stroke="none" d="M 17282,2113 L 17406,2237 17531,2113 17406,1989 17282,2113 Z"/>
 <path fill="none" stroke="rgb(255,66,14)" stroke-linejoin="round" d="M 17282,2113 L 17406,2237 17531,2113 17406,1989 17282,2113 Z"/>
 <path fill="rgb(255,66,14)" stroke="none" d="M 18422,1558 L 18546,1682 18670,1558 18546,1434 18422,1558 Z"/>
 <path fill="none" stroke="rgb(255,66,14)" stroke-linejoin="round" d="M 18422,1558 L 18546,1682 18670,1558 18546,1434 18422,1558 Z"/>
 <path fill="rgb(255,66,14)" stroke="none" d="M 19561,1028 L 19686,1152 19810,1028 19686,904 19561,1028 Z"/>
 <path fill="none" stroke="rgb(255,66,14)" stroke-linejoin="round" d="M 19561,1028 L 19686,1152 19810,1028 19686,904 19561,1028 Z"/>
 <path fill="none" stroke="rgb(255,211,32)" stroke-width="80" stroke-linejoin="round" d="M 2585,10277 L 3725,9902 4865,9577 6005,9120 7145,8505 8286,8077 9426,7694 10566,7068 11706,6579 12846,6117 13985,5472 15126,4956 16266,4452"/>
 <path fill="rgb(255,211,32)" stroke="none" d="M 2461,10153 L 2585,10401 2710,10153 2461,10153 Z"/>
 <path fill="none" stroke="rgb(255,211,32)" stroke-linejoin="round" d="M 2461,10153 L 2585,10401 2710,10153 2461,10153 Z"/>
 <path fill="rgb(255,211,32)" stroke="none" d="M 3601,9778 L 3725,10026 3850,9778 3601,9778 Z"/>
 <path fill="none" stroke="rgb(255,211,32)" stroke-linejoin="round" d="M 3601,9778 L 3725,10026 3850,9778 3601,9778 Z"/>
 <path fill="rgb(255,211,32)" stroke="none" d="M 4741,9453 L 4865,9701 4990,9453 4741,9453 Z"/>
 <path fill="none" stroke="rgb(255,211,32)" stroke-linejoin="round" d="M 4741,9453 L 4865,9701 4990,9453 4741,9453 Z"/>
 <path fill="rgb(255,211,32)" stroke="none" d="M 5881,8996 L 6005,9244 6130,8996 5881,8996 Z"/>
 <path fill="none" stroke="rgb(255,211,32)" stroke-linejoin="round" d="M 5881,8996 L 6005,9244 6130,8996 5881,8996 Z"/>
 <path fill="rgb(255,211,32)" stroke="none" d="M 7021,8381 L 7145,8629 7269,8381 7021,8381 Z"/>
 <path fill="none" stroke="rgb(255,211,32)" stroke-linejoin="round" d="M 7021,8381 L 7145,8629 7269,8381 7021,8381 Z"/>
 <path fill="rgb(255,211,32)" stroke="none" d="M 8161,7953 L 8286,8201 8410,7953 8161,7953 Z"/>
 <path fill="none" stroke="rgb(255,211,32)" stroke-linejoin="round" d="M 8161,7953 L 8286,8201 8410,7953 8161,7953 Z"/>
 <path fill="rgb(255,211,32)" stroke="none" d="M 9301,7570 L 9426,7818 9550,7570 9301,7570 Z"/>
 <path fill="none" stroke="rgb(255,211,32)" stroke-linejoin="round" d="M 9301,7570 L 9426,7818 9550,7570 9301,7570 Z"/>
 <path fill="rgb(255,211,32)" stroke="none" d="M 10441,6944 L 10566,7192 10690,6944 10441,6944 Z"/>
 <path fill="none" stroke="rgb(255,211,32)" stroke-linejoin="round" d="M 10441,6944 L 10566,7192 10690,6944 10441,6944 Z"/>
 <path fill="rgb(255,211,32)" stroke="none" d="M 11581,6455 L 11706,6703 11830,6455 11581,6455 Z"/>
 <path fill="none" stroke="rgb(255,211,32)" stroke-linejoin="round" d="M 11581,6455 L 11706,6703 11830,6455 11581,6455 Z"/>
 <path fill="rgb(255,211,32)" stroke="none" d="M 12721,5993 L 12846,6241 12970,5993 12721,5993 Z"/>
 <path fill="none" stroke="rgb(255,211,32)" stroke-linejoin="round" d="M 12721,5993 L 12846,6241 12970,5993 12721,5993 Z"/>
 <path fill="rgb(255,211,32)" stroke="none" d="M 13861,5348 L 13985,5596 14110,5348 13861,5348 Z"/>
 <path fill="none" stroke="rgb(255,211,32)" stroke-linejoin="round" d="M 13861,5348 L 13985,5596 14110,5348 13861,5348 Z"/>
 <path fill="rgb(255,211,32)" stroke="none" d="M 15002,4832 L 15126,5080 15251,4832 15002,4832 Z"/>
 <path fill="none" stroke="rgb(255,211,32)" stroke-linejoin="round" d="M 15002,4832 L 15126,5080 15251,4832 15002,4832 Z"/>
 <path fill="rgb(255,211,32)" stroke="none" d="M 16142,4328 L 16266,4576 16391,4328 16142,4328 Z"/>
 <path fill="none" stroke="rgb(255,211,32)" stroke-linejoin="round" d="M 16142,4328 L 16266,4576 16391,4328 16142,4328 Z"/>
 <path fill="none" stroke="rgb(126,0,33)" stroke-width="80" stroke-linejoin="round" d="M 2585,9521 L 3725,9298 4865,9002 6005,8930 7145,8375 8286,7943 9426,7028 10566,6921 11706,6425 12846,5856 13985,5246 15126,4571 16266,4037 17406,3232 18546,2630 19686,2078"/>
 <path fill="rgb(126,0,33)" stroke="none" d="M 2461,9397 L 2461,9645 2710,9521 2461,9397 Z"/>
 <path fill="none" stroke="rgb(126,0,33)" stroke-linejoin="round" d="M 2461,9397 L 2461,9645 2710,9521 2461,9397 Z"/>
 <path fill="rgb(126,0,33)" stroke="none" d="M 3601,9174 L 3601,9422 3850,9298 3601,9174 Z"/>
 <path fill="none" stroke="rgb(126,0,33)" stroke-linejoin="round" d="M 3601,9174 L 3601,9422 3850,9298 3601,9174 Z"/>
 <path fill="rgb(126,0,33)" stroke="none" d="M 4741,8878 L 4741,9126 4990,9002 4741,8878 Z"/>
 <path fill="none" stroke="rgb(126,0,33)" stroke-linejoin="round" d="M 4741,8878 L 4741,9126 4990,9002 4741,8878 Z"/>
 <path fill="rgb(126,0,33)" stroke="none" d="M 5881,8806 L 5881,9054 6130,8930 5881,8806 Z"/>
 <path fill="none" stroke="rgb(126,0,33)" stroke-linejoin="round" d="M 5881,8806 L 5881,9054 6130,8930 5881,8806 Z"/>
 <path fill="rgb(126,0,33)" stroke="none" d="M 7021,8251 L 7021,8499 7269,8375 7021,8251 Z"/>
 <path fill="none" stroke="rgb(126,0,33)" stroke-linejoin="round" d="M 7021,8251 L 7021,8499 7269,8375 7021,8251 Z"/>
 <path fill="rgb(126,0,33)" stroke="none" d="M 8161,7819 L 8161,8067 8410,7943 8161,7819 Z"/>
 <path fill="none" stroke="rgb(126,0,33)" stroke-linejoin="round" d="M 8161,7819 L 8161,8067 8410,7943 8161,7819 Z"/>
 <path fill="rgb(126,0,33)" stroke="none" d="M 9301,6904 L 9301,7152 9550,7028 9301,6904 Z"/>
 <path fill="none" stroke="rgb(126,0,33)" stroke-linejoin="round" d="M 9301,6904 L 9301,7152 9550,7028 9301,6904 Z"/>
 <path fill="rgb(126,0,33)" stroke="none" d="M 10441,6797 L 10441,7045 10690,6921 10441,6797 Z"/>
 <path fill="none" stroke="rgb(126,0,33)" stroke-linejoin="round" d="M 10441,6797 L 10441,7045 10690,6921 10441,6797 Z"/>
 <path fill="rgb(126,0,33)" stroke="none" d="M 11581,6301 L 11581,6549 11830,6425 11581,6301 Z"/>
 <path fill="none" stroke="rgb(126,0,33)" stroke-linejoin="round" d="M 11581,6301 L 11581,6549 11830,6425 11581,6301 Z"/>
 <path fill="rgb(126,0,33)" stroke="none" d="M 12721,5732 L 12721,5980 12970,5856 12721,5732 Z"/>
 <path fill="none" stroke="rgb(126,0,33)" stroke-linejoin="round" d="M 12721,5732 L 12721,5980 12970,5856 12721,5732 Z"/>
 <path fill="rgb(126,0,33)" stroke="none" d="M 13861,5122 L 13861,5370 14110,5246 13861,5122 Z"/>
 <path fill="none" stroke="rgb(126,0,33)" stroke-linejoin="round" d="M 13861,5122 L 13861,5370 14110,5246 13861,5122 Z"/>
 <path fill="rgb(126,0,33)" stroke="none" d="M 15002,4447 L 15002,4695 15251,4571 15002,4447 Z"/>
 <path fill="none" stroke="rgb(126,0,33)" stroke-linejoin="round" d="M 15002,4447 L 15002,4695 15251,4571 15002,4447 Z"/>
 <path fill="rgb(126,0,33)" stroke="none" d="M 16142,3913 L 16142,4161 16391,4037 16142,3913 Z"/>
 <path fill="none" stroke="rgb(126,0,33)" stroke-linejoin="round" d="M 16142,3913 L 16142,4161 16391,4037 16142,3913 Z"/>
 <path fill="rgb(126,0,33)" stroke="none" d="M 17282,3108 L 17282,3356 17531,3232 17282,3108 Z"/>
 <path fill="none" stroke="rgb(126,0,33)" stroke-linejoin="round" d="M 17282,3108 L 17282,3356 17531,3232 17282,3108 Z"/>
 <path fill="rgb(126,0,33)" stroke="none" d="M 18422,2506 L 18422,2754 18670,2630 18422,2506 Z"/>
 <path fill="none" stroke="rgb(126,0,33)" stroke-linejoin="round" d="M 18422,2506 L 18422,2754 18670,2630 18422,2506 Z"/>
 <path fill="rgb(126,0,33)" stroke="none" d="M 19561,1954 L 19561,2202 19810,2078 19561,1954 Z"/>
 <path fill="none" stroke="rgb(126,0,33)" stroke-linejoin="round" d="M 19561,1954 L 19561,2202 19810,2078 19561,1954 Z"/>
 <path fill="none" stroke="rgb(87,157,28)" stroke-width="80" stroke-linejoin="round" d="M 2585,10031 L 3725,9902 4865,9393 6005,8894 7145,8236 8286,7713 9426,7274 10566,6665 11706,6168 12846,5666 13985,4988 15126,4429 16266,3807 17406,2967 18546,2425 19686,1861"/>
 <path fill="rgb(87,157,28)" stroke="none" d="M 2461,10155 L 2710,10155 2585,9907 2461,10155 Z"/>
 <path fill="none" stroke="rgb(87,157,28)" stroke-linejoin="round" d="M 2461,10155 L 2710,10155 2585,9907 2461,10155 Z"/>
 <path fill="rgb(87,157,28)" stroke="none" d="M 3601,10026 L 3850,10026 3725,9778 3601,10026 Z"/>
 <path fill="none" stroke="rgb(87,157,28)" stroke-linejoin="round" d="M 3601,10026 L 3850,10026 3725,9778 3601,10026 Z"/>
 <path fill="rgb(87,157,28)" stroke="none" d="M 4741,9517 L 4990,9517 4865,9269 4741,9517 Z"/>
 <path fill="none" stroke="rgb(87,157,28)" stroke-linejoin="round" d="M 4741,9517 L 4990,9517 4865,9269 4741,9517 Z"/>
 <path fill="rgb(87,157,28)" stroke="none" d="M 5881,9018 L 6130,9018 6005,8770 5881,9018 Z"/>
 <path fill="none" stroke="rgb(87,157,28)" stroke-linejoin="round" d="M 5881,9018 L 6130,9018 6005,8770 5881,9018 Z"/>
 <path fill="rgb(87,157,28)" stroke="none" d="M 7021,8360 L 7269,8360 7145,8111 7021,8360 Z"/>
 <path fill="none" stroke="rgb(87,157,28)" stroke-linejoin="round" d="M 7021,8360 L 7269,8360 7145,8111 7021,8360 Z"/>
 <path fill="rgb(87,157,28)" stroke="none" d="M 8161,7837 L 8410,7837 8286,7589 8161,7837 Z"/>
 <path fill="none" stroke="rgb(87,157,28)" stroke-linejoin="round" d="M 8161,7837 L 8410,7837 8286,7589 8161,7837 Z"/>
 <path fill="rgb(87,157,28)" stroke="none" d="M 9301,7398 L 9550,7398 9426,7150 9301,7398 Z"/>
 <path fill="none" stroke="rgb(87,157,28)" stroke-linejoin="round" d="M 9301,7398 L 9550,7398 9426,7150 9301,7398 Z"/>
 <path fill="rgb(87,157,28)" stroke="none" d="M 10441,6789 L 10690,6789 10566,6541 10441,6789 Z"/>
 <path fill="none" stroke="rgb(87,157,28)" stroke-linejoin="round" d="M 10441,6789 L 10690,6789 10566,6541 10441,6789 Z"/>
 <path fill="rgb(87,157,28)" stroke="none" d="M 11581,6292 L 11830,6292 11706,6044 11581,6292 Z"/>
 <path fill="none" stroke="rgb(87,157,28)" stroke-linejoin="round" d="M 11581,6292 L 11830,6292 11706,6044 11581,6292 Z"/>
 <path fill="rgb(87,157,28)" stroke="none" d="M 12721,5790 L 12970,5790 12846,5542 12721,5790 Z"/>
 <path fill="none" stroke="rgb(87,157,28)" stroke-linejoin="round" d="M 12721,5790 L 12970,5790 12846,5542 12721,5790 Z"/>
 <path fill="rgb(87,157,28)" stroke="none" d="M 13861,5112 L 14110,5112 13985,4864 13861,5112 Z"/>
 <path fill="none" stroke="rgb(87,157,28)" stroke-linejoin="round" d="M 13861,5112 L 14110,5112 13985,4864 13861,5112 Z"/>
 <path fill="rgb(87,157,28)" stroke="none" d="M 15002,4553 L 15251,4553 15126,4305 15002,4553 Z"/>
 <path fill="none" stroke="rgb(87,157,28)" stroke-linejoin="round" d="M 15002,4553 L 15251,4553 15126,4305 15002,4553 Z"/>
 <path fill="rgb(87,157,28)" stroke="none" d="M 16142,3931 L 16391,3931 16266,3683 16142,3931 Z"/>
 <path fill="none" stroke="rgb(87,157,28)" stroke-linejoin="round" d="M 16142,3931 L 16391,3931 16266,3683 16142,3931 Z"/>
 <path fill="rgb(87,157,28)" stroke="none" d="M 17282,3091 L 17531,3091 17406,2843 17282,3091 Z"/>
 <path fill="none" stroke="rgb(87,157,28)" stroke-linejoin="round" d="M 17282,3091 L 17531,3091 17406,2843 17282,3091 Z"/>
 <path fill="rgb(87,157,28)" stroke="none" d="M 18422,2549 L 18670,2549 18546,2301 18422,2549 Z"/>
 <path fill="none" stroke="rgb(87,157,28)" stroke-linejoin="round" d="M 18422,2549 L 18670,2549 18546,2301 18422,2549 Z"/>
 <path fill="rgb(87,157,28)" stroke="none" d="M 19561,1985 L 19810,1985 19686,1737 19561,1985 Z"/>
 <path fill="none" stroke="rgb(87,157,28)" stroke-linejoin="round" d="M 19561,1985 L 19810,1985 19686,1737 19561,1985 Z"/>
 <path fill="none" stroke="rgb(0,69,134)" stroke-width="80" stroke-linejoin="round" d="M 2585,10787 L 3725,10126 4865,9616 6005,9072 7145,8393 8286,7902 9426,7246 10566,6721 11706,6252 12846,5767 13985,5078 15126,4564 16266,4052 17406,3358 18546,2824 19686,2280"/>
 <path fill="rgb(0,69,134)" stroke="none" d="M 2461,10663 L 2461,10911 2710,10911 2710,10663 2461,10663 Z"/>
 <path fill="none" stroke="rgb(0,69,134)" stroke-linejoin="round" d="M 2461,10663 L 2461,10911 2710,10911 2710,10663 2461,10663 Z"/>
 <path fill="rgb(0,69,134)" stroke="none" d="M 3601,10002 L 3601,10250 3850,10250 3850,10002 3601,10002 Z"/>
 <path fill="none" stroke="rgb(0,69,134)" stroke-linejoin="round" d="M 3601,10002 L 3601,10250 3850,10250 3850,10002 3601,10002 Z"/>
 <path fill="rgb(0,69,134)" stroke="none" d="M 4741,9492 L 4741,9740 4990,9740 4990,9492 4741,9492 Z"/>
 <path fill="none" stroke="rgb(0,69,134)" stroke-linejoin="round" d="M 4741,9492 L 4741,9740 4990,9740 4990,9492 4741,9492 Z"/>
 <path fill="rgb(0,69,134)" stroke="none" d="M 5881,8948 L 5881,9196 6130,9196 6130,8948 5881,8948 Z"/>
 <path fill="none" stroke="rgb(0,69,134)" stroke-linejoin="round" d="M 5881,8948 L 5881,9196 6130,9196 6130,8948 5881,8948 Z"/>
 <path fill="rgb(0,69,134)" stroke="none" d="M 7021,8269 L 7021,8517 7269,8517 7269,8269 7021,8269 Z"/>
 <path fill="none" stroke="rgb(0,69,134)" stroke-linejoin="round" d="M 7021,8269 L 7021,8517 7269,8517 7269,8269 7021,8269 Z"/>
 <path fill="rgb(0,69,134)" stroke="none" d="M 8161,7778 L 8161,8026 8410,8026 8410,7778 8161,7778 Z"/>
 <path fill="none" stroke="rgb(0,69,134)" stroke-linejoin="round" d="M 8161,7778 L 8161,8026 8410,8026 8410,7778 8161,7778 Z"/>
 <path fill="rgb(0,69,134)" stroke="none" d="M 9301,7122 L 9301,7370 9550,7370 9550,7122 9301,7122 Z"/>
 <path fill="none" stroke="rgb(0,69,134)" stroke-linejoin="round" d="M 9301,7122 L 9301,7370 9550,7370 9550,7122 9301,7122 Z"/>
 <path fill="rgb(0,69,134)" stroke="none" d="M 10441,6597 L 10441,6845 10690,6845 10690,6597 10441,6597 Z"/>
 <path fill="none" stroke="rgb(0,69,134)" stroke-linejoin="round" d="M 10441,6597 L 10441,6845 10690,6845 10690,6597 10441,6597 Z"/>
 <path fill="rgb(0,69,134)" stroke="none" d="M 11581,6128 L 11581,6376 11830,6376 11830,6128 11581,6128 Z"/>
 <path fill="none" stroke="rgb(0,69,134)" stroke-linejoin="round" d="M 11581,6128 L 11581,6376 11830,6376 11830,6128 11581,6128 Z"/>
 <path fill="rgb(0,69,134)" stroke="none" d="M 12721,5643 L 12721,5891 12970,5891 12970,5643 12721,5643 Z"/>
 <path fill="none" stroke="rgb(0,69,134)" stroke-linejoin="round" d="M 12721,5643 L 12721,5891 12970,5891 12970,5643 12721,5643 Z"/>
 <path fill="rgb(0,69,134)" stroke="none" d="M 13861,4954 L 13861,5202 14110,5202 14110,4954 13861,4954 Z"/>
 <path fill="none" stroke="rgb(0,69,134)" stroke-linejoin="round" d="M 13861,4954 L 13861,5202 14110,5202 14110,4954 13861,4954 Z"/>
 <path fill="rgb(0,69,134)" stroke="none" d="M 15002,4440 L 15002,4688 15251,4688 15251,4440 15002,4440 Z"/>
 <path fill="none" stroke="rgb(0,69,134)" stroke-linejoin="round" d="M 15002,4440 L 15002,4688 15251,4688 15251,4440 15002,4440 Z"/>
 <path fill="rgb(0,69,134)" stroke="none" d="M 16142,3928 L 16142,4176 16391,4176 16391,3928 16142,3928 Z"/>
 <path fill="none" stroke="rgb(0,69,134)" stroke-linejoin="round" d="M 16142,3928 L 16142,4176 16391,4176 16391,3928 16142,3928 Z"/>
 <path fill="rgb(0,69,134)" stroke="none" d="M 17282,3234 L 17282,3482 17531,3482 17531,3234 17282,3234 Z"/>
 <path fill="none" stroke="rgb(0,69,134)" stroke-linejoin="round" d="M 17282,3234 L 17282,3482 17531,3482 17531,3234 17282,3234 Z"/>
 <path fill="rgb(0,69,134)" stroke="none" d="M 18422,2700 L 18422,2948 18670,2948 18670,2700 18422,2700 Z"/>
 <path fill="none" stroke="rgb(0,69,134)" stroke-linejoin="round" d="M 18422,2700 L 18422,2948 18670,2948 18670,2700 18422,2700 Z"/>
 <path fill="rgb(0,69,134)" stroke="none" d="M 19561,2156 L 19561,2404 19810,2404 19810,2156 19561,2156 Z"/>
 <path fill="none" stroke="rgb(0,69,134)" stroke-linejoin="round" d="M 19561,2156 L 19561,2404 19810,2404 19810,2156 19561,2156 Z"/>
 <text class="SVGTextShape"><tspan class="TextParagraph" font-family="Liberation Sans, sans-serif" font-size="350px" font-weight="400"><tspan class="TextPosition" x="2289" y="12319"><tspan fill="rgb(0,0,0)" stroke="none">100</tspan></tspan></tspan></text>
 <text class="SVGTextShape"><tspan class="TextParagraph" font-family="Liberation Sans, sans-serif" font-size="350px" font-weight="400"><tspan class="TextPosition" x="3429" y="12319"><tspan fill="rgb(0,0,0)" stroke="none">250</tspan></tspan></tspan></text>
 <text class="SVGTextShape"><tspan class="TextParagraph" font-family="Liberation Sans, sans-serif" font-size="350px" font-weight="400"><tspan class="TextPosition" x="4569" y="12319"><tspan fill="rgb(0,0,0)" stroke="none">500</tspan></tspan></tspan></text>
 <text class="SVGTextShape"><tspan class="TextParagraph" font-family="Liberation Sans, sans-serif" font-size="350px" font-weight="400"><tspan class="TextPosition" x="5788" y="12319"><tspan fill="rgb(0,0,0)" stroke="none">1K</tspan></tspan></tspan></text>
 <text class="SVGTextShape"><tspan class="TextParagraph" font-family="Liberation Sans, sans-serif" font-size="350px" font-weight="400"><tspan class="TextPosition" x="6776" y="12319"><tspan fill="rgb(0,0,0)" stroke="none">2.5K</tspan></tspan></tspan></text>
 <text class="SVGTextShape"><tspan class="TextParagraph" font-family="Liberation Sans, sans-serif" font-size="350px" font-weight="400"><tspan class="TextPosition" x="8067" y="12319"><tspan fill="rgb(0,0,0)" stroke="none">5K</tspan></tspan></tspan></text>
 <text class="SVGTextShape"><tspan class="TextParagraph" font-family="Liberation Sans, sans-serif" font-size="350px" font-weight="400"><tspan class="TextPosition" x="9110" y="12319"><tspan fill="rgb(0,0,0)" stroke="none">10K</tspan></tspan></tspan></text>
 <text class="SVGTextShape"><tspan class="TextParagraph" font-family="Liberation Sans, sans-serif" font-size="350px" font-weight="400"><tspan class="TextPosition" x="10250" y="12319"><tspan fill="rgb(0,0,0)" stroke="none">25K</tspan></tspan></tspan></text>
 <text class="SVGTextShape"><tspan class="TextParagraph" font-family="Liberation Sans, sans-serif" font-size="350px" font-weight="400"><tspan class="TextPosition" x="11390" y="12319"><tspan fill="rgb(0,0,0)" stroke="none">50K</tspan></tspan></tspan></text>
 <text class="SVGTextShape"><tspan class="TextParagraph" font-family="Liberation Sans, sans-serif" font-size="350px" font-weight="400"><tspan class="TextPosition" x="12431" y="12319"><tspan fill="rgb(0,0,0)" stroke="none">100K</tspan></tspan></tspan></text>
 <text class="SVGTextShape"><tspan class="TextParagraph" font-family="Liberation Sans, sans-serif" font-size="350px" font-weight="400"><tspan class="TextPosition" x="13571" y="12319"><tspan fill="rgb(0,0,0)" stroke="none">250K</tspan></tspan></tspan></text>
 <text class="SVGTextShape"><tspan class="TextParagraph" font-family="Liberation Sans, sans-serif" font-size="350px" font-weight="400"><tspan class="TextPosition" x="14712" y="12319"><tspan fill="rgb(0,0,0)" stroke="none">500K</tspan></tspan></tspan></text>
 <text class="SVGTextShape"><tspan class="TextParagraph" font-family="Liberation Sans, sans-serif" font-size="350px" font-weight="400"><tspan class="TextPosition" x="16023" y="12319"><tspan fill="rgb(0,0,0)" stroke="none">1M</tspan></tspan></tspan></text>
 <text class="SVGTextShape"><tspan class="TextParagraph" font-family="Liberation Sans, sans-serif" font-size="350px" font-weight="400"><tspan class="TextPosition" x="17011" y="12319"><tspan fill="rgb(0,0,0)" stroke="none">2.5M</tspan></tspan></tspan></text>
 <text class="SVGTextShape"><tspan class="TextParagraph" font-family="Liberation Sans, sans-serif" font-size="350px" font-weight="400"><tspan class="TextPosition" x="18303" y="12319"><tspan fill="rgb(0,0,0)" stroke="none">5M</tspan></tspan></tspan></text>
 <text class="SVGTextShape"><tspan class="TextParagraph" font-family="Liberation Sans, sans-serif" font-size="350px" font-weight="400"><tspan class="TextPosition" x="19344" y="12319"><tspan fill="rgb(0,0,0)" stroke="none">10M</tspan></tspan></tspan></text>
 <text class="SVGTextShape"><tspan class="TextParagraph" font-family="Liberation Sans, sans-serif" font-size="350px" font-weight="400"><tspan class="TextPosition" x="1493" y="11875"><tspan fill="rgb(0,0,0)" stroke="none">1E+1</tspan></tspan></tspan></text>
 <text class="SVGTextShape"><tspan class="TextParagraph" font-family="Liberation Sans, sans-serif" font-size="350px" font-weight="400"><tspan class="TextPosition" x="1493" y="10267"><tspan fill="rgb(0,0,0)" stroke="none">1E+2</tspan></tspan></tspan></text>
 <text class="SVGTextShape"><tspan class="TextParagraph" font-family="Liberation Sans, sans-serif" font-size="350px" font-weight="400"><tspan class="TextPosition" x="1493" y="8659"><tspan fill="rgb(0,0,0)" stroke="none">1E+3</tspan></tspan></tspan></text>
 <text class="SVGTextShape"><tspan class="TextParagraph" font-family="Liberation Sans, sans-serif" font-size="350px" font-weight="400"><tspan class="TextPosition" x="1493" y="7049"><tspan fill="rgb(0,0,0)" stroke="none">1E+4</tspan></tspan></tspan></text>
 <text class="SVGTextShape"><tspan class="TextParagraph" font-family="Liberation Sans, sans-serif" font-size="350px" font-weight="400"><tspan class="TextPosition" x="1493" y="5441"><tspan fill="rgb(0,0,0)" stroke="none">1E+5</tspan></tspan></tspan></text>
 <text class="SVGTextShape"><tspan class="TextParagraph" font-family="Liberation Sans, sans-serif" font-size="350px" font-weight="400"><tspan class="TextPosition" x="1493" y="3834"><tspan fill="rgb(0,0,0)" stroke="none">1E+6</tspan></tspan></tspan></text>
 <text class="SVGTextShape"><tspan class="TextParagraph" font-family="Liberation Sans, sans-serif" font-size="350px" font-weight="400"><tspan class="TextPosition" x="1493" y="2225"><tspan fill="rgb(0,0,0)" stroke="none">1E+7</tspan></tspan></tspan></text>
 <text class="SVGTextShape"><tspan class="TextParagraph" font-family="Liberation Sans, sans-serif" font-size="350px" font-weight="400"><tspan class="TextPosition" x="1493" y="617"><tspan fill="rgb(0,0,0)" stroke="none">1E+8</tspan></tspan></tspan></text>
 <path fill="none" stroke="rgb(255,66,14)" stroke-width="80" stroke-linejoin="round" d="M 20595,5360 L 21391,5360"/>
 <path fill="rgb(255,66,14)" stroke="none" d="M 20888,5360 L 20993,5466 21098,5360 20993,5256 20888,5360 Z"/>
 <path fill="none" stroke="rgb(255,66,14)" stroke-linejoin="round" d="M 20888,5360 L 20993,5466 21098,5360 20993,5256 20888,5360 Z"/>
 <path fill="none" stroke="rgb(255,211,32)" stroke-width="80" stroke-linejoin="round" d="M 20595,5854 L 21391,5854"/>
 <path fill="rgb(255,211,32)" stroke="none" d="M 20888,5750 L 20993,5960 21098,5750 20888,5750 Z"/>
 <path fill="none" stroke="rgb(255,211,32)" stroke-linejoin="round" d="M 20888,5750 L 20993,5960 21098,5750 20888,5750 Z"/>
 <path fill="none" stroke="rgb(126,0,33)" stroke-width="80" stroke-linejoin="round" d="M 20595,6349 L 21391,6349"/>
 <path fill="rgb(126,0,33)" stroke="none" d="M 20888,6244 L 20888,6454 21098,6349 20888,6244 Z"/>
 <path fill="none" stroke="rgb(126,0,33)" stroke-linejoin="round" d="M 20888,6244 L 20888,6454 21098,6349 20888,6244 Z"/>
 <path fill="none" stroke="rgb(87,157,28)" stroke-width="80" stroke-linejoin="round" d="M 20595,6843 L 21391,6843"/>
 <path fill="rgb(87,157,28)" stroke="none" d="M 20888,6948 L 21098,6948 20993,6738 20888,6948 Z"/>
 <path fill="none" stroke="rgb(87,157,28)" stroke-linejoin="round" d="M 20888,6948 L 21098,6948 20993,6738 20888,6948 Z"/>
 <path fill="none" stroke="rgb(0,69,134)" stroke-width="80" stroke-linejoin="round" d="M 20595,7337 L 21391,7337"/>
 <path fill="rgb(0,69,134)" stroke="none" d="M 20888,7232 L 20888,7442 21098,7442 21098,7232 20888,7232 Z"/>
 <path fill="none" stroke="rgb(0,69,134)" stroke-linejoin="round" d="M 20888,7232 L 20888,7442 21098,7442 21098,7232 20888,7232 Z"/>
 <text class="SVGTextShape"><tspan class="TextParagraph" font-family="Liberation Sans, sans-serif" font-size="350px" font-weight="400"><tspan class="TextPosition" x="21491" y="5479"><tspan fill="rgb(0,0,0)" stroke="none">CDT</tspan></tspan></tspan></text>
 <text class="SVGTextShape"><tspan class="TextParagraph" font-family="Liberation Sans, sans-serif" font-size="350px" font-weight="400"><tspan class="TextPosition" x="21491" y="5973"><tspan fill="rgb(0,0,0)" stroke="none">FAD</tspan></tspan></tspan></text>
 <text class="SVGTextShape"><tspan class="TextParagraph" font-family="Liberation Sans, sans-serif" font-size="350px" font-weight="400"><tspan class="TextPosition" x="21491" y="6468"><tspan fill="rgb(0,0,0)" stroke="none">DEL</tspan></tspan></tspan></text>
 <text class="SVGTextShape"><tspan class="TextParagraph" font-family="Liberation Sans, sans-serif" font-size="350px" font-weight="400"><tspan class="TextPosition" x="21491" y="6962"><tspan fill="rgb(0,0,0)" stroke="none">TRI</tspan></tspan></tspan></text>
 <text class="SVGTextShape"><tspan class="TextParagraph" font-family="Liberation Sans, sans-serif" font-size="350px" font-weight="400"><tspan class="TextPosition" x="21491" y="7456"><tspan fill="rgb(0,0,0)" stroke="none">DLB</tspan></tspan></tspan></text>
 <text class="SVGTextShape" transform="rotate(-90 884 6953)"><tspan class="TextParagraph" font-family="Liberation Sans, sans-serif" font-size="317px" font-weight="400"><tspan class="TextPosition" x="884" y="6953"><tspan fill="rgb(0,0,0)" stroke="none">time [µs]</tspan></tspan></tspan></text>
</svg>