<?xml version="1.0" encoding="UTF-8"?>
<!DOCTYPE svg PUBLIC "-//W3C//DTD SVG 1.1//EN" "http://www.w3.org/Graphics/SVG/1.1/DTD/svg11.dtd">
<svg width="160mm" height="90mm" viewBox="0 0 16000 9000" version="1.1" xmlns="http://www.w3.org/2000/svg" xmlns:xlink="http://www.w3.org/1999/xlink" stroke-width="28.222" stroke-linejoin="round" xml:space="preserve">
 <path fill="rgb(255,255,255)" stroke="none" d="M 8000,8998 L 0,8998 0,0 15999,0 15999,8998 8000,8998 Z"/>
 <path fill="none" stroke="rgb(179,179,179)" stroke-linejoin="round" d="M 7540,7334 L 2291,7334 2291,478 12788,478 12788,7334 7540,7334 Z"/>
 <path fill="none" stroke="rgb(221,221,221)" stroke-linejoin="round" d="M 2640,477 L 2640,7333"/>
 <path fill="none" stroke="rgb(221,221,221)" stroke-linejoin="round" d="M 3340,477 L 3340,7333"/>
 <path fill="none" stroke="rgb(221,221,221)" stroke-linejoin="round" d="M 4040,477 L 4040,7333"/>
 <path fill="none" stroke="rgb(221,221,221)" stroke-linejoin="round" d="M 4740,477 L 4740,7333"/>
 <path fill="none" stroke="rgb(221,221,221)" stroke-linejoin="round" d="M 5440,477 L 5440,7333"/>
 <path fill="none" stroke="rgb(221,221,221)" stroke-linejoin="round" d="M 6140,477 L 6140,7333"/>
 <path fill="none" stroke="rgb(221,221,221)" stroke-linejoin="round" d="M 6840,477 L 6840,7333"/>
 <path fill="none" stroke="rgb(221,221,221)" stroke-linejoin="round" d="M 7540,477 L 7540,7333"/>
 <path fill="none" stroke="rgb(221,221,221)" stroke-linejoin="round" d="M 8238,477 L 8238,7333"/>
 <path fill="none" stroke="rgb(221,221,221)" stroke-linejoin="round" d="M 8938,477 L 8938,7333"/>
 <path fill="none" stroke="rgb(221,221,221)" stroke-linejoin="round" d="M 9638,477 L 9638,7333"/>
 <path fill="none" stroke="rgb(221,221,221)" stroke-linejoin="round" d="M 10338,477 L 10338,7333"/>
 <path fill="none" stroke="rgb(221,221,221)" stroke-linejoin="round" d="M 11038,477 L 11038,7333"/>
 <path fill="none" stroke="rgb(221,221,221)" stroke-linejoin="round" d="M 11738,477 L 11738,7333"/>
 <path fill="none" stroke="rgb(221,221,221)" stroke-linejoin="round" d="M 12438,477 L 12438,7333"/>
 <path fill="none" stroke="rgb(179,179,179)" stroke-linejoin="round" d="M 12788,7333 L 2291,7333"/>
 <path fill="none" stroke="rgb(179,179,179)" stroke-linejoin="round" d="M 12788,6354 L 2291,6354"/>
 <path fill="none" stroke="rgb(179,179,179)" stroke-linejoin="round" d="M 12788,5374 L 2291,5374"/>
 <path fill="none" stroke="rgb(179,179,179)" stroke-linejoin="round" d="M 12788,4394 L 2291,4394"/>
 <path fill="none" stroke="rgb(179,179,179)" stroke-linejoin="round" d="M 12788,3415 L 2291,3415"/>
 <path fill="none" stroke="rgb(179,179,179)" stroke-linejoin="round" d="M 12788,2435 L 2291,2435"/>
 <path fill="none" stroke="rgb(179,179,179)" stroke-linejoin="round" d="M 12788,1456 L 2291,1456"/>
 <path fill="none" stroke="rgb(179,179,179)" stroke-linejoin="round" d="M 12788,477 L 2291,477"/>
 <path fill="none" stroke="rgb(179,179,179)" stroke-linejoin="round" d="M 2291,7483 L 2291,7333"/>
 <path fill="none" stroke="rgb(179,179,179)" stroke-linejoin="round" d="M 2291,7483 L 2291,7333"/>
 <path fill="none" stroke="rgb(179,179,179)" stroke-linejoin="round" d="M 2990,7483 L 2990,7333"/>
 <path fill="none" stroke="rgb(179,179,179)" stroke-linejoin="round" d="M 2990,7483 L 2990,7333"/>
 <path fill="none" stroke="rgb(179,179,179)" stroke-linejoin="round" d="M 3690,7483 L 3690,7333"/>
 <path fill="none" stroke="rgb(179,179,179)" stroke-linejoin="round" d="M 3690,7483 L 3690,7333"/>
 <path fill="none" stroke="rgb(179,179,179)" stroke-linejoin="round" d="M 4390,7483 L 4390,7333"/>
 <path fill="none" stroke="rgb(179,179,179)" stroke-linejoin="round" d="M 4390,7483 L 4390,7333"/>
 <path fill="none" stroke="rgb(179,179,179)" stroke-linejoin="round" d="M 5090,7483 L 5090,7333"/>
 <path fill="none" stroke="rgb(179,179,179)" stroke-linejoin="round" d="M 5090,7483 L 5090,7333"/>
 <path fill="none" stroke="rgb(179,179,179)" stroke-linejoin="round" d="M 5790,7483 L 5790,7333"/>
 <path fill="none" stroke="rgb(179,179,179)" stroke-linejoin="round" d="M 5790,7483 L 5790,7333"/>
 <path fill="none" stroke="rgb(179,179,179)" stroke-linejoin="round" d="M 6490,7483 L 6490,7333"/>
 <path fill="none" stroke="rgb(179,179,179)" stroke-linejoin="round" d="M 6490,7483 L 6490,7333"/>
 <path fill="none" stroke="rgb(179,179,179)" stroke-linejoin="round" d="M 7190,7483 L 7190,7333"/>
 <path fill="none" stroke="rgb(179,179,179)" stroke-linejoin="round" d="M 7190,7483 L 7190,7333"/>
 <path fill="none" stroke="rgb(179,179,179)" stroke-linejoin="round" d="M 7889,7483 L 7889,7333"/>
 <path fill="none" stroke="rgb(179,179,179)" stroke-linejoin="round" d="M 7889,7483 L 7889,7333"/>
 <path fill="none" stroke="rgb(179,179,179)" stroke-linejoin="round" d="M 8588,7483 L 8588,7333"/>
 <path fill="none" stroke="rgb(179,179,179)" stroke-linejoin="round" d="M 8588,7483 L 8588,7333"/>
 <path fill="none" stroke="rgb(179,179,179)" stroke-linejoin="round" d="M 9288,7483 L 9288,7333"/>
 <path fill="none" stroke="rgb(179,179,179)" stroke-linejoin="round" d="M 9288,7483 L 9288,7333"/>
 <path fill="none" stroke="rgb(179,179,179)" stroke-linejoin="round" d="M 9988,7483 L 9988,7333"/>
 <path fill="none" stroke="rgb(179,179,179)" stroke-linejoin="round" d="M 9988,7483 L 9988,7333"/>
 <path fill="none" stroke="rgb(179,179,179)" stroke-linejoin="round" d="M 10688,7483 L 10688,7333"/>
 <path fill="none" stroke="rgb(179,179,179)" stroke-linejoin="round" d="M 10688,7483 L 10688,7333"/>
 <path fill="none" stroke="rgb(179,179,179)" stroke-linejoin="round" d="M 11388,7483 L 11388,7333"/>
 <path fill="none" stroke="rgb(179,179,179)" stroke-linejoin="round" d="M 11388,7483 L 11388,7333"/>
 <path fill="none" stroke="rgb(179,179,179)" stroke-linejoin="round" d="M 12088,7483 L 12088,7333"/>
 <path fill="none" stroke="rgb(179,179,179)" stroke-linejoin="round" d="M 12088,7483 L 12088,7333"/>
 <path fill="none" stroke="rgb(179,179,179)" stroke-linejoin="round" d="M 12788,7483 L 12788,7333"/>
 <path fill="none" stroke="rgb(179,179,179)" stroke-linejoin="round" d="M 12788,7483 L 12788,7333"/>
 <path fill="none" stroke="rgb(179,179,179)" stroke-linejoin="round" d="M 2291,7333 L 12788,7333"/>
 <path fill="none" stroke="rgb(179,179,179)" stroke-linejoin="round" d="M 2141,7333 L 2291,7333"/>
 <path fill="none" stroke="rgb(179,179,179)" stroke-linejoin="round" d="M 2141,7333 L 2291,7333"/>
 <path fill="none" stroke="rgb(179,179,179)" stroke-linejoin="round" d="M 2141,6354 L 2291,6354"/>
 <path fill="none" stroke="rgb(179,179,179)" stroke-linejoin="round" d="M 2141,6354 L 2291,6354"/>
 <path fill="none" stroke="rgb(179,179,179)" stroke-linejoin="round" d="M 2141,5374 L 2291,5374"/>
 <path fill="none" stroke="rgb(179,179,179)" stroke-linejoin="round" d="M 2141,5374 L 2291,5374"/>
 <path fill="none" stroke="rgb(179,179,179)" stroke-linejoin="round" d="M 2141,4394 L 2291,4394"/>
 <path fill="none" stroke="rgb(179,179,179)" stroke-linejoin="round" d="M 2141,4394 L 2291,4394"/>
 <path fill="none" stroke="rgb(179,179,179)" stroke-linejoin="round" d="M 2141,3415 L 2291,3415"/>
 <path fill="none" stroke="rgb(179,179,179)" stroke-linejoin="round" d="M 2141,3415 L 2291,3415"/>
 <path fill="none" stroke="rgb(179,179,179)" stroke-linejoin="round" d="M 2141,2435 L 2291,2435"/>
 <path fill="none" stroke="rgb(179,179,179)" stroke-linejoin="round" d="M 2141,2435 L 2291,2435"/>
 <path fill="none" stroke="rgb(179,179,179)" stroke-linejoin="round" d="M 2141,1456 L 2291,1456"/>
 <path fill="none" stroke="rgb(179,179,179)" stroke-linejoin="round" d="M 2141,1456 L 2291,1456"/>
 <path fill="none" stroke="rgb(179,179,179)" stroke-linejoin="round" d="M 2141,477 L 2291,477"/>
 <path fill="none" stroke="rgb(179,179,179)" stroke-linejoin="round" d="M 2141,477 L 2291,477"/>
 <path fill="none" stroke="rgb(179,179,179)" stroke-linejoin="round" d="M 2291,7333 L 2291,477"/>
 <path fill="none" stroke="rgb(0,69,134)" stroke-width="80" stroke-linejoin="round" d="M 2291,6657 L 2990,6298 3690,6014 4390,5617 5090,5289 5790,4973 6490,4704 7190,4281 7889,3989 8588,3690 9288,3272 9988,2963 10688,2647 11388,2221 12088,1894 12788,1558"/>
 <path fill="rgb(0,69,134)" stroke="none" d="M 2166,6532 L 2166,6781 2416,6781 2416,6532 2166,6532 Z"/>
 <path fill="none" stroke="rgb(0,69,134)" stroke-linejoin="round" d="M 2166,6532 L 2166,6781 2416,6781 2416,6532 2166,6532 Z"/>
 <path fill="rgb(0,69,134)" stroke="none" d="M 2865,6173 L 2865,6423 3115,6423 3115,6173 2865,6173 Z"/>
 <path fill="none" stroke="rgb(0,69,134)" stroke-linejoin="round" d="M 2865,6173 L 2865,6423 3115,6423 3115,6173 2865,6173 Z"/>
 <path fill="rgb(0,69,134)" stroke="none" d="M 3565,5889 L 3565,6139 3815,6139 3815,5889 3565,5889 Z"/>
 <path fill="none" stroke="rgb(0,69,134)" stroke-linejoin="round" d="M 3565,5889 L 3565,6139 3815,6139 3815,5889 3565,5889 Z"/>
 <path fill="rgb(0,69,134)" stroke="none" d="M 4265,5492 L 4265,5742 4515,5742 4515,5492 4265,5492 Z"/>
 <path fill="none" stroke="rgb(0,69,134)" stroke-linejoin="round" d="M 4265,5492 L 4265,5742 4515,5742 4515,5492 4265,5492 Z"/>
 <path fill="rgb(0,69,134)" stroke="none" d="M 4965,5164 L 4965,5414 5215,5414 5215,5164 4965,5164 Z"/>
 <path fill="none" stroke="rgb(0,69,134)" stroke-linejoin="round" d="M 4965,5164 L 4965,5414 5215,5414 5215,5164 4965,5164 Z"/>
 <path fill="rgb(0,69,134)" stroke="none" d="M 5665,4848 L 5665,5098 5915,5098 5915,4848 5665,4848 Z"/>
 <path fill="none" stroke="rgb(0,69,134)" stroke-linejoin="round" d="M 5665,4848 L 5665,5098 5915,5098 5915,4848 5665,4848 Z"/>
 <path fill="rgb(0,69,134)" stroke="none" d="M 6365,4579 L 6365,4829 6615,4829 6615,4579 6365,4579 Z"/>
 <path fill="none" stroke="rgb(0,69,134)" stroke-linejoin="round" d="M 6365,4579 L 6365,4829 6615,4829 6615,4579 6365,4579 Z"/>
 <path fill="rgb(0,69,134)" stroke="none" d="M 7065,4156 L 7065,4406 7315,4406 7315,4156 7065,4156 Z"/>
 <path fill="none" stroke="rgb(0,69,134)" stroke-linejoin="round" d="M 7065,4156 L 7065,4406 7315,4406 7315,4156 7065,4156 Z"/>
 <path fill="rgb(0,69,134)" stroke="none" d="M 7764,3864 L 7764,4114 8013,4114 8013,3864 7764,3864 Z"/>
 <path fill="none" stroke="rgb(0,69,134)" stroke-linejoin="round" d="M 7764,3864 L 7764,4114 8013,4114 8013,3864 7764,3864 Z"/>
 <path fill="rgb(0,69,134)" stroke="none" d="M 8463,3565 L 8463,3815 8713,3815 8713,3565 8463,3565 Z"/>
 <path fill="none" stroke="rgb(0,69,134)" stroke-linejoin="round" d="M 8463,3565 L 8463,3815 8713,3815 8713,3565 8463,3565 Z"/>
 <path fill="rgb(0,69,134)" stroke="none" d="M 9163,3147 L 9163,3397 9413,3397 9413,3147 9163,3147 Z"/>
 <path fill="none" stroke="rgb(0,69,134)" stroke-linejoin="round" d="M 9163,3147 L 9163,3397 9413,3397 9413,3147 9163,3147 Z"/>
 <path fill="rgb(0,69,134)" stroke="none" d="M 9863,2838 L 9863,3088 10113,3088 10113,2838 9863,2838 Z"/>
 <path fill="none" stroke="rgb(0,69,134)" stroke-linejoin="round" d="M 9863,2838 L 9863,3088 10113,3088 10113,2838 9863,2838 Z"/>
 <path fill="rgb(0,69,134)" stroke="none" d="M 10563,2522 L 10563,2772 10813,2772 10813,2522 10563,2522 Z"/>
 <path fill="none" stroke="rgb(0,69,134)" stroke-linejoin="round" d="M 10563,2522 L 10563,2772 10813,2772 10813,2522 10563,2522 Z"/>
 <path fill="rgb(0,69,134)" stroke="none" d="M 11263,2096 L 11263,2345 11513,2345 11513,2096 11263,2096 Z"/>
 <path fill="none" stroke="rgb(0,69,134)" stroke-linejoin="round" d="M 11263,2096 L 11263,2345 11513,2345 11513,2096 11263,2096 Z"/>
 <path fill="rgb(0,69,134)" stroke="none" d="M 11963,1769 L 11963,2019 12213,2019 12213,1769 11963,1769 Z"/>
 <path fill="none" stroke="rgb(0,69,134)" stroke-linejoin="round" d="M 11963,1769 L 11963,2019 12213,2019 12213,1769 11963,1769 Z"/>
 <path fill="rgb(0,69,134)" stroke="none" d="M 12663,1433 L 12663,1683 12913,1683 12913,1433 12663,1433 Z"/>
 <path fill="none" stroke="rgb(0,69,134)" stroke-linejoin="round" d="M 12663,1433 L 12663,1683 12913,1683 12913,1433 12663,1433 Z"/>
 <path fill="none" stroke="rgb(255,66,14)" stroke-width="80" stroke-linejoin="round" d="M 2291,4944 L 2990,5090 3690,4634 4390,4856 5090,4479 5790,4287 6490,3774 7190,3579 7889,3269 8588,2996 9288,2562 9988,2152 10688,1751 11388,1244 12088,906 12788,587"/>
 <path fill="rgb(255,66,14)" stroke="none" d="M 2166,4944 L 2291,5069 2416,4944 2291,4819 2166,4944 Z"/>
 <path fill="none" stroke="rgb(255,66,14)" stroke-linejoin="round" d="M 2166,4944 L 2291,5069 2416,4944 2291,4819 2166,4944 Z"/>
 <path fill="rgb(255,66,14)" stroke="none" d="M 2865,5090 L 2990,5215 3115,5090 2990,4965 2865,5090 Z"/>
 <path fill="none" stroke="rgb(255,66,14)" stroke-linejoin="round" d="M 2865,5090 L 2990,5215 3115,5090 2990,4965 2865,5090 Z"/>
 <path fill="rgb(255,66,14)" stroke="none" d="M 3565,4634 L 3690,4759 3815,4634 3690,4509 3565,4634 Z"/>
 <path fill="none" stroke="rgb(255,66,14)" stroke-linejoin="round" d="M 3565,4634 L 3690,4759 3815,4634 3690,4509 3565,4634 Z"/>
 <path fill="rgb(255,66,14)" stroke="none" d="M 4265,4856 L 4390,4981 4515,4856 4390,4731 4265,4856 Z"/>
 <path fill="none" stroke="rgb(255,66,14)" stroke-linejoin="round" d="M 4265,4856 L 4390,4981 4515,4856 4390,4731 4265,4856 Z"/>
 <path fill="rgb(255,66,14)" stroke="none" d="M 4965,4479 L 5090,4604 5215,4479 5090,4354 4965,4479 Z"/>
 <path fill="none" stroke="rgb(255,66,14)" stroke-linejoin="round" d="M 4965,4479 L 5090,4604 5215,4479 5090,4354 4965,4479 Z"/>
 <path fill="rgb(255,66,14)" stroke="none" d="M 5665,4287 L 5790,4412 5915,4287 5790,4162 5665,4287 Z"/>
 <path fill="none" stroke="rgb(255,66,14)" stroke-linejoin="round" d="M 5665,4287 L 5790,4412 5915,4287 5790,4162 5665,4287 Z"/>
 <path fill="rgb(255,66,14)" stroke="none" d="M 6365,3774 L 6490,3899 6615,3774 6490,3649 6365,3774 Z"/>
 <path fill="none" stroke="rgb(255,66,14)" stroke-linejoin="round" d="M 6365,3774 L 6490,3899 6615,3774 6490,3649 6365,3774 Z"/>
 <path fill="rgb(255,66,14)" stroke="none" d="M 7065,3579 L 7190,3704 7315,3579 7190,3454 7065,3579 Z"/>
 <path fill="none" stroke="rgb(255,66,14)" stroke-linejoin="round" d="M 7065,3579 L 7190,3704 7315,3579 7190,3454 7065,3579 Z"/>
 <path fill="rgb(255,66,14)" stroke="none" d="M 7764,3269 L 7889,3394 8013,3269 7889,3144 7764,3269 Z"/>
 <path fill="none" stroke="rgb(255,66,14)" stroke-linejoin="round" d="M 7764,3269 L 7889,3394 8013,3269 7889,3144 7764,3269 Z"/>
 <path fill="rgb(255,66,14)" stroke="none" d="M 8463,2996 L 8588,3121 8713,2996 8588,2871 8463,2996 Z"/>
 <path fill="none" stroke="rgb(255,66,14)" stroke-linejoin="round" d="M 8463,2996 L 8588,3121 8713,2996 8588,2871 8463,2996 Z"/>
 <path fill="rgb(255,66,14)" stroke="none" d="M 9163,2562 L 9288,2687 9413,2562 9288,2437 9163,2562 Z"/>
 <path fill="none" stroke="rgb(255,66,14)" stroke-linejoin="round" d="M 9163,2562 L 9288,2687 9413,2562 9288,2437 9163,2562 Z"/>
 <path fill="rgb(255,66,14)" stroke="none" d="M 9863,2152 L 9988,2276 10113,2152 9988,2027 9863,2152 Z"/>
 <path fill="none" stroke="rgb(255,66,14)" stroke-linejoin="round" d="M 9863,2152 L 9988,2276 10113,2152 9988,2027 9863,2152 Z"/>
 <path fill="rgb(255,66,14)" stroke="none" d="M 10563,1751 L 10688,1876 10813,1751 10688,1626 10563,1751 Z"/>
 <path fill="none" stroke="rgb(255,66,14)" stroke-linejoin="round" d="M 10563,1751 L 10688,1876 10813,1751 10688,1626 10563,1751 Z"/>
 <path fill="rgb(255,66,14)" stroke="none" d="M 11263,1244 L 11388,1369 11513,1244 11388,1119 11263,1244 Z"/>
 <path fill="none" stroke="rgb(255,66,14)" stroke-linejoin="round" d="M 11263,1244 L 11388,1369 11513,1244 11388,1119 11263,1244 Z"/>
 <path fill="rgb(255,66,14)" stroke="none" d="M 11963,906 L 12088,1031 12213,906 12088,781 11963,906 Z"/>
 <path fill="none" stroke="rgb(255,66,14)" stroke-linejoin="round" d="M 11963,906 L 12088,1031 12213,906 12088,781 11963,906 Z"/>
 <path fill="rgb(255,66,14)" stroke="none" d="M 12663,587 L 12788,712 12913,587 12788,462 12663,587 Z"/>
 <path fill="none" stroke="rgb(255,66,14)" stroke-linejoin="round" d="M 12663,587 L 12788,712 12913,587 12788,462 12663,587 Z"/>
 <path fill="none" stroke="rgb(255,211,32)" stroke-width="80" stroke-linejoin="round" d="M 2291,6423 L 2990,6249 3690,5992 4390,5717 5090,5331 5790,5129 6490,4619 7190,4446 7889,4208 8588,3920 9288,3505 9988,3205 10688,2889"/>
 <path fill="rgb(255,211,32)" stroke="none" d="M 2166,6298 L 2291,6548 2416,6298 2166,6298 Z"/>
 <path fill="none" stroke="rgb(255,211,32)" stroke-linejoin="round" d="M 2166,6298 L 2291,6548 2416,6298 2166,6298 Z"/>
 <path fill="rgb(255,211,32)" stroke="none" d="M 2865,6124 L 2990,6374 3115,6124 2865,6124 Z"/>
 <path fill="none" stroke="rgb(255,211,32)" stroke-linejoin="round" d="M 2865,6124 L 2990,6374 3115,6124 2865,6124 Z"/>
 <path fill="rgb(255,211,32)" stroke="none" d="M 3565,5867 L 3690,6117 3815,5867 3565,5867 Z"/>
 <path fill="none" stroke="rgb(255,211,32)" stroke-linejoin="round" d="M 3565,5867 L 3690,6117 3815,5867 3565,5867 Z"/>
 <path fill="rgb(255,211,32)" stroke="none" d="M 4265,5592 L 4390,5842 4515,5592 4265,5592 Z"/>
 <path fill="none" stroke="rgb(255,211,32)" stroke-linejoin="round" d="M 4265,5592 L 4390,5842 4515,5592 4265,5592 Z"/>
 <path fill="rgb(255,211,32)" stroke="none" d="M 4965,5206 L 5090,5456 5215,5206 4965,5206 Z"/>
 <path fill="none" stroke="rgb(255,211,32)" stroke-linejoin="round" d="M 4965,5206 L 5090,5456 5215,5206 4965,5206 Z"/>
 <path fill="rgb(255,211,32)" stroke="none" d="M 5665,5004 L 5790,5254 5915,5004 5665,5004 Z"/>
 <path fill="none" stroke="rgb(255,211,32)" stroke-linejoin="round" d="M 5665,5004 L 5790,5254 5915,5004 5665,5004 Z"/>
 <path fill="rgb(255,211,32)" stroke="none" d="M 6365,4494 L 6490,4744 6615,4494 6365,4494 Z"/>
 <path fill="none" stroke="rgb(255,211,32)" stroke-linejoin="round" d="M 6365,4494 L 6490,4744 6615,4494 6365,4494 Z"/>
 <path fill="rgb(255,211,32)" stroke="none" d="M 7065,4321 L 7190,4571 7315,4321 7065,4321 Z"/>
 <path fill="none" stroke="rgb(255,211,32)" stroke-linejoin="round" d="M 7065,4321 L 7190,4571 7315,4321 7065,4321 Z"/>
 <path fill="rgb(255,211,32)" stroke="none" d="M 7764,4083 L 7889,4333 8013,4083 7764,4083 Z"/>
 <path fill="none" stroke="rgb(255,211,32)" stroke-linejoin="round" d="M 7764,4083 L 7889,4333 8013,4083 7764,4083 Z"/>
 <path fill="rgb(255,211,32)" stroke="none" d="M 8463,3795 L 8588,4045 8713,3795 8463,3795 Z"/>
 <path fill="none" stroke="rgb(255,211,32)" stroke-linejoin="round" d="M 8463,3795 L 8588,4045 8713,3795 8463,3795 Z"/>
 <path fill="rgb(255,211,32)" stroke="none" d="M 9163,3380 L 9288,3630 9413,3380 9163,3380 Z"/>
 <path fill="none" stroke="rgb(255,211,32)" stroke-linejoin="round" d="M 9163,3380 L 9288,3630 9413,3380 9163,3380 Z"/>
 <path fill="rgb(255,211,32)" stroke="none" d="M 9863,3080 L 9988,3330 10113,3080 9863,3080 Z"/>
 <path fill="none" stroke="rgb(255,211,32)" stroke-linejoin="round" d="M 9863,3080 L 9988,3330 10113,3080 9863,3080 Z"/>
 <path fill="rgb(255,211,32)" stroke="none" d="M 10563,2764 L 10688,3014 10813,2764 10563,2764 Z"/>
 <path fill="none" stroke="rgb(255,211,32)" stroke-linejoin="round" d="M 10563,2764 L 10688,3014 10813,2764 10563,2764 Z"/>
 <path fill="none" stroke="rgb(87,157,28)" stroke-width="80" stroke-linejoin="round" d="M 2291,5552 L 2990,5584 3690,5475 4390,5301 5090,5218 5790,4997 6490,4719 7190,4390 7889,4103 8588,3796 9288,3367 9988,3019 10688,2633 11388,2128 12088,1780 12788,1436"/>
 <path fill="rgb(87,157,28)" stroke="none" d="M 2166,5677 L 2416,5677 2291,5427 2166,5677 Z"/>
 <path fill="none" stroke="rgb(87,157,28)" stroke-linejoin="round" d="M 2166,5677 L 2416,5677 2291,5427 2166,5677 Z"/>
 <path fill="rgb(87,157,28)" stroke="none" d="M 2865,5709 L 3115,5709 2990,5459 2865,5709 Z"/>
 <path fill="none" stroke="rgb(87,157,28)" stroke-linejoin="round" d="M 2865,5709 L 3115,5709 2990,5459 2865,5709 Z"/>
 <path fill="rgb(87,157,28)" stroke="none" d="M 3565,5600 L 3815,5600 3690,5350 3565,5600 Z"/>
 <path fill="none" stroke="rgb(87,157,28)" stroke-linejoin="round" d="M 3565,5600 L 3815,5600 3690,5350 3565,5600 Z"/>
 <path fill="rgb(87,157,28)" stroke="none" d="M 4265,5426 L 4515,5426 4390,5176 4265,5426 Z"/>
 <path fill="none" stroke="rgb(87,157,28)" stroke-linejoin="round" d="M 4265,5426 L 4515,5426 4390,5176 4265,5426 Z"/>
 <path fill="rgb(87,157,28)" stroke="none" d="M 4965,5343 L 5215,5343 5090,5093 4965,5343 Z"/>
 <path fill="none" stroke="rgb(87,157,28)" stroke-linejoin="round" d="M 4965,5343 L 5215,5343 5090,5093 4965,5343 Z"/>
 <path fill="rgb(87,157,28)" stroke="none" d="M 5665,5122 L 5915,5122 5790,4872 5665,5122 Z"/>
 <path fill="none" stroke="rgb(87,157,28)" stroke-linejoin="round" d="M 5665,5122 L 5915,5122 5790,4872 5665,5122 Z"/>
 <path fill="rgb(87,157,28)" stroke="none" d="M 6365,4844 L 6615,4844 6490,4594 6365,4844 Z"/>
 <path fill="none" stroke="rgb(87,157,28)" stroke-linejoin="round" d="M 6365,4844 L 6615,4844 6490,4594 6365,4844 Z"/>
 <path fill="rgb(87,157,28)" stroke="none" d="M 7065,4515 L 7315,4515 7190,4265 7065,4515 Z"/>
 <path fill="none" stroke="rgb(87,157,28)" stroke-linejoin="round" d="M 7065,4515 L 7315,4515 7190,4265 7065,4515 Z"/>
 <path fill="rgb(87,157,28)" stroke="none" d="M 7764,4228 L 8013,4228 7889,3978 7764,4228 Z"/>
 <path fill="none" stroke="rgb(87,157,28)" stroke-linejoin="round" d="M 7764,4228 L 8013,4228 7889,3978 7764,4228 Z"/>
 <path fill="rgb(87,157,28)" stroke="none" d="M 8463,3921 L 8713,3921 8588,3671 8463,3921 Z"/>
 <path fill="none" stroke="rgb(87,157,28)" stroke-linejoin="round" d="M 8463,3921 L 8713,3921 8588,3671 8463,3921 Z"/>
 <path fill="rgb(87,157,28)" stroke="none" d="M 9163,3492 L 9413,3492 9288,3242 9163,3492 Z"/>
 <path fill="none" stroke="rgb(87,157,28)" stroke-linejoin="round" d="M 9163,3492 L 9413,3492 9288,3242 9163,3492 Z"/>
 <path fill="rgb(87,157,28)" stroke="none" d="M 9863,3144 L 10113,3144 9988,2894 9863,3144 Z"/>
 <path fill="none" stroke="rgb(87,157,28)" stroke-linejoin="round" d="M 9863,3144 L 10113,3144 9988,2894 9863,3144 Z"/>
 <path fill="rgb(87,157,28)" stroke="none" d="M 10563,2758 L 10813,2758 10688,2508 10563,2758 Z"/>
 <path fill="none" stroke="rgb(87,157,28)" stroke-linejoin="round" d="M 10563,2758 L 10813,2758 10688,2508 10563,2758 Z"/>
 <path fill="rgb(87,157,28)" stroke="none" d="M 11263,2252 L 11513,2252 11388,2003 11263,2252 Z"/>
 <path fill="none" stroke="rgb(87,157,28)" stroke-linejoin="round" d="M 11263,2252 L 11513,2252 11388,2003 11263,2252 Z"/>
 <path fill="rgb(87,157,28)" stroke="none" d="M 11963,1905 L 12213,1905 12088,1655 11963,1905 Z"/>
 <path fill="none" stroke="rgb(87,157,28)" stroke-linejoin="round" d="M 11963,1905 L 12213,1905 12088,1655 11963,1905 Z"/>
 <path fill="rgb(87,157,28)" stroke="none" d="M 12663,1561 L 12913,1561 12788,1311 12663,1561 Z"/>
 <path fill="none" stroke="rgb(87,157,28)" stroke-linejoin="round" d="M 12663,1561 L 12913,1561 12788,1311 12663,1561 Z"/>
 <text class="SVGTextShape" transform="rotate(-44.9 1953 8230)"><tspan class="TextParagraph" font-family="Liberation Sans, sans-serif" font-size="353px" font-weight="400"><tspan class="TextPosition" x="1953" y="8230"><tspan fill="rgb(0,0,0)" stroke="none">100</tspan></tspan></tspan></text>
 <text class="SVGTextShape" transform="rotate(-44.9 2652 8230)"><tspan class="TextParagraph" font-family="Liberation Sans, sans-serif" font-size="353px" font-weight="400"><tspan class="TextPosition" x="2652" y="8230"><tspan fill="rgb(0,0,0)" stroke="none">250</tspan></tspan></tspan></text>
 <text class="SVGTextShape" transform="rotate(-44.9 3352 8230)"><tspan class="TextParagraph" font-family="Liberation Sans, sans-serif" font-size="353px" font-weight="400"><tspan class="TextPosition" x="3352" y="8230"><tspan fill="rgb(0,0,0)" stroke="none">500</tspan></tspan></tspan></text>
 <text class="SVGTextShape" transform="rotate(-44.9 4164 8118)"><tspan class="TextParagraph" font-family="Liberation Sans, sans-serif" font-size="353px" font-weight="400"><tspan class="TextPosition" x="4164" y="8118"><tspan fill="rgb(0,0,0)" stroke="none">1K</tspan></tspan></tspan></text>
 <text class="SVGTextShape" transform="rotate(-44.9 4649 8332)"><tspan class="TextParagraph" font-family="Liberation Sans, sans-serif" font-size="353px" font-weight="400"><tspan class="TextPosition" x="4649" y="8332"><tspan fill="rgb(0,0,0)" stroke="none">2.5K</tspan></tspan></tspan></text>
 <text class="SVGTextShape" transform="rotate(-44.9 5564 8118)"><tspan class="TextParagraph" font-family="Liberation Sans, sans-serif" font-size="353px" font-weight="400"><tspan class="TextPosition" x="5564" y="8118"><tspan fill="rgb(0,0,0)" stroke="none">5K</tspan></tspan></tspan></text>
 <text class="SVGTextShape" transform="rotate(-44.9 6124 8258)"><tspan class="TextParagraph" font-family="Liberation Sans, sans-serif" font-size="353px" font-weight="400"><tspan class="TextPosition" x="6124" y="8258"><tspan fill="rgb(0,0,0)" stroke="none">10K</tspan></tspan></tspan></text>
 <text class="SVGTextShape" transform="rotate(-44.9 6824 8258)"><tspan class="TextParagraph" font-family="Liberation Sans, sans-serif" font-size="353px" font-weight="400"><tspan class="TextPosition" x="6824" y="8258"><tspan fill="rgb(0,0,0)" stroke="none">25K</tspan></tspan></tspan></text>
 <text class="SVGTextShape" transform="rotate(-44.9 7523 8258)"><tspan class="TextParagraph" font-family="Liberation Sans, sans-serif" font-size="353px" font-weight="400"><tspan class="TextPosition" x="7523" y="8258"><tspan fill="rgb(0,0,0)" stroke="none">50K</tspan></tspan></tspan></text>
 <text class="SVGTextShape" transform="rotate(-44.9 8083 8398)"><tspan class="TextParagraph" font-family="Liberation Sans, sans-serif" font-size="353px" font-weight="400"><tspan class="TextPosition" x="8083" y="8398"><tspan fill="rgb(0,0,0)" stroke="none">100K</tspan></tspan></tspan></text>
 <text class="SVGTextShape" transform="rotate(-44.9 8783 8398)"><tspan class="TextParagraph" font-family="Liberation Sans, sans-serif" font-size="353px" font-weight="400"><tspan class="TextPosition" x="8783" y="8398"><tspan fill="rgb(0,0,0)" stroke="none">250K</tspan></tspan></tspan></text>
 <text class="SVGTextShape" transform="rotate(-44.9 9483 8398)"><tspan class="TextParagraph" font-family="Liberation Sans, sans-serif" font-size="353px" font-weight="400"><tspan class="TextPosition" x="9483" y="8398"><tspan fill="rgb(0,0,0)" stroke="none">500K</tspan></tspan></tspan></text>
 <text class="SVGTextShape" transform="rotate(-44.9 10426 8154)"><tspan class="TextParagraph" font-family="Liberation Sans, sans-serif" font-size="353px" font-weight="400"><tspan class="TextPosition" x="10426" y="8154"><tspan fill="rgb(0,0,0)" stroke="none">1M</tspan></tspan></tspan></text>
 <text class="SVGTextShape" transform="rotate(-44.9 10910 8370)"><tspan class="TextParagraph" font-family="Liberation Sans, sans-serif" font-size="353px" font-weight="400"><tspan class="TextPosition" x="10910" y="8370"><tspan fill="rgb(0,0,0)" stroke="none">2.5M</tspan></tspan></tspan></text>
 <text class="SVGTextShape" transform="rotate(-44.9 11825 8154)"><tspan class="TextParagraph" font-family="Liberation Sans, sans-serif" font-size="353px" font-weight="400"><tspan class="TextPosition" x="11825" y="8154"><tspan fill="rgb(0,0,0)" stroke="none">5M</tspan></tspan></tspan></text>
 <text class="SVGTextShape" transform="rotate(-44.9 12385 8294)"><tspan class="TextParagraph" font-family="Liberation Sans, sans-serif" font-size="353px" font-weight="400"><tspan class="TextPosition" x="12385" y="8294"><tspan fill="rgb(0,0,0)" stroke="none">10M</tspan></tspan></tspan></text>
 <text class="SVGTextShape"><tspan class="TextParagraph" font-family="Liberation Sans, sans-serif" font-size="353px" font-weight="400"><tspan class="TextPosition" x="1194" y="7454"><tspan fill="rgb(0,0,0)" stroke="none">1E+1</tspan></tspan></tspan></text>
 <text class="SVGTextShape"><tspan class="TextParagraph" font-family="Liberation Sans, sans-serif" font-size="353px" font-weight="400"><tspan class="TextPosition" x="1194" y="6474"><tspan fill="rgb(0,0,0)" stroke="none">1E+2</tspan></tspan></tspan></text>
 <text class="SVGTextShape"><tspan class="TextParagraph" font-family="Liberation Sans, sans-serif" font-size="353px" font-weight="400"><tspan class="TextPosition" x="1194" y="5494"><tspan fill="rgb(0,0,0)" stroke="none">1E+3</tspan></tspan></tspan></text>
 <text class="SVGTextShape"><tspan class="TextParagraph" font-family="Liberation Sans, sans-serif" font-size="353px" font-weight="400"><tspan class="TextPosition" x="1194" y="4514"><tspan fill="rgb(0,0,0)" stroke="none">1E+4</tspan></tspan></tspan></text>
 <text class="SVGTextShape"><tspan class="TextParagraph" font-family="Liberation Sans, sans-serif" font-size="353px" font-weight="400"><tspan class="TextPosition" x="1194" y="3536"><tspan fill="rgb(0,0,0)" stroke="none">1E+5</tspan></tspan></tspan></text>
 <text class="SVGTextShape"><tspan class="TextParagraph" font-family="Liberation Sans, sans-serif" font-size="353px" font-weight="400"><tspan class="TextPosition" x="1194" y="2556"><tspan fill="rgb(0,0,0)" stroke="none">1E+6</tspan></tspan></tspan></text>
 <text class="SVGTextShape"><tspan class="TextParagraph" font-family="Liberation Sans, sans-serif" font-size="353px" font-weight="400"><tspan class="TextPosition" x="1194" y="1576"><tspan fill="rgb(0,0,0)" stroke="none">1E+7</tspan></tspan></tspan></text>
 <text class="SVGTextShape"><tspan class="TextParagraph" font-family="Liberation Sans, sans-serif" font-size="353px" font-weight="400"><tspan class="TextPosition" x="1194" y="597"><tspan fill="rgb(0,0,0)" stroke="none">1E+8</tspan></tspan></tspan></text>
 <path fill="none" stroke="rgb(0,69,134)" stroke-width="80" stroke-linejoin="round" d="M 14057,3751 L 14857,3751"/>
 <path fill="rgb(0,69,134)" stroke="none" d="M 14351,3646 L 14351,3857 14562,3857 14562,3646 14351,3646 Z"/>
 <path fill="none" stroke="rgb(0,69,134)" stroke-linejoin="round" d="M 14351,3646 L 14351,3857 14562,3857 14562,3646 14351,3646 Z"/>
 <path fill="none" stroke="rgb(255,66,14)" stroke-width="80" stroke-linejoin="round" d="M 14057,4249 L 14857,4249"/>
 <path fill="rgb(255,66,14)" stroke="none" d="M 14351,4249 L 14457,4355 14562,4249 14457,4144 14351,4249 Z"/>
 <path fill="none" stroke="rgb(255,66,14)" stroke-linejoin="round" d="M 14351,4249 L 14457,4355 14562,4249 14457,4144 14351,4249 Z"/>
 <path fill="none" stroke="rgb(255,211,32)" stroke-width="80" stroke-linejoin="round" d="M 14057,4747 L 14857,4747"/>
 <path fill="rgb(255,211,32)" stroke="none" d="M 14351,4642 L 14457,4853 14562,4642 14351,4642 Z"/>
 <path fill="none" stroke="rgb(255,211,32)" stroke-linejoin="round" d="M 14351,4642 L 14457,4853 14562,4642 14351,4642 Z"/>
 <path fill="none" stroke="rgb(87,157,28)" stroke-width="80" stroke-linejoin="round" d="M 14057,5245 L 14857,5245"/>
 <path fill="rgb(87,157,28)" stroke="none" d="M 14351,5351 L 14562,5351 14457,5140 14351,5351 Z"/>
 <path fill="none" stroke="rgb(87,157,28)" stroke-linejoin="round" d="M 14351,5351 L 14562,5351 14457,5140 14351,5351 Z"/>
 <text class="SVGTextShape"><tspan class="TextParagraph" font-family="Liberation Sans, sans-serif" font-size="353px" font-weight="400"><tspan class="TextPosition" x="14957" y="3871"><tspan fill="rgb(0,0,0)" stroke="none">DLB</tspan></tspan></tspan></text>
 <text class="SVGTextShape"><tspan class="TextParagraph" font-family="Liberation Sans, sans-serif" font-size="353px" font-weight="400"><tspan class="TextPosition" x="14957" y="4369"><tspan fill="rgb(0,0,0)" stroke="none">CDT</tspan></tspan></tspan></text>
 <text class="SVGTextShape"><tspan class="TextParagraph" font-family="Liberation Sans, sans-serif" font-size="353px" font-weight="400"><tspan class="TextPosition" x="14957" y="4867"><tspan fill="rgb(0,0,0)" stroke="none">FAD</tspan></tspan></tspan></text>
 <text class="SVGTextShape"><tspan class="TextParagraph" font-family="Liberation Sans, sans-serif" font-size="353px" font-weight="400"><tspan class="TextPosition" x="14957" y="5365"><tspan fill="rgb(0,0,0)" stroke="none">DEL</tspan></tspan></tspan></text>
 <text class="SVGTextShape"><tspan class="TextParagraph" font-family="Liberation Sans, sans-serif" font-size="318px" font-weight="400"><tspan class="TextPosition" x="6644" y="8838"><tspan fill="rgb(0,0,0)" stroke="none">points</tspan></tspan></tspan></text>
 <text class="SVGTextShape" transform="rotate(-90 712 4974)"><tspan class="TextParagraph" font-family="Liberation Sans, sans-serif" font-size="318px" font-weight="400"><tspan class="TextPosition" x="712" y="4974"><tspan fill="rgb(0,0,0)" stroke="none">time [µs]</tspan></tspan></tspan></text>
</svg>